<svg width="209" height="209" viewBox="0 0 209 209" fill="none" xmlns="http://www.w3.org/2000/svg">
<g clip-path="url(#clip0_544_1384)">
<path d="M209 104.5C209 46.7862 162.214 2.935e-05 104.5 2.935e-05C46.7862 2.935e-05 0 46.7862 0 104.5C0 156.659 38.2141 199.891 88.1719 207.731V134.707H61.6387V104.5H88.1719V81.4774C88.1719 55.2871 103.773 40.8203 127.643 40.8203C139.076 40.8203 151.035 42.8614 151.035 42.8614V68.5782H137.858C124.876 68.5782 120.828 76.6334 120.828 84.8975V104.5H149.811L145.177 134.707H120.828V207.731C170.786 199.891 209 156.659 209 104.5Z" fill="#1877F2"/>
<path d="M145.177 134.707L149.811 104.5H120.828V84.8975C120.828 76.6334 124.876 68.5781 137.858 68.5781H151.035V42.8613C151.035 42.8613 139.076 40.8203 127.643 40.8203C103.773 40.8203 88.1719 55.287 88.1719 81.4773V104.5H61.6387V134.707H88.1719V207.731C93.4922 208.565 98.9452 209 104.5 209C110.055 209 115.508 208.565 120.828 207.731V134.707H145.177Z" fill="white"/>
</g>
<defs>
<clipPath id="clip0_544_1384">
<rect width="209" height="209" fill="white"/>
</clipPath>
</defs>
</svg>
