<svg width="300" height="300" viewBox="0 0 300 300" fill="none" xmlns="http://www.w3.org/2000/svg">
<g clip-path="url(#clip0_544_1421)">
<path d="M300 0H0V300H300V0Z" fill="#1D9BF0"/>
<path d="M115.2 226.2C185.925 226.2 224.625 167.55 224.625 116.775C224.625 115.125 224.625 113.475 224.55 111.825C232.05 106.425 238.575 99.6 243.75 91.875C236.85 94.95 229.425 96.975 221.625 97.95C229.575 93.225 235.65 85.65 238.575 76.65C231.15 81.075 222.9 84.225 214.125 85.95C207.075 78.45 197.1 73.8 186.075 73.8C164.85 73.8 147.6 91.05 147.6 112.275C147.6 115.275 147.975 118.2 148.575 121.05C116.625 119.475 88.275 104.1 69.3 80.85C66 86.55 64.125 93.15 64.125 100.2C64.125 113.55 70.95 125.325 81.225 132.225C74.925 132 69 130.275 63.825 127.425C63.825 127.575 63.825 127.725 63.825 127.95C63.825 146.55 77.1 162.15 94.65 165.675C91.425 166.575 88.05 167.025 84.525 167.025C82.05 167.025 79.65 166.8 77.325 166.35C82.2 181.65 96.45 192.75 113.25 193.05C100.05 203.4 83.475 209.55 65.475 209.55C62.4 209.55 59.325 209.4 56.325 209.025C73.275 219.825 93.525 226.2 115.2 226.2Z" fill="white"/>
</g>
<defs>
<clipPath id="clip0_544_1421">
<rect width="300" height="300" fill="white"/>
</clipPath>
</defs>
</svg>
