<svg width="300" height="302" viewBox="0 0 300 302" fill="none" xmlns="http://www.w3.org/2000/svg">
<g clip-path="url(#clip0_545_1390)">
<path fill-rule="evenodd" clip-rule="evenodd" d="M256.288 43.8046C228.091 15.5708 190.588 0.0143246 150.63 0C68.2925 0 1.28205 67.0033 1.2534 149.362C1.23908 175.691 8.12205 201.389 21.1932 224.037L0 301.447L79.1863 280.676C101.002 292.58 125.569 298.847 150.566 298.854H150.63C232.953 298.854 299.972 231.843 300 149.484C300.014 109.569 284.493 72.0456 256.288 43.8117V43.8046ZM150.63 273.628H150.58C128.305 273.622 106.453 267.633 87.3875 256.324L82.8535 253.632L35.8617 265.957L48.4028 220.14L45.4519 215.442C33.0253 195.674 26.4575 172.826 26.4718 149.37C26.5005 80.9197 82.1945 25.2256 150.681 25.2256C183.842 25.2399 215.012 38.1679 238.454 61.6387C261.897 85.1025 274.796 116.302 274.782 149.47C274.752 217.927 219.059 273.622 150.63 273.622V273.628ZM218.729 180.647C214.997 178.778 196.648 169.753 193.224 168.507C189.801 167.261 187.316 166.638 184.83 170.377C182.345 174.116 175.19 182.524 173.013 185.009C170.835 187.502 168.657 187.81 164.926 185.94C161.195 184.071 149.169 180.132 134.909 167.418C123.815 157.52 116.323 145.302 114.146 141.562C111.968 137.824 113.917 135.804 115.778 133.949C117.454 132.273 119.51 129.587 121.379 127.41C123.249 125.232 123.865 123.672 125.111 121.186C126.357 118.693 125.734 116.517 124.803 114.647C123.872 112.778 116.409 94.4058 113.293 86.9358C110.263 79.6591 107.184 80.6475 104.899 80.5257C102.722 80.4182 100.237 80.3968 97.7442 80.3968C95.2517 80.3968 91.2117 81.3279 87.7883 85.0667C84.365 88.805 74.7242 97.8367 74.7242 116.201C74.7242 134.565 88.0967 152.321 89.9658 154.813C91.835 157.306 116.287 195.001 153.724 211.173C162.627 215.019 169.582 217.318 175.003 219.037C183.942 221.881 192.078 221.48 198.51 220.52C205.68 219.446 220.592 211.488 223.7 202.772C226.808 194.055 226.808 186.577 225.878 185.023C224.947 183.469 222.454 182.531 218.723 180.662L218.729 180.647Z" fill="#25D366"/>
</g>
<defs>
<clipPath id="clip0_545_1390">
<rect width="300" height="301.667" fill="white"/>
</clipPath>
</defs>
</svg>
