<svg width="300" height="300" viewBox="0 0 300 300" fill="none" xmlns="http://www.w3.org/2000/svg">
<g clip-path="url(#clip0_545_1393)">
<path d="M300 223.87C300 225.514 299.949 229.058 299.846 231.832C299.589 238.562 299.075 247.243 298.253 251.199C297.021 257.158 295.223 262.757 292.808 267.431C289.983 272.979 286.387 277.911 282.072 282.175C277.808 286.438 272.877 290.034 267.329 292.86C262.654 295.274 257.003 297.072 250.993 298.305C247.089 299.075 238.459 299.64 231.781 299.846C229.007 299.949 225.462 300 223.819 300H76.0788C74.4349 300 70.8904 299.949 68.1164 299.846C61.387 299.589 52.7055 299.075 48.75 298.253C42.7911 297.021 37.1918 295.223 32.5171 292.808C26.9692 289.983 22.0377 286.387 17.774 282.072C13.5103 277.808 9.91438 272.877 7.08904 267.329C4.67466 262.654 2.87671 257.003 1.64384 250.993C0.873288 247.089 0.308219 238.459 0.10274 231.781C0.0513699 229.058 0 225.514 0 223.87V76.1301C0 74.4863 0.0513699 70.9418 0.15411 68.1678C0.410959 61.4384 0.924658 52.7568 1.74658 48.8014C2.97945 42.8425 4.7774 37.2432 7.19178 32.5685C10.0171 27.0205 13.613 22.089 17.8767 17.8253C22.1404 13.5616 27.0719 9.96575 32.6199 7.14041C37.2945 4.72603 42.9452 2.92808 48.9555 1.69521C52.8596 0.924658 61.4897 0.359589 68.1678 0.15411C70.9418 0.0513699 74.4863 0 76.1301 0H223.87C225.514 0 229.058 0.0513699 231.832 0.15411C238.562 0.410959 247.243 0.924658 251.199 1.74658C257.158 2.97945 262.757 4.7774 267.431 7.19178C272.979 10.0171 277.911 13.613 282.175 17.9281C286.438 22.1918 290.034 27.1233 292.86 32.6712C295.274 37.3459 297.072 42.9966 298.305 49.0069C299.075 52.911 299.64 61.5411 299.846 68.2192C299.949 70.9932 300 74.5377 300 76.1815V223.87Z" fill="url(#paint0_linear_545_1393)"/>
<path fill-rule="evenodd" clip-rule="evenodd" d="M228.904 71.8151C208.716 51.6268 181.849 40.4795 153.236 40.4795C94.2637 40.4795 46.3356 88.4589 46.2843 147.38C46.2843 166.233 51.2158 184.623 60.5651 200.805L45.411 256.233L102.123 241.387C117.74 249.914 135.308 254.384 153.236 254.384H153.288C212.209 254.384 260.188 206.404 260.24 147.483C260.24 118.87 249.092 92.0035 228.904 71.8151ZM153.288 236.301C137.312 236.301 121.644 231.986 108.031 223.921L104.795 222.021L71.1473 230.856L80.137 198.082L78.0308 194.743C69.1438 180.616 64.4178 164.229 64.4178 147.432C64.4178 98.4247 104.332 58.5617 153.339 58.5617C177.072 58.5617 199.418 67.8083 216.164 84.6062C232.962 101.404 242.209 123.75 242.158 147.483C242.106 196.438 202.243 236.301 153.288 236.301ZM202.038 169.777C199.366 168.442 186.216 161.969 183.801 161.096C181.336 160.223 179.589 159.76 177.791 162.432C175.993 165.103 170.908 171.113 169.315 172.911C167.774 174.709 166.182 174.914 163.51 173.579C160.839 172.243 152.209 169.418 142.038 160.325C134.075 153.236 128.733 144.503 127.192 141.832C125.651 139.161 127.038 137.723 128.373 136.387C129.555 135.206 131.045 133.253 132.38 131.712C133.716 130.171 134.178 129.041 135.051 127.243C135.925 125.445 135.514 123.904 134.846 122.569C134.178 121.233 128.836 108.082 126.627 102.74C124.469 97.5514 122.26 98.2192 120.616 98.1679C119.075 98.0651 117.277 98.0651 115.479 98.0651C113.682 98.0651 110.805 98.7329 108.339 101.404C105.873 104.075 98.9897 110.548 98.9897 123.699C98.9897 136.849 108.545 149.538 109.88 151.336C111.216 153.134 128.733 180.103 155.548 191.661C161.918 194.435 166.901 196.079 170.805 197.312C177.226 199.366 183.031 199.058 187.654 198.39C192.791 197.62 203.476 191.918 205.685 185.702C207.894 179.486 207.894 174.093 207.226 173.014C206.455 171.781 204.709 171.113 202.038 169.777Z" fill="white"/>
</g>
<defs>
<linearGradient id="paint0_linear_545_1393" x1="150.011" y1="300.023" x2="150.011" y2="0" gradientUnits="userSpaceOnUse">
<stop stop-color="#25CF43"/>
<stop offset="1" stop-color="#61FD7D"/>
</linearGradient>
<clipPath id="clip0_545_1393">
<rect width="300" height="300" fill="white"/>
</clipPath>
</defs>
</svg>
