<?xml version="1.0" encoding="UTF-8"?>
<!DOCTYPE svg PUBLIC "-//W3C//DTD SVG 1.1//EN" "http://www.w3.org/Graphics/SVG/1.1/DTD/svg11.dtd">
<!-- Creator: CorelDRAW 2018 (64-Bit) -->
<svg xmlns="http://www.w3.org/2000/svg" xml:space="preserve" width="121.419mm" height="121.419mm" version="1.1" style="shape-rendering:geometricPrecision; text-rendering:geometricPrecision; image-rendering:optimizeQuality; fill-rule:evenodd; clip-rule:evenodd"
viewBox="0 0 11098.71 11098.71"
 xmlns:xlink="http://www.w3.org/1999/xlink">
 <defs>
  <style type="text/css">
   <![CDATA[
    .fil4 {fill:#6B809B}
    .fil0 {fill:#1FABA8}
    .fil2 {fill:black}
    .fil1 {fill:#45279A}
    .fil3 {fill:white}
   ]]>
  </style>
 </defs>
 <g id="Layer_x0020_1">
  <metadata id="CorelCorpID_0Corel-Layer"/>
  <g id="_2471620034112">
   <circle class="fil0" cx="5549.36" cy="5549.36" r="5549.36"/>
   <g>
    <g>
     <path class="fil1" d="M3924.01 8444.75c-60.92,-13.46 -334.62,-209 -388.54,-250.83 -147.17,-114.19 -377.82,-316.25 -497.39,-466.2 -47.42,-59.47 -92.18,-109.7 -141.2,-173.91 -88.17,-115.51 -170.56,-245.1 -252.59,-387.08 -330.42,-571.95 -476.47,-1287.13 -405.51,-1957.87 3.4,-32.18 5.18,-103.46 26.46,-129.41 161.38,205.22 684.97,697.7 974.61,852.32 74.31,39.67 101.8,44.45 156.04,102.67 -31.12,84.98 -85.82,112.95 -109.19,294.42 -16.01,124.32 -6.63,253.57 28.99,364.59 101.2,315.4 379.75,462.46 539.11,667.66 67.08,86.38 80.79,175.89 90.01,306.02 17.78,250.62 1.55,528.45 -20.82,777.63zm3898.01 -466.9c-7.32,-85.11 -2.23,-257.71 15.03,-338.69 23.44,-109.96 101.22,-181.54 179.75,-262.16l125.65 -144.27c48.91,-60.14 96.98,-133.19 140.28,-210.86 229.73,-412.12 12.58,-764.38 -388.49,-835.69 -260.71,-46.36 -350.6,-47.11 -439.53,-272.52 -56.92,-144.29 -111.52,-425.55 -99.44,-596.53 29.48,-417.42 400.63,-524.91 731.5,-679.91 83.49,-39.12 165.42,-83.77 227.06,-133.02l98.59 -81.63c77.61,-40.24 232.21,11.76 274.33,43.05 42.44,31.55 110.59,349.86 122.94,408.61 170.76,811.42 23.93,1616.9 -364.33,2319.02 -72.47,131.04 -300.93,462.32 -410.08,571.83 -71.61,71.84 -142.23,161.29 -213.27,212.76zm302.21 -4529.74c-107.36,6.98 -195.23,52.95 -252.63,136.17l-25.53 33.35c-91.44,-16.71 -152.55,-77.86 -201.26,-127.36 -32.14,-32.69 -46.32,-41.45 -75,-87.34 -96.44,-154.29 -155.74,-433.22 -174.43,-620.82 67.03,35.37 244.9,171.72 306.12,227.98 98.85,90.84 389.24,349.48 422.73,438.01zm-5793.21 1254.72c55.39,-280.26 246.78,-684.89 378.18,-895.09 145.6,-232.89 186.38,-277.28 341.27,-460.04 113.87,-134.39 263.04,-277.62 402.96,-389.73 436.6,-349.8 942.18,-586.76 1518.61,-687.58 298.53,-52.22 581.06,-63.1 883.79,-35.1 227.38,21.01 193.42,11.22 194.98,116.85 2.32,156.51 -6.63,447.52 -131.69,495.8 -234.53,90.55 -860.08,-155.87 -1070.1,145.68l-226.28 404.16c-118.47,204.59 -354.25,598.33 -490.63,769.72 -138.12,-174.18 -340.84,-520.04 -652.5,-418.04 -412.61,135.04 -354.54,1048.73 -118.95,1368.07 95.3,129.19 240.88,239.49 404.65,333.72 133.39,76.76 402.47,185.49 585.37,115.15 60.73,-23.36 71.22,-43.42 113.35,-75.75 30.61,-23.48 78.54,-41.85 127.15,-53.03 211.32,-48.61 374.2,61.47 451.34,258.53 102.1,260.86 69.02,494.95 337.11,770.65 39.1,40.19 54.78,55.73 101.97,87.21 38.11,25.41 71.32,43.8 116.56,63.55 356.25,155.5 413.02,-22.29 523.65,214.86 150.6,322.89 7.36,554.96 -261.23,730.03 -519.57,338.67 -594.49,378.26 -965.24,881.19 -44.89,60.91 -217.15,250.26 -274.6,284.31 -52.44,31.07 -346.99,-106.59 -404.64,-125.49 15.24,-410.31 125.21,-1046.64 -84.26,-1374.17 -153.76,-240.41 -432.7,-371.04 -524.26,-619.74 -35.28,-95.81 -35.42,-241.24 4.02,-331.29 59.05,-134.79 232.66,-218.94 -50.48,-513.74 -49.45,-51.48 -165.07,-87.16 -246.02,-141.01 -84.42,-56.16 -141.03,-102.05 -216.9,-161.45 -37.61,-29.45 -69.61,-56.14 -106.28,-91.72 -19.93,-19.33 -34.8,-26.86 -54.49,-45l-425.64 -420.62c-61.33,-68.16 -123.72,-125.69 -180.79,-200.89zm3425.67 -1529.12c531.55,0.77 606.08,-389.66 597.13,-848.46 125.78,4.17 626.93,207.68 715.83,270.18 32.14,195.53 37.27,363.23 83.13,558.08 39.39,167.31 102.28,329.81 186.76,452.92 108.22,157.72 386.42,379.23 627.51,298.81 116.91,-38.99 124.54,-82.79 162.05,-152.55 74.74,-5.46 241.79,51.16 279.72,99.15 23.51,29.75 118.47,207.55 132.48,253.17 -145.38,-10.63 -244.65,18.99 -336.69,91.72 -139.85,110.52 -78.64,81.13 -261.42,171.16 -200.12,98.57 -403.37,176.29 -557.06,298.31 -408.44,324.3 -392.06,811.58 -236.08,1291.06 75.14,230.97 190.61,393.17 397.88,466.69 185.84,65.91 573.65,27.18 518.4,326.95 -40.88,221.75 -338.94,479.46 -403.27,560.65 -192.97,243.58 -154.19,605.04 -126.98,903.58 -97.33,96.35 -463.44,299.9 -586.84,354.83 -130.44,58.05 -265.29,87.88 -295.94,181.59 -30.15,92.16 38.13,254.24 231.17,177.15 343.97,-137.36 623.87,-303 903.88,-519.18 42.96,-33.16 85.49,-69.27 128.7,-105.58 25.27,-21.24 36.5,-36.12 61.33,-55.53l295.95 -298.7c230.87,-276.21 394.52,-483.45 562.5,-851.22 1135.72,-2486.66 -678.41,-5182.14 -3278.25,-5182.14 -2018.23,0 -3641.98,1616.87 -3641.98,3624.01 0,2018.49 1634.54,3641.53 3623.97,3641.95 103.24,0.03 237.02,-14.4 224.77,-164.99 -19.1,-234.65 -347.34,-79.64 -797.6,-193.44 33.43,-45.95 83.07,-87.78 103.54,-114.33 167.48,-217.4 299.09,-408.88 509.5,-589.15 238.25,-204.11 518.77,-301.45 742.24,-563.7 135.12,-158.59 197.16,-438.8 130.21,-695.72 -156.35,-600 -497.76,-391 -780.03,-543.69 -206.94,-111.93 -246.74,-385.14 -296.63,-577.31 -83.3,-320.76 -291.79,-618.04 -691.57,-617.45 -355.58,0.52 -391.88,179.97 -510.77,163.17 -166.06,-23.49 -347.54,-145.82 -448.71,-226.6 -131.3,-104.83 -197.84,-206.53 -230.07,-445.91 -23.99,-178.25 -33.05,-462.49 81.81,-574.91 189.09,6.89 295.23,455.8 540.68,475.51 150.28,12.07 237.36,-135.03 296.93,-216.23 156.24,-213.02 453.5,-700.86 580.66,-941.27 101.48,-191.91 78.46,-223.45 292.74,-217.04 156.75,4.69 310.23,34.21 468.42,34.44z"/>
     <path class="fil2" d="M6064.91 8980.65c13.08,188.9 315.98,172.29 301.44,-25.31 -13.98,-189.96 -315.45,-176.97 -301.44,25.31z"/>
     <path class="fil1" d="M5486.16 8874.25c0,0 854.74,15.73 1261.35,-218.48l149.52 97.86 -46.33 186.54c0,0 -470.67,231.65 -1310.15,242.15l-54.4 -308.07z"/>
    </g>
    <path class="fil3" d="M5598.18 6617.57c-45.24,-19.75 -78.46,-38.15 -116.55,-63.57 -47.18,-31.47 -62.86,-47 -101.96,-87.2 -268.09,-275.7 -235.02,-509.78 -337.11,-770.65 -77.15,-197.06 -240.03,-307.13 -451.35,-258.53 -48.61,11.18 -96.55,29.54 -127.15,53.03 -42.13,32.33 -52.61,52.4 -113.35,75.75 -182.91,70.35 -451.97,-38.38 -585.36,-115.15 -163.77,-94.23 -309.35,-204.54 -404.66,-333.72 -235.58,-319.34 -293.66,-1233.03 118.95,-1368.08 311.66,-101.98 514.38,243.86 652.5,418.06 136.36,-171.4 372.17,-565.14 490.63,-769.73l226.27 -404.15c210.03,-301.55 835.58,-55.14 1070.1,-145.7 125.07,-48.27 134.02,-339.28 131.7,-495.8 -1.56,-105.61 32.4,-95.81 -194.99,-116.85 -302.73,-27.99 -585.25,-17.1 -883.78,35.1 -576.43,100.83 -1082,337.79 -1518.61,687.59 -139.93,112.11 -289.11,255.34 -402.96,389.73 -154.89,182.76 -195.68,227.15 -341.26,460.03 -131.42,210.22 -322.79,614.84 -378.19,895.11 57.07,75.19 119.46,132.72 180.79,200.88l425.64 420.62c19.69,18.14 34.56,25.67 54.49,45 36.68,35.59 68.67,62.27 106.28,91.71 75.87,59.42 132.48,105.3 216.89,161.46 80.95,53.85 196.57,89.53 246.03,141.01 283.14,294.8 109.53,378.95 50.48,513.75 -39.43,90.04 -39.31,235.48 -4.02,331.28 91.56,248.7 370.51,379.32 524.26,619.74 209.47,327.53 99.5,963.86 84.25,1374.16 57.66,18.91 352.21,156.57 404.65,125.51 57.46,-34.06 229.7,-223.39 274.6,-284.33 370.74,-502.93 445.69,-542.51 965.24,-881.19 268.59,-175.07 411.83,-407.13 261.22,-730.02 -110.62,-237.15 -167.39,-59.35 -523.65,-214.86z"/>
    <path class="fil4" d="M8445.37 7193.26c388.26,-702.13 535.09,-1507.6 364.34,-2319.01 -12.37,-58.77 -80.51,-377.07 -122.94,-408.62 -42.13,-31.3 -196.73,-83.29 -274.33,-43.05l-98.59 81.63c-61.63,49.25 -143.57,93.9 -227.06,133.03 -330.87,154.99 -702.03,262.49 -731.5,679.91 -12.08,170.98 42.52,452.23 99.45,596.52 88.92,225.41 178.79,226.17 439.52,272.52 401.06,71.31 618.21,423.58 388.49,835.68 -43.29,77.68 -91.36,150.73 -140.28,210.88l-125.65 144.27c-78.53,80.6 -156.31,152.2 -179.75,262.14 -17.27,80.98 -22.35,253.59 -15.02,338.7 71.03,-51.47 141.66,-140.93 213.26,-212.76 109.14,-109.52 337.6,-440.79 410.08,-571.83z"/>
    <path class="fil4" d="M8124.24 3448.11c-33.5,-88.52 -323.87,-347.16 -422.73,-438 -61.22,-56.26 -239.09,-192.62 -306.12,-227.98 18.68,187.6 77.99,466.53 174.43,620.81 28.67,45.9 42.86,54.66 75,87.34 48.71,49.51 109.82,110.66 201.27,127.37l25.52 -33.35c57.4,-83.23 145.27,-129.18 252.63,-136.18z"/>
    <path class="fil3" d="M8445.37 7193.26c388.26,-702.13 535.09,-1507.6 364.34,-2319.01 -12.37,-58.77 -80.51,-377.07 -122.94,-408.62 -42.13,-31.3 -196.73,-83.29 -274.33,-43.05l-98.59 81.63c-61.63,49.25 -143.57,93.9 -227.06,133.03 -330.87,154.99 -702.03,262.49 -731.5,679.91 -12.08,170.98 42.52,452.23 99.45,596.52 88.92,225.41 178.79,226.17 439.52,272.52 401.06,71.31 618.21,423.58 388.49,835.68 -43.29,77.68 -91.36,150.73 -140.28,210.88l-125.65 144.27c-78.53,80.6 -156.31,152.2 -179.75,262.14 -17.27,80.98 -22.35,253.59 -15.02,338.7 71.03,-51.47 141.66,-140.93 213.26,-212.76 109.14,-109.52 337.6,-440.79 410.08,-571.83z"/>
    <path class="fil3" d="M8124.24 3448.11c-33.5,-88.52 -323.87,-347.16 -422.73,-438 -61.22,-56.26 -239.09,-192.62 -306.12,-227.98 18.68,187.6 77.99,466.53 174.43,620.81 28.67,45.9 42.86,54.66 75,87.34 48.71,49.51 109.82,110.66 201.27,127.37l25.52 -33.35c57.4,-83.23 145.27,-129.18 252.63,-136.18z"/>
   </g>
  </g>
 </g>
</svg>
