<?xml version="1.0" encoding="UTF-8"?>
<!DOCTYPE svg PUBLIC "-//W3C//DTD SVG 1.1//EN" "http://www.w3.org/Graphics/SVG/1.1/DTD/svg11.dtd">
<!-- Creator: CorelDRAW 2018 (64-Bit) -->
<svg xmlns="http://www.w3.org/2000/svg" xml:space="preserve" width="121.419mm" height="121.419mm" version="1.1" style="shape-rendering:geometricPrecision; text-rendering:geometricPrecision; image-rendering:optimizeQuality; fill-rule:evenodd; clip-rule:evenodd"
viewBox="0 0 12141.9 12141.9"
 xmlns:xlink="http://www.w3.org/1999/xlink">
 <defs>
  <style type="text/css">
   <![CDATA[
    .fil0 {fill:#1FABA8}
    .fil1 {fill:#45279A}
    .fil2 {fill:white}
   ]]>
  </style>
 </defs>
 <g id="Layer_x0020_1">
  <metadata id="CorelCorpID_0Corel-Layer"/>
  <g id="_2471607441440">
   <circle class="fil0" cx="6070.95" cy="6070.95" r="6070.95"/>
   <g>
    <g>
     <path class="fil1" d="M8709.63 6338.12l243.84 -14.75 -0.22 464.33 -243.1 -24.75 -0.52 -424.83zm-1425 2589.79c-61.26,81.02 34.59,29.58 -117.86,50.6l-4512.4 -4.35c-41.82,-184.28 -35.55,-1977.22 -9.11,-2226.62 96.7,-912.14 820.13,-840.97 1429.62,-813.42 139.84,13.28 47.35,-1.81 81.06,48.01 192.42,56.28 285.03,265.42 776.5,283.56 -5.5,7.15 -13.94,15.27 -18,20.25 -92.27,113.29 -79.36,100.01 -80.8,205.15 -2.91,218.43 -15.27,750.76 55.61,873.82l151.65 -5.05c114.02,-177.31 30.2,-520.79 56.27,-775.91 16.01,-156.73 217.4,-275.59 416.87,-432.25 267.26,-209.84 197.81,-210.5 621.51,-213.15 865.67,-5.39 1155.42,92.78 1155.42,1365.59 -0.04,428.7 46.1,1250.64 -6.34,1623.77zm1576.5 -2871.72c-286.4,2.36 -348.61,22.79 -567.3,-317.86 -167.87,-261.46 -122.25,-391.23 -122.14,-744.71 0.37,-1311.23 -106.13,-1285.27 435.38,-1279.74 476.5,-2.69 765.11,-73.53 890.05,145.26 -200.32,29.17 -883.41,-87.51 -886.69,136.12 -2.99,204.16 551.44,131.32 892.41,131.21l-2.99 117.79c-191.14,66.86 -699.76,-94.45 -689.73,155.29 6.01,149.8 140.73,121.74 290.31,119.6 135.71,-1.92 271.46,-1.11 407.2,-1.11 -7.3,164.33 28.92,108.75 -91.27,129.26 -82.61,14.05 -426.6,-42.82 -600.52,39.57l12.94 175.24c91.09,44.18 236.94,39.87 366.94,37.51 320.17,-5.75 310.77,-26.81 312.06,62.76 1.62,114.81 -302.66,71.47 -499.81,69.89 -147.25,-1.18 -385.67,-45.77 -393.6,119.41 -10.06,209.28 582.09,142.42 893.93,138.11 -1.37,266.59 -66.05,383.45 -191.33,543.32 -143.38,182.95 -134.42,224.99 -455.84,223.08zm350.34 280.05c46.2,-95.74 66.34,-87.33 142.2,-153.64 509.76,-445.59 418.19,-888.13 412.66,-1501.23 -10.62,-1182.16 103,-1225.45 -945.48,-1225.45 -1014.99,0.04 -905.87,61.88 -905.87,1256.69 0,546.72 -92.19,926.85 282.75,1341.29 315.41,348.68 247.08,11.43 271.64,962.77l257.81 23.64c0,303.58 46.77,1320.75 -42.74,1531.14 -67.82,159.42 -214.81,357.38 -395.14,392.42 -130.04,25.26 -606.17,18.84 -740.85,-2.55 -1.4,-531.44 0.37,-1063.23 0.37,-1594.75 0,-512.9 13.06,-962.22 -262.86,-1305.96 -317.45,-395.44 -600.82,-379.14 -1212.81,-380.36 -112.89,-0.22 -289.79,-18.81 -391.13,15.82 -41.49,14.2 -673.43,629.18 -1292.87,106.95 -240.22,-202.54 -313.65,-121.81 -845.17,-123.1 -532.22,-1.25 -822.78,188.23 -1009.16,553.28 -211.46,414.18 -153.86,908.08 -153.86,1414.38 0,1753.15 -157.03,1584.94 538.68,1584.65l4964.51 0c391.39,0.26 650.68,-14.16 844.8,-240.67 199.4,-232.73 257.04,-440.47 256.12,-844.39 -0.85,-364.76 -0.11,-729.63 0.7,-1091.11l220.35 -59.08 5.35 -660.74z"/>
     <path class="fil1" d="M4792.86 5483.95c-670.63,-75.75 -1234.31,-660.41 -1225.87,-1396.24 8.15,-710.6 561.51,-1305.66 1225.87,-1367.36 820.57,-179.26 1577.16,612.03 1570.11,1399.56 -6.93,770.64 -732.69,1514.87 -1570.11,1364.04zm113.51 -3039.78c-918.16,60.7 -1639.34,767.25 -1596.34,1738.24 39.49,891.27 791.29,1616.26 1721.91,1575.99 898.93,-38.91 1627.05,-780.31 1588.07,-1733.23 -35.73,-872.87 -804.27,-1641.15 -1713.64,-1581z"/>
    </g>
    <path class="fil2" d="M6362.97 4119.91c7.04,-787.53 -749.54,-1578.83 -1570.12,-1399.57 -664.35,61.71 -1217.7,656.77 -1225.85,1367.37 -8.45,735.83 555.23,1320.5 1225.85,1396.23 837.43,150.85 1563.19,-593.39 1570.12,-1364.03z"/>
   </g>
  </g>
 </g>
</svg>
