<?xml version="1.0" encoding="UTF-8"?>
<!DOCTYPE svg PUBLIC "-//W3C//DTD SVG 1.1//EN" "http://www.w3.org/Graphics/SVG/1.1/DTD/svg11.dtd">
<!-- Creator: CorelDRAW 2018 (64-Bit) -->
<svg xmlns="http://www.w3.org/2000/svg" xml:space="preserve" width="121.419mm" height="121.419mm" version="1.1" style="shape-rendering:geometricPrecision; text-rendering:geometricPrecision; image-rendering:optimizeQuality; fill-rule:evenodd; clip-rule:evenodd"
viewBox="0 0 11098.71 11098.71"
 xmlns:xlink="http://www.w3.org/1999/xlink">
 <defs>
  <style type="text/css">
   <![CDATA[
    .str0 {stroke:#45279A;stroke-width:6.97;stroke-miterlimit:2.61313}
    .fil2 {fill:none}
    .fil0 {fill:#1FABA8}
    .fil4 {fill:#161616}
    .fil3 {fill:#181818}
    .fil1 {fill:#45279A}
    .fil5 {fill:white}
   ]]>
  </style>
 </defs>
 <g id="Layer_x0020_1">
  <metadata id="CorelCorpID_0Corel-Layer"/>
  <g id="_2471617811776">
   <circle class="fil0" cx="5549.36" cy="5549.36" r="5549.36"/>
   <g>
    <g>
     <path class="fil1" d="M3251.63 3296.99c223.76,1.5 466.34,31.07 613.78,-50.02 -2.39,-260.73 -102.85,-202.39 -352.53,-198.88 -172.9,2.44 -340.7,-6.69 -489.55,21.39 -58.12,303.78 -43.61,6132.11 8.04,6315.03 290.5,62.47 4553.65,61.81 4935.67,7.29 46.84,-408.4 40.57,-570.21 -9.41,-971.32l-185.16 0.51c-64.34,188.06 -34.73,490.81 -32.94,734.79l-4487.48 1.78 -0.42 -5860.57z"/>
     <path class="fil1" d="M5964.26 2769.87c190.96,51.05 613.41,5.57 751.73,520.39l-2440.77 -3.51c104.44,-431.34 357.08,-435.51 753.7,-509.62 7.16,-40.62 -192.04,-884.53 501.52,-847.24 606.39,32.57 417.96,761.74 433.81,839.98zm-1213.71 -201.35c-261.76,40.38 -461.48,158.02 -565.26,316.18 -105.38,160.54 -219.41,409.99 -156.61,632.07 186.42,55.88 2709.96,56.9 2936.48,6.69 120.35,-473.3 -307.85,-896.97 -724.78,-959.07 4.68,-1198.08 -1494.56,-1197.33 -1489.84,4.12z"/>
     <path class="fil2" d="M5352.77 2584.15c-60.08,-174.45 -70.84,-269.63 139.35,-348.19 304.57,93.87 257.21,433.17 -139.35,348.19zm611.49 185.71c-15.86,-78.24 172.58,-807.41 -433.81,-839.98 -693.56,-37.29 -494.36,806.61 -501.52,847.24 -396.62,74.11 -649.26,78.28 -753.7,509.62l2440.77 3.51c-138.32,-514.82 -560.77,-469.34 -751.73,-520.39z"/>
     <path class="fil1" d="M7136.84 3052.17c-56.15,364.98 260.08,232.09 589.17,253.28 41.65,284.18 13.7,1823.39 12.26,2312.27 -0.89,301.53 -98.97,571.01 229.52,532.17 47.96,-225.49 47.17,-2838.82 1.73,-3086.92l-832.68 -10.8z"/>
     <path class="fil3" d="M3767.15 4527.97c94.15,12.59 3209.57,68.69 3377.74,1.36 154.1,-61.72 149.37,-236.87 -107.67,-236.87l-2892.08 0.09c-266.99,0.37 -418.56,-62.38 -377.99,235.41z"/>
     <path class="fil4" d="M3767.85 5556.48c-26.81,192.51 -2.58,237.38 218.8,237.38l3050.56 0.33c301.03,-0.37 264.71,-251.46 0,-251.46l-3129.79 0 -139.58 13.76z"/>
     <path class="fil3" d="M4184.54 8288.29c202.85,-2.06 496.24,36.36 646.07,-43.46 317.77,-328.72 -1024.07,-198.59 -1064.5,-193.07 -44.17,304.11 138.69,239.35 418.42,236.54z"/>
     <path class="fil3" d="M3769.53 7021.51c1524.7,115.11 1143.95,-235.46 890.61,-235.46 -721.31,0 -942.26,-86.38 -890.61,235.46z"/>
     <path class="fil1 str0" d="M5352.77 2584.15c396.57,84.97 443.92,-254.33 139.35,-348.19 -210.19,78.57 -199.43,173.74 -139.35,348.19z"/>
     <rect class="fil1" transform="matrix(0 0.447861 -0.521279 0 7998.68 8418.76)" width="2190.98" height="508.22"/>
     <rect class="fil1" transform="matrix(0 1.42253 -0.521279 0 7998.68 3062.97)" width="2190.98" height="508.22"/>
     <g>
      <path class="fil3" d="M6531.11 7726.03c-246.08,-136.26 -455.81,-621.64 -767.49,-533.53 -39.21,244.31 718.36,841.94 718.97,841.99 120.35,8.89 1004.12,-937.54 1203.42,-1134.07 140.28,-138.32 325.58,-234.3 282.3,-469.56 -213.66,-26.49 -272.33,106.13 -398.53,234.57 -231.02,235.18 -932.44,900.95 -1038.66,1060.6z"/>
      <path class="fil3" d="M6292.7 6438.71c0,0 0,0 0,0z"/>
      <rect class="fil3" transform="matrix(0.342694 0.38603 -0.449311 0.398871 5908.7 7060.49)" width="2190.98" height="508.22"/>
      <polygon class="fil5" points="5680.35,7263.21 6440.53,8148.6 8112.96,6533.18 7890.6,6310.83 6503.26,7698.17 5908.7,7060.49 "/>
     </g>
     <rect class="fil1" x="3749.45" y="8021.78" width="1129.54" height="274.13"/>
     <rect class="fil1" x="3749.45" y="6783.82" width="1146.34" height="274.13"/>
     <rect class="fil1" x="3749.45" y="5537.1" width="3523.49" height="274.13"/>
     <rect class="fil1" x="3749.45" y="4292.51" width="3523.49" height="274.13"/>
    </g>
    <circle class="fil1" cx="5502.54" cy="2416.83" r="240.92"/>
   </g>
  </g>
 </g>
</svg>
