<?xml version="1.0" encoding="UTF-8"?>
<!DOCTYPE svg PUBLIC "-//W3C//DTD SVG 1.1//EN" "http://www.w3.org/Graphics/SVG/1.1/DTD/svg11.dtd">
<!-- Creator: CorelDRAW 2018 (64-Bit) -->
<svg xmlns="http://www.w3.org/2000/svg" xml:space="preserve" width="121.419mm" height="121.419mm" version="1.1" style="shape-rendering:geometricPrecision; text-rendering:geometricPrecision; image-rendering:optimizeQuality; fill-rule:evenodd; clip-rule:evenodd"
viewBox="0 0 11098.71 11098.71"
 xmlns:xlink="http://www.w3.org/1999/xlink">
 <defs>
  <style type="text/css">
   <![CDATA[
    .fil0 {fill:#1FABA8}
    .fil2 {fill:black}
    .fil3 {fill:black}
    .fil1 {fill:#45279A}
    .fil4 {fill:white}
   ]]>
  </style>
 </defs>
 <g id="Layer_x0020_1">
  <metadata id="CorelCorpID_0Corel-Layer"/>
  <g id="_2471289263840">
   <circle class="fil0" cx="5549.36" cy="5549.36" r="5549.36"/>
   <g>
    <g>
     <path class="fil1" d="M6940.88 8670.38c175.54,-73.32 260.96,184.63 102.35,248.92 -159.77,64.77 -271.9,-178.09 -102.35,-248.92zm-651.33 -356.52c143.39,-53.78 266.22,43.81 303.12,143.58 52.4,141.65 -38.95,272.89 -143.15,308.87 -298.16,102.91 -470.52,-335.97 -159.96,-452.45zm1292.96 -0.48c171.35,-54.51 229.27,205.14 83.67,255.03 -173.53,59.45 -273,-194.78 -83.67,-255.03zm591.32 -173.45c-79.39,-31.75 -112.78,-23.08 -170.47,-77.03 -48.71,-45.56 -78.67,-90.43 -127.31,-128.82 -201.73,-159.2 -347.42,-74.13 -502.9,83.48 -188.41,190.99 -367.5,139.01 -520.05,-25.31 -316.5,-340.95 -523.08,23.49 -638.42,98.48 -144.71,94.1 -286.03,34.63 -379.64,-45.16 -81.29,-69.28 -142.81,-191.86 -317.31,-190.44 -14.7,271.78 74.42,526.08 205.92,743.29 44.95,74.27 89.49,119.56 137.49,180.45 175.17,222.15 526.29,397.99 835.72,435.02 548.43,65.62 1020.03,-194.33 1293.94,-609.43 65.49,-99.27 175.61,-320.98 183.05,-464.54z"/>
     <path class="fil1" d="M7260.1 4797.52l-4.07 1693.12c303.65,69.85 604.75,307.07 782.74,551.96 191.26,263.16 315.83,643.81 254.63,1054.93 -100.56,675.56 -679.32,1237.26 -1434.17,1236.81 -1218.85,-0.72 -1841.98,-1382.88 -1178.99,-2291.11 178.63,-244.69 475.24,-483.96 782.04,-552.55l0.08 -1548.07c80.88,-9.66 342.29,9.73 390.86,-10.53 49.84,-20.78 60.27,-104.4 -2.82,-128.1 -85.41,-32.06 -478.8,40.3 -573.66,-42.73 -93.09,-81.48 -36.25,-231.2 79.42,-245.71l810.93 -1.75c128.23,0 279.85,-22.5 315.17,99.41 19.66,67.83 -11.85,125.9 -45.75,153.18 -43.92,35.37 -110.67,32.25 -176.42,31.15zm-937.87 141.13l0.25 1446.54c-150.92,89.28 -208.07,65.28 -451.53,253.47 -442.89,342.34 -680.49,937.09 -577.39,1527.25 124.4,712.03 755.18,1309.69 1565.67,1310.11 804.91,0.4 1440.93,-595.74 1564.52,-1300.7 76.71,-437.55 -24.13,-845.12 -229.84,-1154.62 -53.92,-81.14 -98.76,-137.81 -153.99,-205.39 -83.78,-102.54 -283.54,-251.47 -401.84,-316.18 -38.93,-21.3 -72.19,-39.31 -115.61,-58.86 -40.27,-18.14 -94.85,-36.44 -126.42,-55.16l-0.04 -1446.41c47.74,-21.82 91.02,-29.99 130.08,-62.71 37.78,-31.65 64.43,-65.26 82.83,-111.65 43.1,-108.68 6,-231.9 -50.73,-299.6 -107.31,-128.08 -485.39,-90.69 -698.97,-90.69 -208.8,0 -583.38,-35.38 -693.76,85.74 -56.78,62.3 -98.73,184.22 -58.06,296.38 41.32,113.97 109.99,134.45 214.83,182.48z"/>
     <path class="fil1" d="M6454.81 2695.57c-320.12,170.07 -650.92,321.19 -971.27,486.9 -322.08,166.58 -656.08,324.44 -986.68,491.76l-1469.45 736.66c-96.14,48.39 -171.32,87.98 -301.36,62.62 -48.31,-9.43 -97.59,-31.97 -131.44,-53.15 -217.75,-136.15 -209.79,-478.35 -29.22,-604.96 115.03,-80.65 347.59,-181.96 487.21,-251.86 233.63,-116.96 2846.52,-1440.71 2951.45,-1475.13 46.77,83.36 107.41,239.5 155.64,306.17 39.63,54.79 125.84,32.88 120.01,-40.48 -5.45,-68.54 -219.14,-388.24 -208.44,-482.54 14.81,-130.58 185.79,-165.76 259.54,-27.96 108.56,202.81 205.39,411.31 308.29,615.53 41.33,82.01 152.69,239.05 83.62,330.93 -30.64,40.76 -98.15,73.53 -167.24,40.23 -55.13,-26.56 -63.46,-83.11 -100.67,-134.74zm-511.32 -733.58l-3277.26 1646.31c-108.82,54.5 -158.96,76 -230.03,149.73 -127.96,132.74 -197.05,345.41 -93.6,565.49 71.93,153.02 235.59,297.85 473.5,290.17 164.67,-5.32 408.69,-152.7 542.81,-220.33 337.98,-170.44 672.8,-338.2 1011.56,-507.22 340.63,-169.98 672.57,-344.15 1012.46,-506.5 336.83,-160.89 669.19,-346.34 1014.5,-506.26 40.82,27.86 50.2,55.72 114.21,82.89 147.61,62.61 332.25,-18.63 364.63,-195.99 22.15,-121.33 -48.5,-217.06 -90.36,-304.58 -45.42,-94.96 -89.97,-179.87 -136.77,-273.68 -59.81,-119.86 -203.74,-454.43 -295.87,-514.44 -161.35,-105.13 -441.68,-32.89 -409.77,294.42z"/>
     <path class="fil2" d="M6828.44 3063.46c-66.7,79.22 -264.19,486.11 -310.02,599.74 -48.63,120.54 -88.76,227.69 -23.53,356.25 119.07,234.64 435.81,254.86 579.43,45.91 81.67,-118.84 68.73,-216.44 24.19,-362.28 -37.01,-121.14 -211.14,-565.49 -270.07,-639.62z"/>
     <path class="fil2" d="M6850.91 5228.94c-59.55,108.35 -127.91,250.71 -173.79,379.05 -155.95,436.31 516.16,434.27 356.05,-2.46 -29.16,-79.52 -136.55,-323.34 -182.27,-376.59z"/>
     <path class="fil2" d="M6917.72 7272.49c-109.47,28.33 -203.29,135.08 -169.46,280.05 24.8,106.27 140.57,198.88 276.5,167.06 298.91,-69.97 183.14,-522.18 -107.04,-447.11z"/>
     <path class="fil2" d="M6041.27 7502.16c-219.83,79.75 -98.25,392.8 114.37,314.02 195.96,-72.61 91.36,-388.67 -114.37,-314.02z"/>
     <path class="fil3" d="M4644.16 3337.15c23.11,-81.66 -31.81,-155.28 -93.25,-175.22 -80.7,-26.22 -160.51,20.41 -182.29,86.77 -63.67,194.11 222.36,276.22 275.54,88.45z"/>
     <path class="fil2" d="M7701.26 7419.13c-127.83,50.43 -51.87,233.54 74.54,180.77 110.42,-46.09 46.13,-228.38 -74.54,-180.77z"/>
     <path class="fil3" d="M5112.48 2962.91c-100.84,30.71 -57.21,185.06 47.74,153.59 95.06,-28.49 56.6,-185.37 -47.74,-153.59z"/>
     <path class="fil3" d="M4718.6 2999.33c-19.79,12.15 -64.12,37.32 -32.47,98.73 19.34,37.56 62.52,49.72 99.23,33.75 88.05,-38.33 28.59,-190.97 -66.76,-132.48z"/>
     <path class="fil3" d="M5382.5 2826.14l28.81 26.8c101.87,17.37 132.09,-66 83.92,-111.97 -54.42,-51.92 -128.24,-9.23 -112.73,85.17z"/>
    </g>
    <path class="fil4" d="M4644.15 3337.15c23.12,-81.66 -31.8,-155.28 -93.24,-175.22 -80.71,-26.23 -160.52,20.41 -182.29,86.78 -63.68,194.1 222.36,276.21 275.52,88.44z"/>
    <path class="fil4" d="M7074.32 4065.35c81.68,-118.83 68.73,-216.43 24.18,-362.26 -37,-121.15 -211.14,-565.5 -270.07,-639.63 -66.69,79.22 -264.18,486.11 -310.01,599.74 -48.62,120.54 -88.76,227.69 -23.52,356.25 119.05,234.63 435.81,254.87 579.42,45.9z"/>
    <path class="fil4" d="M7033.18 5605.54c-29.16,-79.52 -136.56,-323.34 -182.28,-376.59 -59.53,108.35 -127.89,250.71 -173.79,379.05 -155.94,436.31 516.18,434.27 356.06,-2.46z"/>
    <path class="fil4" d="M7024.76 7719.59c298.91,-69.97 183.14,-522.18 -107.03,-447.1 -109.48,28.32 -203.3,135.07 -169.46,280.04 24.8,106.28 140.56,198.88 276.49,167.06z"/>
    <path class="fil4" d="M6155.65 7816.18c195.95,-72.61 91.34,-388.67 -114.38,-314.02 -219.83,79.74 -98.25,392.79 114.38,314.02z"/>
    <path class="fil4" d="M7775.82 7599.9c110.41,-46.08 46.12,-228.38 -74.54,-180.78 -127.83,50.44 -51.87,233.55 74.54,180.78z"/>
    <path class="fil4" d="M4785.36 3131.81c88.06,-38.34 28.6,-190.96 -66.76,-132.47 -19.78,12.14 -64.11,37.31 -32.47,98.72 19.35,37.56 62.54,49.73 99.23,33.75z"/>
    <path class="fil4" d="M5160.23 3116.5c95.06,-28.49 56.58,-185.37 -47.75,-153.58 -100.84,30.7 -57.21,185.06 47.75,153.58z"/>
    <path class="fil4" d="M5411.3 2852.93c101.88,17.38 132.09,-65.99 83.94,-111.96 -54.43,-51.92 -128.25,-9.23 -112.75,85.16l28.81 26.8z"/>
   </g>
  </g>
 </g>
</svg>
