<?xml version="1.0" encoding="UTF-8"?>
<!DOCTYPE svg PUBLIC "-//W3C//DTD SVG 1.1//EN" "http://www.w3.org/Graphics/SVG/1.1/DTD/svg11.dtd">
<!-- Creator: CorelDRAW 2018 (64-Bit) -->
<svg xmlns="http://www.w3.org/2000/svg" xml:space="preserve" width="121.419mm" height="121.419mm" version="1.1" style="shape-rendering:geometricPrecision; text-rendering:geometricPrecision; image-rendering:optimizeQuality; fill-rule:evenodd; clip-rule:evenodd"
viewBox="0 0 11098.71 11098.71"
 xmlns:xlink="http://www.w3.org/1999/xlink">
 <defs>
  <style type="text/css">
   <![CDATA[
    .fil0 {fill:#1FABA8}
    .fil1 {fill:#45279A}
    .fil2 {fill:white}
   ]]>
  </style>
 </defs>
 <g id="Layer_x0020_1">
  <metadata id="CorelCorpID_0Corel-Layer"/>
  <g id="_2471613167120">
   <circle class="fil0" cx="5549.36" cy="5549.36" r="5549.36"/>
   <g>
    <g>
     <path class="fil1" d="M3249.52 8261.3c102.78,-242.89 1155.75,-445.3 1518.81,-468.74 57.97,88.32 115.83,132.45 178.4,197.5 64.35,66.9 116.32,130.81 180.3,199.3 63.71,68.21 128.47,120.1 193.05,185.95 57.29,58.44 105.03,144.94 230.29,144.84 187.92,-0.12 329.8,-246.68 422.05,-332.32l359.4 -395.83c339.19,17.08 1377.52,187.98 1517.45,455.18 -118.93,179.51 -727.66,325.32 -1013.71,381.95 -752.49,148.98 -1822.24,143.39 -2574.72,5.19 -327.68,-60.18 -847.55,-189.96 -1011.33,-373.02zm2300.81 -419.03c-75.17,-40.72 -245.56,-240.08 -315.19,-315.34l-734.07 -811.6c-48.54,-50.64 -95.38,-115.91 -140.03,-166.36 -351.9,-397.65 -812.93,-976.8 -938.06,-1526.43 -329.93,-1449.18 797.47,-2691.37 2141.94,-2682.76 1455.67,9.31 2438.92,1382.51 2126.73,2697.4 -109.77,462.24 -401.34,838.56 -680.55,1185.35 -48.95,60.79 -86.87,109.96 -136.04,170.49 -49.39,60.84 -95.36,106.09 -140.53,165.39 -176,231.07 -469.4,521.83 -658.51,741.26l-218.96 233.3c-66.36,72.6 -236.69,264.18 -306.72,309.31zm-295.4 1440.28l603.8 0c54.87,-18.86 575.74,-46.14 694.98,-60.35 216.44,-25.77 439.76,-65.64 644.43,-114.74 395.75,-94.97 843,-267.99 1032.31,-498.94 331.31,-404.23 45.83,-768.87 -268.06,-950.41 -306.25,-177.11 -765.77,-305.63 -1170.79,-363.06l531.65 -643.62c634.04,-784.34 1082.57,-1511.08 889.93,-2598.99 -204.51,-1155.01 -1104.16,-2016.15 -2243.12,-2203.33 -70.46,-11.58 -214.83,-15.42 -267.42,-32.93l-304.97 0c-49.17,16.21 -198.26,21.95 -266.02,32.21 -579.6,87.81 -971.13,316.88 -1400.99,670.9 -177.52,146.19 -385.41,411.73 -526.01,655.45 -525.07,910.17 -456.45,1949.49 65.04,2788.63 164.71,265.02 556.72,769.24 772.15,1007.09l271.15 314.25c-105.81,57.32 -1318.32,176.73 -1549.31,756.76 -247.01,620.26 620.63,943.12 1138.73,1066.12 208.17,49.42 436.48,91.34 656.81,115.67 116.07,12.83 642.56,41.65 695.69,59.29z"/>
     <path class="fil1" d="M5446.64 3865.4c391.6,-66.03 709.54,223.61 758.7,547.76 60.62,399.98 -220.39,711.49 -545.81,762.33 -873.49,136.52 -1082.57,-1163.46 -212.89,-1310.09zm-25.38 -523.28c-612.93,73.22 -1126.75,611.2 -1048.64,1314.74 66.87,602.3 622.4,1124.19 1315.27,1041.88 605.54,-71.93 1119.61,-610.31 1042.36,-1314.18 -65.78,-599.34 -620.39,-1124.71 -1309,-1042.45z"/>
    </g>
    <path class="fil2" d="M5659.53 5175.5c325.43,-50.86 606.43,-362.36 545.81,-762.34 -49.16,-324.15 -367.1,-613.8 -758.7,-547.77 -869.68,146.63 -660.6,1446.61 212.89,1310.11z"/>
   </g>
  </g>
 </g>
</svg>
