<?xml version="1.0" encoding="UTF-8"?>
<!DOCTYPE svg PUBLIC "-//W3C//DTD SVG 1.1//EN" "http://www.w3.org/Graphics/SVG/1.1/DTD/svg11.dtd">
<!-- Creator: CorelDRAW 2018 (64-Bit) -->
<svg xmlns="http://www.w3.org/2000/svg" xml:space="preserve" width="121.419mm" height="121.419mm" version="1.1" style="shape-rendering:geometricPrecision; text-rendering:geometricPrecision; image-rendering:optimizeQuality; fill-rule:evenodd; clip-rule:evenodd"
viewBox="0 0 11098.71 11098.71"
 xmlns:xlink="http://www.w3.org/1999/xlink">
 <defs>
  <style type="text/css">
   <![CDATA[
    .fil0 {fill:#1FABA8}
    .fil3 {fill:#181818}
    .fil1 {fill:#45279A}
    .fil2 {fill:white}
   ]]>
  </style>
 </defs>
 <g id="Layer_x0020_1">
  <metadata id="CorelCorpID_0Corel-Layer"/>
  <g id="_2471617797792">
   <circle class="fil0" cx="5549.36" cy="5549.36" r="5549.36"/>
   <g>
    <g>
     <path class="fil1" d="M5123.93 2483.28c-158.76,14.49 -414.75,105.6 -526.74,105.26 -33.36,34.76 -103.3,50.83 -154.66,68.42l-461.93 219.47c-81.17,70.8 -231.49,150.75 -327.02,226.01 -84.02,66.17 -220.71,208.96 -296.87,249.66l-6.05 6.12c-32.72,59.85 -132.28,156.34 -183.68,217.21 -40.35,47.78 -130.41,186.06 -172.52,207.63 -10.27,47.3 -33.2,68.13 -59.12,112.83 -27.16,43.65 -51.61,95.17 -87.94,120.94 -2.61,39.69 -164.91,354.42 -193.29,443.67l-15.71 59.81 603.19 -2.01c7.42,-77.5 123.37,-271.06 175.12,-336.25 25.86,-53.86 66.91,-116.16 111.77,-149.03l21.33 -39.36c34.38,-82.21 327.96,-365.83 411.56,-408.68 7.26,-36.1 5.15,-28.48 47,-35.55 40.47,-68.89 141.56,-115.49 210.16,-161.32 143.39,-68.63 429.13,-247.29 578.19,-255.21 49.37,-31.93 133.79,-50.81 198.12,-59.34 95.05,-19.5 225.01,-58.6 317.72,-38.14 38.41,-23.54 24.9,-15.75 77.9,-18.42l339.89 0.23 167.71 22.43c196.15,19.81 344.65,71.29 527.83,129.12 69.48,25.28 167.16,50.29 211.88,101.82 53.67,5.1 121.55,42.23 161.44,74.67l54.91 43.25c170.12,27.5 821.56,670.73 841.84,836.19l37.8 45.94c50.58,68.64 99.18,161.17 122.92,245l-370.17 0.2 -118.61 7.6 61.9 111.26c63.46,96.16 397.31,658.88 409.09,730.91 42.6,31.23 75.47,99.93 95.89,154.58l14.18 23.31 107.41 183.79 99.42 168.62c76.33,-48.26 143.51,-301.46 238.56,-371.5 8.49,-63.54 212.85,-391.5 260.3,-473.54 29.24,-62.51 126.69,-233.86 169.11,-279.43l133.55 -249.92 -152.73 -4.94 -338.27 4.52 -69.26 -184.31c-98.81,-173.46 -161.42,-344.6 -285.94,-521.2 -57.04,-80.87 -350.06,-428.18 -358.24,-447.92l-39.25 -32.44c-102.87,-72.54 -204.36,-187.22 -321.1,-270.93 -56.92,-40.81 -332.53,-214.43 -350.99,-235.82l-414.24 -186.28 -278.92 -88.9 -339.07 -68.38 -214.01 -22.54 -122.8 -11.55 -246.37 -7.82c-44.21,32.82 -227.65,28.47 -302.16,40.25z"/>
     <path class="fil1" d="M2862.85 5330.58c-4.96,46.77 -236.9,447.45 -268.66,472.11 -22.55,81.89 -304.99,573.4 -358.11,615.36 -7.17,50.06 -57.88,141.3 -94.65,169.36 22.5,33.48 -15.59,32.09 116.59,30.61l387.85 0.47 55.7 140.72c23.27,48.63 42.2,77.26 45.99,129.38 41.17,36.27 78.51,113.03 100.01,170.03 131.82,232.2 324.41,498.12 507.23,669.1 104.96,104.22 205.55,191.81 325.21,286.84 75.82,60.22 314.61,201.41 350.1,240.02l164.01 84 39.88 17.94c63.63,18.93 149.34,47.41 194.87,93.88 66.72,-3.44 199.42,54.77 271.24,78.88 52.9,10.1 126.22,20.04 160.1,53.16l92.33 9.5 128.29 22.51c92.41,5.68 187.22,21.06 279.86,28.04 101.84,7.64 209.61,-6.22 308.6,13.18 40.9,-29.63 223.78,-30.45 293.14,-35.82 67.99,-9.7 141.34,-33.16 208.03,-24.1 13.99,-21.63 -24.6,-12.84 33.26,-19.29 67.37,-13.12 128.97,-40.45 192.5,-37.27 38.7,-33.51 136.66,-59.53 194.29,-68.28 31.62,-18.23 455.94,-206.43 470.09,-207.7 32.88,-44.1 98.95,-75.33 152.46,-97.21l79.17 -54.26 185.1 -132.47 146.26 -133.33 72.22 -54.96c16.4,-36.25 56.59,-78.34 92.84,-93.74 19.51,-45.9 84.33,-114.47 124.96,-140.12 11.12,-37.18 17.52,-46.85 52.18,-62.41 5.83,-17.76 256.59,-397.67 283.56,-432.08l102.17 -206.12c12.34,-49.39 -1.03,-15.19 23.69,-28.17 3.35,-52.18 56.38,-170.38 84.28,-219.13 -29.77,-49.11 22.99,-25.89 -72.35,-34.09 -6.01,-0.51 -61.99,2.36 -73.73,2.63l-459.47 2.3c-4.14,53.76 -109.63,256.46 -148.18,286.46 -80.89,231.56 -608.04,744.12 -837.78,841.93 -74.53,65.78 -382.25,219.64 -476.69,221.8 -71.07,67.92 -314.01,106.06 -421.25,118.59 -58.64,14.99 -127.59,28.04 -185.07,14.77 -40.94,24.93 -25.75,16.5 -82.69,17.96l-449.43 -11.85 -165.16 -29.4c-78.38,-7.07 -402.38,-86.88 -456.82,-131.13 -66.8,-15.42 -159.48,-47.72 -201.67,-95.76 -170.69,-17.34 -562.84,-369.92 -685.37,-489.02 -114.31,-111.13 -463.04,-541.82 -474.05,-687.2l-6.01 -20.34 463.2 -4.26 -98.01 -189.86 -412.39 -685.58 -230.32 -423.43c-26.2,-33.69 -30.42,-32.5 -36.01,-71.37 -67.66,32.03 -23.99,43.71 -87.4,88.19z"/>
    </g>
    <g>
     <circle class="fil2" cx="5646.72" cy="5589.04" r="1369.84"/>
     <g>
      <path class="fil3" d="M5413.38 5905.86c-157.09,-86.98 -290.97,-396.83 -489.94,-340.58 -25.03,155.95 458.58,537.45 458.96,537.49 76.83,5.68 640.99,-598.49 768.21,-723.95 89.55,-88.3 207.84,-149.56 180.2,-299.75 -136.38,-16.91 -173.84,67.74 -254.41,149.74 -147.47,150.13 -595.22,575.13 -663.03,677.04z"/>
      <path class="fil3" d="M5261.18 5084.1c0,0 0,0 0,0z"/>
      <rect class="fil3" transform="matrix(0.218761 0.246424 -0.28682 0.254622 5016.06 5481.01)" width="2190.98" height="508.22"/>
      <polygon class="fil1" points="4870.29,5610.42 5355.55,6175.61 6423.16,5144.41 6281.22,5002.46 5395.6,5888.08 5016.06,5481.01 "/>
     </g>
    </g>
   </g>
  </g>
 </g>
</svg>
