<?xml version="1.0" encoding="UTF-8"?>
<!DOCTYPE svg PUBLIC "-//W3C//DTD SVG 1.1//EN" "http://www.w3.org/Graphics/SVG/1.1/DTD/svg11.dtd">
<!-- Creator: CorelDRAW 2018 (64-Bit) -->
<svg xmlns="http://www.w3.org/2000/svg" xml:space="preserve" width="121.419mm" height="121.419mm" version="1.1" style="shape-rendering:geometricPrecision; text-rendering:geometricPrecision; image-rendering:optimizeQuality; fill-rule:evenodd; clip-rule:evenodd"
viewBox="0 0 11098.71 11098.71"
 xmlns:xlink="http://www.w3.org/1999/xlink">
 <defs>
  <style type="text/css">
   <![CDATA[
    .fil0 {fill:#1FABA8}
    .fil3 {fill:#1C1C1C}
    .fil1 {fill:#45279A}
    .fil4 {fill:#767676}
    .fil2 {fill:#FEFEFE}
   ]]>
  </style>
 </defs>
 <g id="Layer_x0020_1">
  <metadata id="CorelCorpID_0Corel-Layer"/>
  <g id="_2471611043440">
   <circle class="fil0" cx="5549.36" cy="5549.36" r="5549.36"/>
   <g>
    <path class="fil1" d="M7540.51 4388.51c408.99,-48.09 737.19,279.96 759.91,652.15 6.76,110.66 -11.76,215.85 -48.46,308.57 -48.59,122.78 -132.94,230.81 -230.81,304.88 -32.57,24.66 -69.01,46.84 -109.68,66.87 -78.28,38.58 -160.14,77.03 -239.5,113.48 -70.7,32.47 -56.39,30.73 -127.36,-5.58 -115.83,-59.25 -247.64,-106.52 -347.14,-182.34 -113.03,-86.13 -230.96,-244.97 -262.66,-449.96 -65.89,-426.08 240.93,-765.19 605.69,-808.09zm-4128.98 -0.07c409.78,-48.14 736.38,280 759.56,652.45 6.78,109.11 -12.23,216.28 -48.46,307.79 -49.01,123.76 -132.24,230.12 -230.73,305.03 -81.75,62.19 -251.67,135.83 -349.04,180.51 -70.93,32.56 -56,31.37 -127.28,-5.09 -114.18,-58.4 -247.1,-108.18 -346.79,-182.66 -113.77,-85.01 -230.28,-243.79 -263.03,-448.92 -68.11,-426.55 241.76,-766.35 605.78,-809.12zm2079.48 1156.27c-95.46,-40.12 -188.72,-89.81 -282.82,-133.8 -101.44,-47.42 -185.06,-105.5 -247.41,-168.81 -515.59,-523.54 -161.42,-1434.48 567.7,-1435.82 456.61,-0.84 822.78,386.48 815.5,849.19 -1.89,119.94 -31.73,247.54 -76.97,341.43 -174.61,362.37 -397.93,390.04 -698.05,550.06 39.63,20.99 106.63,39.87 152.38,56.59 53.83,19.67 104.53,36.65 158.17,56.12 293.87,106.66 524.78,315.83 692.43,574.69 112.87,174.3 195.97,355.3 261.55,582.79 32.36,112.27 56.03,230.5 71.82,352.36 18.25,140.9 11.76,262.1 20.19,402.29l461.91 0.15c33.59,-166.5 -40.97,-625.42 -86.34,-806.39 -89.79,-358.06 -235.15,-598.08 -246.88,-641.37 91.88,-90.46 342.9,-168.48 480.85,-218.61 97.9,-35.58 73.21,-29.64 168.53,3.96 114.63,40.4 227.14,76.84 332.23,127.74 282.4,136.82 509.65,440.96 631.95,754.96 68.83,176.69 112.94,368.34 130.07,563.37 5.95,67.71 1.72,154.73 10.39,216.34l267.24 -0.19c20.37,-131.39 -30.72,-455.19 -62.51,-582.76 -76.08,-305.29 -221.65,-637.77 -427.11,-858.53l-119.19 -126.61c-67.33,-60.62 -150.27,-118.19 -225.55,-170.99 58.25,-55.02 129.42,-135.65 172.1,-202.65 421.11,-661.1 -36.12,-1519.54 -791.94,-1525.62 -673.52,-5.43 -1102.08,659.89 -926.27,1262.93 28.34,97.21 68.46,183.6 118.33,259.73 40.86,62.37 124.08,169.09 173.71,198.11 -12.42,20.48 -98.79,74.73 -120.84,92.14l-114.82 92.8c-17.43,-15.9 -42.5,-54.44 -57.64,-74.38l-122.68 -142.05c-21.13,-23.03 -40.06,-41.83 -63.36,-62.63 -45.96,-41.01 -87.95,-78.26 -140.17,-118.34l-151.61 -107 113.24 -106.34c664.67,-801.66 83.13,-1879.05 -806.97,-1872.76 -509.46,3.6 -873.45,352.03 -1009.11,724.69 -123.07,338.07 -76.91,737.12 128.55,1032.44 33.03,47.47 104.34,134.91 146.99,174.4 19.16,17.72 40.41,28.31 55.54,56.23 -69.78,26.44 -242.2,165.36 -285.82,213.05l-233.24 262.63c-18.88,-10.3 -33.81,-26.7 -52.42,-41.12l-160.96 -115.5c29.21,-32.85 65.08,-63.6 91.09,-95.95 572.19,-711.85 50.55,-1632.12 -716.67,-1633.1 -756.95,-0.97 -1224.96,857.52 -799.64,1527.1 43.07,67.82 76.83,106.06 127,156.6 27.88,28.08 31.31,21.31 44.25,48.75 -53.74,21.22 -147.45,102.51 -190.5,136.59 -147.78,117.02 -331.42,382.85 -414.1,550.31 -138.82,281.17 -256.53,730.53 -231.13,1047.78l269.46 -0.95c6.91,-70.87 3.61,-149.04 10.25,-223.19 5.95,-66.56 15.38,-135.02 27.58,-198.5 63.25,-329.65 216.84,-679.97 453.27,-908.91 217.3,-210.39 396.86,-254.26 674.85,-353.04 37.92,-13.46 48.61,-2.35 84.72,10.88 153.92,56.4 358.89,113.82 474.6,207.31 -10.69,34.51 -56.35,113.82 -75.58,152.61 -72.83,146.86 -139.53,339.84 -180.42,499.98 -50.02,195.86 -117.72,605.84 -89.18,814.02l461.91 -0.16c7.26,-57.88 1.05,-148.14 4.37,-212.31 9.5,-184.3 39.52,-369.79 88.99,-544.88 115.01,-407 335.55,-777.28 676.33,-1013.09 226.47,-156.7 537.41,-213.69 587.84,-256.74z"/>
    <circle class="fil2" cx="5549.36" cy="6643.83" r="696.53"/>
    <g>
     <polygon class="fil1" points="5647.63,6151.74 5452.97,6152.12 5454.31,6541.47 5645.76,6540.72 "/>
     <polygon class="fil1" points="5453.6,7134.65 5647.63,7135.2 5645.76,6746.23 5454.28,6745.48 "/>
     <polygon class="fil1" points="6040.55,6739.25 6040.78,6546.67 5651.38,6547.79 5652.13,6738.2 "/>
     <polygon class="fil1" points="5058.13,6739.25 5447.36,6738.56 5446.61,6548.73 5058.13,6547.69 "/>
     <polygon class="fil1" points="5453.6,6739.25 5651.18,6739.25 5645.15,6739.25 5645.15,6547.69 5453.4,6547.69 "/>
     <path class="fil3" d="M5453.4 6547.69l191.76 0 0 191.56 6.02 0 -197.58 0 -0.2 -191.56zm-394.98 -5.83l-0.29 5.83 388.49 1.04 0.75 189.83 -389.24 0.69 0.29 5.84 389.21 0.08 0.17 389.13 5.8 0.36 0.69 -389.17 191.48 0.75 1.86 388.97 3.57 0.19 0.09 -390.18 388.91 -0.17 0.35 -5.8 -388.42 -1.04 -0.75 -190.41 389.4 -1.12 -0.13 -4.87 -389.33 -0.1 -0.12 -390.15 -3.57 0.19 -1.86 388.98 -191.45 0.75 -1.33 -389.34 -5.26 0.2 -0.05 389.4 -389.25 0.14z"/>
     <path class="fil4" d="M6040.55 6739.25l-0.35 5.8c15.01,-11.25 6.52,-78.87 6.52,-98.67 0,-22.38 5.72,-86.56 -6.07,-104.58l0.13 4.87 -0.23 192.58z"/>
     <path class="fil4" d="M5058.42 6745.09l-0.29 -5.84 0 -191.56 0.29 -5.83c-14.93,11.39 -6.4,79 -6.4,98.7 0,17.45 0.1,34.92 -0.01,52.36 -0.14,21.33 -3.88,39.78 6.41,52.17z"/>
     <path class="fil4" d="M5651.2 7135.39l-3.57 -0.19 -194.03 -0.55 -5.8 -0.36c7.92,10.57 10.32,6.92 46.27,6.56l104.75 -0.03c20.75,0.11 37.14,3.4 52.38,-5.44z"/>
     <path class="fil4" d="M5452.97 6152.12l194.65 -0.38 3.57 -0.19c-7.93,-4.59 2.56,-3.68 -17.26,-5.63l-186.23 6.41 5.26 -0.2z"/>
    </g>
   </g>
  </g>
 </g>
</svg>
