<?xml version="1.0" encoding="UTF-8"?>
<!DOCTYPE svg PUBLIC "-//W3C//DTD SVG 1.1//EN" "http://www.w3.org/Graphics/SVG/1.1/DTD/svg11.dtd">
<!-- Creator: CorelDRAW 2018 (64-Bit) -->
<svg xmlns="http://www.w3.org/2000/svg" xml:space="preserve" width="121.419mm" height="121.419mm" version="1.1" style="shape-rendering:geometricPrecision; text-rendering:geometricPrecision; image-rendering:optimizeQuality; fill-rule:evenodd; clip-rule:evenodd"
viewBox="0 0 11098.71 11098.71"
 xmlns:xlink="http://www.w3.org/1999/xlink">
 <defs>
  <style type="text/css">
   <![CDATA[
    .fil0 {fill:#1FABA8}
    .fil1 {fill:#45279A}
    .fil2 {fill:whitesmoke}
    .fil3 {fill:white}
   ]]>
  </style>
 </defs>
 <g id="Layer_x0020_1">
  <metadata id="CorelCorpID_0Corel-Layer"/>
  <g id="_2471362393328">
   <circle class="fil0" cx="5549.36" cy="5549.36" r="5549.36"/>
   <g>
    <g>
     <path class="fil1" d="M3076.02 3684.47c-122.76,-115.16 -236.12,-634.68 90.81,-450.29 52.61,175.14 -28.94,329.2 -90.81,450.29zm-136.24 5043.66l256.61 -1.12c1.52,-348.45 -23.4,-4660.05 11.4,-4779.11 44.56,-152.34 209.38,-236.53 238.91,-564.45 59.87,-665.16 -1034.73,-606.17 -693.38,268.06 54.56,139.71 115.11,172.47 155.28,247.32 71.11,132.65 25.59,4449.44 31.17,4829.3z"/>
     <g>
      <path class="fil1" d="M8141.18 8758.65c-36.31,4.3 -1186.05,0.95 -1219.3,0.95l-913.38 -0.67c-60.82,-0.26 -250.53,4.29 -296.25,-10.05 -1.58,-55.55 32.27,-187.3 48.42,-239.53 34.51,-111.52 127.08,-297.07 194.45,-384.69 71.18,-92.56 201.45,-220.87 300.24,-282.65 211.99,-132.59 406.08,-200.42 677.66,-196.05 329.31,5.29 608.25,118.69 829.87,333.4 95.38,92.41 171.37,189.86 245.79,333.76 32.57,62.97 58.46,133.62 82.28,207.09 14.11,43.51 52.02,193.67 50.22,238.44zm-1277.63 -2604.75c83.51,-11.41 196.54,8.71 269.23,34.54 210.98,74.97 392.89,268.61 411.74,521.53 16.25,218.26 -45.97,344.4 -145.94,470.76 -75.75,95.75 -227.76,193.61 -404.78,215.82 -189.81,23.82 -363.97,-54.21 -467.81,-144.37 -102.88,-89.33 -205.55,-256.3 -212.96,-406.97 -11.16,-226.96 36.66,-341.05 143.76,-476.39 39.77,-50.25 105.7,-103.68 171.34,-140.58 69.08,-38.84 144.45,-61.93 235.42,-74.35zm-434.36 1335.51c-570.25,191.74 -984,738.27 -988.63,1375.54 -0.34,47.53 -0.23,70.32 27.63,98.49 58.25,58.92 94.34,42.37 206.15,42.39l2610.19 -3.41c61.17,0.03 58.99,0.69 94.06,-32.23 67.16,-63.04 13.98,-342.85 -6.24,-430.58 -40.8,-177.03 -132.47,-371.47 -234.31,-512.1 -107.33,-148.2 -225.95,-268.48 -381.13,-368.9 -51.77,-33.5 -98.84,-61.81 -155.9,-93 -46.68,-25.52 -123.64,-60.23 -175.41,-76.95l22.18 -21.15c8.54,-6.66 14.75,-12.57 24.18,-20.31 274.32,-225.38 400.72,-598.04 281.45,-950.66 -60.35,-178.41 -181.77,-320.98 -294.66,-407.38 -139.72,-106.91 -290.93,-175.92 -521.97,-182.72 -373.27,-10.97 -708.02,236.03 -827.61,578.93 -40.61,116.46 -44.83,172.19 -43.97,307.75 0.8,125.87 13.56,191.96 54.95,296.85 51.85,131.42 119.21,223.38 213.68,313.5l95.37 85.92z"/>
      <path class="fil2" d="M8141.18 8758.65c1.8,-44.77 -36.11,-194.93 -50.22,-238.44 -23.82,-73.47 -49.71,-144.12 -82.28,-207.09 -74.42,-143.9 -150.4,-241.35 -245.79,-333.76 -221.62,-214.71 -500.56,-328.11 -829.87,-333.4 -271.58,-4.37 -465.68,63.46 -677.66,196.05 -98.79,61.78 -229.06,190.09 -300.24,282.65 -67.38,87.62 -159.95,273.17 -194.45,384.69 -16.15,52.22 -50,183.98 -48.42,239.53 45.72,14.34 235.43,9.8 296.25,10.05l913.38 0.67c33.25,0 1182.99,3.35 1219.3,-0.95z"/>
      <path class="fil2" d="M6863.54 6153.89c-90.97,12.42 -166.34,35.51 -235.42,74.35 -65.64,36.9 -131.57,90.33 -171.34,140.58 -107.09,135.34 -154.92,249.44 -143.76,476.39 7.41,150.67 110.08,317.63 212.96,406.97 103.84,90.16 278,168.19 467.81,144.37 177.02,-22.21 329.03,-120.07 404.78,-215.82 99.97,-126.36 162.19,-252.51 145.94,-470.76 -18.85,-252.92 -200.76,-446.56 -411.74,-521.53 -72.7,-25.83 -185.72,-45.95 -269.23,-34.54z"/>
     </g>
     <path class="fil1" d="M4846.6 3886.91l248.37 3.14 6.65 2041.21 -242.22 2.07 -12.8 -2046.43zm-257.49 95.78l-0.39 2206.59 496.24 2.31c58.79,249.19 47.16,2114.55 -46.91,2287.41 -140.27,257.81 -513.3,375.03 -789.96,133.45 -241.31,-210.73 -171.44,-633.8 -171.44,-1018.87 0,-1576.14 -0.36,-3152.31 0.28,-4728.49l1025.04 1.52 -8.21 763.65 -504.73 -1.19 0.07 353.62zm-768.11 -1632.1l1537.91 13.24 -1.59 244.21 -1532.21 -12.63 -4.1 -244.81zm-255.18 484.68c9.84,4.07 23,-1.32 27.98,9.17 5.06,10.64 20.16,6.89 27.39,8.25 7.49,1.4 19.41,5.18 28.89,6.58l169.8 5.98 -0.24 5167.21c-4.35,1073.55 893.23,1181.57 1344.79,708.13 186.9,-195.98 195.55,-370.01 194.79,-673.93l-0.36 -5202.14c40.97,0.25 103.31,3.95 142.69,-0.68l87.26 -19.33c6.69,-1.67 17.93,-5.17 26.31,-9.24l0.75 -744.52 -2047.26 2.47 -2.79 742.05z"/>
    </g>
    <polygon class="fil3" points="5101.62,5931.27 5094.96,3890.06 4846.6,3886.91 4859.4,5933.34 "/>
    <polygon class="fil3" points="5357.32,2608.04 5358.91,2363.83 3821,2350.59 3825.1,2595.4 "/>
   </g>
  </g>
 </g>
</svg>
