<?xml version="1.0" encoding="UTF-8"?>
<!DOCTYPE svg PUBLIC "-//W3C//DTD SVG 1.1//EN" "http://www.w3.org/Graphics/SVG/1.1/DTD/svg11.dtd">
<!-- Creator: CorelDRAW 2018 (64-Bit) -->
<svg xmlns="http://www.w3.org/2000/svg" xml:space="preserve" width="121.419mm" height="121.419mm" version="1.1" style="shape-rendering:geometricPrecision; text-rendering:geometricPrecision; image-rendering:optimizeQuality; fill-rule:evenodd; clip-rule:evenodd"
viewBox="0 0 11098.71 11098.71"
 xmlns:xlink="http://www.w3.org/1999/xlink">
 <defs>
  <style type="text/css">
   <![CDATA[
    .fil0 {fill:#1FABA8}
    .fil1 {fill:#45279A}
   ]]>
  </style>
 </defs>
 <g id="Layer_x0020_1">
  <metadata id="CorelCorpID_0Corel-Layer"/>
  <g id="_2471363202528">
   <circle class="fil0" cx="5549.36" cy="5549.36" r="5549.36"/>
   <path class="fil1" d="M7755.14 3956.44c453.07,-53.27 816.66,310.13 841.83,722.46 7.49,122.58 -13.03,239.12 -53.67,341.82 -53.84,136.02 -147.28,255.68 -255.69,337.75 -36.08,27.31 -76.45,51.88 -121.5,74.08 -86.73,42.74 -177.41,85.34 -265.32,125.71 -78.31,35.97 -62.46,34.04 -141.08,-6.18 -128.32,-65.63 -274.34,-117.99 -384.56,-201.99 -125.2,-95.42 -255.85,-271.36 -290.97,-498.45 -72.99,-472.02 266.9,-847.68 670.97,-895.2zm-4574.05 -0.08c453.96,-53.33 815.76,310.19 841.43,722.78 7.51,120.88 -13.55,239.6 -53.69,340.97 -54.29,137.09 -146.49,254.92 -255.6,337.91 -90.56,68.89 -278.8,150.47 -386.67,199.97 -78.58,36.06 -62.04,34.74 -141,-5.65 -126.48,-64.69 -273.74,-119.85 -384.17,-202.35 -126.03,-94.18 -255.1,-270.07 -291.39,-497.31 -75.44,-472.53 267.83,-848.96 671.08,-896.33zm2303.63 1280.91c-105.74,-44.44 -209.06,-99.49 -313.3,-148.22 -112.38,-52.54 -205,-116.88 -274.08,-187.01 -571.17,-579.98 -178.81,-1589.11 628.9,-1590.6 505.84,-0.93 911.48,428.15 903.41,940.73 -2.09,132.86 -35.16,274.23 -85.27,378.24 -193.43,401.42 -440.82,432.07 -773.3,609.34 43.91,23.25 118.13,44.18 168.81,62.7 59.63,21.79 115.8,40.6 175.21,62.18 325.55,118.15 581.34,349.88 767.06,636.64 125.05,193.08 217.09,393.59 289.74,645.61 35.85,124.37 62.08,255.35 79.57,390.35 20.21,156.07 13.03,290.35 22.37,445.64l511.7 0.16c37.21,-184.45 -45.38,-692.83 -95.66,-893.31 -99.46,-396.67 -260.49,-662.56 -273.48,-710.51 101.79,-100.2 379.87,-186.64 532.68,-242.18 108.46,-39.41 81.11,-32.83 186.7,4.39 126.98,44.76 251.63,85.12 368.05,141.52 312.84,151.56 564.58,488.49 700.07,836.34 76.24,195.73 125.11,408.04 144.1,624.09 6.59,75 1.9,171.4 11.52,239.65l296.04 -0.22c22.58,-145.55 -34.03,-504.25 -69.25,-645.56 -84.28,-338.2 -245.54,-706.51 -473.16,-951.07l-132.03 -140.26c-74.6,-67.16 -166.46,-130.93 -249.86,-189.42 64.53,-60.95 143.36,-150.28 190.65,-224.51 466.51,-732.35 -40.02,-1683.33 -877.3,-1690.07 -746.11,-6.01 -1220.89,731.01 -1026.12,1399.07 31.4,107.69 75.84,203.39 131.09,287.72 45.27,69.1 137.45,187.31 192.44,219.47 -13.77,22.68 -109.44,82.78 -133.88,102.08l-127.19 102.8c-19.3,-17.61 -47.08,-60.31 -63.85,-82.4l-135.91 -157.35c-23.41,-25.51 -44.37,-46.34 -70.18,-69.39 -50.91,-45.44 -97.43,-86.7 -155.28,-131.09l-167.95 -118.55 125.45 -117.79c736.31,-888.08 92.08,-2081.61 -893.96,-2074.62 -564.37,3.99 -967.6,389.98 -1117.89,802.79 -136.33,374.52 -85.19,816.57 142.41,1143.73 36.59,52.59 115.59,149.45 162.83,193.19 21.23,19.64 44.77,31.36 61.53,62.29 -77.3,29.28 -268.3,183.17 -316.64,236.01l-258.37 290.94c-20.91,-11.41 -37.46,-29.58 -58.07,-45.56l-178.31 -127.95c32.36,-36.39 72.1,-70.46 100.91,-106.3 633.87,-788.58 56,-1808.04 -793.92,-1809.13 -838.55,-1.08 -1357,949.95 -885.84,1691.69 47.72,75.13 85.11,117.51 140.7,173.48 30.89,31.12 34.68,23.61 49.02,54 -59.53,23.5 -163.35,113.56 -211.03,151.31 -163.71,129.64 -367.15,424.12 -458.74,609.64 -153.78,311.48 -284.18,809.27 -256.03,1160.72l298.51 -1.05c7.65,-78.51 3.99,-165.11 11.34,-247.25 6.6,-73.74 17.05,-149.58 30.55,-219.9 70.07,-365.18 240.22,-753.27 502.13,-1006.88 240.71,-233.08 439.64,-281.67 747.58,-391.09 42,-14.92 53.86,-2.61 93.85,12.05 170.52,62.48 397.58,126.1 525.77,229.65 -11.85,38.22 -62.43,126.09 -83.74,169.05 -80.67,162.69 -154.55,376.47 -199.86,553.87 -55.42,216.97 -130.42,671.15 -98.8,901.76l511.7 -0.17c8.04,-64.12 1.18,-164.1 4.84,-235.19 10.52,-204.17 43.78,-409.66 98.58,-603.61 127.4,-450.88 371.72,-861.08 749.24,-1122.29 250.87,-173.59 595.32,-236.72 651.19,-284.42z"/>
  </g>
 </g>
</svg>
