<svg width="142" height="122" viewBox="0 0 142 122" fill="none" xmlns="http://www.w3.org/2000/svg">
<path d="M18.7108 121.927C18.7108 121.927 42.1828 72.6547 41.9951 73.2809" stroke="#B2AEEE" stroke-width="0.352809" stroke-miterlimit="10"/>
<path d="M15.8943 101.884H28.4754" stroke="#B2AEEE" stroke-width="0.352809" stroke-miterlimit="10"/>
<path d="M19.462 93.9501H32.0433" stroke="#B2AEEE" stroke-width="0.352809" stroke-miterlimit="10"/>
<path d="M8.94653 115.454H21.5277" stroke="#B2AEEE" stroke-width="0.352809" stroke-miterlimit="10"/>
<path d="M12.5142 108.565H25.0954" stroke="#B2AEEE" stroke-width="0.352809" stroke-miterlimit="10"/>
<path d="M6.12976 121.927C6.12976 121.927 29.6018 72.6547 29.4141 73.2809" stroke="#B2AEEE" stroke-width="0.352809" stroke-miterlimit="10"/>
<path d="M0.984497 121.575L140.93 121.575" stroke="#1E334D" stroke-width="0.383471" stroke-miterlimit="10" stroke-linecap="round"/>
<path d="M133.016 84.5017H16.8998V80.8144C16.8998 77.9038 19.0219 75.5443 21.6397 75.5443H128.276C130.894 75.5443 133.016 77.9038 133.016 80.8144V84.5017H133.016Z" fill="#25334C"/>
<path d="M47.8294 84.3042V121.323" stroke="#1C2955" stroke-width="1.72715" stroke-miterlimit="10"/>
<path d="M17.7885 121.323V84.3041" stroke="#1C2955" stroke-width="1.72715" stroke-miterlimit="10"/>
<path d="M17.7885 108.706H132.402" stroke="#1C2955" stroke-width="0.761289" stroke-miterlimit="10"/>
<path d="M132.264 84.3042V121.323" stroke="#1C2955" stroke-width="1.72715" stroke-miterlimit="10"/>
<path d="M102.223 121.323V84.3041" stroke="#1C2955" stroke-width="1.72715" stroke-miterlimit="10"/>
<path d="M133.33 85.8851H15.8332V83.9087H133.33V85.8851Z" fill="#1C2955"/>
<path d="M15.8332 121.555V121.45C15.8332 120.542 16.4953 119.806 17.3115 119.806H18.6812C19.4977 119.806 20.1598 120.542 20.1598 121.45L15.8333 121.555H15.8332Z" fill="#1C2955"/>
<path d="M49.9625 121.555H46.0518V121.46C46.0518 120.64 46.65 119.974 47.3881 119.974H48.6261C49.3641 119.974 49.9624 120.64 49.9624 121.46V121.555H49.9625Z" fill="#1C2955"/>
<path d="M104.534 121.555H100.623V121.46C100.623 120.64 101.222 119.974 101.96 119.974H103.198C103.936 119.974 104.534 120.64 104.534 121.46V121.555Z" fill="#1C2955"/>
<path d="M42.6635 73.2486L42.3447 72.5482L40.4454 72.6244L40.4029 73.2486L41.295 74.9701L42.9016 73.5929L42.6635 73.2486Z" fill="#F69491"/>
<path d="M41.5048 72.6183L41.4252 74.2447C41.4252 74.2447 40.9316 73.9332 40.3552 73.3585L40.4341 72.4379L41.5048 72.6183H41.5048Z" fill="#D46F6C"/>
<path d="M42.7782 73.2245C42.7782 73.2245 42.2203 73.2126 41.5712 73.7601C41.1844 74.0863 40.6008 73.4138 40.4217 73.2399C40.3853 73.2048 40.3359 73.2364 40.3297 73.2993L40.1053 75.5723H45.7572C45.823 75.5723 45.8763 75.4954 45.8763 75.4003V74.9219C45.8763 74.8478 45.8433 74.7822 45.7948 74.7586L42.7783 73.2245H42.7782Z" fill="#7A77B9"/>
<path d="M43.0959 73.3438L42.1859 73.9289" stroke="white" stroke-width="0.100228" stroke-miterlimit="10"/>
<path d="M43.4924 73.5695L42.5824 74.1545" stroke="white" stroke-width="0.100228" stroke-miterlimit="10"/>
<path d="M29.4365 72.3084L29.4888 71.5256L28.1307 70.2761L27.5003 71.0114L27.4655 72.9978L29.4806 72.7401L29.4365 72.3084Z" fill="#F69491"/>
<path d="M28.8665 70.4797L28.0181 72.3632C28.0181 72.3632 27.7397 71.8132 27.5128 70.9898L28.3346 70.0623L28.8666 70.4797H28.8665Z" fill="#D46F6C"/>
<path d="M29.631 72.3922C29.631 72.3922 29.1858 72.0183 28.3712 72.0378C27.8862 72.0491 27.7684 71.1236 27.7156 70.8662C27.7046 70.8141 27.6481 70.8076 27.6097 70.8543L26.2274 72.5479L30.8025 76.2376C30.8556 76.2806 30.9395 76.2531 30.9896 76.1762L31.2424 75.7887C31.2813 75.7288 31.2898 75.6541 31.2627 75.6032L29.6311 72.3922H29.631Z" fill="#7A77B9"/>
<path d="M29.8512 72.7501L28.8 72.7294" stroke="white" stroke-width="0.100228" stroke-miterlimit="10"/>
<path d="M30.0861 73.1709L29.0353 73.1501" stroke="white" stroke-width="0.100228" stroke-miterlimit="10"/>
<path d="M41.7312 21.6534C41.8017 21.6982 41.9006 21.7795 41.9788 21.9172L41.8537 21.7983L41.7312 21.6534ZM46.3626 17.9504C46.5566 17.7673 46.7017 17.7074 46.2446 17.246C45.7872 16.7842 43.3001 18.2543 43.0855 17.9188C42.8712 17.5831 42.8187 17.3543 42.125 17.6064C41.4313 17.8585 41.9342 18.3987 41.9342 18.3987C41.3788 18.4408 41.6967 19.369 41.6967 19.369C41.4217 19.8437 41.5157 21.5843 41.5157 21.5843L41.5171 21.6042L42.0943 22.1526L42.1214 22.1158L42.1488 22.0788L42.1039 22.0364L43.3411 21.1035C43.438 21.0585 43.8004 20.9302 44.1091 20.5312C44.3525 20.2166 44.6834 20.4881 44.9632 20.4363C45.0877 20.4131 45.2157 20.3114 45.3141 20.2137C45.4996 20.1419 45.6459 19.9902 45.7577 19.8007C46.6606 19.7931 47.3879 18.8056 46.0652 18.2333C46.0652 18.2333 46.1691 18.1338 46.3628 17.9505L46.3626 17.9504Z" fill="#0E162E"/>
<path d="M42.3108 45.7332C42.3108 45.7332 43.0375 55.4001 43.1058 58.0709C43.1741 60.7419 42.6922 72.6495 42.6922 72.6495L39.6684 72.7088C39.6684 72.7088 37.556 52.7325 34.6191 46.291L42.3109 45.7332H42.3108Z" fill="#25334C"/>
<path d="M38.6435 46.2433C38.6435 46.2433 40.7118 57.4111 40.7118 59.126C40.7118 60.8407 41.017 72.6238 41.017 72.6238" stroke="white" stroke-width="0.100228" stroke-miterlimit="10"/>
<path d="M39.5137 71.4083H42.7182" stroke="white" stroke-width="0.100228" stroke-miterlimit="10"/>
<path d="M42.402 47.3921C42.402 47.3921 40.8999 57.518 39.6791 60.0233C36.9654 63.8274 30.3768 72.3169 30.3768 72.3169L27.7556 69.9402L34.0486 59.6573C34.4075 59.071 34.7166 58.4481 34.9727 57.797C35.9385 55.3391 33.4464 47.7145 34.3184 44.3788L42.402 47.3921Z" fill="#A3A1CC"/>
<path d="M38.3648 46.6614C38.3648 46.6614 38.5026 57.5156 37.3321 58.7706C36.1615 60.0256 28.851 70.932 28.851 70.932" stroke="#0E162E" stroke-width="0.100228" stroke-miterlimit="10"/>
<path d="M28.4909 68.8094L31.2764 71.193" stroke="#0E162E" stroke-width="0.100228" stroke-miterlimit="10"/>
<path d="M51.7361 35.6303C51.7361 35.6303 46.1957 39.7178 45.2082 39.2949C44.2203 38.8721 40.9223 27.957 43.3721 27.5005C43.3721 27.5005 44.0138 26.9958 44.4551 27.6424C44.8964 28.2891 46.2711 29.9221 47.124 35.652C47.124 35.652 51.3644 34.0891 51.7095 33.8935L51.736 35.6303L51.7361 35.6303Z" fill="#F69491"/>
<path d="M47.4132 34.5678C47.4132 34.5678 45.8073 24.6267 42.3196 26.5551C40.37 27.6331 43.5777 39.018 44.5882 40.279L51.5741 37.0541L51.3163 34.055L47.4133 34.5678H47.4132Z" fill="#FEFEFE"/>
<path d="M39.9537 25.5323C39.9537 25.5323 36.1609 25.0605 35.262 28.4209C34.363 31.781 32.4917 47.0327 32.4917 47.0327L42.6481 48.8286L45.577 31.7493C45.7092 30.869 45.6319 29.9674 45.3537 29.1372C45.097 28.3703 44.7912 27.4972 44.5403 27.3993L40.9981 24.9963L39.9537 25.5322V25.5323Z" fill="#394971"/>
<path d="M40.5913 25.2952L42.6724 30.0955L43.8156 26.7834" stroke="white" stroke-width="0.0893041" stroke-miterlimit="10"/>
<path d="M39.7585 25.1233C39.7585 25.1233 42.0221 27.8152 42.0664 32.5063C42.111 37.1971 41.1815 49.8975 41.1815 49.8975L31.4664 48.0304C31.4664 48.0304 34.1636 31.3461 34.5064 30.3312C34.8494 29.3162 34.7241 26.3808 37.5948 25.6519L39.7585 25.1233Z" fill="#FEFEFE"/>
<path d="M39.323 25.3142L39.3857 30.7375L40.5766 31.2404L39.7324 32.5786L41.6596 39.0591C41.6596 39.0591 42.4786 32.0293 41.4967 29.469C40.5144 26.9084 39.6375 25.7447 39.6375 25.7447L39.323 25.3143V25.3142Z" fill="#EBECEC"/>
<path d="M39.1871 25.2281L39.984 30.2294L40.8886 30.8024L40.1095 31.9704L41.7807 38.4378C41.7807 38.4378 42.5995 31.408 41.6175 28.8474C40.6356 26.287 40.7352 24.6807 40.7352 24.6807L39.187 25.2281H39.1871Z" fill="#FEFEFE"/>
<path d="M43.4996 28.4957L43.4706 28.7824L42.1204 49.3756L44.439 49.9913C44.439 49.9913 46.1897 31.7558 45.9227 30.5941C45.6553 29.4323 45.1525 27.3526 43.8156 26.7834L43.4996 28.4958V28.4957Z" fill="#FEFEFE"/>
<path d="M42.6994 38.3653L44.7025 33.2956L43.9797 32.0886L44.9961 31.0423L44.294 27.1936L43.7851 26.9742L42.6994 38.3653Z" fill="#EBECEC"/>
<path d="M42.5201 37.7799L44.5234 32.7101L43.8006 31.5031L44.817 30.4569L44.1148 26.6082L43.606 26.3888L42.5201 37.7799Z" fill="#FEFEFE"/>
<path d="M39.0697 28.0457C39.0697 28.0457 31.4737 35.2635 32.2717 37.3037C32.7392 38.4993 34.3705 37.4097 35.6408 36.3026C36.6566 35.4174 37.3988 34.2029 37.7715 32.8291L39.0697 28.0457Z" fill="#EBECEC"/>
<path d="M29.9619 44.7802L32.4104 44.499C32.4104 44.499 33.154 47.0263 33.0558 47.403C32.8678 48.1228 32.2522 46.4305 32.2522 46.4305C32.2522 46.4305 32.4242 50.1768 32.2144 50.1671C32.0046 50.157 31.7892 48.6517 31.6881 47.9926C31.5873 47.3336 31.9818 50.2029 31.8087 50.3347C31.4967 50.5727 30.9772 48.4497 30.9996 47.8667C30.9996 47.8667 31.0884 50.4876 30.9332 50.1533C30.7779 49.8186 30.495 49.5251 30.4391 48.2374C30.3832 46.9498 30.4499 49.6984 30.2881 49.7267C29.875 49.7995 29.962 44.7802 29.962 44.7802H29.9619Z" fill="#F69491"/>
<path d="M38.5323 29.9255C38.5323 29.9255 40.4405 27.5718 38.5696 26.3648C36.9256 25.304 33.5809 27.5105 30.3228 34.4848C29.5836 36.0676 29.111 43.5033 29.5966 45.6141L33.2778 44.4704L33.7899 37.2629L38.5323 29.9255Z" fill="#FEFEFE"/>
<path d="M41.7807 38.4375C41.7665 38.6225 41.7109 38.7687 41.657 38.764C41.6026 38.7593 41.5698 38.6055 41.5842 38.4202C41.5984 38.235 41.6537 38.089 41.7078 38.0937C41.7623 38.0984 41.7947 38.2523 41.7807 38.4375Z" fill="white"/>
<path d="M41.7237 22.7233L41.0543 24.9935L42.6597 28.7856L43.3372 26.5477L43.5442 24.5879L42.1489 22.4235C42.1489 22.4235 41.8408 22.5704 41.7923 22.6391C41.744 22.7079 41.7237 22.7233 41.7237 22.7233Z" fill="#F69491"/>
<path d="M42.1489 22.4235L43.5442 24.588L43.4446 25.7594C43.4446 25.7594 41.9629 24.8978 42.1902 23.4367L42.149 22.4235L42.1489 22.4235Z" fill="#0E162E"/>
<path d="M42.1062 21.7358C42.0735 21.7923 42.0018 21.7938 41.9691 21.7383C41.8578 21.5502 41.6178 21.2709 41.397 21.8607C41.0977 22.6618 41.9083 22.7067 41.949 22.8341C42.0312 23.0922 42.2878 23.9548 42.8349 24.3974C43.1681 24.6671 43.7085 24.8272 44.1947 24.4941C44.6812 24.1613 44.8039 24.4988 45.5296 19.8638C45.5296 19.8638 45.2681 20.2151 44.983 20.2531C44.6981 20.291 44.3237 20.302 44.0402 20.1356C43.8095 20.0006 43.4161 21.4051 42.9267 20.0427C42.7085 20.4464 42.2996 21.4037 42.1062 21.7356V21.7358Z" fill="#F69491"/>
<path d="M41.5267 21.8269L41.8725 22.2728C41.8725 22.2728 41.8816 21.3979 41.5267 21.8269Z" fill="#EC8492"/>
<path d="M44.5773 22.0754C44.5578 22.1759 44.5061 22.2487 44.4621 22.238C44.4181 22.2274 44.398 22.1376 44.4175 22.037C44.437 21.9366 44.4887 21.8638 44.5327 21.8744C44.577 21.8851 44.5968 21.9751 44.5773 22.0754Z" fill="#0E162E"/>
<path d="M45.1142 22.1116C45.0947 22.212 45.0431 22.2848 44.999 22.2742C44.955 22.2636 44.9349 22.1735 44.9547 22.0734C44.9739 21.9729 45.0256 21.9 45.0697 21.9107C45.114 21.9214 45.1338 22.0115 45.1142 22.1117V22.1116Z" fill="#0E162E"/>
<path d="M44.0582 21.1306C43.9219 21.194 44.1878 20.823 44.358 20.8154C44.5278 20.8078 44.6688 20.9369 44.6731 21.1032C44.6731 21.1032 44.3855 20.9783 44.0582 21.1305V21.1306Z" fill="#0E162E"/>
<path d="M45.2826 21.3792C45.118 21.3139 44.9895 21.318 44.9895 21.318C45.0409 21.1736 45.1863 21.0989 45.3342 21.1303L45.2826 21.3792Z" fill="#0E162E"/>
<path d="M44.8707 22.0475L44.9642 22.876C44.9657 22.8895 44.9561 22.9014 44.9447 22.8995L44.6528 22.8546C44.6426 22.853 44.6361 22.8411 44.6393 22.8292L44.8377 22.0457C44.8431 22.0248 44.8683 22.0262 44.8707 22.0476V22.0475Z" fill="#D46F6C"/>
<path d="M51.7095 33.8933C51.7095 33.8933 53.0247 31.8777 52.8575 32.4933C52.6855 33.1277 52.6068 33.4065 52.6068 33.4065C52.6068 33.4065 54.4375 32.8735 54.5201 32.9476C54.7776 33.1777 53.2917 33.7606 53.2917 33.7606C53.2917 33.7606 54.6195 33.1878 54.7186 33.4282C54.8178 33.668 53.5235 34.1948 53.5235 34.1948C53.5235 34.1948 54.9872 33.5469 54.8056 33.8545C54.624 34.1624 53.5955 34.6989 53.5955 34.6989C53.5955 34.6989 54.7686 34.17 54.6153 34.4576C54.462 34.7454 51.6945 35.5937 51.6945 35.5937L51.7095 33.8934V33.8933Z" fill="#F69491"/>
<path d="M53.1272 34.2675C53.2811 32.9428 52.8784 31.8817 51.9471 31.0358C51.1207 30.2848 50.2214 29.6382 49.1225 29.8275C48.2888 29.9712 47.5277 30.4416 46.7833 30.8575C46.2142 31.1755 45.4394 31.6925 44.7748 31.4791C44.3747 31.3507 44.1342 30.9388 43.9752 30.5367C43.6542 29.7233 43.5585 28.7931 43.4839 27.9187C43.4607 27.6458 43.0737 27.6431 43.0974 27.9187C43.1959 29.0755 43.2941 30.6878 44.12 31.5422C44.6304 32.0708 45.3185 32.0014 45.9303 31.7554C47.3287 31.1925 48.9971 29.5567 50.5344 30.4937C51.2648 30.9388 52.0622 31.5267 52.4905 32.3464C52.8007 32.9403 52.8177 33.6028 52.7403 34.2676C52.7087 34.5413 53.0955 34.5385 53.1271 34.2676L53.1272 34.2675Z" fill="#98B4F0"/>
<path d="M52.3024 34.8863C52.3563 34.7309 52.412 34.5724 52.5085 34.4456C52.6056 34.3184 52.7529 34.2264 52.9012 34.249C53.0969 34.2785 53.229 34.4908 53.29 34.6998C53.3182 34.7975 53.3369 34.8989 53.345 35.0012C53.3473 35.0285 53.3447 35.0631 53.3219 35.0731C53.3083 35.0791 53.293 35.0731 53.2792 35.0677C52.9907 34.9537 52.6607 35.0448 52.3729 34.9271L52.3024 34.8863Z" fill="#98B4F0"/>
<path d="M53.3247 35.331L52.2564 35.0738C52.1869 35.0569 52.1427 34.9809 52.1579 34.9037C52.1728 34.8266 52.2414 34.7775 52.3108 34.7945L53.3792 35.0516C53.4484 35.0682 53.4927 35.1442 53.4777 35.2213C53.4625 35.2986 53.3941 35.3476 53.3247 35.331Z" fill="#4E6FD4"/>
<path d="M41.7136 21.9838C40.1639 21.6128 40.6757 24.1306 40.9098 25.0049C41.0798 25.6394 41.2837 26.3115 41.6025 26.8755C42.0909 27.74 43.2157 28.4413 44.0229 27.6688C44.7973 26.928 44.709 25.4858 44.7408 24.4627C44.7493 24.1859 44.3625 24.1861 44.354 24.4627C44.3281 25.2996 44.3871 26.2801 43.9958 27.0309C43.7355 27.5306 43.2487 27.7083 42.7743 27.4645C42.4573 27.3015 42.1182 26.9785 41.9493 26.6816C41.6902 26.2257 41.5182 25.6997 41.3672 25.1901C41.1857 24.5771 41.0261 23.9285 41.0111 23.2793C41.0004 22.8094 41.0823 22.2719 41.6108 22.3985C41.8536 22.4564 41.9573 22.0421 41.7136 21.9838Z" fill="#98B4F0"/>
<path d="M41.8502 21.7758L41.7648 21.7905C41.5898 21.8207 41.4695 22.0027 41.4967 22.1976L41.497 22.199C41.524 22.3936 41.6878 22.5274 41.8631 22.4968L41.9483 22.4824L41.8501 21.7758L41.8502 21.7758Z" fill="#4E6FD4"/>
<path d="M99.0202 35.668H99.0222C100.423 35.668 101.558 34.4054 101.558 32.8481V14.981H96.4839V32.8481C96.4839 34.4054 97.6195 35.668 99.0201 35.668H99.0202Z" fill="#EBECEC"/>
<path d="M100.865 32.848V21.7338H97.1775V32.848C97.1775 33.9794 98.0025 34.8966 99.0203 34.8966H99.0222C100.039 34.8966 100.865 33.9793 100.865 32.848H100.865Z" fill="#7A77B9"/>
<path d="M96.6532 16.3485H101.466C101.814 16.3485 102.097 16.0345 102.097 15.6474V13.5524C102.097 13.1653 101.814 12.8514 101.466 12.8514H96.6532C96.305 12.8514 96.0227 13.1653 96.0227 13.5524V15.6474C96.0227 16.0345 96.305 16.3485 96.6532 16.3485Z" fill="#7A77B9"/>
<path d="M98.9443 32.505H101.559V22.8452H98.9443V32.505Z" fill="#A3C3FC"/>
<path d="M100.738 23.8141V30.8239" stroke="#FBFAF6" stroke-width="0.288897" stroke-miterlimit="10"/>
<path d="M99.9183 23.8141V30.8239" stroke="#FBFAF6" stroke-width="0.288897" stroke-miterlimit="10"/>
<path d="M100.845 13.3611V15.6652" stroke="#FBFAF6" stroke-width="0.204959" stroke-miterlimit="10" stroke-linecap="round"/>
<path d="M99.6456 13.3611V15.6652" stroke="#FBFAF6" stroke-width="0.204959" stroke-miterlimit="10" stroke-linecap="round"/>
<path d="M98.4456 13.3611V15.6652" stroke="#FBFAF6" stroke-width="0.204959" stroke-miterlimit="10" stroke-linecap="round"/>
<path d="M97.2459 13.3611V15.6652" stroke="#FBFAF6" stroke-width="0.204959" stroke-miterlimit="10" stroke-linecap="round"/>
<path d="M96.6531 16.3485C96.864 16.5143 101.609 19.6673 101.609 19.6673L101.466 16.3485H96.6531Z" fill="#D9DADA"/>
<path d="M92.3897 26.273H92.3914C93.792 26.273 94.9276 25.0105 94.9276 23.4531V5.58569H89.8535V23.4531C89.8535 25.0105 90.9887 26.273 92.3896 26.273H92.3897Z" fill="#EBECEC"/>
<path d="M94.234 23.453V12.3387H90.5467V23.453C90.5467 24.5844 91.3717 25.5016 92.3895 25.5016H92.3914C93.409 25.5016 94.234 24.5843 94.234 23.453H94.234Z" fill="#7A77B9"/>
<path d="M90.0224 6.95334H94.8353C95.1835 6.95334 95.4658 6.63939 95.4658 6.25238V4.15726C95.4658 3.77024 95.1835 3.4563 94.8353 3.4563H90.0224C89.6742 3.4563 89.3918 3.77024 89.3918 4.15726V6.25238C89.3918 6.63939 89.6742 6.95334 90.0224 6.95334Z" fill="#7A77B9"/>
<path d="M92.3137 23.1099H94.9278V13.4503H92.3137V23.1099Z" fill="#A3C3FC"/>
<path d="M94.1077 14.4189V21.4287" stroke="#FBFAF6" stroke-width="0.288897" stroke-miterlimit="10"/>
<path d="M93.2875 14.4189V21.4287" stroke="#FBFAF6" stroke-width="0.288897" stroke-miterlimit="10"/>
<path d="M94.2146 3.96594V6.27013" stroke="#FBFAF6" stroke-width="0.204959" stroke-miterlimit="10" stroke-linecap="round"/>
<path d="M93.0147 3.96594V6.27013" stroke="#FBFAF6" stroke-width="0.204959" stroke-miterlimit="10" stroke-linecap="round"/>
<path d="M91.8151 3.96594V6.27013" stroke="#FBFAF6" stroke-width="0.204959" stroke-miterlimit="10" stroke-linecap="round"/>
<path d="M90.6152 3.96594V6.27013" stroke="#FBFAF6" stroke-width="0.204959" stroke-miterlimit="10" stroke-linecap="round"/>
<path d="M90.0224 6.95337C90.0501 6.96215 94.6682 10.0075 94.9782 10.2721L94.8353 6.95337H90.0224Z" fill="#D9DADA"/>
<path d="M97.2021 6.55778C97.2021 5.20795 99.4003 1.57568 99.4003 1.57568C99.4003 1.57568 101.598 5.20804 101.598 6.55778C101.598 7.90768 100.614 9.00197 99.4003 9.00197C98.186 9.00197 97.2021 7.90768 97.2021 6.55778Z" fill="#7A77B9"/>
<path d="M101.288 5.45531C101.245 5.65244 101.187 5.84761 101.098 6.03289C100.877 6.49647 100.578 6.90932 100.246 7.28193C99.4887 8.13321 98.149 8.14924 97.3943 7.28193C97.3556 7.23734 97.3223 7.19053 97.2856 7.14508C97.2788 7.14099 97.2724 7.13468 97.2653 7.13033C97.4977 8.2033 98.3641 9.00155 99.4003 9.00155C100.614 9.00155 101.599 7.9076 101.599 6.55769C101.599 6.25765 101.486 5.84198 101.317 5.38147C101.307 5.40594 101.299 5.43067 101.288 5.45522L101.288 5.45531Z" fill="#6966A1"/>
<path d="M99.1708 7.26648H99.7394V5.25867H99.1708V7.26648Z" fill="white"/>
<path d="M100.358 5.94641H98.5522V6.57865H100.358V5.94641Z" fill="white"/>
<path d="M101.208 71.4181L100.388 75.3791H94.9377V74.9L98.0372 72.8979L98.4168 71.4906L101.208 71.4181Z" fill="#F69491"/>
<path d="M98.037 72.898C98.2165 72.7706 101.207 71.4182 101.207 71.4182L98.417 71.4908L98.037 72.8981V72.898Z" fill="#E8716F"/>
<path d="M97.9978 72.898L98.9205 73.9955C99.163 74.2843 99.5469 74.2934 99.7988 74.0165L100.848 72.8544L100.349 75.3789H94.8984V74.9001L97.9978 72.8979V72.898Z" fill="#E6E9FC"/>
<path d="M97.9978 72.898L98.9205 73.9955C99.163 74.2843 99.5469 74.2934 99.7988 74.0165L100.848 72.8544L100.349 75.3789H94.8984V74.9001L97.9978 72.8979V72.898Z" stroke="#E6E9FC" stroke-width="0.427165" stroke-miterlimit="10"/>
<path d="M107.796 71.4714L108.421 75.343H113.749V74.875L110.72 72.918L110.664 71.5425L107.796 71.4714Z" fill="#F69491"/>
<path d="M110.72 72.918L110.664 71.5424L107.796 71.4714L110.72 72.918Z" fill="#E8716F"/>
<path d="M110.778 72.918L109.876 73.9906C109.639 74.2728 109.264 74.282 109.018 74.0113L108.1 72.8728L108.479 75.343H113.807V74.875L110.778 72.9181V72.918Z" fill="#E6E9FC"/>
<path d="M110.778 72.918L109.876 73.9906C109.639 74.2728 109.264 74.282 109.018 74.0113L108.1 72.8728L108.479 75.343H113.807V74.875L110.778 72.9181V72.918Z" stroke="#E6E9FC" stroke-width="0.417679" stroke-miterlimit="10"/>
<path d="M100.934 43.2366L97.5095 72.4134L101.583 72.3761L104.32 54.0732C104.542 53.3242 105.288 53.3316 105.527 54.0732L107.648 72.4498L111.786 72.6545C111.786 72.6545 111.419 54.3924 108.446 42.0333L100.934 43.2366H100.934Z" fill="#7692E0"/>
<path d="M100.738 46.4186C100.738 46.4186 100.714 51.4645 104.713 50.9415C108.712 50.4182 109.284 45.4596 109.284 45.4596L100.738 46.4186Z" fill="#25334C"/>
<path d="M107.508 71.3086L111.786 71.3321" stroke="white" stroke-width="0.147467" stroke-miterlimit="10"/>
<path d="M97.6797 71.3086L101.646 71.3321" stroke="white" stroke-width="0.147467" stroke-miterlimit="10"/>
<path d="M90.3791 42.2074C90.4017 42.4385 92.3027 42.365 92.3027 42.365C92.3027 42.365 94.9702 42.6187 96.6853 42.6614L100.24 43.0041C101.01 41.5802 103.068 29.2406 100.957 29.6457C97.5146 30.3068 96.396 38.6356 96.396 38.6356L92.5836 39.5435L92.5844 39.5739C92.4131 39.5501 90.7907 39.8285 90.7233 39.8065C90.7233 39.8065 87.4685 41.2329 87.1867 41.8941C86.9053 42.5551 88.8144 41.442 89.0649 41.3026C89.315 41.1636 90.3791 42.2073 90.3791 42.2073V42.2074Z" fill="#EE8881"/>
<path d="M99.4695 34.7109C99.4908 38.1081 100.905 41.9866 100.459 42.8106L97.8994 42.6324C98.6665 41.3607 98.9267 40.2049 99.4695 34.711V34.7109Z" fill="#D46F6C"/>
<path d="M96.185 38.408C96.185 38.408 96.9512 30.6898 100.175 29.2978C102.172 28.4358 101.738 39.6772 100.967 41.1011L96.185 38.408Z" fill="#7692E0"/>
<path d="M97.2889 39.0487L100.968 41.1011C101.738 39.6771 101.109 31.4419 99.0482 30.7942L97.2889 39.0487Z" fill="#25334C"/>
<path d="M96.2349 37.226L101.26 39.6035" stroke="white" stroke-width="0.0761768" stroke-miterlimit="10"/>
<path d="M107.874 31.6294C106.988 28.5109 104.05 28.2742 104.05 28.2742L102.724 27.8615L102.707 27.8884L100.934 30.4531L100.442 29.4966L100.409 29.1127L99.8513 29.4655C99.6025 29.5562 98.7196 30.9428 98.5367 31.7216C98.3416 32.5519 98.2507 33.7037 98.315 34.6696L99.9913 48.7126L110.218 47.2337C110.218 47.2337 108.808 34.9188 107.874 31.6293L107.874 31.6294Z" fill="#7692E0"/>
<path d="M99.8991 47.4562L109.921 45.8027" stroke="white" stroke-width="0.0761768" stroke-miterlimit="10"/>
<path d="M100.033 29.3576L100.613 32.9168L103.35 27.9871" stroke="white" stroke-width="0.0761768" stroke-miterlimit="10"/>
<path d="M100.838 24.5978L100.598 24.212C100.598 24.212 98.5889 24.6154 98.0871 24.3175C97.5851 24.0196 97.5634 22.9306 97.5634 22.9306C97.5634 22.9306 96.6266 22.7472 97.0844 22.395C97.542 22.0428 97.3658 22.0557 97.3658 22.0557C97.3658 22.0557 96.0634 21.8601 96.7438 21.2078C97.4246 20.5552 101.24 20.9695 101.24 20.9695C101.976 21.1259 102.524 25.214 101.278 25.1239L100.838 24.5978Z" fill="#0F1032"/>
<path d="M97.8145 23.0794C97.8145 23.0794 98.2008 27.0238 99.2908 28.1495C99.7604 28.0714 100.013 27.5437 100.3 27.4972C100.294 27.3528 100.357 28.1096 100.261 29.2212C100.324 29.5094 100.801 31.8035 100.801 31.8035L102.867 27.9489L101.898 25.0562C101.898 25.0562 102.086 25.0747 102.203 24.7479C102.269 24.5649 102.298 24.1078 102.097 23.7456C101.906 23.3996 101.268 23.566 101.206 23.9251C101.186 24.0397 101.095 24.1747 100.948 24.0416C100.821 23.9279 100.409 22.3823 99.9999 22.5143C99.1142 22.8003 98.6143 22.9795 98.18 23.0496C97.8886 23.0966 97.8144 23.0794 97.8144 23.0794H97.8145Z" fill="#F69491"/>
<path d="M101.538 24.1184C101.531 24.1576 101.832 23.6955 102.046 24.2897L101.538 24.1184Z" fill="#D46F6C"/>
<path d="M100.042 27.6997L100.776 26.856L100.289 29.3808L100.042 27.6997Z" fill="#D46F6C"/>
<path d="M98.4814 25.5493C98.4986 25.6545 98.4755 25.7471 98.4295 25.7561C98.384 25.7653 98.3333 25.6874 98.316 25.5825C98.2991 25.4774 98.3225 25.3848 98.3679 25.3758C98.4137 25.3663 98.4642 25.4445 98.4814 25.5493Z" fill="#0F1032"/>
<path d="M99.1857 25.3406C99.2029 25.4459 99.1798 25.5384 99.1338 25.5475C99.0883 25.5565 99.0375 25.4787 99.0203 25.3739C99.0033 25.2687 99.0268 25.1762 99.0722 25.167C99.118 25.1576 99.1684 25.2358 99.1857 25.3406Z" fill="#0F1032"/>
<path d="M98.61 24.9919C98.6348 25.2945 98.6455 26.1032 98.6455 26.1032L99.0925 26.0065L98.61 24.992V24.9919Z" fill="#D46F6C"/>
<path d="M98.8487 24.223C98.7827 24.2402 98.5683 24.0488 98.8013 23.952C99.037 23.854 99.4044 24.0248 99.458 24.0913C99.5119 24.1576 99.2115 24.1287 98.8487 24.223Z" fill="#0F1032"/>
<path d="M98.0278 24.8615C97.9618 24.8789 97.7692 24.6513 98.0021 24.5545C98.238 24.4566 98.4101 24.7165 98.4638 24.7831C98.5174 24.8493 98.3906 24.7673 98.0278 24.8615V24.8615Z" fill="#0F1032"/>
<path d="M87.9694 41.3028C87.9694 41.3028 87.0305 41.3376 87.281 41.094C87.5312 40.8505 89.4403 40.433 89.4403 40.433L87.9694 41.3028Z" fill="#D46F6C"/>
<path d="M92.6516 39.5275L92.5836 39.5435L92.5844 39.5742C92.413 39.5503 90.7907 39.8285 90.7235 39.8065C90.7235 39.8065 87.4688 41.2333 87.1869 41.8944C86.9051 42.5555 88.8143 41.4421 89.0648 41.303C89.3153 41.1636 90.379 42.2078 90.379 42.2078C90.4016 42.4387 92.3029 42.3653 92.3029 42.3653C92.3029 42.3653 92.7397 42.4067 93.3693 42.4586C93.0999 41.4923 92.8613 40.5154 92.6516 39.5275V39.5275Z" fill="white"/>
<path d="M87.9694 41.3028C87.9694 41.3028 87.0305 41.3376 87.281 41.094C87.5312 40.8505 89.4403 40.433 89.4403 40.433L87.9694 41.3028Z" fill="white"/>
<path d="M87.9049 44.9528L87.0567 46.4715" stroke="#0F33AC" stroke-width="0.183112" stroke-miterlimit="10"/>
<path d="M89.235 40.2601L91.0148 41.4887L89.1762 44.7811C89.1121 44.8956 88.9766 44.9308 88.8738 44.8599L87.4672 43.889C87.3641 43.8177 87.3325 43.6673 87.3963 43.5525L89.2349 40.2601H89.235Z" fill="#5163B3"/>
<path d="M88.4226 42.7642L89.3566 43.4089L88.408 45.1072C88.3656 45.1839 88.2753 45.2073 88.2063 45.1597L87.5214 44.6869C87.4525 44.6396 87.4313 44.5391 87.4743 44.4625L88.4226 42.7642Z" fill="#5163B3"/>
<path d="M89.1858 39.9778L91.2228 41.3838C91.3002 41.4374 91.3239 41.5508 91.276 41.637C91.2277 41.7234 91.1257 41.7498 91.0484 41.6964L89.0113 40.2901C88.9337 40.2367 88.9097 40.1234 88.9579 40.037C89.0063 39.9508 89.1082 39.9244 89.1858 39.9778Z" fill="#0F33AC"/>
<path d="M90.1517 39.1955L91.425 40.0745C91.4735 40.1077 91.4882 40.1787 91.458 40.2327C91.4281 40.2864 91.3642 40.303 91.3157 40.2695L90.0426 39.3908C89.9941 39.3572 89.9794 39.2866 90.0093 39.2326C90.0395 39.1786 90.103 39.1623 90.1517 39.1955Z" fill="#0F33AC"/>
<path d="M90.8087 39.7523L89.342 42.3792" stroke="#0F33AC" stroke-width="0.732351" stroke-miterlimit="10"/>
<path d="M89.1819 44.4624C89.0882 44.4084 88.9411 44.2937 88.8474 44.2395" stroke="white" stroke-width="0.183112" stroke-miterlimit="10" stroke-linecap="round"/>
<path d="M89.3306 44.1485C89.24 44.0968 89.0829 43.9885 88.9924 43.9366" stroke="white" stroke-width="0.183112" stroke-miterlimit="10" stroke-linecap="round"/>
<path d="M88.2953 45.0309C88.2718 44.9484 88.2865 44.8903 88.3099 44.8376C88.3243 44.8127 88.3391 44.7883 88.3635 44.77C88.3868 44.7509 88.4121 44.733 88.4516 44.7242C88.4651 44.7666 88.4644 44.7999 88.4615 44.8319C88.4601 44.8648 88.4488 44.8913 88.4372 44.918C88.4084 44.9672 88.3712 45.0112 88.2953 45.0309Z" fill="white"/>
<path d="M89.5158 43.865C89.4433 43.8151 89.2807 43.7001 89.2084 43.6503" stroke="white" stroke-width="0.183112" stroke-miterlimit="10" stroke-linecap="round"/>
<path d="M89.6763 43.5416C89.512 43.4314 89.4016 43.3599 89.3604 43.3322" stroke="white" stroke-width="0.183112" stroke-miterlimit="10" stroke-linecap="round"/>
<path d="M91.1272 41.5185C91.0506 41.5401 90.997 41.5204 90.9488 41.4912C90.9265 41.4735 90.9041 41.4557 90.8878 41.4268C90.8709 41.3998 90.8551 41.3703 90.8479 41.3254C90.8869 41.3128 90.9179 41.3156 90.9473 41.3207C90.9778 41.3242 91.0021 41.3383 91.0261 41.3527C91.0713 41.3876 91.1105 41.4324 91.1272 41.5185Z" fill="white"/>
<path d="M90.5333 41.0928C90.3833 41.0589 90.2546 40.9821 90.1317 40.896C90.0722 40.8498 90.0126 40.8038 89.9598 40.7469C89.9059 40.692 89.8536 40.6349 89.811 40.563C89.8893 40.5796 89.957 40.6107 90.0236 40.644C90.0911 40.6758 90.1518 40.7177 90.2125 40.7602C90.3305 40.8506 90.4426 40.9503 90.5333 41.0929V41.0928Z" fill="white"/>
<path d="M110.534 48.5405C110.534 48.5405 83.3909 63.9424 80.0178 61.457C75.4458 58.0888 68.3096 40.6954 68.3096 40.6954L78.1422 33.8215L87.0616 46.3483C87.0616 46.3483 102.233 42.9235 107.529 42.0681C107.529 42.0681 110.249 37.2662 111.566 37.2662C112.318 37.2662 110.44 41.0243 110.44 41.0243C110.44 41.0243 113.632 38.3102 115.416 36.3269C117.2 34.3434 114.759 40.3981 112.975 41.4419C111.191 42.4857 116.637 37.3707 117.2 37.684C117.763 37.9969 115.228 41.6507 114.383 42.3815C113.538 43.1123 118.327 38.519 118.233 39.7716C118.208 40.1006 115.51 44.3648 114.383 44.3648C113.257 44.3648 117.857 41.442 118.139 42.0682C118.421 42.6948 110.534 48.5406 110.534 48.5406V48.5405Z" fill="#FFBDBD"/>
<path d="M83.415 58.3687C82.228 55.4126 81.4773 52.1815 81.2331 48.8518C80.9965 45.6234 81.5129 42.4178 81.9934 39.2303L78.1423 33.8214L68.3097 40.6955C68.3097 40.6955 75.4455 58.0889 80.018 61.4572C80.7079 61.9657 82.3946 61.7244 84.6392 61.0203C84.1946 60.1608 83.7812 59.2802 83.4151 58.3686L83.415 58.3687Z" fill="#EC8492"/>
<path d="M85.8479 43.7863C84.7302 39.5766 84.4032 37.0776 79.5013 28.1008C78.9107 27.019 76.3648 23.7546 74.5015 23.2599C71.8345 22.552 66.779 26.9785 67.8135 33.5947C67.329 34.8826 69.088 48.7562 69.5145 51.576L85.848 43.7863H85.8479Z" fill="#7A77B9"/>
<path d="M92.0387 108.311C92.1223 117.233 92.2058 120.858 92.2058 120.858C92.2058 120.858 108.534 121.19 109.174 120.326C109.815 119.463 101.22 115.032 101.22 115.032C101.22 115.032 101.067 112.772 101.067 108.311H92.0386H92.0387Z" fill="#FFBDBD"/>
<path d="M99.9935 108.311H92.2264C92.2699 112.916 92.3128 116.106 92.3444 118.119C95.0232 114.972 97.6021 111.729 99.9934 108.311H99.9935Z" fill="#EC8492"/>
<path d="M92.069 114.271C92.1997 114.28 94.1286 118.72 94.1286 118.72C94.1286 118.72 96.3018 117.884 101.899 115.024C101.899 115.024 111.784 117.902 110.461 121.261L90.7847 121.23L92.0691 114.271L92.069 114.271Z" fill="#0D1029"/>
<path d="M92.069 114.271C92.1997 114.28 94.1286 118.72 94.1286 118.72C94.1286 118.72 96.3018 117.884 101.899 115.024C101.899 115.024 111.784 117.902 110.461 121.261L90.7847 121.23L92.0691 114.271L92.069 114.271Z" stroke="#0D1029" stroke-width="0.432914" stroke-miterlimit="10" stroke-linecap="round" stroke-linejoin="round"/>
<path d="M103.407 115.467L99.6456 118.534" stroke="white" stroke-width="0.470955" stroke-miterlimit="10"/>
<path d="M106.082 116.025L102.321 119.092" stroke="white" stroke-width="0.470955" stroke-miterlimit="10"/>
<path d="M91.1192 110.727C90.6178 102.548 89.83 79.1046 90.116 78.1977C90.4024 77.2912 56.1461 71.016 56.1582 62.7961C56.1701 54.5759 69.7861 59.5016 69.7861 59.5016C69.7861 59.5016 92.1429 59.2804 100.769 63.677C105.75 66.2153 101.317 110.356 101.317 110.356L91.1192 110.727V110.727Z" fill="#E6E9FC"/>
<path d="M71.5588 54.0332C71.5588 54.0332 66.2088 63.699 73.5648 65.5576C80.9211 67.4167 94.4628 66.4872 95.9673 69.4612C97.5419 72.5737 95.8002 105.523 95.8002 105.523" stroke="#25334C" stroke-width="0.235717" stroke-miterlimit="10"/>
<path d="M90.6176 105.523L101.776 105.708" stroke="#25334C" stroke-width="0.235717" stroke-miterlimit="10"/>
<path d="M81.4226 108.311C81.5062 117.233 81.5898 120.858 81.5898 120.858C81.5898 120.858 97.9173 121.19 98.558 120.326C99.1988 119.463 90.6039 115.032 90.6039 115.032C90.6039 115.032 90.4505 112.772 90.4505 108.311H81.4225H81.4226Z" fill="#FFBDBD"/>
<path d="M89.8018 108.311H81.4227C81.4605 112.362 81.4986 115.317 81.5285 117.341C84.3056 114.142 87.0522 111.114 89.8019 108.311H89.8018Z" fill="#EC8492"/>
<path d="M81.1717 114.259C81.3024 114.268 83.5123 118.72 83.5123 118.72C83.5123 118.72 85.6858 117.884 91.2834 115.024C91.2834 115.024 101.168 117.901 99.8448 121.261L80.1687 121.23L81.1718 114.259L81.1717 114.259Z" fill="#1A1F4F"/>
<path d="M81.1717 114.259C81.3024 114.268 83.5123 118.72 83.5123 118.72C83.5123 118.72 85.6858 117.884 91.2834 115.024C91.2834 115.024 101.168 117.901 99.8448 121.261L80.1687 121.23L81.1718 114.259L81.1717 114.259Z" stroke="#1A1F4F" stroke-width="0.432914" stroke-miterlimit="10" stroke-linecap="round" stroke-linejoin="round"/>
<path d="M91.2865 111.471C91.2865 111.471 94.8403 65.9789 91.9647 63.8013C85.1841 58.6663 58.1812 55.469 58.1812 55.469C58.1812 55.469 52.9 63.0432 54.2107 73.6008C55.0148 80.08 70.2946 80.2465 76.7414 79.6849C78.1638 79.5612 79.3728 80.815 79.3596 82.399C79.3033 89.1893 81.0197 104.589 80.9211 111.471H91.2866L91.2865 111.471Z" fill="white"/>
<path d="M60.8125 74.9855C57.8185 71.8714 55.6496 66.932 55.2289 62.0179C54.3012 65.0877 53.6479 69.0679 54.2106 73.6008C54.721 77.7131 61.0624 79.2808 67.2757 79.735C64.926 78.5135 62.7309 76.981 60.8125 74.9855Z" fill="#E6E9FC"/>
<path d="M60.8591 56.6354C60.8591 56.6354 55.8436 67.4165 63.1997 69.2756C70.5557 71.1343 82.7603 68.346 85.6023 71.8779C87.8977 74.7305 85.7694 105.522 85.7694 105.522" stroke="#25334C" stroke-width="0.235717" stroke-miterlimit="10"/>
<path d="M80.5867 105.523L91.7452 105.708" stroke="#25334C" stroke-width="0.235717" stroke-miterlimit="10"/>
<path d="M92.7911 115.467L89.0296 118.534" stroke="white" stroke-width="0.470955" stroke-miterlimit="10"/>
<path d="M95.4658 116.025L91.7043 119.092" stroke="white" stroke-width="0.470955" stroke-miterlimit="10"/>
<path d="M54.3177 66.2775C54.3177 66.2775 53.3505 40.6579 54.7334 32.1558C56.1165 23.6534 64.1044 21.3147 64.1044 21.3147L66.9303 19.9702L72.8388 22.015L74.9196 23.5749C76.6529 24.9282 77.604 28.7213 77.9624 30.9311L78.9147 59.5631C78.9147 59.5631 77.0967 63.1878 54.3178 66.2774L54.3177 66.2775Z" fill="#7A77B9"/>
<path d="M70.821 45.8795C69.0402 42.0049 67.3841 38.0523 65.8899 34.0301C64.4503 30.1545 63.3709 26.1307 62.0109 22.2218C59.5433 23.5368 55.6592 26.4638 54.7334 32.1557C53.3505 40.658 54.3177 66.2773 54.3177 66.2773C71.25 63.981 76.5992 61.3891 78.2306 60.2096C75.5602 55.5665 73.0785 50.791 70.8209 45.8795H70.821Z" fill="#6966A1"/>
<path d="M64.7162 21.0859C64.8102 21.3992 71.1188 28.6883 73.26 27.1407C75.1379 25.7833 74.011 22.0254 74.011 22.0254" stroke="white" stroke-width="0.231788" stroke-miterlimit="10"/>
<path d="M73.4576 23.6153L73.5091 22.7219L73.871 19.3577L73.7152 19.1219L73.7494 18.5255L69.7348 13.1099C69.7348 13.1099 69.3898 13.1773 69.2698 13.361C69.1499 13.5449 68.378 12.8392 68.378 12.8392L65.3736 20.564L68.0583 23.1567C69.1659 24.3464 71.3605 26.4132 72.4593 26.3363C73.1273 26.2899 73.3131 24.5391 73.3131 24.5391L73.406 23.6769L73.4576 23.6153Z" fill="#FFBDBD"/>
<path d="M69.6445 12.8282L73.9944 18.668L73.8671 19.4355C73.8671 19.4355 72.2852 25.264 70.2984 15.839L69.6446 12.8282H69.6445Z" fill="#1A1F4F"/>
<path d="M68.7065 13.4134C67.8705 12.9848 67.7389 11.9835 67.7206 10.96C67.7025 9.93669 67.9862 8.18058 68.3778 7.25427C69.0301 5.71166 70.2029 2.60607 70.8658 1.72154C71.3353 1.09527 72.3681 -0.627159 75.2073 1.04693C75.3549 0.513851 75.8594 0.132207 76.3597 0.175522C76.86 0.218495 77.3053 0.682078 77.377 1.23434C77.6147 0.451694 78.3857 -0.0592968 79.126 0.00567479C79.8666 0.0703906 80.5312 0.660762 80.8189 1.422C81.1069 2.18359 81.0374 3.08202 80.7034 3.81964C81.2277 4.15533 81.5135 4.89423 81.3723 5.54804C81.2314 6.20202 80.6752 6.71617 80.0711 6.75104C80.1783 7.05245 80.1119 7.42062 79.9092 7.65322C79.7059 7.88608 79.3771 7.97058 79.1027 7.86076L68.7064 13.4133L68.7065 13.4134Z" fill="#1A1F4F"/>
<path d="M70.1444 11.5075C70.0447 11.6423 68.7129 9.83192 67.9974 11.2806C67.0265 13.2479 69.2358 13.7465 69.3158 14.0876C69.4772 14.7792 69.0983 15.1199 70.455 16.4368C71.2816 17.2391 73.4531 20.1152 74.9563 20.0873C75.5746 20.0757 76.44 19.1612 79.3848 7.45193C79.3848 7.45193 78.6439 8.28948 77.8782 8.2957C77.1125 8.30201 76.2748 6.92422 75.5896 6.35321C72.5977 3.86016 70.7312 10.7151 70.1445 11.5077L70.1444 11.5075Z" fill="#FFBDBD"/>
<path d="M76.5245 13.0183C76.4689 13.2079 76.3517 13.3357 76.2632 13.3037C76.1741 13.2713 76.1471 13.0915 76.2027 12.9016C76.2583 12.7119 76.3755 12.5841 76.4645 12.6164C76.5533 12.6485 76.5802 12.8287 76.5246 13.0183H76.5245Z" fill="#10242E"/>
<path d="M77.7356 13.292C77.6757 13.4957 77.5631 13.6379 77.4835 13.609C77.4045 13.5801 77.3883 13.3918 77.448 13.1876C77.5079 12.9839 77.6119 12.8885 77.6914 12.9174C77.771 12.946 77.7953 13.0879 77.7357 13.292H77.7356Z" fill="#10242E"/>
<path d="M68.2852 11.4319C68.2852 11.4319 69.4481 11.0251 69.4902 12.2436L68.2852 11.4319Z" fill="#EC8492"/>
<path d="M77.0423 12.712L76.2258 14.9355L77.2187 15.2808C77.2823 15.2956 77.5265 15.2346 77.5155 15.1637L77.0423 12.712Z" fill="#EC8492"/>
<path d="M75.0323 15.3032L76.8037 15.7637C76.8037 15.7637 76.4976 16.7548 75.9694 16.5238C75.4411 16.2927 75.0323 15.3033 75.0323 15.3033V15.3032Z" fill="white"/>
<path d="M75.6546 11.0958C76.3717 10.7857 77.0016 10.9843 77.0016 10.9843C76.9541 10.5703 76.5659 10.284 76.1343 10.3445C75.9722 10.3674 75.7471 10.4873 75.6365 10.6938C75.5899 10.7802 75.508 11.1446 75.6546 11.0957V11.0958Z" fill="#10242E"/>
<path d="M77.711 11.2707C78.4786 11.3325 78.9708 11.8126 78.9708 11.8126C79.088 11.4161 78.8483 10.9722 78.4347 10.8212C78.2797 10.7647 78.03 10.7657 77.85 10.8991C77.7748 10.9549 77.5597 11.2451 77.711 11.2707Z" fill="#10242E"/>
<path d="M52.9297 40.4614C52.9297 40.4614 46.8967 58.6844 49.8942 63.7931C52.1058 67.562 82.8302 64.0263 82.8302 64.0263C82.8302 64.0263 87.0963 64.2536 92.8828 65.2427C92.8828 65.2427 91.8439 61.8568 86.487 60.2492C81.3194 58.6982 63.0411 52.5989 63.0411 52.5989L64.4077 38.489L52.9296 40.4614H52.9297Z" fill="#FFBDBD"/>
<path d="M53.2594 42.6826C53.2594 42.6826 50.5523 60.7468 53.254 61.2469C61.4528 62.7641 71.1544 65.0399 71.1544 65.0399C71.1544 65.0399 49.5647 66.7089 49.701 63.2191C47.4714 55.937 51.3412 43.9508 51.3412 43.9508L53.2594 42.6825V42.6826Z" fill="#EC8492"/>
<path d="M58.7073 24.3221C59.5498 23.4701 62.5573 21.4089 63.6381 21.8076C66.2413 22.7685 70.4721 28.3779 67.793 34.3978L63.5882 50.3231L48.7274 48.0738C48.7274 48.0738 51.7156 31.3936 58.7074 24.322L58.7073 24.3221Z" fill="#7A77B9"/>
<path d="M49.648 44.8712L63.8066 47.7959" stroke="white" stroke-width="0.231788" stroke-miterlimit="10"/>
<path d="M125.981 117.651L125.726 121.137L120.755 121.374L123.541 119.627L124.104 117.442L125.981 117.651Z" fill="#FFBDBD"/>
<path d="M123.697 117.163L125.726 121.137L126.138 117.477L123.697 117.163Z" fill="#EC8492"/>
<path d="M123.54 119.321L120.348 121.478L126.388 121.548L125.981 119.356L124.792 120.643L123.54 119.321Z" fill="#6966A1"/>
<path d="M122.942 119.72L123.499 120.117" stroke="white" stroke-width="0.107222" stroke-miterlimit="10"/>
<path d="M122.446 119.98L123.002 120.377" stroke="white" stroke-width="0.107222" stroke-miterlimit="10"/>
<path d="M131.393 118.32L130.976 121.279L135.996 121.722L133.153 119.811L133.312 118.202L131.393 118.32Z" fill="#FFBDBD"/>
<path d="M133.312 118.202L131.393 118.32L130.976 121.279L133.312 118.202Z" fill="#EC8492"/>
<path d="M133.367 119.634L136.215 121.722L130.801 121.652L131.157 119.761L131.99 121.026L133.367 119.634Z" fill="#6966A1"/>
<path d="M133.908 120.01L133.335 120.378" stroke="white" stroke-width="0.107222" stroke-miterlimit="10"/>
<path d="M134.393 120.296L133.82 120.664" stroke="white" stroke-width="0.107222" stroke-miterlimit="10"/>
<path d="M132.303 85.429L127.535 85.4616C127.535 85.4616 126.772 86.0832 126.01 89.304C125.081 93.2289 123.689 103.441 123.232 118.161L126.701 118.277L129.543 95.8105C129.627 95.4832 130.063 95.5622 130.05 95.9028L130.982 118.529L134.4 118.381C134.4 118.381 136.383 93.7182 135.065 90.0273C133.748 86.3368 132.303 85.429 132.303 85.429L132.303 85.429Z" fill="#25334C"/>
<path d="M133.885 91.5354L133.193 118.471" stroke="white" stroke-width="0.107222" stroke-miterlimit="10"/>
<path d="M126.892 91.3658L124.096 118.189" stroke="white" stroke-width="0.107222" stroke-miterlimit="10"/>
<path d="M126.983 118.207L127.202 116.224L122.758 114.658L122.914 118.346L126.983 118.207Z" fill="#A3A1CC"/>
<path d="M130.982 118.529C131.051 118.451 131.145 116.398 131.145 116.398L135.057 115.076L134.65 118.486L130.982 118.529H130.982Z" fill="#A3A1CC"/>
<path d="M119.958 75.1385C119.958 75.1385 122.504 83.4975 123.774 83.0884L123.754 78.9497C123.707 79.0317 121.587 74.349 121.587 74.349C121.587 74.349 120.948 73.1737 120.661 72.9891C120.661 72.9891 119.503 71.9453 119.644 72.4149C119.785 72.8848 120.207 73.4066 120.207 73.4066L119.941 75.0247L119.958 75.1384L119.958 75.1385Z" fill="#FFBDBD"/>
<path d="M120.772 74.2878L121.41 71.2971" stroke="#7A77B9" stroke-width="0.620529" stroke-miterlimit="10" stroke-linecap="round"/>
<path d="M121.535 74.3119C121.535 74.3119 121.528 73.1168 121.377 73.0942C121.226 73.0716 120.514 73.1312 120.446 73.403C120.377 73.6749 120.98 73.6607 120.98 73.6607C120.98 73.6607 120.697 74.2182 120.941 74.3994C121.184 74.5802 121.535 74.3118 121.535 74.3118L121.535 74.3119Z" fill="#FFBDBD"/>
<path d="M129.923 73.4153C129.923 73.4153 127.773 74.8606 127.036 75.6768C126.3 76.493 123.683 78.7061 123.683 78.7061L121.896 74.8418L120.215 76.5344C120.215 76.5344 122.357 83.3166 123.564 83.3583C124.77 83.4005 132.544 77.3873 129.923 73.4154V73.4153Z" fill="white"/>
<path d="M127.108 77.2169C127.108 77.2169 125.543 75.9989 126.732 75.4076C127.922 74.8162 127.014 74.8162 126.294 74.4331C125.574 74.0505 126.544 73.8765 127.202 73.5982C127.859 73.3198 127.296 72.9719 126.732 72.5889C126.169 72.2062 126.482 71.7539 126.482 71.7539L126.649 69.9609C126.494 69.608 126.95 68.5771 127.054 68.2007C127.369 67.0571 129.037 66.4463 130.312 67.0436C130.312 67.0436 133.086 68.2048 132.647 69.3182C132.12 70.6575 132.616 70.8144 133.367 70.9189C134.118 71.0232 134.681 71.6497 133.899 72.276C133.213 72.8253 132.741 73.0413 133.367 73.424C133.993 73.807 134.901 73.5633 134.932 74.2942C134.963 75.025 133.492 75.0595 133.774 75.5816C134.055 76.1036 135.089 75.5467 135.526 76.382C135.965 77.217 136.027 77.5997 136.027 77.5997L127.108 77.2169Z" fill="#1E2F4D"/>
<path d="M130.208 69.9687C130.222 70.0182 130.269 70.0452 130.313 70.0283C130.497 69.9567 130.91 69.7501 131.136 70.264C131.365 70.7836 130.994 71.267 130.719 71.3906C130.64 71.4268 130.46 71.5163 130.425 71.6035C130.32 71.8712 130.378 72.3462 130.42 72.9505C130.513 74.2846 131.551 74.5131 131.551 74.5131C131.551 74.5131 128.874 77.0518 128.412 75.4605C128.594 75.1212 128.484 72.564 128.139 72.7021C127.686 72.8839 126.791 72.6585 126.7 70.3748C126.616 68.2596 127.926 67.9118 128.268 67.8521C128.556 67.8019 129.52 67.5068 130.208 69.9686L130.208 69.9687Z" fill="#FFBDBD"/>
<path d="M127.317 68.0043C127.317 68.0043 129.893 69.9308 130.268 70.0287C130.268 70.0287 130.494 66.3901 127.317 68.0043Z" fill="#1E2F4D"/>
<path d="M130.974 70.5C130.974 70.5 130.474 69.9305 130.388 70.9831L130.974 70.5Z" fill="#EC8492"/>
<path d="M128.604 70.584C128.363 70.6693 128.23 70.9563 128.307 71.2247C128.384 71.4927 128.642 71.6409 128.883 71.5552C129.124 71.4698 129.257 71.1832 129.181 70.9148C129.104 70.6467 128.845 70.4986 128.604 70.584Z" fill="#FF9C9C"/>
<path d="M126.854 71.4543C127.04 71.3386 127.133 71.0896 127.066 70.8548C127.014 70.6739 126.88 70.5477 126.724 70.511C126.724 70.511 126.704 71.115 126.854 71.4543L126.854 71.4543Z" fill="#FF9C9C"/>
<path d="M127.53 70.4265L127.588 70.991L127.323 70.9659C127.274 70.9615 127.248 70.9003 127.275 70.8551L127.53 70.4266L127.53 70.4265Z" fill="#EC8492"/>
<path d="M128.27 69.8187C128.355 69.8858 128.226 69.5877 128.109 69.5521C127.993 69.5167 127.876 69.5785 127.849 69.6903C127.849 69.6903 128.066 69.6573 128.27 69.8187Z" fill="black"/>
<path d="M126.862 69.7705C126.776 69.8364 126.909 69.5404 127.026 69.5065C127.142 69.473 127.258 69.5364 127.284 69.6487C127.284 69.6487 127.067 69.6123 126.862 69.7706V69.7705Z" fill="black"/>
<path d="M127.954 70.5058C127.949 70.606 127.91 70.6848 127.866 70.6823C127.822 70.6798 127.791 70.5966 127.796 70.4968C127.8 70.3967 127.84 70.3175 127.883 70.3203C127.927 70.3228 127.959 70.4059 127.954 70.5058Z" fill="black"/>
<path d="M127.168 70.4534C127.163 70.5492 127.126 70.6245 127.084 70.6221C127.043 70.6195 127.012 70.5401 127.017 70.4446C127.021 70.3492 127.059 70.2736 127.101 70.2761C127.142 70.2785 127.172 70.358 127.168 70.4534H127.168Z" fill="black"/>
<path d="M128.242 72.698C128.242 72.698 128.88 72.4563 129.287 72.2677C129.693 72.0789 128.671 73.9176 128.242 72.698Z" fill="black"/>
<path d="M127.616 70.1838C127.629 70.7441 127.823 71.1255 128.155 71.1164C128.487 71.1069 128.873 70.4528 128.86 69.8922C128.892 69.7358 128.759 70.1248 128.454 69.9795C128.344 69.9269 127.928 69.749 127.616 70.1838V70.1838Z" stroke="#1E334D" stroke-width="0.118242" stroke-miterlimit="10"/>
<path d="M126.341 69.8749C126.353 70.3828 126.572 71.0317 126.873 71.0232C127.174 71.0147 127.432 70.7134 127.421 70.2055C127.269 69.8665 127.049 69.9361 126.748 69.9446C126.447 69.9527 126.33 69.367 126.341 69.8749Z" stroke="#1E334D" stroke-width="0.118242" stroke-miterlimit="10"/>
<path d="M127.62 70.3185L127.384 70.3216" stroke="#1E334D" stroke-width="0.118242" stroke-miterlimit="10"/>
<path d="M128.814 70.3054L130.66 69.866" stroke="#1E334D" stroke-width="0.118242" stroke-miterlimit="10"/>
<path d="M130.65 74.3582C130.65 74.3582 131.098 74.2207 131.023 74.3252C130.948 74.43 130.788 74.5453 130.628 74.6608L130.65 74.3582V74.3582Z" fill="#C20600"/>
<path d="M128.401 74.0194C128.45 74.1544 126.326 78.737 126.372 80.0557C126.417 81.3849 127.209 85.6493 127.143 85.8484C127.143 85.8484 128.061 86.6738 133.184 85.8465C134.772 84.3385 133.447 77.1043 132.937 75.4519C132.937 75.4519 130.991 73.5969 130.558 73.5554C130.558 73.5554 129.048 76.1035 128.401 74.0193V74.0194Z" fill="#A3A1CC"/>
<path d="M131.245 74.3191C131.245 74.3191 129.732 78.6476 128.947 79.5653C128.162 80.4828 129.593 93.4281 129.593 93.4281L137.181 93.9077C137.181 93.9077 135.951 88.9153 134.003 86.6968C135.308 78.8843 133.717 77.3533 133.717 77.3533C133.574 75.9667 132.703 74.8081 131.501 74.405L131.245 74.3191Z" fill="white"/>
<path d="M130.958 74.252C129.698 77.3639 130.154 76.822 128.884 79.669C128.884 79.669 128.692 83.5819 128.83 84.6445C128.83 84.6445 131.11 79.5308 131.597 78.5761L131.378 77.3133L132.334 77.1428L131.941 74.4535L130.958 74.252Z" fill="#224382"/>
<path d="M130.748 73.5229C130.748 73.5229 129.684 77.3342 128.625 79.7068C128.625 79.7068 128.29 83.1937 128.427 84.256C128.427 84.256 130.658 79.2145 131.145 78.2596L130.919 77.1627L131.786 76.9091L132.037 74.3492L130.748 73.5229H130.748Z" fill="white"/>
<path d="M127.95 85.095L134.056 80.4631L133.964 81.6331C133.964 81.6331 133.166 85.6249 132.547 86.782C131.896 87.9986 131.155 89.3919 129.499 87.3734L127.95 85.095H127.95Z" fill="#25334C"/>
<path d="M128.318 74.0412C128.318 74.0412 127.479 78.0216 127.638 79.8066C127.665 80.1051 128.297 93.4415 128.297 93.4415L123.761 93.2418L126.988 75.4852L128.318 74.0411L128.318 74.0412Z" fill="white"/>
<path d="M128.358 73.8C128.313 73.8327 127.546 74.4687 127.546 74.4687L127.344 75.278L127.711 75.7966L127.185 76.1875C127.185 76.1875 126.557 77.704 127.16 81.2421C127.763 84.7803 127.638 83.9003 127.638 83.9003L128.358 73.8H128.358Z" fill="white"/>
<path d="M128.337 74.4623C128.278 74.4136 127.511 75.0496 127.511 75.0496L127.308 75.8591L127.676 76.3777L126.887 76.5325C126.887 76.5325 126.522 78.2848 127.125 81.823C127.728 85.3612 127.616 84.5625 127.616 84.5625L128.337 74.4623H128.337Z" fill="#224382"/>
<path d="M128.497 73.9151C128.453 73.9478 127.546 74.4685 127.546 74.4685L127.344 75.2781L127.711 75.7967L126.931 76.476C126.931 76.476 126.892 78.2443 127.495 81.7824C128.098 85.3205 127.65 84.1591 127.65 84.1591L128.497 73.915L128.497 73.9151Z" fill="white"/>
<path d="M126.627 81.1244C126.609 80.9882 126.591 80.8491 126.534 80.727C126.477 80.6046 126.374 80.5004 126.25 80.4881C126.088 80.4718 125.946 80.6155 125.862 80.7712C125.823 80.8444 125.791 80.9223 125.768 81.003C125.762 81.0247 125.758 81.0529 125.775 81.0658C125.785 81.0733 125.798 81.0717 125.81 81.0702C126.061 81.0375 126.312 81.1787 126.563 81.143L126.627 81.1245L126.627 81.1244Z" fill="#35445C"/>
<path d="M125.729 81.2729L126.633 81.2851C126.691 81.2857 126.74 81.2337 126.741 81.1684C126.741 81.1028 126.694 81.0495 126.635 81.0488L125.732 81.0365C125.674 81.0359 125.625 81.088 125.624 81.1532C125.624 81.2185 125.671 81.2723 125.729 81.2729Z" fill="#ADBEDE"/>
<path d="M126.15 84.4379L124.113 77.0266C124.001 76.6161 123.738 76.282 123.394 76.1112L119.084 73.9729C118.956 73.9094 118.823 74.0488 118.866 74.2011L120.926 81.4626C121.037 81.8534 121.284 82.1739 121.608 82.3475L125.928 84.6624C126.055 84.7309 126.192 84.5921 126.15 84.438L126.15 84.4379Z" fill="#25334C"/>
<path d="M125.975 84.5513L123.938 77.14C123.825 76.7294 123.563 76.3954 123.219 76.2246L118.909 74.0862C118.781 74.0228 118.648 74.1625 118.691 74.3145L120.751 81.5759C120.862 81.9671 121.109 82.2873 121.433 82.4609L125.753 84.7758C125.88 84.8442 126.017 84.7055 125.975 84.5513V84.5513Z" fill="#E6E9FC"/>
<path d="M119.958 75.1384C119.973 75.1121 122.285 76.304 122.285 76.304L122.058 75.4037L119.673 74.2372L119.958 75.1384H119.958Z" fill="#7A77B9"/>
<path d="M120.379 74.8273C120.394 74.8009 121.607 75.3977 121.607 75.3977L121.432 74.7034C121.399 74.5737 121.314 74.4683 121.201 74.4183L120.892 74.2809C120.581 74.1427 120.268 74.4759 120.379 74.8274V74.8273Z" fill="#9455B5"/>
<path d="M125.698 81.9579C125.698 81.9579 130.133 87.83 131.134 86.87L129.565 83.1162C129.554 83.2129 125.871 79.9378 125.871 79.9378C125.871 79.9378 123.361 78.8059 123.298 79.1675C123.254 79.4192 124.801 79.6183 124.655 79.6164C124.639 79.616 123.29 79.3448 123.158 79.4882C122.963 79.6999 124.541 80.0411 124.522 80.1597C124.522 80.1597 122.945 80.1714 122.895 80.3465C122.846 80.522 124.469 80.6517 124.437 80.7041C124.405 80.7562 123.584 80.6918 123.487 80.9191C123.389 81.1467 125.698 81.9578 125.698 81.9578L125.698 81.9579Z" fill="#FFBDBD"/>
<path d="M124.971 79.6862C124.971 79.6862 124.372 78.3367 124.639 78.4987C124.907 78.6604 126.276 80.3414 126.276 80.3414L124.971 79.6862H124.971Z" fill="#FFBDBD"/>
<path d="M132.812 75.3016C132.812 75.3016 131.687 77.5379 131.323 78.621C130.959 79.704 129.409 82.9278 129.409 82.9278L126.337 80.2423L125.443 82.5596C125.443 82.5596 129.932 87.7332 131.044 87.2127C132.156 86.6923 136.683 77.6983 132.812 75.3015L132.812 75.3016Z" fill="white"/>
<path d="M104.847 35.6254L106.915 41.7373L103.649 45.3043C104.608 45.6223 112.224 45.374 111.973 41.8942C111.856 40.2656 110.941 38.0676 110.555 36.8348L104.847 35.6254H104.847Z" fill="#25334C"/>
<path d="M101.351 45.0736C101.281 45.0385 99.5775 45.1917 99.5041 45.0004C99.3935 44.7133 101.297 44.5798 101.329 44.5761C101.813 44.5165 99.5123 44.7823 99.3937 44.6049C99.2751 44.4279 100.317 44.2263 100.354 44.2181C100.354 44.2181 101.255 44.1042 101.261 44.0295C101.268 43.9547 99.1847 43.9919 99.3093 43.7988C99.4333 43.6058 100.759 43.3578 101.095 43.3437C101.43 43.3292 101.79 43.1434 102.043 43.1035C102.391 43.0482 100.769 42.4916 101.09 42.0619C101.09 42.0619 102.563 42.3224 103.064 42.5883C103.328 42.7283 107.032 40.4302 107.032 40.4302C107.419 40.1924 107.426 40.0942 107.221 39.6576L104.655 33.3312C104.655 33.3312 103.65 30.3826 104.969 30.2932C106.934 30.1595 110.196 32.9706 111.558 40.5532C111.867 42.2742 111.167 43.5107 109.135 44.1532L107.372 44.4947L107.387 44.5374C103.811 45.3156 101.471 45.3979 101.042 45.4312C100.796 45.4499 100.051 45.4211 100.014 45.3162C99.9286 45.0774 101.42 45.1088 101.35 45.0736H101.351Z" fill="#F69491"/>
<path d="M104.005 42.2014C103.516 42.4604 103.141 42.6296 103.064 42.5884C102.563 42.3226 101.09 42.062 101.09 42.062C100.769 42.4918 102.39 43.0484 102.043 43.1036C101.79 43.1436 101.43 43.3294 101.095 43.3438C100.759 43.358 99.4332 43.606 99.309 43.799C99.1848 43.9921 100.893 44.0156 100.886 44.0903C100.88 44.1651 100.353 44.2184 100.353 44.2184C100.317 44.2265 99.2751 44.4281 99.3937 44.6052C99.5123 44.7826 101.812 44.5167 101.328 44.5763C101.296 44.5801 99.3935 44.7135 99.5039 45.0007C99.5773 45.1919 101.281 45.0388 101.351 45.0739C101.42 45.109 99.9286 45.0777 100.014 45.3166C100.052 45.4214 100.796 45.4503 101.042 45.4314C101.351 45.4075 102.646 45.3583 104.677 45.0437C104.462 44.0935 104.242 43.1451 104.005 42.2016L104.005 42.2014Z" fill="white"/>
<path d="M104.005 42.2014C103.516 42.4604 103.141 42.6296 103.064 42.5884C102.563 42.3226 101.09 42.062 101.09 42.062C100.769 42.4918 102.39 43.0484 102.043 43.1036C101.79 43.1436 101.43 43.3294 101.095 43.3438C100.759 43.358 99.4332 43.606 99.309 43.799C99.1848 43.9921 100.893 44.0156 100.886 44.0903C100.88 44.1651 100.353 44.2184 100.353 44.2184C100.317 44.2265 99.2751 44.4281 99.3937 44.6052C99.5123 44.7826 101.812 44.5167 101.328 44.5763C101.296 44.5801 99.3935 44.7135 99.5039 45.0007C99.5773 45.1919 101.281 45.0388 101.351 45.0739C101.42 45.109 99.9286 45.0777 100.014 45.3166C100.052 45.4214 100.796 45.4503 101.042 45.4314C101.351 45.4075 102.646 45.3583 104.677 45.0437C104.462 44.0935 104.242 43.1451 104.005 42.2016L104.005 42.2014Z" stroke="white" stroke-width="0.0761768" stroke-miterlimit="10"/>
<path d="M104.278 28.6257C104.278 28.6257 99.9558 28.6489 106.049 38.1101L111.352 36.6823C111.352 36.6823 107.44 27.5957 104.278 28.6257Z" fill="#7692E0"/>
<path d="M105.51 36.9993L110.93 35.5048" stroke="white" stroke-width="0.0761768" stroke-miterlimit="10"/>
</svg>
