<svg width="35" height="35" viewBox="0 0 35 35" fill="none" xmlns="http://www.w3.org/2000/svg">
<g clip-path="url(#clip0_8_1200)">
<path d="M17.1089 0C21.7935 0 26.0354 1.95979 29.1047 5.12586C32.1746 8.29198 34.0739 12.6683 34.0739 17.5C34.0739 22.3317 32.1746 26.708 29.1047 29.8741C26.0354 33.0409 21.7929 35 17.1089 35C12.4249 35 8.18242 33.0408 5.11309 29.8741C2.04377 26.708 0.143921 22.3324 0.143921 17.5C0.143921 12.6676 2.0438 8.29198 5.11309 5.12586C8.18242 1.95976 12.4243 0 17.1089 0ZM28.2204 6.03804C25.3775 3.10544 21.4477 1.29019 17.1089 1.29019C12.7701 1.29019 8.84029 3.10547 5.99736 6.03804C3.15445 8.9706 1.39466 13.0243 1.39466 17.5C1.39466 21.9756 3.15448 26.0294 5.99736 28.962C8.84029 31.8952 12.7694 33.7098 17.1089 33.7098C21.4483 33.7098 25.3775 31.8952 28.2204 28.962C31.064 26.0294 32.8231 21.9763 32.8231 17.5C32.8231 13.0237 31.0639 8.9706 28.2204 6.03804Z" fill="#423185"/>
<path fill-rule="evenodd" clip-rule="evenodd" d="M18.7581 18.7851C18.0226 18.7851 17.4531 19.397 17.4531 20.1314C17.4531 20.8902 18.0463 21.4777 18.7581 21.4777C19.4937 21.4777 20.0632 20.8658 20.0632 20.1314C20.0871 19.3725 19.4937 18.7851 18.7581 18.7851ZM18.7581 20.8168C18.4022 20.8168 18.0937 20.523 18.0937 20.1314C18.0937 19.7397 18.3786 19.446 18.7581 19.446C19.1141 19.446 19.4226 19.7397 19.4226 20.1314C19.4226 20.523 19.1379 20.8168 18.7581 20.8168ZM25.9957 23.852C24.9753 23.852 24.0024 23.3136 23.433 22.4324L21.6294 19.8865C22.2938 18.932 22.6736 17.7815 22.6736 16.5331C22.6736 14.5014 21.6294 12.6901 20.087 11.6619C20.1107 11.7844 20.1345 11.9312 20.1345 12.0537C20.1345 12.8124 19.7311 13.4978 19.1141 13.8404C19.8971 14.4525 20.3955 15.4316 20.3955 16.5332C20.3955 16.9982 20.3006 17.4387 20.1345 17.8548C19.7073 17.5612 19.209 17.4143 18.7107 17.4143C17.5005 17.4143 16.5039 18.271 16.2428 19.446H10.1205V20.8169H16.1005V23.852H14.7952V22.9954H11.212V23.852H8.22205V25.5411H25.9957L25.9957 23.852ZM18.7581 21.8203C17.8565 21.8203 17.1207 21.0615 17.1207 20.1314C17.1207 19.2012 17.8565 18.4423 18.7581 18.4423C19.6598 18.4423 20.3956 19.2012 20.3956 20.1314C20.4192 21.0615 19.6837 21.8203 18.7581 21.8203ZM18.1411 10.3892C17.2394 10.3892 16.5039 11.1479 16.5039 12.078C16.5039 13.0082 17.2394 13.7671 18.1411 13.7671C19.0429 13.7671 19.7786 13.0082 19.7786 12.078C19.7786 11.1479 19.0429 10.3892 18.1411 10.3892ZM18.1411 12.9348C17.6903 12.9348 17.3107 12.5431 17.3107 12.078C17.3107 11.613 17.6903 11.2214 18.1411 11.2214C18.592 11.2214 18.9717 11.613 18.9717 12.078C18.9717 12.5431 18.592 12.9348 18.1411 12.9348Z" fill="#423185"/>
<path fill-rule="evenodd" clip-rule="evenodd" d="M19.3615 8.61371L20.1801 7.15111L18.1869 5.96387L17.3681 7.4265L19.3615 8.61371ZM17.0497 13.7671C16.5276 13.3999 16.1716 12.788 16.1716 12.078C16.1716 10.9521 17.0497 10.0463 18.1412 10.0463C18.4497 10.0463 18.7344 10.1198 19.0192 10.2421L19.5414 9.312L16.6937 7.6231L13.3952 13.4978L16.2429 15.1868L17.0497 13.7671V13.7671ZM14.7561 16.8385L15.5747 15.3759L13.5813 14.1886L12.7627 15.6512L14.7561 16.8385Z" fill="#91C02C"/>
</g>
<defs>
<clipPath id="clip0_8_1200">
<rect width="33.9299" height="35" fill="white" transform="translate(0.143921)"/>
</clipPath>
</defs>
</svg>
