<svg version="1.1" id="Layer_1" xmlns="http://www.w3.org/2000/svg" xmlns:xlink="http://www.w3.org/1999/xlink" x="0px" y="0px"
	 width="100%" viewBox="0 0 920 1039" enable-background="new 0 0 920 1039" xml:space="preserve">
<path fill="#FFFFFF" opacity="1.000000" stroke="none" 
	d="
M1.000001,569.000000 
	C1.000000,379.720154 1.000000,190.440323 1.000000,1.000000 
	C302.361359,1.000000 603.722717,1.000000 905.336914,1.382712 
	C893.408508,2.510012 881.231995,3.346123 869.044495,3.969656 
	C859.627136,4.451462 850.194214,4.619015 840.772034,5.017525 
	C834.507629,5.282477 828.132263,5.069411 822.014648,6.198231 
	C810.192078,8.379716 798.526367,11.402723 786.778015,13.997261 
	C765.499146,18.696558 744.212585,23.361071 722.919373,27.994900 
	C707.343994,31.384405 691.731384,34.605202 676.176880,38.086906 
	C666.781982,40.189850 657.466492,42.647778 648.137024,45.296043 
	C650.296082,48.121895 652.576965,50.489250 654.547607,53.091526 
	C667.366943,70.019684 680.118835,86.998878 692.579895,104.084251 
	C685.841553,111.635544 679.463135,119.105293 672.980591,126.483490 
	C660.416626,140.783432 647.798767,155.036087 635.194214,169.300385 
	C624.110718,181.843414 613.014893,194.375549 601.488892,206.949402 
	C590.197815,207.657791 579.344360,208.364319 568.486267,208.991516 
	C556.294678,209.695724 544.101135,210.374725 531.904236,210.979935 
	C517.380798,211.700607 502.851471,212.303513 488.327179,213.009064 
	C475.464966,213.633865 462.608032,214.367401 449.745422,214.983749 
	C434.888306,215.695648 420.030090,216.396744 405.167542,216.979599 
	C393.910889,217.421051 382.645935,217.648071 371.387421,218.047913 
	C370.545990,218.077789 369.726715,218.730255 368.515930,219.097443 
	C366.094543,220.232254 363.468567,220.889526 362.109802,222.570862 
	C353.718140,232.954712 345.573608,243.539673 337.419220,254.113541 
	C323.010712,272.797241 308.689850,291.548615 294.265228,310.219849 
	C280.328278,328.259918 266.245544,346.187531 252.340210,364.251831 
	C239.544144,380.875122 227.009109,397.699951 214.159821,414.281555 
	C197.396637,435.913879 180.330490,457.311615 163.590332,478.961548 
	C144.586182,503.539520 125.798119,528.284546 106.490257,552.975159 
	C99.445641,553.995239 92.834076,555.047729 86.206467,555.987122 
	C76.002708,557.433289 65.776711,558.725281 55.580742,560.222961 
	C42.977768,562.074219 30.389429,564.028259 17.807806,566.020325 
	C12.188820,566.910095 6.601627,568.000610 1.000001,569.000000 
z"/>
<path fill="#FFFFFF" opacity="1.000000" stroke="none" 
	d="
M921.000000,3.000000 
	C921.000000,348.590607 921.000000,694.181213 921.000000,1040.000000 
	C642.970703,1040.000000 364.941284,1040.000000 86.494774,1039.634521 
	C90.350761,1037.694214 94.555794,1035.893066 98.908562,1034.582764 
	C119.840736,1028.281250 140.818451,1022.131165 161.768951,1015.890259 
	C178.754547,1010.830383 195.707687,1005.660522 212.716064,1000.678894 
	C215.969360,999.726013 217.485809,998.130310 217.030975,994.658813 
	C216.559036,991.056885 216.246628,987.427979 216.019669,983.801086 
	C214.985641,967.277832 214.002777,950.751343 213.008179,934.225647 
	C212.003601,917.533875 210.932190,900.845642 210.029419,884.148376 
	C209.250916,869.749878 208.683640,855.339966 207.992050,840.936646 
	C207.690140,834.648804 207.336319,828.363159 206.962006,822.079224 
	C205.987534,805.719421 204.988647,789.360962 203.853745,772.693237 
	C197.327026,762.670410 190.863464,753.009338 184.594864,743.223328 
	C180.583847,736.961731 176.860809,730.515564 173.368347,723.973877 
	C177.637543,722.864258 181.504517,721.642151 185.465515,721.062744 
	C193.490601,719.888916 201.073944,718.426208 204.873764,709.802795 
	C205.859283,707.566223 208.216782,705.934326 209.967407,704.455017 
	C210.654556,712.255554 211.494598,719.614929 211.947311,726.998108 
	C213.059631,745.138428 213.973282,763.290833 215.007019,781.436096 
	C215.626785,792.314941 216.379257,803.186401 216.970932,814.066650 
	C218.021042,833.377014 219.021301,852.690308 219.986893,872.005066 
	C220.400131,880.271118 220.505753,888.556213 221.093552,896.808167 
	C221.331863,900.153503 221.745148,903.849060 223.336807,906.677307 
	C235.011841,927.423157 246.969360,948.010742 258.926239,968.596802 
	C261.781097,973.511963 264.969513,978.233398 268.210938,983.320557 
	C270.329742,983.208435 272.286102,982.966614 274.148041,982.409302 
	C310.943420,971.393372 347.700500,960.247559 384.555695,949.436096 
	C388.362213,948.319458 389.181885,946.676453 389.039368,943.249390 
	C388.598175,932.641479 388.192841,922.028320 388.038025,911.413269 
	C387.870514,899.925964 388.000610,888.434265 388.307922,877.097168 
	C391.918793,881.509155 395.163177,885.816223 398.537231,890.019287 
	C410.296326,904.667603 422.100372,919.279785 434.300171,933.933960 
	C436.324738,933.637573 437.970795,933.430115 439.542633,932.969421 
	C450.821106,929.664001 462.086792,926.314758 473.352234,922.964966 
	C495.408569,916.406555 517.480896,909.899963 539.474854,903.138367 
	C540.956421,902.682861 542.792969,900.308838 542.849976,898.767395 
	C543.426819,883.167175 543.667053,867.554565 544.315063,852.069824 
	C556.703369,863.909119 568.762268,875.640869 580.887146,887.304077 
	C581.771667,888.154968 583.134094,888.508972 584.674561,889.073242 
	C591.124817,887.402893 597.207275,885.862549 603.219421,884.084534 
	C627.648010,876.859924 652.032104,869.483459 676.493286,862.371704 
	C680.423645,861.229065 681.867737,858.924683 681.985596,855.261292 
	C682.342957,844.157410 682.668457,833.052490 683.321167,822.074341 
	C695.064697,831.446716 706.493530,840.692749 718.306396,849.933838 
	C721.687866,848.962280 724.666382,847.932190 727.685425,847.038879 
	C753.088989,839.522583 778.513672,832.076782 803.870056,824.404541 
	C805.200439,824.001953 806.708801,821.824036 806.875488,820.332031 
	C807.792847,812.121582 808.352661,803.869873 808.970886,795.627563 
	C810.331848,777.485229 811.646118,759.339478 812.995361,741.196228 
	C813.976501,728.003479 814.994446,714.813477 815.975464,701.620728 
	C817.324585,683.477478 818.651611,665.332703 819.993347,647.188904 
	C821.322876,629.211121 822.659180,611.233765 823.992004,593.256226 
	C825.324829,575.278687 826.647583,557.300354 827.992432,539.323730 
	C829.312439,521.678467 830.664429,504.035553 831.984375,486.390228 
	C833.329102,468.413574 834.657288,450.435730 835.982910,432.457642 
	C836.992371,418.766907 838.050293,405.079315 838.970825,391.382568 
	C840.047363,375.363953 840.982361,359.335846 842.012573,343.314026 
	C842.341736,338.194458 842.769470,333.081085 843.168396,327.966156 
	C844.106750,315.936920 845.011780,303.904785 846.028503,291.882141 
	C846.293701,288.745758 844.963867,287.613831 841.926575,287.563293 
	C841.497437,286.850464 841.203186,286.275757 840.811768,286.199493 
	C823.152283,282.758301 805.465759,279.453217 787.824890,275.919891 
	C778.823242,274.116943 769.901672,271.913879 761.081116,269.580566 
	C765.064087,264.427643 768.878174,259.560303 772.761841,254.749054 
	C782.166260,243.098236 791.603149,231.473602 801.460449,219.911606 
	C807.380005,220.656708 812.873535,221.274368 818.350647,222.013214 
	C826.553467,223.119781 834.737671,224.365799 842.943054,225.452316 
	C851.948975,226.644852 860.969971,227.723770 870.359497,228.786804 
	C871.487915,226.251770 872.416992,223.820557 872.966980,221.306396 
	C877.887817,198.813080 882.710754,176.298340 887.625854,153.803741 
	C891.363831,136.696655 895.246277,119.621071 898.970032,102.510902 
	C903.867065,80.009689 908.696350,57.493622 913.504761,34.973255 
	C915.774597,24.342670 917.928101,13.687240 920.351501,3.048028 
	C920.568726,3.052991 921.000000,3.000000 921.000000,3.000000 
z"/>
<path fill="#5AA421" opacity="1.000000" stroke="none" 
	d="
M921.000000,2.499993 
	C921.000000,3.000000 920.568726,3.052991 920.003296,3.076526 
	C919.019165,3.347758 918.484680,3.501904 918.198425,3.856493 
	C899.259277,27.317440 880.312927,50.772739 861.426697,74.276291 
	C841.507690,99.065254 821.696960,123.941307 801.748230,148.706268 
	C781.796692,173.474823 761.682434,198.112289 741.735352,222.884460 
	C727.400757,240.686569 713.316467,258.691437 698.845764,276.381073 
	C697.241211,278.342651 693.911011,279.594971 691.248474,279.864227 
	C681.039185,280.896576 670.770569,281.325897 660.533691,282.106323 
	C644.203613,283.351227 627.886292,284.764923 611.553772,285.976044 
	C600.652100,286.784454 589.729065,287.301788 578.823425,288.061829 
	C560.662415,289.327515 542.507996,290.687408 524.350098,291.998840 
	C519.063782,292.380646 513.771484,292.685455 508.488495,293.106934 
	C492.494049,294.382965 476.518219,296.016724 460.500305,296.792084 
	C456.097443,297.005219 453.365936,298.475983 450.964661,301.586823 
	C432.742767,325.193237 414.615173,348.872955 396.296356,372.403839 
	C380.654144,392.496582 364.833221,412.450745 349.010895,432.402405 
	C344.745697,437.780792 337.268982,439.243561 331.815308,435.872009 
	C323.062622,430.460938 314.433075,424.850830 305.688446,419.426422 
	C302.377228,417.372437 299.005127,415.576385 299.827026,410.720276 
	C299.904510,410.262360 298.559235,409.563660 297.945435,408.633362 
	C315.341797,385.670624 332.674927,363.057190 349.990845,340.430573 
	C375.305298,307.352478 400.624329,274.277832 425.875397,241.151443 
	C427.507263,239.010681 428.575043,236.439957 430.277100,234.183151 
	C433.403534,234.199493 436.161285,234.155731 438.912170,233.994843 
	C449.656311,233.366455 460.394836,232.634842 471.141907,232.063660 
	C491.168060,230.999298 511.196625,229.974548 531.228516,229.025604 
	C540.841187,228.570236 550.465576,228.369186 560.081177,227.969559 
	C566.371948,227.708099 572.659973,227.351349 578.943054,226.943024 
	C598.766357,225.654724 618.581421,224.232483 638.410645,223.045410 
	C647.849243,222.480362 657.320740,222.473526 666.761414,221.934540 
	C671.817505,221.645859 676.839844,220.764679 682.252441,220.114441 
	C684.478516,218.811127 686.676392,217.853104 688.124390,216.227264 
	C697.495911,205.704849 706.724426,195.054642 715.961487,184.412994 
	C735.410767,162.006348 754.858826,139.598495 774.246582,117.138680 
	C777.027466,113.917213 779.470459,110.404114 782.049438,106.668091 
	C778.569031,101.261833 775.177795,96.164658 771.636292,91.174080 
	C760.039062,74.831604 748.387146,58.527905 737.180786,42.149246 
	C738.103638,42.050980 738.615906,42.074837 739.098145,41.965744 
	C786.389771,31.266708 833.685852,20.587360 880.963989,9.828938 
	C893.338257,7.013083 905.656189,3.949687 918.000000,0.999986 
	C919.000000,1.333319 920.000000,1.666652 921.000000,2.499993 
z"/>
<path fill="#DBDBDB" opacity="1.000000" stroke="none" 
	d="
M203.999496,773.002014 
	C204.988647,789.360962 205.987534,805.719421 206.962006,822.079224 
	C207.336319,828.363159 207.690140,834.648804 207.992050,840.936646 
	C208.683640,855.339966 209.250916,869.749878 210.029419,884.148376 
	C210.932190,900.845642 212.003601,917.533875 213.008179,934.225647 
	C214.002777,950.751343 214.985641,967.277832 216.019669,983.801086 
	C216.246628,987.427979 216.559036,991.056885 217.030975,994.658813 
	C217.485809,998.130310 215.969360,999.726013 212.716064,1000.678894 
	C195.707687,1005.660522 178.754547,1010.830383 161.768951,1015.890259 
	C140.818451,1022.131165 119.840736,1028.281250 98.908562,1034.582764 
	C94.555794,1035.893066 90.350761,1037.694214 86.038818,1039.634521 
	C85.250000,1040.000000 84.500000,1040.000000 83.307266,1039.812744 
	C82.576355,1039.750366 82.288177,1039.875122 82.000000,1040.000000 
	C82.000000,1040.000000 81.500000,1040.000000 81.238434,1039.671021 
	C80.985420,1038.903076 80.993973,1038.464111 81.008842,1037.579102 
	C80.615555,1031.843750 80.290627,1026.547485 79.802567,1021.266357 
	C78.232925,1004.281982 76.588318,987.304565 75.001480,970.321716 
	C73.891655,958.443970 72.850487,946.559875 71.740196,934.682190 
	C70.183472,918.028748 68.558212,901.381653 67.024780,884.726135 
	C65.900780,872.517578 64.879982,860.299438 63.808258,848.086060 
	C62.519756,833.402283 61.226048,818.718872 60.363983,804.031372 
	C61.787743,803.975952 62.814045,804.066956 63.771873,803.852356 
	C101.627892,795.372131 139.469437,786.827026 177.334442,778.387207 
	C186.183273,776.414856 195.109100,774.787903 203.999496,773.002014 
z"/>
<path fill="#FFFFFF" opacity="1.000000" stroke="none" 
	d="
M81.002518,1038.025146 
	C80.993973,1038.464111 80.985420,1038.903076 80.988434,1039.671021 
	C54.354595,1040.000000 27.709188,1040.000000 1.000000,1040.000000 
	C1.000000,883.979126 1.000000,727.958191 1.207271,571.519409 
	C1.414543,571.101440 1.831582,571.010803 1.907604,571.462952 
	C2.655373,579.419678 3.355830,586.921753 3.991194,594.429443 
	C4.696537,602.763855 5.183973,611.119812 6.049126,619.437012 
	C7.586486,634.216492 9.997331,648.937988 10.803074,663.751099 
	C11.532413,677.159668 14.524121,689.534546 20.659019,701.487549 
	C25.720072,711.348328 29.636765,721.796387 33.730476,732.122192 
	C32.666271,734.357361 28.367903,730.681274 29.000360,735.440002 
	C29.009398,738.232361 28.803511,740.587463 29.047436,742.895142 
	C30.637569,757.937805 32.405209,772.961975 33.959888,788.008179 
	C35.719139,805.034302 37.315945,822.077332 38.983353,839.112976 
	C40.650761,856.148621 42.383587,873.178223 43.966137,890.221741 
	C45.397930,905.641663 46.479134,921.096252 48.092690,936.496033 
	C48.789017,943.141602 49.729229,949.918457 51.790489,956.233643 
	C57.078892,972.435974 63.020294,988.426270 68.772148,1004.475769 
	C72.787811,1015.680847 76.921539,1026.843506 81.002518,1038.025146 
z"/>
<path fill="#6ABD38" opacity="1.000000" stroke="none" 
	d="
M1.831582,571.010803 
	C1.831582,571.010803 1.414543,571.101440 1.207271,571.050720 
	C1.000000,570.555542 1.000000,570.111084 1.000001,569.333313 
	C6.601627,568.000610 12.188820,566.910095 17.807806,566.020325 
	C30.389429,564.028259 42.977768,562.074219 55.580742,560.222961 
	C65.776711,558.725281 76.002708,557.433289 86.206467,555.987122 
	C92.834076,555.047729 99.445641,553.995239 106.769516,553.165771 
	C120.311188,570.240662 133.147736,587.143127 145.914200,604.419922 
	C145.188171,605.191711 144.573868,605.827454 143.869873,605.950562 
	C135.576187,607.401367 127.268837,608.774048 118.965515,610.169922 
	C89.674973,615.093933 60.384598,620.018982 30.915199,624.645020 
	C22.780159,609.180115 14.859556,593.994934 6.835368,578.864685 
	C5.385596,576.131042 3.510384,573.622986 1.831582,571.010803 
z"/>
<path fill="#6ABD38" opacity="1.000000" stroke="none" 
	d="
M917.539368,0.999994 
	C905.656189,3.949687 893.338257,7.013083 880.963989,9.828938 
	C833.685852,20.587360 786.389771,31.266708 739.098145,41.965744 
	C738.615906,42.074837 738.103638,42.050980 736.750977,42.127930 
	C732.276611,42.415173 728.660217,42.790554 725.036133,42.891808 
	C699.396729,43.608116 673.755798,44.268196 648.115356,44.946209 
	C657.466492,42.647778 666.781982,40.189850 676.176880,38.086906 
	C691.731384,34.605202 707.343994,31.384405 722.919373,27.994900 
	C744.212585,23.361071 765.499146,18.696558 786.778015,13.997261 
	C798.526367,11.402723 810.192078,8.379716 822.014648,6.198231 
	C828.132263,5.069411 834.507629,5.282477 840.772034,5.017525 
	C850.194214,4.619015 859.627136,4.451462 869.044495,3.969656 
	C881.231995,3.346123 893.408508,2.510012 905.794922,1.382712 
	C909.692932,1.000000 913.385803,1.000000 917.539368,0.999994 
z"/>
<path fill="#FFFFFF" opacity="1.000000" stroke="none" 
	d="
M82.250000,1040.000000 
	C82.288177,1039.875122 82.576355,1039.750366 82.932266,1039.812744 
	C83.000000,1040.000000 82.500000,1040.000000 82.250000,1040.000000 
z"/>
<path fill="#147B1D" opacity="1.000000" stroke="none" 
	d="
M145.984268,604.045654 
	C133.147736,587.143127 120.311188,570.240662 107.195389,553.147583 
	C125.798119,528.284546 144.586182,503.539520 163.590332,478.961548 
	C180.330490,457.311615 197.396637,435.913879 214.159821,414.281555 
	C227.009109,397.699951 239.544144,380.875122 252.340210,364.251831 
	C266.245544,346.187531 280.328278,328.259918 294.265228,310.219849 
	C308.689850,291.548615 323.010712,272.797241 337.419220,254.113541 
	C345.573608,243.539673 353.718140,232.954712 362.109802,222.570862 
	C363.468567,220.889526 366.094543,220.232254 368.759277,219.380615 
	C376.087524,221.346375 382.771912,223.115280 389.499115,224.702499 
	C402.955383,227.877396 416.435150,230.952774 429.905212,234.069244 
	C428.575043,236.439957 427.507263,239.010681 425.875397,241.151443 
	C400.624329,274.277832 375.305298,307.352478 349.990845,340.430573 
	C332.674927,363.057190 315.341797,385.670624 297.657104,408.789062 
	C291.953369,416.041290 286.531555,422.734863 281.278290,429.558197 
	C262.780182,453.585175 244.318619,477.640289 225.882904,501.715179 
	C200.596542,534.736267 175.358566,567.794373 150.037476,600.788818 
	C149.012375,602.124512 147.349823,602.971130 145.984268,604.045654 
z"/>
<path fill="#147B1D" opacity="1.000000" stroke="none" 
	d="
M782.069824,107.025970 
	C779.470459,110.404114 777.027466,113.917213 774.246582,117.138680 
	C754.858826,139.598495 735.410767,162.006348 715.961487,184.412994 
	C706.724426,195.054642 697.495911,205.704849 688.124390,216.227264 
	C686.676392,217.853104 684.478516,218.811127 681.840027,220.063904 
	C680.554016,220.027542 680.047791,220.053772 679.558044,219.976013 
	C660.442749,216.940399 641.319275,213.954391 622.220154,210.819839 
	C615.424255,209.704468 608.687988,208.225464 601.924500,206.912476 
	C613.014893,194.375549 624.110718,181.843414 635.194214,169.300385 
	C647.798767,155.036087 660.416626,140.783432 672.980591,126.483490 
	C679.463135,119.105293 685.841553,111.635544 693.053894,104.096115 
	C709.188232,104.652275 724.532043,105.422325 739.884094,105.956390 
	C753.941406,106.445419 768.007507,106.679520 782.069824,107.025970 
z"/>
<path fill="#0D6315" opacity="1.000000" stroke="none" 
	d="
M782.049438,106.668076 
	C768.007507,106.679520 753.941406,106.445419 739.884094,105.956390 
	C724.532043,105.422325 709.188232,104.652275 693.366821,103.973221 
	C680.118835,86.998878 667.366943,70.019684 654.547607,53.091526 
	C652.576965,50.489250 650.296082,48.121895 648.137024,45.296043 
	C673.755798,44.268196 699.396729,43.608116 725.036133,42.891808 
	C728.660217,42.790554 732.276611,42.415173 736.326416,42.187981 
	C748.387146,58.527905 760.039062,74.831604 771.636292,91.174080 
	C775.177795,96.164658 778.569031,101.261833 782.049438,106.668076 
z"/>
<path fill="#6ABD38" opacity="1.000000" stroke="none" 
	d="
M601.488892,206.949371 
	C608.687988,208.225464 615.424255,209.704468 622.220154,210.819839 
	C641.319275,213.954391 660.442749,216.940399 679.558044,219.976013 
	C680.047791,220.053772 680.554016,220.027542 681.464966,220.100357 
	C676.839844,220.764679 671.817505,221.645859 666.761414,221.934540 
	C657.320740,222.473526 647.849243,222.480362 638.410645,223.045410 
	C618.581421,224.232483 598.766357,225.654724 578.943054,226.943024 
	C572.659973,227.351349 566.371948,227.708099 560.081177,227.969559 
	C550.465576,228.369186 540.841187,228.570236 531.228516,229.025604 
	C511.196625,229.974548 491.168060,230.999298 471.141907,232.063660 
	C460.394836,232.634842 449.656311,233.366455 438.912170,233.994843 
	C436.161285,234.155731 433.403534,234.199493 430.277100,234.183167 
	C416.435150,230.952774 402.955383,227.877396 389.499115,224.702499 
	C382.771912,223.115280 376.087524,221.346375 369.140442,219.376465 
	C369.726715,218.730255 370.545990,218.077789 371.387421,218.047913 
	C382.645935,217.648071 393.910889,217.421051 405.167542,216.979599 
	C420.030090,216.396744 434.888306,215.695648 449.745422,214.983749 
	C462.608032,214.367401 475.464966,213.633865 488.327179,213.009064 
	C502.851471,212.303513 517.380798,211.700607 531.904236,210.979935 
	C544.101135,210.374725 556.294678,209.695724 568.486267,208.991516 
	C579.344360,208.364319 590.197815,207.657791 601.488892,206.949371 
z"/>
<path fill="#4E9B1D" opacity="1.000000" stroke="none" 
	d="
M145.914200,604.419922 
	C147.349823,602.971130 149.012375,602.124512 150.037476,600.788818 
	C175.358566,567.794373 200.596542,534.736267 225.882904,501.715179 
	C244.318619,477.640289 262.780182,453.585175 281.278290,429.558197 
	C286.531555,422.734863 291.953369,416.041290 297.586182,409.132477 
	C298.559235,409.563660 299.904510,410.262360 299.827026,410.720276 
	C299.005127,415.576385 302.377228,417.372437 305.688446,419.426422 
	C314.433075,424.850830 323.062622,430.460938 331.815308,435.872009 
	C337.268982,439.243561 344.745697,437.780792 349.010895,432.402405 
	C364.833221,412.450745 380.654144,392.496582 396.296356,372.403839 
	C414.615173,348.872955 432.742767,325.193237 450.964661,301.586823 
	C453.365936,298.475983 456.097443,297.005219 460.500305,296.792084 
	C476.518219,296.016724 492.494049,294.382965 508.488495,293.106934 
	C513.771484,292.685455 519.063782,292.380646 524.350098,291.998840 
	C542.507996,290.687408 560.662415,289.327515 578.823425,288.061829 
	C589.729065,287.301788 600.652100,286.784454 611.553772,285.976044 
	C627.886292,284.764923 644.203613,283.351227 660.533691,282.106323 
	C670.770569,281.325897 681.039185,280.896576 691.248474,279.864227 
	C693.911011,279.594971 697.241211,278.342651 698.845764,276.381073 
	C713.316467,258.691437 727.400757,240.686569 741.735352,222.884460 
	C761.682434,198.112289 781.796692,173.474823 801.748230,148.706268 
	C821.696960,123.941307 841.507690,99.065254 861.426697,74.276291 
	C880.312927,50.772739 899.259277,27.317440 918.198425,3.856493 
	C918.484680,3.501904 919.019165,3.347758 919.786011,3.071564 
	C917.928101,13.687240 915.774597,24.342670 913.504761,34.973255 
	C908.696350,57.493622 903.867065,80.009689 898.970032,102.510902 
	C895.246277,119.621071 891.363831,136.696655 887.625854,153.803741 
	C882.710754,176.298340 877.887817,198.813080 872.966980,221.306396 
	C872.416992,223.820557 871.487915,226.251770 870.226990,228.479919 
	C858.008606,211.789703 846.297913,195.341034 834.587219,178.892349 
	C833.954163,178.541779 833.321167,178.191208 832.688171,177.840622 
	C831.894775,179.317429 831.291565,180.942230 830.276672,182.246643 
	C824.471130,189.708008 818.532043,197.065247 812.710083,204.514008 
	C808.754822,209.574524 804.917297,214.727081 801.027039,219.838440 
	C791.603149,231.473602 782.166260,243.098236 772.761841,254.749054 
	C768.878174,259.560303 765.064087,264.427643 760.763916,269.701843 
	C753.825500,278.078430 747.341492,286.022675 740.569092,294.128448 
	C730.002502,307.118652 719.760376,319.976807 709.383545,332.725281 
	C708.463074,333.856110 706.722046,334.772156 705.264526,334.939667 
	C695.222107,336.094208 685.146179,336.954895 675.096863,338.054596 
	C670.352356,338.573792 665.642700,339.412018 660.482117,340.060181 
	C659.046875,340.012115 658.038452,339.923889 657.047974,340.019958 
	C643.508667,341.333191 629.972595,342.678406 616.434265,344.001465 
	C609.248230,344.703705 602.053040,345.317261 594.873474,346.079285 
	C582.991333,347.340485 571.125977,348.762939 559.239075,349.975372 
	C551.231873,350.792084 543.187500,351.247009 535.181519,352.073822 
	C523.460449,353.284241 511.769409,354.788208 500.045349,355.965851 
	C491.542023,356.819977 482.995148,357.241974 474.493073,358.106506 
	C472.682404,358.290619 470.354004,359.070160 469.326294,360.397705 
	C457.448975,375.740082 445.735382,391.210052 434.058807,406.706757 
	C417.193481,429.089844 400.413452,451.537201 383.560577,473.929688 
	C371.309052,490.208313 359.013000,506.453461 346.710876,522.693909 
	C329.873840,544.921021 312.986816,567.110352 296.173096,589.355042 
	C289.003937,598.839783 281.965698,608.423462 274.559784,618.086914 
	C261.687531,634.755249 249.123459,651.299011 236.306793,668.044556 
	C229.547150,676.746460 222.967148,685.192139 216.570328,693.774414 
	C214.144363,697.029236 212.140411,700.598633 209.944092,704.024719 
	C208.216782,705.934326 205.859283,707.566223 204.873764,709.802795 
	C201.073944,718.426208 193.490601,719.888916 185.465515,721.062744 
	C181.504517,721.642151 177.637543,722.864258 172.937225,723.895203 
	C170.493774,724.100891 168.800873,724.011414 167.194489,724.342163 
	C139.358688,730.072205 111.536255,735.867065 83.704872,741.618652 
	C70.076508,744.435059 56.435810,747.191711 42.593197,750.017822 
	C42.043224,748.466919 41.609852,747.244812 41.442528,745.714478 
	C41.814327,743.922607 42.098152,742.426575 41.996883,740.957153 
	C41.348537,731.549316 40.675415,722.142334 39.891178,712.744995 
	C39.286259,705.496399 38.515900,698.261536 37.803249,691.022034 
	C36.540638,678.195618 35.286854,665.368164 33.989346,652.545288 
	C33.058041,643.341309 32.061569,634.143982 31.094162,624.943604 
	C60.384598,620.018982 89.674973,615.093933 118.965515,610.169922 
	C127.268837,608.774048 135.576187,607.401367 143.869873,605.950562 
	C144.573868,605.827454 145.188171,605.191711 145.914200,604.419922 
z"/>
<path fill="#DBDBDB" opacity="1.000000" stroke="none" 
	d="
M842.016174,287.933960 
	C844.963867,287.613831 846.293701,288.745758 846.028503,291.882141 
	C845.011780,303.904785 844.106750,315.936920 843.168396,327.966156 
	C842.769470,333.081085 842.341736,338.194458 842.012573,343.314026 
	C840.982361,359.335846 840.047363,375.363953 838.970825,391.382568 
	C838.050293,405.079315 836.992371,418.766907 835.982910,432.457642 
	C834.657288,450.435730 833.329102,468.413574 831.984375,486.390228 
	C830.664429,504.035553 829.312439,521.678467 827.992432,539.323730 
	C826.647583,557.300354 825.324829,575.278687 823.992004,593.256226 
	C822.659180,611.233765 821.322876,629.211121 819.993347,647.188904 
	C818.651611,665.332703 817.324585,683.477478 815.975464,701.620728 
	C814.994446,714.813477 813.976501,728.003479 812.995361,741.196228 
	C811.646118,759.339478 810.331848,777.485229 808.970886,795.627563 
	C808.352661,803.869873 807.792847,812.121582 806.875488,820.332031 
	C806.708801,821.824036 805.200439,824.001953 803.870056,824.404541 
	C778.513672,832.076782 753.088989,839.522583 727.685425,847.038879 
	C724.666382,847.932190 721.687866,848.962280 718.356689,849.484009 
	C718.987976,832.969299 719.989990,816.901672 720.908569,800.829224 
	C721.950623,782.596741 722.914307,764.359802 723.918579,746.125183 
	C724.913818,728.055603 725.922668,709.986755 726.915649,691.917053 
	C728.254883,667.548523 729.584045,643.179443 730.918701,618.810669 
	C731.917480,600.575745 732.918762,582.341064 733.917664,564.106140 
	C735.252563,539.735840 736.582397,515.365173 737.921631,490.995056 
	C738.914612,472.925385 739.977661,454.859283 740.903259,436.786194 
	C742.032959,414.726471 743.043579,392.660614 744.123169,370.598297 
	C744.447815,363.963470 744.841125,357.332001 745.184998,350.698090 
	C746.130188,332.464661 747.065796,314.230774 748.449829,295.987854 
	C752.504517,295.653687 756.111267,295.284637 759.725281,295.012177 
	C769.267517,294.292847 778.823486,293.733887 788.354980,292.895599 
	C806.249084,291.321930 824.129883,289.596375 842.016174,287.933960 
z"/>
<path fill="#DBDBDB" opacity="1.000000" stroke="none" 
	d="
M683.006348,821.947937 
	C682.668457,833.052490 682.342957,844.157410 681.985596,855.261292 
	C681.867737,858.924683 680.423645,861.229065 676.493286,862.371704 
	C652.032104,869.483459 627.648010,876.859924 603.219421,884.084534 
	C597.207275,885.862549 591.124817,887.402893 584.573853,888.606567 
	C584.331787,881.701477 584.662048,875.244141 584.834778,868.782654 
	C585.216553,854.498047 585.523376,840.211548 585.852661,825.925598 
	C586.223938,809.818542 586.592041,793.711487 586.951050,777.604187 
	C587.306335,761.663330 587.617371,745.721313 588.007751,729.781311 
	C588.267761,719.167542 588.666077,708.557190 588.942810,697.943787 
	C589.310669,683.835205 589.607483,669.724792 589.958801,655.615784 
	C590.272766,643.004700 590.620544,630.394470 590.951050,617.783813 
	C591.586060,593.550537 592.346252,569.319763 592.819946,545.083313 
	C593.349548,517.988159 593.618469,490.887939 594.000977,463.789917 
	C594.010376,463.123932 594.009888,462.457550 594.034546,461.792114 
	C594.636841,445.564819 595.242004,429.337616 596.289490,413.074310 
	C602.127686,412.359497 607.520630,411.661713 612.918762,411.006287 
	C622.570496,409.834412 632.233032,408.748260 641.876831,407.515289 
	C653.147644,406.074280 664.411926,404.576111 675.662537,402.986145 
	C684.090942,401.794983 692.493286,400.419250 701.294800,399.307770 
	C701.812683,401.461182 702.135925,403.441620 702.043396,405.402466 
	C701.134766,424.662384 700.123718,443.917450 699.207397,463.177032 
	C698.148560,485.431824 697.170471,507.690491 696.129883,529.946167 
	C695.167175,550.536865 694.149597,571.125122 693.190552,591.716003 
	C692.154053,613.971069 691.114014,636.226074 690.156860,658.484619 
	C689.349426,677.262878 688.670044,696.046570 687.910583,714.826843 
	C687.594788,722.635254 687.226990,730.441589 686.867859,738.248169 
	C685.584229,766.148254 684.294006,794.048035 683.006348,821.947937 
z"/>
<path fill="#DBDBDB" opacity="1.000000" stroke="none" 
	d="
M544.001831,851.945435 
	C543.667053,867.554565 543.426819,883.167175 542.849976,898.767395 
	C542.792969,900.308838 540.956421,902.682861 539.474854,903.138367 
	C517.480896,909.899963 495.408569,916.406555 473.352234,922.964966 
	C462.086792,926.314758 450.821106,929.664001 439.542633,932.969421 
	C437.970795,933.430115 436.324738,933.637573 434.341736,933.474121 
	C433.697235,899.527405 433.418365,866.068848 433.152130,832.610107 
	C432.811768,789.829773 432.513611,747.049072 432.136292,704.269104 
	C431.857452,672.648621 431.424652,641.029480 431.171143,609.408875 
	C431.036285,592.588989 431.136810,575.767212 431.519775,558.901611 
	C441.842926,557.196899 451.786285,555.588196 461.710114,553.867126 
	C490.179382,548.929932 518.640808,543.947144 547.440247,539.245972 
	C547.517578,546.775391 547.143982,554.039368 547.023499,561.307434 
	C546.632385,584.910034 546.356201,608.514648 545.993103,632.117737 
	C545.694092,651.555420 545.254456,670.991211 545.020020,690.429565 
	C544.643066,721.691711 544.427124,752.955811 544.057861,784.218140 
	C543.857422,801.184387 543.390076,818.147827 543.234192,835.114319 
	C543.182678,840.721863 543.728882,846.334900 544.001831,851.945435 
z"/>
<path fill="#DBDBDB" opacity="1.000000" stroke="none" 
	d="
M388.000885,876.944519 
	C388.000610,888.434265 387.870514,899.925964 388.038025,911.413269 
	C388.192841,922.028320 388.598175,932.641479 389.039368,943.249390 
	C389.181885,946.676453 388.362213,948.319458 384.555695,949.436096 
	C347.700500,960.247559 310.943420,971.393372 274.148041,982.409302 
	C272.286102,982.966614 270.329742,983.208435 268.209229,982.856567 
	C267.376587,970.509033 266.716064,958.903687 266.135406,947.294495 
	C265.114807,926.889465 264.131561,906.482483 263.153992,886.075378 
	C262.136688,864.839722 261.091370,843.605103 260.157593,822.365723 
	C259.340057,803.770325 258.674042,785.168274 257.913055,766.570251 
	C257.600586,758.934326 257.233398,751.300415 256.858307,743.667175 
	C255.961823,725.425903 255.045837,707.185608 254.520767,688.904358 
	C256.992371,688.384705 259.071167,687.856995 261.171021,687.433777 
	C293.370880,680.943176 325.589081,674.542053 357.764648,667.933472 
	C365.942261,666.253845 373.986572,663.925171 382.410553,662.183044 
	C383.124481,672.400696 383.603241,682.327515 383.894928,692.259888 
	C384.280121,705.376831 384.558289,718.497192 384.811157,731.617554 
	C385.211182,752.373840 385.572937,773.130859 385.912354,793.888245 
	C386.297974,817.472656 386.602905,841.058472 387.039276,864.641846 
	C387.115234,868.747253 387.668213,872.843872 388.000885,876.944519 
z"/>
<path fill="#8F8F8F" opacity="1.000000" stroke="none" 
	d="
M544.315063,852.069824 
	C543.728882,846.334900 543.182678,840.721863 543.234192,835.114319 
	C543.390076,818.147827 543.857422,801.184387 544.057861,784.218140 
	C544.427124,752.955811 544.643066,721.691711 545.020020,690.429565 
	C545.254456,670.991211 545.694092,651.555420 545.993103,632.117737 
	C546.356201,608.514648 546.632385,584.910034 547.023499,561.307434 
	C547.143982,554.039368 547.517578,546.775391 547.251953,538.949707 
	C539.532410,534.137756 532.287537,529.964600 525.171448,525.582214 
	C523.203491,524.370239 521.618835,522.535889 519.913208,520.522217 
	C520.312073,476.224274 520.655273,432.391266 521.003357,388.558258 
	C521.012573,387.397308 520.874329,386.177490 521.193115,385.100006 
	C521.362793,384.526489 522.366211,384.199677 523.297974,383.971222 
	C538.968384,390.466583 554.309631,396.812683 569.709167,403.014252 
	C578.372009,406.502899 587.130981,409.752930 595.846619,413.110413 
	C595.242004,429.337616 594.636841,445.564819 594.034546,461.792114 
	C594.009888,462.457550 594.010376,463.123932 594.000977,463.789917 
	C593.618469,490.887939 593.349548,517.988159 592.819946,545.083313 
	C592.346252,569.319763 591.586060,593.550537 590.951050,617.783813 
	C590.620544,630.394470 590.272766,643.004700 589.958801,655.615784 
	C589.607483,669.724792 589.310669,683.835205 588.942810,697.943787 
	C588.666077,708.557190 588.267761,719.167542 588.007751,729.781311 
	C587.617371,745.721313 587.306335,761.663330 586.951050,777.604187 
	C586.592041,793.711487 586.223938,809.818542 585.852661,825.925598 
	C585.523376,840.211548 585.216553,854.498047 584.834778,868.782654 
	C584.662048,875.244141 584.331787,881.701477 584.173706,888.627319 
	C583.134094,888.508972 581.771667,888.154968 580.887146,887.304077 
	C568.762268,875.640869 556.703369,863.909119 544.315063,852.069824 
z"/>
<path fill="#8F8F8F" opacity="1.000000" stroke="none" 
	d="
M683.321167,822.074341 
	C684.294006,794.048035 685.584229,766.148254 686.867859,738.248169 
	C687.226990,730.441589 687.594788,722.635254 687.910583,714.826843 
	C688.670044,696.046570 689.349426,677.262878 690.156860,658.484619 
	C691.114014,636.226074 692.154053,613.971069 693.190552,591.716003 
	C694.149597,571.125122 695.167175,550.536865 696.129883,529.946167 
	C697.170471,507.690491 698.148560,485.431824 699.207397,463.177032 
	C700.123718,443.917450 701.134766,424.662384 702.043396,405.402466 
	C702.135925,403.441620 701.812683,401.461182 700.938293,399.202667 
	C688.586670,394.923615 676.963989,390.974731 665.386353,386.897919 
	C663.436035,386.211151 661.680359,384.971924 659.898682,383.524078 
	C660.280884,368.742004 660.599060,354.423859 660.917297,340.105713 
	C665.642700,339.412018 670.352356,338.573792 675.096863,338.054596 
	C685.146179,336.954895 695.222107,336.094208 705.264526,334.939667 
	C706.722046,334.772156 708.463074,333.856110 709.383545,332.725281 
	C719.760376,319.976807 730.002502,307.118652 740.856201,294.366516 
	C743.622864,294.961090 745.813965,295.479065 748.005127,295.997040 
	C747.065796,314.230774 746.130188,332.464661 745.184998,350.698090 
	C744.841125,357.332001 744.447815,363.963470 744.123169,370.598297 
	C743.043579,392.660614 742.032959,414.726471 740.903259,436.786194 
	C739.977661,454.859283 738.914612,472.925385 737.921631,490.995056 
	C736.582397,515.365173 735.252563,539.735840 733.917664,564.106140 
	C732.918762,582.341064 731.917480,600.575745 730.918701,618.810669 
	C729.584045,643.179443 728.254883,667.548523 726.915649,691.917053 
	C725.922668,709.986755 724.913818,728.055603 723.918579,746.125183 
	C722.914307,764.359802 721.950623,782.596741 720.908569,800.829224 
	C719.989990,816.901672 718.987976,832.969299 717.972534,849.488892 
	C706.493530,840.692749 695.064697,831.446716 683.321167,822.074341 
z"/>
<path fill="#8F8F8F" opacity="1.000000" stroke="none" 
	d="
M388.307922,877.097168 
	C387.668213,872.843872 387.115234,868.747253 387.039276,864.641846 
	C386.602905,841.058472 386.297974,817.472656 385.912354,793.888245 
	C385.572937,773.130859 385.211182,752.373840 384.811157,731.617554 
	C384.558289,718.497192 384.280121,705.376831 383.894928,692.259888 
	C383.603241,682.327515 383.124481,672.400696 382.201385,661.922241 
	C378.402130,657.576843 375.130463,653.780640 371.913696,649.519714 
	C371.646240,639.966919 371.201843,630.881165 371.025940,621.790222 
	C370.615265,600.563416 370.388733,579.333008 369.973572,558.106262 
	C369.799011,549.181335 369.160553,540.263733 369.070129,531.339417 
	C369.015656,525.963318 369.610077,520.580688 370.097473,515.477539 
	C390.565094,530.151550 410.848083,544.548889 431.131104,558.946289 
	C431.136810,575.767212 431.036285,592.588989 431.171143,609.408875 
	C431.424652,641.029480 431.857452,672.648621 432.136292,704.269104 
	C432.513611,747.049072 432.811768,789.829773 433.152130,832.610107 
	C433.418365,866.068848 433.697235,899.527405 433.928894,933.445923 
	C422.100372,919.279785 410.296326,904.667603 398.537231,890.019287 
	C395.163177,885.816223 391.918793,881.509155 388.307922,877.097168 
z"/>
<path fill="#8F8F8F" opacity="1.000000" stroke="none" 
	d="
M254.137756,688.944885 
	C255.045837,707.185608 255.961823,725.425903 256.858307,743.667175 
	C257.233398,751.300415 257.600586,758.934326 257.913055,766.570251 
	C258.674042,785.168274 259.340057,803.770325 260.157593,822.365723 
	C261.091370,843.605103 262.136688,864.839722 263.153992,886.075378 
	C264.131561,906.482483 265.114807,926.889465 266.135406,947.294495 
	C266.716064,958.903687 267.376587,970.509033 268.002808,982.580017 
	C264.969513,978.233398 261.781097,973.511963 258.926239,968.596802 
	C246.969360,948.010742 235.011841,927.423157 223.336807,906.677307 
	C221.745148,903.849060 221.331863,900.153503 221.093552,896.808167 
	C220.505753,888.556213 220.400131,880.271118 219.986893,872.005066 
	C219.021301,852.690308 218.021042,833.377014 216.970932,814.066650 
	C216.379257,803.186401 215.626785,792.314941 215.007019,781.436096 
	C213.973282,763.290833 213.059631,745.138428 211.947311,726.998108 
	C211.494598,719.614929 210.654556,712.255554 209.967407,704.455017 
	C212.140411,700.598633 214.144363,697.029236 216.570328,693.774414 
	C222.967148,685.192139 229.547150,676.746460 236.560638,668.306091 
	C242.757294,675.225464 248.447525,682.085144 254.137756,688.944885 
z"/>
<path fill="#F7F7F6" opacity="1.000000" stroke="none" 
	d="
M41.176483,746.022705 
	C41.609852,747.244812 42.043224,748.466919 42.593197,750.017822 
	C56.435810,747.191711 70.076508,744.435059 83.704872,741.618652 
	C111.536255,735.867065 139.358688,730.072205 167.194489,724.342163 
	C168.800873,724.011414 170.493774,724.100891 172.577545,724.073486 
	C176.860809,730.515564 180.583847,736.961731 184.594864,743.223328 
	C190.863464,753.009338 197.327026,762.670410 203.853745,772.693237 
	C195.109100,774.787903 186.183273,776.414856 177.334442,778.387207 
	C139.469437,786.827026 101.627892,795.372131 63.771873,803.852356 
	C62.814045,804.066956 61.787743,803.975952 60.134659,803.768921 
	C53.457260,789.653870 47.510838,775.765381 41.394196,761.952209 
	C37.388096,752.905273 33.135605,743.967529 28.993475,734.980835 
	C28.367903,730.681274 32.666271,734.357361 34.042686,732.274414 
	C36.848824,736.866699 39.012657,741.444702 41.176483,746.022705 
z"/>
<path fill="#0D6315" opacity="1.000000" stroke="none" 
	d="
M801.460449,219.911621 
	C804.917297,214.727081 808.754822,209.574524 812.710083,204.514008 
	C818.532043,197.065247 824.471130,189.708008 830.276672,182.246643 
	C831.291565,180.942230 831.894775,179.317429 832.688171,177.840622 
	C833.321167,178.191208 833.954163,178.541779 834.587219,178.892349 
	C846.297913,195.341034 858.008606,211.789703 869.851868,228.545288 
	C860.969971,227.723770 851.948975,226.644852 842.943054,225.452316 
	C834.737671,224.365799 826.553467,223.119781 818.350647,222.013214 
	C812.873535,221.274368 807.380005,220.656708 801.460449,219.911621 
z"/>
<path fill="#F7F7F6" opacity="1.000000" stroke="none" 
	d="
M748.449829,295.987854 
	C745.813965,295.479065 743.622864,294.961090 741.144592,294.205017 
	C747.341492,286.022675 753.825500,278.078430 760.626709,270.012939 
	C769.901672,271.913879 778.823242,274.116943 787.824890,275.919891 
	C805.465759,279.453217 823.152283,282.758301 840.811768,286.199493 
	C841.203186,286.275757 841.497437,286.850464 841.926575,287.563293 
	C824.129883,289.596375 806.249084,291.321930 788.354980,292.895599 
	C778.823486,293.733887 769.267517,294.292847 759.725281,295.012177 
	C756.111267,295.284637 752.504517,295.653687 748.449829,295.987854 
z"/>
<path fill="#8F8F8F" opacity="1.000000" stroke="none" 
	d="
M29.000362,735.440002 
	C33.135605,743.967529 37.388096,752.905273 41.394196,761.952209 
	C47.510838,775.765381 53.457260,789.653870 59.705276,803.772827 
	C61.226048,818.718872 62.519756,833.402283 63.808258,848.086060 
	C64.879982,860.299438 65.900780,872.517578 67.024780,884.726135 
	C68.558212,901.381653 70.183472,918.028748 71.740196,934.682190 
	C72.850487,946.559875 73.891655,958.443970 75.001480,970.321716 
	C76.588318,987.304565 78.232925,1004.281982 79.802567,1021.266357 
	C80.290627,1026.547485 80.615555,1031.843750 81.008850,1037.579102 
	C76.921539,1026.843506 72.787811,1015.680847 68.772148,1004.475769 
	C63.020294,988.426270 57.078892,972.435974 51.790489,956.233643 
	C49.729229,949.918457 48.789017,943.141602 48.092690,936.496033 
	C46.479134,921.096252 45.397930,905.641663 43.966137,890.221741 
	C42.383587,873.178223 40.650761,856.148621 38.983353,839.112976 
	C37.315945,822.077332 35.719139,805.034302 33.959888,788.008179 
	C32.405209,772.961975 30.637569,757.937805 29.047436,742.895142 
	C28.803511,740.587463 29.009398,738.232361 29.000362,735.440002 
z"/>
<path fill="#157B1D" opacity="1.000000" stroke="none" 
	d="
M41.442532,745.714478 
	C39.012657,741.444702 36.848824,736.866699 34.372780,732.136475 
	C29.636765,721.796387 25.720072,711.348328 20.659019,701.487549 
	C14.524121,689.534546 11.532413,677.159668 10.803074,663.751099 
	C9.997331,648.937988 7.586486,634.216492 6.049126,619.437012 
	C5.183973,611.119812 4.696537,602.763855 3.991194,594.429443 
	C3.355830,586.921753 2.655373,579.419678 1.907603,571.462952 
	C3.510384,573.622986 5.385596,576.131042 6.835368,578.864685 
	C14.859556,593.994934 22.780159,609.180115 30.915205,624.645020 
	C32.061569,634.143982 33.058041,643.341309 33.989346,652.545288 
	C35.286854,665.368164 36.540638,678.195618 37.803249,691.022034 
	C38.515900,698.261536 39.286259,705.496399 39.891178,712.744995 
	C40.675415,722.142334 41.348537,731.549316 41.996883,740.957153 
	C42.098152,742.426575 41.814327,743.922607 41.442532,745.714478 
z"/>
<path fill="#FFFFFF" opacity="1.000000" stroke="none" 
	d="
M369.912903,515.200989 
	C369.610077,520.580688 369.015656,525.963318 369.070129,531.339417 
	C369.160553,540.263733 369.799011,549.181335 369.973572,558.106262 
	C370.388733,579.333008 370.615265,600.563416 371.025940,621.790222 
	C371.201843,630.881165 371.646240,639.966919 371.575012,649.483521 
	C369.283905,648.604065 367.189850,647.507263 365.520569,645.954041 
	C354.106750,635.333252 342.926239,624.455566 331.312134,614.061218 
	C328.867767,611.873535 324.874664,610.142944 321.704681,610.307678 
	C315.336823,610.638733 309.061371,612.523132 302.716888,613.581177 
	C293.448181,615.127014 284.152252,616.509888 274.867950,617.962219 
	C281.965698,608.423462 289.003937,598.839783 296.173096,589.355042 
	C312.986816,567.110352 329.873840,544.921021 346.710876,522.693909 
	C359.013000,506.453461 371.309052,490.208313 383.560577,473.929688 
	C400.413452,451.537201 417.193481,429.089844 434.058807,406.706757 
	C445.735382,391.210052 457.448975,375.740082 469.326294,360.397705 
	C470.354004,359.070160 472.682404,358.290619 474.493073,358.106506 
	C482.995148,357.241974 491.542023,356.819977 500.045349,355.965851 
	C511.769409,354.788208 523.460449,353.284241 535.181519,352.073822 
	C543.187500,351.247009 551.231873,350.792084 559.239075,349.975372 
	C571.125977,348.762939 582.991333,347.340485 594.873474,346.079285 
	C602.053040,345.317261 609.248230,344.703705 616.434265,344.001465 
	C629.972595,342.678406 643.508667,341.333191 657.047974,340.019958 
	C658.038452,339.923889 659.046875,340.012115 660.482117,340.060181 
	C660.599060,354.423859 660.280884,368.742004 659.519165,383.519592 
	C651.841736,381.555450 644.677917,378.888702 637.353271,376.780273 
	C630.723389,374.871796 623.882507,372.144928 617.197754,372.311554 
	C604.523438,372.627502 591.892944,374.742950 579.246887,376.135376 
	C564.637390,377.744080 550.018677,379.280273 535.430542,381.065216 
	C531.237610,381.578217 527.136475,382.841980 522.993286,383.761505 
	C522.366211,384.199677 521.362793,384.526489 521.193115,385.100006 
	C520.874329,386.177490 521.012573,387.397308 521.003357,388.558258 
	C520.655273,432.391266 520.312073,476.224274 519.551941,520.521362 
	C518.498779,520.830627 517.780762,520.815918 517.236938,520.500610 
	C505.199188,513.521240 493.193146,506.486908 481.139221,499.535706 
	C479.925507,498.835785 478.366302,498.052826 477.098480,498.232605 
	C461.270630,500.476837 445.467041,502.892120 429.657166,505.263214 
	C414.663544,507.511841 399.657532,509.682465 384.683136,512.052490 
	C379.717987,512.838318 374.833984,514.136841 369.912903,515.200989 
z"/>
<path fill="#F7F7F7" opacity="1.000000" stroke="none" 
	d="
M274.559784,618.086914 
	C284.152252,616.509888 293.448181,615.127014 302.716888,613.581177 
	C309.061371,612.523132 315.336823,610.638733 321.704681,610.307678 
	C324.874664,610.142944 328.867767,611.873535 331.312134,614.061218 
	C342.926239,624.455566 354.106750,635.333252 365.520569,645.954041 
	C367.189850,647.507263 369.283905,648.604065 371.520081,649.948242 
	C375.130463,653.780640 378.402130,657.576843 381.882965,661.633911 
	C373.986572,663.925171 365.942261,666.253845 357.764648,667.933472 
	C325.589081,674.542053 293.370880,680.943176 261.171021,687.433777 
	C259.071167,687.856995 256.992371,688.384705 254.520752,688.904358 
	C248.447525,682.085144 242.757294,675.225464 236.813232,668.104248 
	C249.123459,651.299011 261.687531,634.755249 274.559784,618.086914 
z"/>
<path fill="#F7F7F7" opacity="1.000000" stroke="none" 
	d="
M523.297974,383.971222 
	C527.136475,382.841980 531.237610,381.578217 535.430542,381.065216 
	C550.018677,379.280273 564.637390,377.744080 579.246887,376.135376 
	C591.892944,374.742950 604.523438,372.627502 617.197754,372.311554 
	C623.882507,372.144928 630.723389,374.871796 637.353271,376.780273 
	C644.677917,378.888702 651.841736,381.555450 659.455200,383.983521 
	C661.680359,384.971924 663.436035,386.211151 665.386353,386.897919 
	C676.963989,390.974731 688.586670,394.923615 700.550720,399.020599 
	C692.493286,400.419250 684.090942,401.794983 675.662537,402.986145 
	C664.411926,404.576111 653.147644,406.074280 641.876831,407.515289 
	C632.233032,408.748260 622.570496,409.834412 612.918762,411.006287 
	C607.520630,411.661713 602.127686,412.359497 596.289490,413.074341 
	C587.130981,409.752930 578.372009,406.502899 569.709167,403.014252 
	C554.309631,396.812683 538.968384,390.466583 523.297974,383.971222 
z"/>
<path fill="#F7F7F7" opacity="1.000000" stroke="none" 
	d="
M370.097473,515.477539 
	C374.833984,514.136841 379.717987,512.838318 384.683136,512.052490 
	C399.657532,509.682465 414.663544,507.511841 429.657166,505.263214 
	C445.467041,502.892120 461.270630,500.476837 477.098480,498.232605 
	C478.366302,498.052826 479.925507,498.835785 481.139221,499.535706 
	C493.193146,506.486908 505.199188,513.521240 517.236938,520.500610 
	C517.780762,520.815918 518.498779,520.830627 519.496948,520.986206 
	C521.618835,522.535889 523.203491,524.370239 525.171448,525.582214 
	C532.287537,529.964600 539.532410,534.137756 546.916992,538.686096 
	C518.640808,543.947144 490.179382,548.929932 461.710114,553.867126 
	C451.786285,555.588196 441.842926,557.196899 431.519775,558.901611 
	C410.848083,544.548889 390.565094,530.151550 370.097473,515.477539 
z"/>
</svg>