<svg width="19" height="27" viewBox="0 0 19 27" fill="none" xmlns="http://www.w3.org/2000/svg">
<path d="M9.09758 26.0524C8.86157 25.9304 8.66356 25.7336 8.52894 25.487C6.337 22.061 4.12845 18.6482 1.94843 15.212C1.11809 13.8932 0.615427 12.3573 0.490373 10.7569C0.122356 6.58844 2.16323 2.57875 5.62484 0.924876C8.98471 -0.682525 12.1582 -0.192735 14.9993 2.37871C15.8559 3.14758 16.5666 4.09585 17.0905 5.1688C17.6144 6.24189 17.9414 7.4184 18.0525 8.63129C18.3348 11.0677 17.7569 13.5306 16.4386 15.5092C14.3166 18.8092 12.1931 22.1154 10.0679 25.4273C9.92964 25.6986 9.71979 25.9169 9.46617 26.0526L9.09758 26.0524ZM12.2241 9.80621C12.227 8.94629 11.9214 8.12014 11.3741 7.50842C10.8267 6.89674 10.0821 6.54945 9.30345 6.54233C8.52464 6.53525 7.77512 6.86908 7.21878 7.47078C6.66248 8.07251 6.34466 8.89298 6.33493 9.75295C6.32506 10.6127 6.62427 11.4418 7.16674 12.0587C7.70922 12.6755 8.45099 13.03 9.22967 13.0444C10.0161 13.055 10.7738 12.7193 11.3357 12.1116C11.8974 11.5041 12.2171 10.6745 12.224 9.80617L12.2241 9.80621Z" fill="#12A7A7"/>
</svg>
