<?xml version="1.0" encoding="UTF-8"?>
<!DOCTYPE svg PUBLIC "-//W3C//DTD SVG 1.1//EN" "http://www.w3.org/Graphics/SVG/1.1/DTD/svg11.dtd">
<!-- Creator: CorelDRAW 2018 (64-Bit) -->
<svg xmlns="http://www.w3.org/2000/svg" xml:space="preserve" width="6.66666in" height="6.66666in" version="1.1" style="shape-rendering:geometricPrecision; text-rendering:geometricPrecision; image-rendering:optimizeQuality; fill-rule:evenodd; clip-rule:evenodd"
viewBox="0 0 6666.66 6666.66"
 xmlns:xlink="http://www.w3.org/1999/xlink">
 <defs>
  <style type="text/css">
   <![CDATA[
    .fil7 {fill:#7688A1}
    .fil1 {fill:#12A7A7}
    .fil0 {fill:black}
    .fil6 {fill:#3DB4BA}
    .fil3 {fill:#44269B}
    .fil4 {fill:#FDFDFD}
    .fil2 {fill:#FEFEFE}
    .fil5 {fill:white}
   ]]>
  </style>
 </defs>
<symbol id="Symbol7" viewBox="-1476.78 -1989.36 356.76 470.26">
 <path class="fil0" d="M-1299.92 -1596.35c22.68,0 40.04,-8.3 52.08,-24.96 11.99,-16.6 18.01,-40.69 18.01,-72.26 0,-31.69 -6.02,-55.83 -18.01,-72.48 -12.04,-16.6 -29.41,-24.96 -52.08,-24.96 -22.73,0 -40.15,8.41 -52.3,25.17 -12.15,16.66 -18.23,40.74 -18.23,72.26 0,31.41 6.07,55.5 18.23,72.26 12.15,16.66 29.57,24.96 52.3,24.96l0 0zm-70.53 -215.06c14.59,-19.37 30.81,-33.64 48.61,-42.75 17.8,-9.22 38.25,-13.89 61.41,-13.89 40.91,0 74.54,16.28 100.91,48.83 26.31,32.55 39.5,74.44 39.5,125.65 0,51.21 -13.19,93.1 -39.5,125.65 -26.37,32.55 -60,48.83 -100.91,48.83 -23.17,0 -43.62,-4.67 -61.41,-13.89 -17.8,-9.22 -34.02,-23.49 -48.61,-42.75l0 47.96 -106.33 0.01 0 -461.58 106.33 0 0 177.94z"/>
</symbol>
<symbol id="Symbol8" viewBox="-1500.43 -1989.36 356.55 470.26">
 <path class="fil0" d="M-1250.65 -1811.42l0 -177.94 106.77 0 0 461.58 -106.77 0 0 -47.96c-14.65,19.53 -30.76,33.85 -48.39,42.97 -17.69,9.11 -38.09,13.67 -61.2,13.67 -40.96,0 -74.6,-16.28 -100.91,-48.83 -26.2,-32.55 -39.28,-74.44 -39.28,-125.65 0,-51.21 13.07,-93.1 39.28,-125.65 26.31,-32.55 59.95,-48.83 100.91,-48.83 23,0 43.3,4.67 60.98,13.89 17.8,9.11 33.96,23.38 48.61,42.75l0 -0.01zm-70.1 215.06c22.84,0 40.2,-8.3 52.08,-24.96 11.99,-16.6 18.01,-40.69 18.01,-72.26 0,-31.69 -6.02,-55.83 -18.01,-72.48 -11.88,-16.6 -29.24,-24.96 -52.08,-24.96 -22.57,0 -39.88,8.35 -51.87,24.96 -11.88,16.66 -17.8,40.8 -17.8,72.48 0,31.57 5.91,55.67 17.8,72.26 11.99,16.66 29.3,24.96 51.87,24.96z"/>
</symbol>
<symbol id="Symbol10" viewBox="-1519.75 -1954.43 268.44 426.66">
 <path class="fil0" d="M-1360.68 -1954.43l0 94.4 109.37 0 0 75.96 -109.37 0 0 140.85c0,15.52 3.04,25.99 9.11,31.47 6.07,5.37 18.23,8.03 36.46,8.03l54.69 0 0 75.96 -91.15 0c-41.99,0 -71.72,-8.74 -89.19,-26.26 -17.52,-17.47 -26.26,-47.2 -26.26,-89.19l0 -140.85 -52.73 0 0 -75.96 52.73 0 0 -94.4 106.34 0z"/>
</symbol>
<symbol id="Symbol9" viewBox="-1501.75 -1868.05 356.78 348.96">
 <path class="fil0" d="M-1144.97 -1694.88l0 30.38 -248.49 0c2.6,24.9 11.56,43.57 26.91,55.99 15.46,12.48 37.11,18.67 64.89,18.67 22.24,0 45.14,-3.26 68.57,-9.76 23.44,-6.62 47.53,-16.71 72.26,-30.17l0 81.81c-25.07,9.55 -50.13,16.71 -75.3,21.48 -25.17,4.88 -50.29,7.38 -75.3,7.38 -60.22,0 -106.99,-15.24 -140.4,-45.79 -33.31,-30.65 -49.91,-73.57 -49.91,-128.69 0,-54.25 16.33,-96.84 49.04,-127.82 32.82,-31.09 77.91,-46.66 135.2,-46.66 52.19,0 94.02,15.79 125.43,47.31 31.36,31.41 47.09,73.35 47.09,125.87l0.01 0zm-109.16 -35.15c0,-20.24 -5.97,-36.51 -17.8,-48.83 -11.72,-12.43 -27.07,-18.67 -46.01,-18.67 -20.72,0 -37.49,5.81 -50.35,17.36 -12.75,11.61 -20.72,28.32 -23.87,50.13l138.02 0z"/>
</symbol>
<symbol id="Symbol11" viewBox="-1501.72 -1868.06 336.15 348.96">
 <path class="fil0" d="M-1327.91 -1677.31c-22.14,0 -38.79,3.8 -49.91,11.28 -11.18,7.54 -16.71,18.61 -16.71,33.2 0,13.46 4.45,24.04 13.46,31.69 8.95,7.54 21.48,11.28 37.54,11.28 19.96,0 36.73,-7.16 50.35,-21.48 13.72,-14.32 20.62,-32.23 20.62,-53.82l0 -12.15 -55.34 0zm162.33 -40.15l0 189.67 -106.99 0 0 -49.26c-14.32,20.13 -30.38,34.83 -48.18,44.06 -17.8,9.22 -39.44,13.89 -64.89,13.89 -34.45,0 -62.44,-10.04 -83.98,-30.17 -21.43,-20.07 -32.12,-46.11 -32.12,-78.13 0,-39.06 13.35,-67.6 40.15,-85.72 26.91,-18.23 69.01,-27.34 126.3,-27.34l62.72 -0 0 -8.46c0,-16.76 -6.67,-29.08 -19.96,-36.89 -13.19,-7.81 -33.85,-11.72 -62.07,-11.72 -22.73,0 -43.83,2.33 -63.37,6.94 -19.53,4.5 -37.76,11.28 -54.69,20.4l0 -80.94c22.84,-5.64 45.68,-9.82 68.57,-12.59 23,-2.87 45.9,-4.34 68.79,-4.34 60,0 103.3,11.88 129.78,35.59 26.59,23.6 39.93,61.96 39.93,115.02l0 0z"/>
</symbol>
<symbol id="Symbol12" viewBox="-1476.78 -1868.05 246.96 340.28">
 <path class="fil0" d="M-1229.82 -1769.53c-9.44,-4.34 -18.77,-7.49 -28,-9.55 -9.11,-2.17 -18.34,-3.26 -27.56,-3.26 -27.34,0 -48.39,8.79 -63.15,26.26 -14.65,17.52 -21.92,42.64 -21.92,75.3l0 153 -106.33 -0 0 -332.25 106.34 0 0 54.47c13.56,-21.7 29.19,-37.54 46.87,-47.53 17.8,-9.98 39.06,-14.97 63.8,-14.97 3.47,0 7.27,0.16 11.5,0.43 4.18,0.33 10.2,0.98 18.01,1.95l0.43 96.13z"/>
</symbol>
<symbol id="Symbol13" viewBox="-1497.63 -1978.74 376.96 459.65">
 <path class="fil0" d="M-1120.67 -1552.09c-21,10.85 -42.91,19.04 -65.76,24.52 -22.73,5.64 -46.39,8.46 -70.96,8.46 -73.78,0 -132.32,-20.62 -175.57,-61.85 -43.13,-41.23 -64.67,-97.22 -64.67,-167.97 0,-70.75 21.54,-126.74 64.67,-167.97 43.24,-41.23 101.78,-61.85 175.57,-61.85 24.57,0 48.23,2.77 70.96,8.25 22.84,5.54 44.76,13.78 65.76,24.74l0 91.58c-21.27,-14.43 -42.21,-25.01 -62.72,-31.69 -20.56,-6.78 -42.21,-10.2 -64.89,-10.2 -40.8,0 -72.86,13.13 -96.14,39.28 -23.33,26.04 -34.94,62.01 -34.94,107.85 0,45.74 11.61,81.7 34.94,107.85 23.28,26.04 55.34,39.06 96.14,39.06 22.68,0 44.33,-3.31 64.89,-9.98 20.51,-6.78 41.45,-17.41 62.72,-31.9l0 91.81z"/>
</symbol>
<symbol id="k" viewBox="-1493.7 -1835.5 237.85 313.36">
 <path class="fil0" d="M-1375.86 -1573.57c15.19,0 26.75,-5.48 34.72,-16.49 7.92,-11.12 11.94,-27.24 11.94,-48.39 0,-20.94 -4.02,-37 -11.94,-48.18 -7.98,-11.12 -19.53,-16.71 -34.72,-16.71 -15.19,0 -26.85,5.59 -34.94,16.71 -8.14,11.18 -12.15,27.24 -12.15,48.18 0,21 4.02,37.06 12.15,48.18 8.08,11.18 19.75,16.71 34.94,16.71zm-47.09 -143.44c9.82,-12.86 20.67,-22.35 32.55,-28.43 11.83,-6.19 25.44,-9.33 40.8,-9.33 27.34,0 49.75,10.85 67.28,32.55 17.63,21.7 26.48,49.64 26.48,83.77 0,34.29 -8.84,62.28 -26.48,83.98 -17.52,21.59 -39.93,32.33 -67.28,32.33 -15.35,0 -28.97,-3.04 -40.8,-9.11 -11.88,-6.07 -22.73,-15.63 -32.55,-28.65l0 32.12 -70.75 0 0 -307.72 70.75 0 0 118.48z"/>
</symbol>
<symbol id="l" viewBox="-1509.55 -1835.5 237.85 313.36">
 <path class="fil0" d="M-1343.1 -1717.02l0 -118.49 71.4 0 0 307.72 -71.4 0 0 -32.12c-9.71,13.19 -20.4,22.79 -32.12,28.86 -11.72,5.91 -25.33,8.9 -40.8,8.9 -27.34,0 -49.8,-10.74 -67.28,-32.33 -17.52,-21.7 -26.26,-49.7 -26.26,-83.98 0,-34.13 8.74,-62.07 26.26,-83.77 17.47,-21.7 39.93,-32.55 67.28,-32.55 15.3,0 28.86,3.15 40.58,9.33 11.83,6.07 22.62,15.57 32.33,28.43l0 0zm-46.66 143.44c15.19,0 26.75,-5.48 34.72,-16.49 7.92,-11.12 11.94,-27.24 11.94,-48.39 0,-20.94 -4.02,-37 -11.94,-48.18 -7.98,-11.12 -19.53,-16.71 -34.72,-16.71 -15.08,0 -26.59,5.59 -34.5,16.71 -7.98,11.18 -11.94,27.24 -11.94,48.18 0,21.16 3.96,37.27 11.94,48.39 7.92,11.01 19.42,16.49 34.5,16.49z"/>
</symbol>
<symbol id="d" viewBox="-1522.35 -1812.28 179.04 284.5">
 <path class="fil0" d="M-1416.45 -1812.28l0 62.93 73.13 0 0 50.56 -73.13 0 0 93.97c0,10.31 2.01,17.31 6.07,21.05 4.18,3.63 12.37,5.43 24.52,5.43l36.24 0 0 50.56 -60.55 0c-28.1,0 -47.96,-5.75 -59.68,-17.36 -11.61,-11.72 -17.36,-31.57 -17.36,-59.68l0 -93.97 -35.15 0 0 -50.56 35.15 0 0 -62.93 70.75 0z"/>
</symbol>
<symbol id="e" viewBox="-1510.41 -1754.77 224.18 232.63">
 <path class="fil0" d="M-1394.53 -1627.39c-14.76,0 -25.93,2.55 -33.42,7.59 -7.38,4.94 -11.07,12.26 -11.07,21.92 0,9.01 2.93,16 8.9,21.05 6.07,5.1 14.43,7.59 25.17,7.59 13.29,0 24.52,-4.78 33.64,-14.32 9.11,-9.55 13.67,-21.48 13.67,-35.81l0 -8.03 -36.89 0zm108.29 -26.91l0 126.52 -71.4 0 0 -32.77c-9.55,13.46 -20.29,23.22 -32.12,29.3 -11.88,6.07 -26.26,9.11 -43.19,9.11 -23,0 -41.67,-6.62 -55.99,-19.96 -14.32,-13.46 -21.48,-30.81 -21.48,-52.08 0,-26.04 8.9,-45.14 26.69,-57.29 17.91,-12.15 46.06,-18.23 84.42,-18.23l41.67 0 0 -5.43c0,-11.28 -4.45,-19.53 -13.24,-24.74 -8.84,-5.21 -22.68,-7.81 -41.45,-7.81 -15.08,0 -29.19,1.52 -42.32,4.56 -13.02,3.04 -25.12,7.59 -36.24,13.67l0 -54.04c15.03,-3.58 30.22,-6.35 45.57,-8.25 15.3,-2.01 30.65,-3.04 46.01,-3.04 39.93,0 68.69,7.92 86.37,23.65 17.8,15.79 26.69,41.4 26.69,76.82l-0 -0z"/>
</symbol>
<symbol id="a" viewBox="-1510.42 -1754.77 237.85 232.64">
 <path class="fil0" d="M-1272.57 -1639.11l0 20.18 -165.58 0c1.74,16.66 7.7,29.08 18.01,37.33 10.25,8.25 24.63,12.37 43.19,12.37 14.87,0 30.17,-2.17 45.79,-6.51 15.63,-4.45 31.69,-11.18 48.18,-20.18l0 54.69c-16.82,6.4 -33.58,11.18 -50.35,14.32 -16.82,3.15 -33.53,4.78 -50.13,4.78 -40.26,0 -71.5,-10.09 -93.75,-30.38 -22.14,-20.4 -33.2,-49.04 -33.2,-85.94 0,-36.02 10.91,-64.34 32.77,-85.07 21.81,-20.83 51.87,-31.25 90.06,-31.25 34.83,0 62.72,10.52 83.55,31.47 20.94,21 31.47,49.04 31.47,84.2l-0 -0zm-72.7 -23.65c0,-13.46 -4.02,-24.31 -11.94,-32.55 -7.81,-8.25 -18.01,-12.37 -30.6,-12.37 -13.78,0 -24.96,3.91 -33.64,11.72 -8.57,7.7 -13.83,18.77 -15.84,33.2l92.02 -0z"/>
</symbol>
<symbol id="b" viewBox="-1493.7 -1754.77 164.5 227">
 <path class="fil0" d="M-1329.21 -1689.02c-6.24,-2.87 -12.37,-4.99 -18.44,-6.3 -6.07,-1.41 -12.26,-2.17 -18.44,-2.17 -18.23,0 -32.28,5.86 -42.1,17.58 -9.87,11.61 -14.76,28.32 -14.76,50.13l0 102 -70.75 0 0 -221.57 70.74 0 0 36.46c9.11,-14.59 19.53,-25.23 31.25,-31.9 11.83,-6.62 26.04,-9.98 42.54,-9.98 2.44,0 5.05,0.16 7.81,0.43 2.71,0.16 6.73,0.6 11.94,1.3l0.22 64.02z"/>
</symbol>
<symbol id="u" viewBox="-1507.6 -1828.56 251.3 306.43">
 <path class="fil0" d="M-1256.3 -1544.06c-14.05,7.27 -28.65,12.7 -43.83,16.28 -15.19,3.74 -31.03,5.64 -47.53,5.64 -49.21,0 -88.22,-13.72 -116.97,-41.23 -28.65,-27.45 -42.97,-64.72 -42.97,-111.76 0,-47.31 14.32,-84.69 42.97,-112.2 28.76,-27.45 67.76,-41.23 116.97,-41.23 16.49,0 32.33,1.9 47.53,5.64 15.19,3.63 29.78,9.11 43.83,16.49l0 60.98c-14.21,-9.55 -28.16,-16.55 -41.88,-21.05 -13.62,-4.45 -28,-6.73 -43.19,-6.73 -27.24,0 -48.61,8.68 -64.24,26.04 -15.52,17.36 -23.22,41.4 -23.22,72.05 0,30.38 7.7,54.36 23.22,71.83 15.63,17.36 37,26.04 64.24,26.04 15.19,0 29.57,-2.22 43.19,-6.73 13.72,-4.45 27.67,-11.5 41.88,-21.05l0 60.99z"/>
</symbol>
<symbol id="Symbol1" viewBox="-1524.74 -1970.71 464.18 442.93">
 <path class="fil0" d="M-1203.13 -1608.51l-178.6 0 -28.21 80.73 -114.8 0 164.06 -442.93 136.07 0 164.06 442.93 -114.8 0 -27.77 -80.73zm-150.17 -82.25l121.31 0 -60.55 -176.22 -60.76 176.22z"/>
</symbol>
<symbol id="Symbol4" viewBox="-1472.01 -1970.71 396.93 442.93">
 <polygon class="fil0" points="-1472.01,-1970.71 -1357.86,-1970.71 -1357.86,-1801.87 -1189.23,-1801.88 -1189.23,-1970.71 -1075.08,-1970.71 -1075.08,-1527.78 -1189.23,-1527.78 -1189.23,-1715.5 -1357.86,-1715.5 -1357.86,-1527.78 -1472.01,-1527.78 "/>
</symbol>
<symbol id="Symbol3" viewBox="-1472.01 -1970.72 399.95 442.93">
 <path class="fil0" d="M-1309.68 -1774.31c23.87,0 41.02,-4.39 51.43,-13.24 10.42,-8.95 15.63,-23.65 15.63,-44.06 0,-20.07 -5.21,-34.5 -15.63,-43.19 -10.42,-8.79 -27.56,-13.24 -51.43,-13.24l-48.18 -0 0 113.72 48.18 0zm-48.18 78.99l0 167.53 -114.15 0 0 -442.93 174.47 0c58.27,0 101.02,9.76 128.26,29.3 27.18,19.53 40.8,50.51 40.8,92.88 0,29.24 -7.11,53.28 -21.27,72.05 -14.05,18.83 -35.32,32.72 -63.8,41.67 15.63,3.47 29.57,11.5 41.88,24.09 12.43,12.59 24.96,31.63 37.54,57.07l62.07 125.87 -121.74 0 -53.82 -110.03c-11.01,-22.14 -22.08,-37.22 -33.2,-45.35 -11.18,-8.08 -26.04,-12.15 -44.7,-12.15l-32.33 0.01z"/>
</symbol>
<symbol id="Symbol2" viewBox="-1472.01 -1970.71 314.89 442.93">
 <polygon class="fil0" points="-1472.01,-1970.71 -1163.63,-1970.71 -1163.63,-1884.33 -1357.85,-1884.34 -1357.85,-1801.87 -1175.34,-1801.87 -1175.34,-1715.5 -1357.85,-1715.5 -1357.85,-1614.15 -1157.12,-1614.15 -1157.12,-1527.78 -1472.01,-1527.78 "/>
</symbol>
<symbol id="Symbol6" viewBox="-1520.4 -1860.03 377.82 463.33">
 <path class="fil0" d="M-1520.4 -1860.03l106.33 0 89.19 225.47 75.96 -225.47 106.34 0 -139.75 363.72c-14.05,37 -30.49,62.83 -49.26,77.47 -18.67,14.76 -43.35,22.14 -74,22.14l-61.42 0 0 -69.66 33.2 0c18.07,0 31.14,-2.93 39.28,-8.68 8.25,-5.64 14.65,-15.95 19.31,-30.81l2.82 -9.11 -148.01 -345.06z"/>
</symbol>
<symbol id="Symbol5" viewBox="-1484.16 -1978.74 349.61 459.63">
 <path class="fil0" d="M-1163.63 -1956.82l0 93.75c-24.47,-10.85 -48.29,-18.99 -71.4,-24.52 -23.17,-5.64 -45.03,-8.46 -65.54,-8.46 -27.24,0 -47.42,3.8 -60.55,11.28 -13.02,7.54 -19.53,19.26 -19.53,35.16 0,11.88 4.39,21.16 13.24,27.78 8.79,6.51 24.8,12.15 47.96,16.93l48.61 9.76c49.15,9.98 84.2,25.07 105.04,45.14 20.83,20.13 31.25,48.77 31.25,85.94 0,48.94 -14.54,85.29 -43.62,109.16 -28.97,23.87 -73.24,35.81 -132.81,35.81 -28.1,0 -56.31,-2.71 -84.64,-8.03 -28.21,-5.31 -56.43,-13.29 -84.64,-23.87l0 -96.35c28.21,15.08 55.45,26.42 81.81,34.07 26.48,7.54 51.98,11.28 76.61,11.28 24.85,0 43.89,-4.12 57.07,-12.37 13.29,-8.35 19.96,-20.24 19.96,-35.59 0,-13.89 -4.5,-24.57 -13.46,-32.12 -9.01,-7.49 -26.91,-14.21 -53.82,-20.18l-44.27 -9.76c-44.27,-9.55 -76.71,-24.63 -97.22,-45.35 -20.4,-20.83 -30.6,-48.83 -30.6,-83.98 0,-44.11 14.21,-78.02 42.75,-101.78 28.48,-23.71 69.44,-35.59 122.83,-35.59 24.31,0 49.31,1.85 75.09,5.43 25.72,3.63 52.35,9.11 79.86,16.49l0 0z"/>
</symbol>
<symbol id="m" viewBox="-1510.41 -1754.77 195.74 232.64">
 <path class="fil0" d="M-1314.67 -1742.41l0 57.72c-9.71,-6.51 -19.42,-11.34 -29.08,-14.54 -9.71,-3.15 -19.75,-4.78 -30.17,-4.78 -19.86,0 -35.26,5.81 -46.22,17.36 -11.01,11.45 -16.49,27.51 -16.49,48.18 0,20.83 5.48,37.06 16.49,48.61 10.96,11.45 26.37,17.15 46.22,17.15 11.12,0 21.59,-1.63 31.47,-4.99 9.98,-3.31 19.2,-8.14 27.78,-14.54l0 57.94c-11.18,4.07 -22.46,7.05 -33.85,9.11 -11.28,2.01 -22.73,3.04 -34.29,3.04 -39.93,0 -71.18,-10.2 -93.75,-30.6 -22.57,-20.51 -33.85,-49.1 -33.85,-85.72 0,-36.46 11.28,-64.94 33.85,-85.5 22.57,-20.51 53.82,-30.81 93.75,-30.81 11.56,0 23,1.09 34.29,3.26 11.28,2.06 22.57,5.1 33.85,9.11l-0 -0z"/>
</symbol>
<symbol id="n" viewBox="-1541.23 -1835.5 118.27 395.19">
 <path class="fil0" d="M-1493.71 -1749.35l70.75 0 0 217.67c0,29.62 -7.16,52.3 -21.48,67.93 -14.21,15.63 -34.83,23.44 -61.85,23.44l-34.94 0 0 -46.44 12.37 0c13.46,0 22.62,-3.04 27.56,-9.11 5.05,-6.07 7.59,-18.01 7.59,-35.81l-0 -217.67zm0 -86.15l70.75 0 0 57.72 -70.75 0 0 -57.72z"/>
</symbol>
<symbol id="v" viewBox="-1523.88 -1585.07 47.75 58.37">
 <path class="fil0" d="M-1476.13 -1530.82c-2.6,1.3 -5.37,2.33 -8.25,3.04 -2.93,0.7 -5.97,1.09 -9.11,1.09 -9.28,0 -16.66,-2.6 -22.14,-7.81 -5.54,-5.21 -8.25,-12.37 -8.25,-21.48 0,-8.95 2.71,-16.06 8.25,-21.27 5.48,-5.21 12.86,-7.81 22.14,-7.81 3.15,0 6.19,0.38 9.11,1.09 2.87,0.76 5.64,1.74 8.25,3.04l0 11.72c-2.6,-1.85 -5.21,-3.26 -7.81,-4.12 -2.6,-0.87 -5.37,-1.3 -8.25,-1.3 -5.21,0 -9.33,1.68 -12.37,4.99 -2.93,3.36 -4.34,7.92 -4.34,13.67 0,5.97 1.41,10.58 4.34,13.89 3.04,3.36 7.16,4.99 12.37,4.99 2.87,0 5.64,-0.43 8.25,-1.3 2.61,-0.87 5.21,-2.22 7.81,-4.12l0 11.7z"/>
</symbol>
<symbol id="o" viewBox="-1490.67 -1823.14 243.28 295.36">
 <path class="fil0" d="M-1490.67 -1823.14l126.52 0c37.6,0 66.46,8.41 86.59,25.17 20.07,16.66 30.17,40.36 30.17,71.18 0,30.98 -10.09,54.85 -30.17,71.61 -20.13,16.66 -48.99,24.96 -86.59,24.96l-50.35 0 0 102.43 -76.17 0 0 -295.36zm76.17 55.12l0 82.46 42.31 0c14.76,0 26.09,-3.53 34.07,-10.63 8.08,-7.22 12.15,-17.41 12.15,-30.6 0,-13.13 -4.07,-23.28 -12.15,-30.38 -7.98,-7.22 -19.31,-10.85 -34.07,-10.85l-42.31 -0z"/>
</symbol>
<symbol id="p" viewBox="-1496.1 -1749.35 222.66 227.21">
 <path class="fil0" d="M-1496.09 -1613.93l0 -135.42 71.18 0 0 22.14c0,12.04 -0.11,27.13 -0.22,45.35 -0.16,18.12 -0.22,30.17 -0.22,36.24 0,17.8 0.43,30.6 1.3,38.41 0.98,7.81 2.6,13.56 4.78,17.15 3.04,4.67 6.83,8.19 11.5,10.63 4.61,2.5 9.98,3.69 16.06,3.69 14.76,0 26.31,-5.64 34.72,-16.93 8.52,-11.28 12.8,-27.02 12.8,-47.31l0 -109.37 70.75 0 0 221.57 -70.75 0 0 -32.12c-10.74,13.02 -22.08,22.57 -34.07,28.65 -11.88,6.07 -24.96,9.11 -39.28,9.11 -25.61,0 -45.14,-7.81 -58.59,-23.44 -13.35,-15.73 -19.96,-38.52 -19.96,-68.36l0 0z"/>
</symbol>
<symbol id="s" viewBox="-1506.73 -1754.77 200.96 232.64">
 <path class="fil0" d="M-1320.75 -1742.41l0 53.82c-15.08,-6.35 -29.68,-11.12 -43.83,-14.32 -14.05,-3.15 -27.34,-4.78 -39.93,-4.78 -13.46,0 -23.44,1.74 -29.95,5.21 -6.51,3.36 -9.76,8.46 -9.76,15.41 0,5.64 2.44,9.98 7.38,13.02 4.88,3.04 13.78,5.31 26.69,6.73l12.37 1.95c36.3,4.5 60.66,12.04 73.13,22.57 12.59,10.58 18.88,27.13 18.88,49.7 0,23.6 -8.79,41.34 -26.26,53.17 -17.36,11.88 -43.35,17.8 -77.91,17.8 -14.65,0 -29.73,-1.19 -45.35,-3.47 -15.63,-2.17 -31.69,-5.54 -48.18,-10.2l0 -53.82c14.16,6.83 28.65,11.94 43.4,15.41 14.87,3.36 30,4.99 45.35,4.99 13.72,0 24.09,-1.85 31.03,-5.64 7.05,-3.74 10.63,-9.39 10.63,-16.93 0,-6.35 -2.5,-11.07 -7.38,-14.11 -4.78,-3.15 -14.32,-5.64 -28.65,-7.38l-12.37 -1.52c-31.57,-3.91 -53.71,-11.18 -66.41,-21.92 -12.59,-10.69 -18.88,-26.96 -18.88,-48.83 0,-23.44 8.03,-40.8 24.09,-52.08 16.06,-11.39 40.69,-17.15 74,-17.15 13.02,0 26.69,1.03 41.02,3.04 14.43,2.06 30.06,5.15 46.87,9.33l0 -0z"/>
</symbol>
<symbol id="q" viewBox="-1490.67 -1823.14 264.76 295.36">
 <polygon class="fil0" points="-1490.67,-1823.14 -1405.6,-1823.14 -1298.18,-1620.67 -1298.18,-1823.14 -1225.91,-1823.14 -1225.91,-1527.78 -1310.98,-1527.78 -1418.41,-1730.47 -1418.41,-1527.78 -1490.67,-1527.78 "/>
</symbol>
<symbol id="r" viewBox="-1519.97 -1835.5 172.09 307.72">
 <path class="fil0" d="M-1347.88 -1835.5l0 46.44 -39.28 0c-9.98,0 -17.04,1.85 -21.05,5.43 -3.91,3.63 -5.86,9.93 -5.86,18.88l0 15.41 60.55 -0 0 50.56 -60.55 0 0 171 -70.74 0 0 -171 -35.16 0 0 -50.56 35.16 0 0 -15.41c0,-24.14 6.73,-41.94 20.18,-53.39 13.46,-11.56 34.29,-17.36 62.5,-17.36l54.25 0z"/>
</symbol>
<symbol id="t" viewBox="-1493.71 -1835.5 70.75 307.72">
 <path class="fil0" d="M-1493.71 -1749.35l70.75 0 0 221.57 -70.75 0 0 -221.57zm0 -86.15l70.75 0 0 57.72 -70.75 0 0 -57.72z"/>
</symbol>
<symbol id="g" viewBox="-1493.71 -1754.78 222.65 227">
 <path class="fil0" d="M-1271.06 -1662.76l0 134.98 -71.18 0 0 -103.3c0,-19.1 -0.43,-32.23 -1.3,-39.5 -0.87,-7.22 -2.33,-12.59 -4.34,-16.06 -2.77,-4.61 -6.51,-8.14 -11.28,-10.63 -4.78,-2.6 -10.2,-3.91 -16.28,-3.91 -14.76,0 -26.42,5.75 -34.94,17.15 -8.41,11.28 -12.59,27.07 -12.59,47.31l0 108.94 -70.75 0 0 -221.57 70.74 0 0 32.33c10.69,-12.86 22.03,-22.35 34.07,-28.43 11.99,-6.19 25.23,-9.33 39.71,-9.33 25.61,0 44.98,7.92 58.16,23.65 13.29,15.63 19.96,38.41 19.96,68.36z"/>
</symbol>
<symbol id="h" viewBox="-1494.15 -1754.78 356.56 227">
 <path class="fil0" d="M-1288.42 -1712.46c8.95,-13.72 19.59,-24.2 31.9,-31.47 12.43,-7.22 26.04,-10.85 40.8,-10.85 25.44,0 44.81,7.92 58.16,23.65 13.29,15.63 19.96,38.41 19.96,68.36l0 134.98 -71.19 0 0 -115.45 0 -5.43c0.11,-1.85 0.22,-4.45 0.22,-7.81 0,-15.73 -2.33,-27.13 -6.94,-34.07 -4.5,-7.05 -11.94,-10.63 -22.35,-10.63 -13.46,0 -23.87,5.59 -31.25,16.71 -7.27,11.01 -11.01,27.02 -11.28,47.96l0 108.72 -71.18 0 0 -115.45c0,-24.57 -2.11,-40.36 -6.3,-47.31 -4.23,-7.05 -11.72,-10.63 -22.57,-10.63 -13.62,0 -24.09,5.59 -31.47,16.71 -7.38,11.18 -11.07,27.07 -11.07,47.74l0 108.94 -71.17 0 0 -221.57 71.18 0 0 32.33c8.68,-12.43 18.67,-21.81 29.95,-28.21 11.28,-6.35 23.71,-9.55 37.33,-9.55 15.3,0 28.86,3.69 40.58,11.07 11.72,7.38 20.62,17.8 26.69,31.25z"/>
</symbol>
<symbol id="f" viewBox="-1493.71 -1835.5 222.65 307.72">
 <path class="fil0" d="M-1271.06 -1662.76l0 134.98 -71.18 0 0 -102.86c0,-19.37 -0.43,-32.66 -1.3,-39.93 -0.87,-7.22 -2.33,-12.59 -4.34,-16.06 -2.77,-4.61 -6.51,-8.14 -11.28,-10.63 -4.78,-2.6 -10.2,-3.91 -16.28,-3.91 -14.76,0 -26.42,5.75 -34.94,17.15 -8.41,11.28 -12.59,27.07 -12.59,47.31l0 108.94 -70.75 -0 0 -307.72 70.74 0 0 118.49c10.69,-12.86 22.03,-22.35 34.07,-28.43 11.99,-6.19 25.23,-9.33 39.71,-9.33 25.61,0 44.98,7.92 58.16,23.65 13.29,15.63 19.96,38.41 19.96,68.36l0 -0z"/>
</symbol>
<symbol id="c" viewBox="-1510.41 -1754.78 243.49 232.64">
 <path class="fil0" d="M-1388.24 -1704c-15.79,0 -27.78,5.64 -36.02,16.93 -8.24,11.29 -12.37,27.51 -12.37,48.61 0,21.27 4.12,37.54 12.37,48.83 8.25,11.28 20.24,16.93 36.02,16.93 15.3,0 27.02,-5.64 35.16,-16.93 8.25,-11.28 12.37,-27.56 12.37,-48.83 0,-21.1 -4.12,-37.33 -12.37,-48.61 -8.14,-11.28 -19.86,-16.93 -35.16,-16.93zm0 -50.78c38.03,0 67.76,10.36 89.19,31.03 21.38,20.56 32.12,48.99 32.12,85.29 0,36.46 -10.74,65 -32.12,85.5 -21.43,20.56 -51.16,30.81 -89.19,30.81 -38.36,0 -68.31,-10.25 -89.84,-30.81 -21.59,-20.51 -32.33,-49.04 -32.33,-85.5 0,-36.3 10.74,-64.72 32.33,-85.29 21.54,-20.67 51.48,-31.03 89.84,-31.03z"/>
</symbol>
<symbol id="j" viewBox="-1522.79 -1749.35 251.74 309.03">
 <path class="fil0" d="M-1522.79 -1749.35l70.75 0 59.68 150.39 50.56 -150.39 70.74 0 -93.1 242.63c-9.44,24.57 -20.34,41.78 -32.77,51.65 -12.48,9.82 -28.86,14.76 -49.26,14.76l-41.02 0 0 -46.44 22.14 0c11.99,0 20.72,-1.95 26.26,-5.86 5.48,-3.8 9.76,-10.63 12.8,-20.62l1.95 -6.07 -98.74 -230.04z"/>
</symbol>
<symbol id="i" viewBox="-1490.67 -1823.15 266.71 295.37">
 <path class="fil0" d="M-1382.38 -1692.28c15.9,0 27.34,-2.93 34.29,-8.9 6.94,-5.91 10.42,-15.68 10.42,-29.3 0,-13.29 -3.47,-22.84 -10.42,-28.65 -6.94,-5.91 -18.39,-8.9 -34.29,-8.9l-32.12 0 0 75.74 32.12 0zm-32.12 52.74l0 111.76 -76.17 -0 0 -295.36 116.32 0c38.9,0 67.38,6.51 85.5,19.53 18.23,13.02 27.34,33.74 27.34,62.07 0,19.42 -4.72,35.37 -14.11,47.96 -9.44,12.59 -23.65,21.86 -42.75,27.78 10.42,2.33 19.75,7.7 28,16.06 8.25,8.41 16.6,21.05 25.17,37.98l41.23 83.98 -81.16 -0 -35.81 -73.35c-7.38,-14.76 -14.87,-24.8 -22.35,-30.17 -7.38,-5.48 -17.25,-8.25 -29.52,-8.25l-21.7 0.01z"/>
</symbol>
 <g id="Layer_x0020_1">
  <metadata id="CorelCorpID_0Corel-Layer"/>
  <circle class="fil1" cx="3108.68" cy="3055.43" r="2390.14"/>
  <path class="fil2" d="M3527.06 3947.48c-59.55,-2.75 -114.33,82.65 -137.71,130.41 -26.83,54.84 -71.83,146.48 -151.3,99.73 -72.57,-42.69 -0.73,-124.16 27.35,-174 31.79,-56.43 63.66,-117.78 88.85,-177.77 192.64,-458.91 -77.2,-494.46 -78.94,-589.26 -0.66,-36.02 30.91,-58.23 55.37,-80.69 19.25,-17.68 45.56,-48.43 61.53,-69.51 200.4,-264.57 152.72,-485.62 230.33,-578.66 70.99,-85.1 290.35,-127.01 507.4,-297.19 93.42,-73.24 215,-194.03 338.61,-199.82 166.57,-7.8 258.98,142.15 236.33,296.2 -13.31,90.53 -80.66,205.82 -148.48,257.66 -65.82,50.3 -1.44,98.44 162.68,-58.67 171.22,-163.91 132.28,-431.75 -42.43,-548.81 -123.72,-82.88 -282.65,-94.9 -404.92,-2.49 -105.12,79.45 -183.86,164.96 -301.21,236.59 -355.36,216.94 -462.22,-23.49 -866.59,-24.45 -180.5,-0.42 -298.2,35.37 -469.07,71.72 -364.33,77.51 -598.79,-241.79 -736.7,-313.85 -129.8,-67.81 -296.45,-30.46 -401.31,66.31 -108.19,99.84 -137.6,272.49 -79.74,405.75 26.19,60.31 74.04,106.45 124.36,147.19 171.92,139.19 204.13,87.54 126.16,23.46 -32.6,-26.8 -43.47,-31.67 -68.81,-67.52 -42.31,-59.86 -72.37,-107.83 -85.45,-181.96 -26.78,-151.9 55.61,-306.79 222.24,-306.94 130.11,-0.11 247.49,116.56 343.61,193.52 122.42,98.02 198.93,134.41 339.72,198.09 55.71,25.2 128.7,55.49 170.81,100.3 85.81,91.34 25.78,299.87 229.06,575.5 58.01,78.65 114.72,101.91 119.1,151.08 4.72,52.93 -73.28,105.67 -103.58,157.71 -102.37,175.78 22.64,450.61 116.41,616.03 15.91,28.06 42.37,59.73 52.51,89.4 9.29,27.18 -1.45,72.69 -27.52,86.79 -136.74,73.97 -152.48,-238.22 -286.19,-231.88 -1.7,29.91 33.12,21.39 61.13,44.11 69.76,56.61 66.16,142.03 117.64,194.3 39.84,40.46 102.87,51.01 139.98,3.41 31.43,-40.32 7.72,-129.48 -2.04,-177.55 -22.43,-110.54 -54.03,-223.25 -84.27,-331.25 -13.47,-48.13 -35.46,-132.13 -13.65,-178.54 37.46,-79.76 93.56,26.37 114.15,41.81 6.3,-37.64 1.55,-229.17 1.91,-293.9 0.28,-50.1 7.31,-38.01 -23.2,-73.77 -60.43,-70.81 -105.39,-155.84 -142.3,-241.78 -92.48,-215.32 -44.06,-307.3 -139.5,-438.95 -54.48,-75.15 -92.92,-63.66 -78.72,-106.03 20.81,-4.5 78.72,15.71 106.59,19.46 177.17,23.83 549.61,23.95 726.04,-0.54 27.51,-3.82 81.56,-23.48 102.64,-18.89 11.75,34.93 -12.76,34.67 -35.84,58.39 -18.17,18.67 -29.4,28.82 -44.8,50.18 -76.35,105.89 -60.67,191.53 -89.94,298.87 -35.07,128.61 -106.13,282.64 -191.98,381.81 -30.56,35.3 -21.24,31.81 -21.15,80.3 0.1,61.9 -4.11,249.09 1.89,284.86 20.19,-15.11 28.02,-40.61 50.3,-58.33 25.76,-20.49 53.67,-8.35 65.19,19.64 19.61,47.69 -2.3,130.56 -15.99,178.96 -30.41,107.52 -61.87,221.25 -84.03,331.47 -9.85,49.02 -33.33,135.69 0.78,176.28 38.52,45.83 101.94,33.07 140.11,-8.16 33.74,-36.45 46.44,-94.77 70.44,-137.59 54.06,-96.46 108.51,-56.79 106.15,-98.56z"/>
  <path class="fil3" d="M3416.07 2487.58c-9.32,1 -18.39,2.04 -26.79,2.93 -28.36,3 -57.28,6.55 -85.75,7.86 -132.09,6.06 -265.47,6.11 -397.54,-0.39 -28.36,-1.4 -57.85,-5.12 -86.23,-7.68 -5.67,-0.51 -11.34,-1.02 -17.02,-1.5 25.77,44.69 43.64,90.21 54.51,145.61 8.94,45.57 14.04,90.65 25.19,136.05 17.26,70.26 45.3,137.13 77.72,201.64 19.68,39.15 41.99,76.9 66.04,113.51 10.46,15.93 22.21,32.1 35.94,45.42 8.73,8.47 18.12,15.2 25.14,25.42 12.7,18.49 12.8,40.93 12.62,62.48 -0.5,58.86 1.26,118.28 1.58,177.22 0.22,39.96 0.3,80.03 -0.67,119.98 -0.48,19.58 -0.62,60.07 -7.67,77.91l-3.72 9.41 -8.06 6.12c-20.91,15.88 -45.71,24 -71.62,16.29 -11.27,-3.35 -20.97,-9.16 -29.58,-16.4 2.18,10.89 4.39,20.21 5.76,25.64 9.15,36.4 21.48,71.49 31.17,107.53 28.79,107.15 119.87,386.05 59.74,481.48 -52.75,83.72 -173.13,93.98 -245.53,29.59 -30.41,-27.04 -49.81,-57.89 -66.7,-94.46 -13.55,-29.34 -24.62,-59.96 -41.61,-87.6 -6.49,-10.54 -12.42,-20.59 -24.74,-23.89 -20.04,-5.37 -32.46,-8.1 -50.28,-20.67 -55.62,-39.22 -43.17,-136.72 26.07,-153.31 64.02,-15.35 131.35,40.63 173.64,94.38 -4.44,-8.85 -8.8,-17.73 -13.1,-26.61 -73.5,-151.94 -154.31,-363.82 -94.18,-531.3 18.52,-51.57 46.06,-91.22 82.83,-131.1 6.4,-6.94 25.32,-25.7 36.21,-40.16 -42.35,-45.59 -83.67,-92.41 -119.23,-143.53 -41.72,-59.95 -73.28,-123.31 -101.07,-190.71 -32.18,-78.04 -49.9,-147.19 -64.35,-230.07 -8.06,-46.2 -20.59,-101.36 -55.78,-135.12 -21.85,-20.96 -52.48,-35.26 -79.92,-47.3 -47.57,-20.87 -95.6,-39.56 -142.87,-61.47 -115.58,-53.57 -210.53,-125.32 -308.85,-204.71 -53.21,-42.97 -136.91,-115.77 -203.89,-131.88 -50.54,-12.15 -103.92,-8.43 -144.54,26.87 -45.54,39.58 -58.86,104 -53.1,161.74 8.61,86.37 57.08,165.09 118.18,224.71 3.83,3.74 14.37,13.46 20.69,12.5 7.08,-1.07 18.93,-10.83 24.24,-15.28 15.99,-13.38 30.57,-27.38 47.82,-39.37 114.77,-79.8 344.53,-65.73 444.89,33.5 55.09,54.48 87.87,142.22 92.04,218.82 5.34,98.11 -52.76,206.31 -127.57,267.21 -114.99,93.6 -255.28,81.31 -380.31,14.37 -65.39,-35.01 -133.64,-83.27 -158.06,-156.84 -7.62,-22.95 -10.13,-45.46 -11.27,-69.45 -0.74,-15.54 -0.69,-32.95 -4.13,-48.12 -5.27,-23.16 -20.19,-36.31 -40.13,-48.1 -29.13,-17.24 -59.67,-33.24 -87.96,-51.7 -32.28,-21.07 -59.32,-45.48 -86.15,-73.07 -60.72,-62.44 -95.22,-113.46 -113.35,-200.1 -34.39,-164.29 11.34,-324.36 142.5,-432.53 109.38,-90.2 264.19,-128.61 401.37,-87.43 30.51,9.16 59.72,22.19 86.78,39.01 58.29,36.23 107.19,86.03 161.02,128.21 76.87,60.22 165.08,119.13 258.27,150.53 65.95,22.22 128.82,28.62 197.9,21.62 92.16,-9.35 186.03,-39.16 277.39,-57.12 134.27,-26.41 259.98,-31.01 395.97,-12.98 79.35,10.52 160.02,31 235.65,57.13 76.28,26.36 137.47,51.24 220.2,48.02 139.54,-5.43 260.85,-92.22 365.82,-176.43 131.04,-105.13 202.48,-209.74 387.83,-213.31 162.22,-3.12 313.25,79.38 394.4,220.53 82.02,142.65 70.61,355.31 -38.75,481.1 -24.52,28.2 -49.51,55.09 -79.4,77.7 -27.2,20.59 -57.88,38.45 -86.61,56.94 -16.91,10.88 -40.07,26.79 -46.98,46.85 -7.37,21.41 -4.28,70.06 -5.03,93.82 -3.03,95.65 -48.2,145.8 -124.99,195.57 -66.2,42.92 -121.59,73.31 -200.33,87.72 -183.25,33.54 -284.79,-41.27 -377.92,-191.95 -47.26,-76.46 -52.26,-155.19 -28.93,-240.6 48.61,-178.05 158.26,-253.84 339.39,-262.89 54.09,-2.7 187.58,21.11 233.06,49.17 15.7,9.7 29.53,22.43 42.94,35.02 6.98,6.56 34.13,33.08 43.67,33.45 0.85,0.04 3.57,-2.06 4.12,-2.51 34.76,-28.71 87.06,-118.23 98.35,-161.91 36.47,-141.15 -31.22,-283.77 -194.98,-238.86 -88.96,24.39 -244.17,172.82 -325.58,231 -59.19,42.29 -121.16,76.56 -187.18,106.9 -46.69,21.46 -94.2,40 -141.04,60.76 -26.32,11.66 -55.81,25.58 -76.64,45.9 -35.5,34.64 -47.82,95.15 -55.9,141.99 -42.59,246.9 -128.57,376.66 -282.47,558.44 12.65,15.94 33.06,35.54 41.57,44.73 36.5,39.42 63.88,79.63 80.55,131.28 57.15,177.07 -24.34,383.13 -110.64,550.54 43.29,-54.53 114.4,-112.75 179.1,-91.85 69.07,22.31 73.38,124.41 10.29,157.53 -10.24,5.37 -20.59,9.58 -31.65,12.9 -5.02,1.5 -10.83,2.74 -15.66,4.62 -7.02,2.72 -16.04,17.94 -19.56,23.74 -10.41,17.19 -18.63,35.84 -26.67,54.23 -21.39,48.91 -41.06,93.37 -83.61,128.26 -75.03,61.51 -193.92,49.83 -244.32,-36.5 -40.03,-68.55 -9.36,-185.79 6.68,-259.47 16.22,-74.5 36.51,-148.05 56.35,-221.65 9.55,-35.41 21.6,-69.87 30.54,-105.63 1.32,-5.28 3.44,-14.25 5.54,-24.75 -28.78,24.15 -63.12,30.07 -101.42,0.7l-7.98 -6.12 -3.69 -9.37c-7.01,-17.84 -7.15,-58.87 -7.63,-78.46 -0.99,-40.47 -0.94,-81.06 -0.75,-121.54 0.28,-59.83 1.87,-119.95 1.57,-179.72 -0.1,-20.31 1.43,-39.81 12.89,-57.3 7.43,-11.31 17.63,-19.33 27.05,-28.78 14.26,-14.32 26.23,-30.79 37.12,-47.76 56.57,-88.19 105.62,-181.83 133.19,-283.36 17.31,-63.72 22.93,-127.61 38.21,-190.93 4.82,-19.97 10.76,-39.55 18.31,-58.66 7.61,-19.26 21.24,-41.46 31.77,-59.48 0.07,-0.11 0.13,-0.23 0.2,-0.34zm-188.66 732.69c-0.25,2.61 0.18,6.93 0.32,9.37 0.58,9.94 1.05,19.74 1.07,29.71 0.07,45.21 -0.85,90.52 -1.16,135.74 -0.14,19.53 -0.24,39.07 -0.17,58.62 43.19,-29.64 96.06,-10.38 115.99,38.08 23.85,58 1.91,144.11 -14.63,202.59 -21.78,76.97 -43.37,154.3 -62.03,232.23 19.67,-37.41 38.16,-75.54 54.43,-114.28 48.41,-115.31 101.7,-280.35 35.19,-399.5 -17.01,-30.46 -39.02,-54 -62.82,-79.03 -22.34,-23.49 -46.66,-48.9 -52.72,-82.02 -0.85,-4.63 -1.32,-9.32 -1.41,-14.03 -0.32,-17.48 3.56,-32.08 10.15,-44.97 -2.81,3.39 -5.63,6.74 -8.48,10.03 -3.04,3.5 -11.5,12.94 -13.71,17.45zm50.3 -63.85c9.09,-9.02 19.01,-17.67 28.83,-26.69 20,-18.36 40.73,-43.02 57.15,-64.7 79.94,-105.54 125.5,-211.69 154.77,-339.85 10.11,-44.26 17.68,-89.39 28.76,-133.34 9.53,-37.76 22.55,-76.45 47.85,-106.79 45.69,-54.78 147.07,-96.3 211.42,-126.31 107.74,-50.27 207.33,-102.39 301.44,-176.18 101.92,-79.91 222.88,-201.12 359.26,-207.5 189.83,-8.88 299.71,161.78 273.86,337.65 -9.75,66.31 -45.83,145.86 -92.62,208.5 16.15,-13.19 31.6,-27.22 45.94,-40.94 101.22,-96.91 127.72,-245.03 66.93,-371.17 -23.59,-48.95 -59.25,-91.08 -104.47,-121.37 -110.74,-74.2 -253.16,-86.64 -362.92,-3.69 -104.18,78.74 -191.22,169.66 -304.18,238.61 -116.98,71.42 -231.64,111.75 -369.43,89.8 -78.03,-12.42 -153.93,-41.76 -229.55,-64.2 -95.85,-28.46 -186.15,-44.5 -286.56,-44.74 -80.77,-0.19 -157.7,7.7 -237.01,22.49 -75.15,14.02 -149.65,32.53 -224.44,48.44 -176.22,37.49 -332.89,-9.64 -480.58,-105.92 -58.07,-37.86 -111.3,-81.03 -164.66,-125.09 -34.06,-28.11 -76.83,-65.82 -115.77,-86.16 -27.39,-14.32 -57.02,-23.43 -87.61,-27.65 -96.82,-13.33 -200.93,22.55 -272.37,88.47 -96.76,89.3 -122.85,245.47 -71.07,364.72 23.61,54.38 68.61,96.78 113.93,133.46 0.98,0.79 2.1,1.69 3.34,2.68 -44.52,-63.17 -76.15,-116.25 -89.91,-194.25 -30.52,-173.09 67.6,-349.28 257.88,-349.45 143.29,-0.13 261.62,117.67 366.28,201.47 50.7,40.59 102.33,77.28 158.98,109.13 55.81,31.37 114.72,57.86 173.02,84.23 61.76,27.93 135.28,58.47 182.28,108.5 53.55,57 63.48,161.56 79.49,235.81 28,129.87 72.93,235.33 152.33,343 20.59,27.92 43.18,50.41 67.89,74.42 7.07,6.87 14.2,13.84 20.94,21.13 -45.1,-62.95 -80.75,-132.97 -111.18,-203.81 -26.57,-61.87 -45.63,-123.38 -58.68,-189.36 -8.72,-44.07 -14.07,-89.98 -25.33,-133.33 -10.65,-40.96 -26.65,-74.97 -51.54,-109.29 -13.54,-18.67 -27.84,-33.87 -45.76,-48.27 -15.06,-12.09 -30.43,-22.2 -38.28,-40.85 -6.9,-16.41 -5.23,-33.2 0.29,-49.68l6.54 -19.54 20.15 -4.36c34.34,-7.42 83.89,14.23 119.07,18.97 52.72,7.08 106.81,10.57 159.92,13.11 65.83,3.14 131.86,4.43 197.77,4.41 66.13,-0.01 132.39,-1.33 198.44,-4.56 53.15,-2.6 107.37,-6.17 160.09,-13.48 34.91,-4.84 80.69,-25.94 115.33,-18.4l20.07 4.37 6.55 19.47c6.52,19.39 7.6,39.24 -3.17,57.43 -11.45,19.35 -27.17,23.51 -41.05,37.77 -14.93,15.33 -28.76,28.61 -41.38,46.1 -69.31,96.13 -55.28,180.54 -84.37,287.21 -31.3,114.8 -89.49,247.96 -162.95,349.59zm-317.08 27.51c3.22,5.63 6.01,11.53 8.23,17.77 2.88,8.09 4.71,16.47 5.48,25.03 4.49,50.31 -34.85,92.77 -66.24,127.27 -14.18,15.59 -31.53,33.7 -42.12,51.89 -5.18,8.89 -9.72,18.15 -13.61,27.69 -58.18,142.29 22.97,348.48 98.1,493.11 -19.03,-79.14 -41.08,-157.63 -63,-235.91 -16.44,-58.7 -38.5,-146.33 -11.56,-203.7 12.3,-26.18 32.52,-48.93 63.42,-50.17 19.1,-0.76 35.94,7.24 50.58,18.57 0.08,-21.79 -0.05,-43.59 -0.22,-65.37 -0.37,-46.59 -1.41,-93.35 -1.16,-139.94 0.05,-9.06 1.44,-22.56 1.02,-31.87 -4.03,-5.69 -11.49,-13.44 -15.54,-18.19 -4.54,-5.32 -9,-10.72 -13.37,-16.18zm1442.93 -280.96c0.36,-0.25 0.75,-0.59 1.02,-0.82 0.53,-0.46 1.38,-1.12 1.78,-1.72 0.29,-0.75 0.41,-1.78 0.57,-2.57 3.03,-15.24 5.72,-25.74 15.25,-38.77l7.07 -9.67 11.44 -3.55c1.94,-0.6 3.91,-1.14 5.88,-1.62 7.72,-1.87 25.8,-2.93 32.73,-4.88 0.05,-0.12 0.09,-0.24 0.13,-0.35 0.41,-1.16 1.1,-3.21 1.43,-4.86 -2.86,-4.34 -6.59,-8.56 -9.48,-13.11 -7.37,-11.58 -11.51,-23.87 -12.66,-37.56l-0.96 -11.42 5.78 -9.89c9.83,-16.81 18.03,-19.77 30.38,-31.33 0.07,-0.59 0.1,-1.25 0.11,-1.72 0.03,-0.83 0.06,-2.1 -0.01,-3.22 -10.9,-10.09 -17.93,-12.93 -27.04,-28.27l-5.55 -9.34 0.51 -10.85c0.46,-9.97 2.7,-19.02 5.44,-28.54 0.89,-3.07 2.46,-7.76 2.82,-11.31 -0.26,-0.39 -0.51,-0.74 -0.35,-0.69 -1.63,-0.89 -6.25,-1.75 -8.09,-2.16 -11.16,-2.5 -20.75,-5.62 -29.69,-13.28 -15.53,-13.32 -19.39,-32.38 -16.88,-51.85 1,-7.75 5.08,-19.08 6.14,-26.22 -0.77,-0.78 -1.69,-1.57 -2.28,-2.06 -0.46,-0.38 -1.24,-1.01 -1.91,-1.42 -2.22,0.37 -6.03,1.79 -7.77,2.36 -10.22,3.4 -19.55,5.74 -30.5,4.74 -1.98,-0.18 -3.95,-0.47 -5.91,-0.87 -12.36,-2.55 -23.07,-8.7 -31.2,-18.39 -6.51,-7.76 -7.83,-14.17 -12.03,-20.81 -0.67,-0.21 -1.43,-0.37 -1.94,-0.48 -0.68,-0.15 -2.4,-0.47 -3.12,-0.34 -1.05,0.3 -3.61,2.06 -4.5,2.65 -7.14,4.7 -13.37,8.65 -21.71,11.19 -13.56,4.13 -27.24,2.74 -40.06,-3.13 -6.57,-3 -12.4,-7.17 -17.46,-12.32 -6.12,-6.22 -9.33,-13.35 -13.81,-18.78 -1.38,-0.1 -3.09,-0.01 -4.08,0.05 -0.53,0.03 -1.24,0.08 -1.92,0.17 -12.35,13.98 -17.11,21.88 -36.33,30.26l-9.06 3.96 -9.82 -1.2c-12.95,-1.59 -24.48,-5.88 -35.32,-13.11 -3.09,-2.06 -6.43,-4.96 -9.56,-7.19 -1.21,0.33 -2.48,0.79 -3.33,1.09 -0.21,0.07 -0.47,0.17 -0.71,0.28 -0.13,0.21 -0.27,0.44 -0.37,0.63 -8.2,14.27 -9.85,23.35 -22.99,36.27l-8.04 7.91 -11.11 1.94c-12.15,2.13 -23.34,1.26 -35.34,-1.04 -2.58,-0.49 -7.76,-1.81 -10.95,-2.09 -0.54,0.46 -1.07,1.01 -1.44,1.4 -0.5,0.51 -1.26,1.33 -1.84,2.09 0.48,4.52 1.89,9.66 2.59,14.19 1.81,11.74 1.61,22.94 -1.46,34.48l-2.86 10.74 -8.39 7.29c-8.89,7.72 -18.63,12.57 -29.56,16.63 -3.46,1.29 -8.72,2.83 -12.33,4.72 -0.02,0.07 -0.04,0.13 -0.06,0.2 -0.25,0.82 -0.65,2.17 -0.82,3.27 0.03,0.04 0.06,0.08 0.07,0.13 10.37,17.89 16.8,27.41 16.83,49.72l0.02 10.45 -5.56 8.85c-10.03,15.99 -17.93,19.53 -31.35,29.89 -0.3,1.03 -0.67,2.42 -0.89,3.67 5.3,7.94 10.37,12.3 15.08,23.17 7.49,17.25 6.25,27.55 6.1,45.06 -0.01,0.33 -0.01,0.73 0,1.11 0.17,0.23 0.36,0.46 0.51,0.65 0.03,0.03 0.06,0.06 0.08,0.1 0.07,0.02 0.14,0.04 0.21,0.06 15.74,4.57 24.59,5.67 38.93,16.02l9.31 6.72 3.74 10.86c7.43,21.57 3.89,31.71 0.69,52.16 0.42,0.68 0.96,1.41 1.33,1.89 0.4,0.53 1.05,1.36 1.65,1.96 3.24,0.42 8,0.12 11.1,0.11 10.17,-0.03 19.71,0.67 29.62,3.14l13.04 3.25 7.76 10.96c7.46,10.55 11.26,21.78 13.82,34.29 0.79,3.81 1.57,9.84 2.96,13.89 0.02,0.01 0.04,0.02 0.05,0.03 1.05,0.48 3.21,1.41 4.68,1.72 1.79,-0.95 4.44,-3.03 5.8,-4 7.63,-5.5 14.79,-10.03 23.98,-12.68 5.28,-1.53 10.78,-2.27 16.29,-2.16 12.6,0.27 24.22,4.3 34.13,12.1 7.34,5.78 10.8,12.29 16.12,17.33 1.29,0.1 3.03,-0.02 4,-0.11 0.67,-0.06 1.58,-0.14 2.48,-0.26 1.68,-2.89 3.27,-6.13 5.05,-8.89 6.43,-9.91 14.43,-17.78 24.5,-23.98l9.02 -5.56 10.59 0.18c22.59,0.39 30.53,7.56 48.3,17.19 1.3,-0.34 2.91,-0.99 3.83,-1.39 0.15,-0.07 0.34,-0.14 0.52,-0.22 0,-0.01 0,-0.01 0,-0.02 8.64,-20.2 8.75,-31.36 28.02,-47.57l9 -7.57 11.73 -0.84c9.2,-0.66 17.87,0.15 26.95,1.5 3.3,0.5 7.7,1.39 11.44,1.39zm-2239.2 -332.68c-2.5,0.56 -5.16,1.31 -7.21,1.73 -10.55,2.18 -20.66,2.77 -31.36,1.01l-11.19 -1.85 -8.15 -7.91c-7.59,-7.38 -13.04,-15.62 -17.69,-25.07 -1.04,-2.11 -2.33,-5.31 -3.63,-7.82 -0.02,0 -0.03,-0 -0.04,-0 -11.92,8.87 -17.43,14.11 -35.14,17.85l-10.41 2.2 -9.94 -3.77c-11.44,-4.35 -21.09,-10.83 -29.35,-19.85 -2.37,-2.6 -4.5,-5.63 -6.7,-8.34 -9.38,12.59 -13.26,19.59 -30.62,28.46l-9.31 4.76 -10.43 -0.94c-11.31,-1.02 -21.52,-4.17 -31.61,-9.29 -2.46,-1.25 -5.46,-3.15 -8.2,-4.59 -2.64,5.28 -4,9.65 -8.52,15.49 -11.65,15.02 -28.61,20.63 -47.09,20.17 -8.3,-0.21 -16.61,-2.93 -23.81,-4.3 1.68,6.2 4.62,12.17 5.51,20.27 1.35,12.26 -1.17,24.03 -7.29,34.73 -5.3,9.26 -12.84,16.56 -22.24,21.57 -7.55,4.03 -13.41,4.76 -19.74,6.73 1.42,5.4 4.31,10.99 5.48,17.52 2.33,13.06 0.13,25.67 -6.15,37.33 -6.91,12.84 -12.83,15.71 -20.52,23.78 11.9,9.65 18.37,13.13 26.96,29.74l5.2 10.08 -1.47 11.25c-1.62,12.41 -6,23.22 -12.84,33.61 -1.58,2.4 -4,5.39 -5.87,8.11 2.78,0.37 5.86,0.62 7.89,0.89 11.24,1.5 21.57,3.94 31.78,9.09l11.2 5.64 5.31 11.37c3.61,7.72 5.77,15.46 7.66,23.73 0.3,1.32 0.67,3.23 1.1,5.03 17.46,-2.89 28.37,-4.24 46.42,1.97l10.19 3.5 6.62 8.51c6.55,8.43 10.87,17.52 14,27.67 0.54,1.72 1.04,3.8 1.58,5.85 15.24,-9.2 25.38,-13.75 44.64,-13.76l10.88 0 9.08 5.99c8.67,5.72 15.46,12.59 21.72,20.8 1.44,1.9 3.35,4.84 5.11,7.01 10.35,-10.78 14.47,-17.14 31.93,-23.96l9.54 -3.73 10.08 1.82c10.63,1.92 20.02,5.7 29.33,11.06 1.78,1.02 4,2.51 6.15,3.81 0.45,-2.64 0.78,-5.59 1.11,-7.49 1.9,-11.28 4.85,-21.51 10.88,-31.38l7.57 -12.42 14.06 -3.73c10.08,-2.67 19.79,-3.2 30.13,-3.31 1.59,-0.02 4.15,0.04 6.56,-0.04 -1.6,-16.36 -4.96,-24.47 0.62,-43.89l3.2 -11.13 9.07 -7.2c14.38,-11.44 21.15,-11.62 35.36,-16.12 -0.11,-17.61 -0.76,-27.65 7.88,-45.08 3.13,-6.3 6.31,-10.1 9.72,-14.42 -12.25,-8.46 -18.59,-12.06 -27.72,-27.46l-5.61 -9.47 0.6 -10.99c0.66,-11.94 3.78,-22.8 9.45,-33.3 1.53,-2.83 3.65,-5.84 5.35,-8.71 -2.54,-0.83 -5.36,-1.57 -7.53,-2.33 -10.12,-3.53 -19.07,-8.25 -27.3,-15.21l-7.98 -6.74 -3.17 -9.96c-3.77,-11.88 -4.32,-23.47 -2.68,-35.73 0.33,-2.5 1.07,-5.81 1.56,-8.83z"/>
  <path class="fil4" d="M2882.06 3085.26c-40.68,-283.33 416.24,-335.57 454.41,-58.25 17.13,124.52 -79.7,228.68 -200.34,241.5 -116.66,12.4 -236.8,-62.96 -254.07,-183.25zm502.23 -83.11c1.11,-23.48 19.18,-42.67 -1.55,-66.51 -18.92,-21.76 -49.93,-3.68 -45.45,-38.39 2.82,-21.89 17.63,-38.61 -8.86,-60.72 -26.78,-22.35 -45.34,0.56 -61.98,-2.86 -22.17,-4.56 -9.97,-32.25 -44.98,-39.65 -34.59,-7.31 -38.81,23.41 -61.81,12.88 -18.11,-8.29 -13.61,-36.8 -52.77,-34.25 -31.48,2.05 -25.11,22.36 -50.38,33.38 -30.56,-3.74 -28.1,-30.69 -64.98,-17.3 -24.81,9.02 -21.22,29.79 -37.09,45.38 -25.98,4.54 -43.66,-16.04 -67.59,8.83 -24.62,25.59 -2.74,40.73 -9.61,66.57 -17.94,15.59 -44.16,9.74 -52.85,38.36 -10.22,33.64 14.48,34.46 14.52,63.7 -12.11,19.3 -28.97,16.72 -35.32,38.57 -9.15,31.48 7.7,33.57 15.62,51.83 9.29,21.4 -4.85,35.14 11.89,55.44 14.2,17.22 27.77,9.38 45.98,22.5 9.24,26.8 -12.75,37.65 7.44,64.19 19.07,25.06 36.76,12.03 62.43,18.43 14.09,19.89 3.03,47.15 31.21,60.15 37.22,17.18 45.8,-14.19 65.16,-13.79 24.08,0.5 17.97,32.7 58.14,29.2 36.05,-3.13 24.45,-23.94 47.89,-38.37 27.83,0.47 31.61,27.89 66.88,12.93 28.19,-11.95 17.17,-36.17 37.72,-53.45 23.04,-1.66 39.78,11.36 60.58,-6.73 20.11,-17.47 9.61,-30.59 23.08,-49.02 23.48,-7.29 51.25,1.56 62.16,-29.4 13.9,-39.44 -16.01,-37.61 -18.78,-70.6 12.18,-20.83 34.44,-19.62 35.43,-50.16 1.07,-33.83 -19.5,-29.91 -32.11,-51.15z"/>
  <path class="fil5" d="M3622.52 2507.74c70.99,-85.1 290.35,-127.01 507.4,-297.19 93.42,-73.24 215,-194.03 338.61,-199.82 166.57,-7.8 258.98,142.15 236.33,296.2 -13.31,90.53 -80.66,205.82 -148.48,257.66 -65.82,50.3 -1.44,98.44 162.68,-58.67 171.22,-163.91 132.28,-431.75 -42.43,-548.81 -123.72,-82.88 -282.65,-94.9 -404.92,-2.49 -105.12,79.45 -183.86,164.96 -301.21,236.59 -355.36,216.94 -462.22,-23.49 -866.59,-24.45 -180.5,-0.42 -298.2,35.37 -469.07,71.72 -364.33,77.51 -598.79,-241.79 -736.7,-313.85 -129.8,-67.81 -296.45,-30.46 -401.31,66.31 -108.19,99.84 -137.6,272.49 -79.74,405.75 26.19,60.31 74.04,106.45 124.36,147.19 171.92,139.19 204.13,87.54 126.16,23.46 -32.6,-26.8 -43.47,-31.67 -68.81,-67.52 -42.31,-59.86 -72.37,-107.83 -85.45,-181.96 -26.78,-151.9 55.61,-306.79 222.24,-306.94 130.11,-0.11 247.49,116.56 343.61,193.52 122.42,98.02 198.93,134.41 339.72,198.09 55.71,25.2 128.7,55.49 170.81,100.3 85.81,91.34 25.78,299.87 229.06,575.5 58.01,78.65 114.72,101.91 119.1,151.08 4.72,52.93 -73.28,105.67 -103.58,157.71 -102.37,175.78 22.64,450.61 116.41,616.03 15.91,28.06 42.37,59.73 52.51,89.4 9.29,27.18 -1.45,72.69 -27.52,86.79 -136.74,73.97 -152.48,-238.22 -286.19,-231.88 -1.7,29.91 33.12,21.39 61.13,44.11 69.76,56.61 66.16,142.03 117.64,194.3 39.84,40.46 102.87,51.01 139.98,3.41 31.43,-40.32 7.72,-129.48 -2.04,-177.55 -22.43,-110.54 -54.03,-223.25 -84.27,-331.25 -13.47,-48.13 -35.46,-132.13 -13.65,-178.54 37.46,-79.76 93.56,26.37 114.15,41.81 6.3,-37.64 1.55,-229.17 1.91,-293.9 0.28,-50.1 7.31,-38.01 -23.2,-73.77 -60.43,-70.81 -105.39,-155.84 -142.3,-241.78 -92.48,-215.32 -44.06,-307.3 -139.5,-438.95 -54.48,-75.15 -92.92,-63.66 -78.72,-106.03 20.81,-4.5 78.72,15.71 106.59,19.46 177.17,23.83 549.61,23.95 726.04,-0.54 27.51,-3.82 81.56,-23.48 102.64,-18.89 11.75,34.93 -12.76,34.67 -35.84,58.39 -18.17,18.67 -29.4,28.82 -44.8,50.18 -76.35,105.89 -60.67,191.53 -89.94,298.87 -35.07,128.61 -106.13,282.64 -191.98,381.81 -30.56,35.3 -21.24,31.81 -21.15,80.3 0.1,61.9 -4.11,249.09 1.89,284.86 20.19,-15.11 28.02,-40.61 50.3,-58.33 25.76,-20.49 53.67,-8.35 65.19,19.64 19.61,47.69 -2.3,130.56 -15.99,178.96 -30.41,107.52 -61.87,221.25 -84.03,331.47 -9.85,49.02 -33.33,135.69 0.78,176.28 38.52,45.83 101.94,33.07 140.11,-8.16 33.74,-36.45 46.44,-94.77 70.44,-137.59 54.06,-96.46 108.51,-56.79 106.15,-98.56 -59.55,-2.75 -114.33,82.65 -137.71,130.41 -26.83,54.84 -71.83,146.48 -151.3,99.73 -72.57,-42.69 -0.73,-124.16 27.35,-174 31.79,-56.43 63.66,-117.78 88.85,-177.77 192.64,-458.91 -77.2,-494.46 -78.94,-589.26 -0.66,-36.02 30.91,-58.23 55.37,-80.69 19.25,-17.68 45.56,-48.43 61.53,-69.51 200.4,-264.57 152.72,-485.62 230.33,-578.66z"/>
  <circle class="fil3" cx="3108.68" cy="3055.43" r="348"/>
  <path class="fil2" d="M3192.7 3038.98c53.26,-19.45 77.88,61.65 26.65,78.53 -50.31,16.57 -83.25,-57.87 -26.65,-78.53zm-215.28 -21.39c48.43,-21.59 80.25,52.32 32.32,75.54 -47.8,23.17 -90.98,-49.39 -32.32,-75.54zm-110.04 81.89c-3.54,27.08 -30.14,29.09 -15.73,63.47 10.73,25.59 34.54,14.3 56.31,25.27 8.15,17.44 4.11,35.74 22.46,45.53 22.02,11.74 29.96,-4.08 53.75,4.11 14.77,18.98 4.81,39.72 32.38,46.33 31.89,7.65 27.93,-12.58 56.44,-12.59 18.49,12.21 17.4,31.16 42.66,33.71 31.94,3.22 25.58,-17.1 49.23,-26.35 25.54,4.61 30.82,26.71 60.27,12.02 23.04,-11.49 13.37,-34.51 24.54,-52.81 21.27,-5.64 43.98,4.35 57.58,-15.09 14.59,-20.85 -1.39,-34.05 5.25,-57.14 17.62,-14.01 28.96,-4.86 42.06,-22.06 14.24,-18.72 0.45,-29.94 11.09,-51.39 7.35,-14.81 22.37,-17.69 11.98,-43.8 -7.87,-19.75 -19.65,-13.07 -31.25,-32.65 1.52,-27.43 24.62,-27.78 11.72,-60.03 -8.82,-22.06 -27.24,-14.57 -44.54,-29.18 -7.84,-24.67 13.05,-40.07 -10.77,-61.33 -21.74,-19.4 -34.23,-1.43 -57.55,-5.27 -16.07,-15.61 -11.59,-35.71 -36.48,-41.74 -32.13,-7.78 -27.24,11.87 -52.73,17.25 -25.54,-9.7 -17.91,-31.23 -49.96,-30.55 -31.74,0.67 -21.88,20.06 -46.06,32.42 -26.33,-2.37 -30.44,-23.35 -58.78,-10.95 -24.81,10.84 -10.6,33.31 -39,32.6 -17.48,-0.43 -39.28,-15.87 -55.33,9.21 -17.9,27.97 8.62,40.11 -2.59,59.72 -9.74,17.03 -33.16,5.17 -43.63,29.59 -11.76,27.41 10.71,35.45 0.53,54.36 -8.85,16.43 -27.62,16.89 -24.79,44.72 2.82,27.73 19.41,20.31 30.93,42.61z"/>
  <path class="fil5" d="M3312.53 3165.95c17.62,-14.01 28.96,-4.86 42.06,-22.06 14.24,-18.72 0.45,-29.94 11.09,-51.39 7.35,-14.81 22.37,-17.69 11.98,-43.8 -7.87,-19.75 -19.65,-13.07 -31.25,-32.65 1.52,-27.43 24.62,-27.78 11.72,-60.03 -8.82,-22.06 -27.24,-14.57 -44.54,-29.18 -7.84,-24.67 13.05,-40.07 -10.77,-61.33 -21.74,-19.4 -34.23,-1.43 -57.55,-5.27 -16.07,-15.61 -11.59,-35.71 -36.48,-41.74 -32.13,-7.78 -27.24,11.87 -52.73,17.25 -25.54,-9.7 -17.91,-31.23 -49.96,-30.55 -31.74,0.67 -21.88,20.06 -46.06,32.42 -26.33,-2.37 -30.44,-23.35 -58.78,-10.95 -24.81,10.84 -10.6,33.31 -39,32.6 -17.48,-0.43 -39.28,-15.87 -55.33,9.21 -17.9,27.97 8.62,40.11 -2.59,59.72 -9.74,17.03 -33.16,5.17 -43.63,29.59 -11.76,27.41 10.71,35.45 0.53,54.36 -8.85,16.43 -27.62,16.89 -24.79,44.72 2.82,27.73 19.41,20.31 30.93,42.61 -3.54,27.08 -30.14,29.09 -15.73,63.47 10.73,25.59 34.54,14.3 56.31,25.27 8.15,17.44 4.11,35.74 22.46,45.53 22.02,11.74 29.96,-4.08 53.75,4.11 14.77,18.98 4.81,39.72 32.38,46.33 31.89,7.65 27.93,-12.58 56.44,-12.59 18.49,12.21 17.4,31.16 42.66,33.71 31.94,3.22 25.58,-17.1 49.23,-26.35 25.54,4.61 30.82,26.71 60.27,12.02 23.04,-11.49 13.37,-34.51 24.54,-52.81 21.27,-5.64 43.98,4.35 57.58,-15.09 14.59,-20.85 -1.39,-34.05 5.25,-57.14zm-93.18 -48.44c-50.31,16.57 -83.25,-57.87 -26.65,-78.53 53.26,-19.45 77.88,61.65 26.65,78.53zm-241.93 -99.91c48.43,-21.59 80.25,52.32 32.32,75.54 -47.8,23.17 -90.98,-49.39 -32.32,-75.54z"/>
  <circle class="fil3" cx="3108.68" cy="3055.43" r="348"/>
  <g id="_2520751282592">
   <path class="fil6" d="M2882.06 3085.26c17.27,120.29 137.41,195.65 254.07,183.25 120.64,-12.82 217.48,-116.98 200.34,-241.5 -38.17,-277.32 -495.09,-225.07 -454.41,58.25z"/>
   <path class="fil7" d="M3399.75 3174.06c13.9,-39.44 -16.01,-37.61 -18.78,-70.6 12.18,-20.83 34.44,-19.62 35.43,-50.16 1.07,-33.83 -19.5,-29.91 -32.11,-51.15 1.11,-23.48 19.18,-42.67 -1.55,-66.51 -18.92,-21.76 -49.93,-3.68 -45.45,-38.39 2.82,-21.89 17.63,-38.61 -8.86,-60.72 -26.78,-22.35 -45.34,0.56 -61.98,-2.86 -22.17,-4.56 -9.97,-32.25 -44.98,-39.65 -34.59,-7.31 -38.81,23.41 -61.81,12.88 -18.11,-8.29 -13.61,-36.8 -52.77,-34.25 -31.48,2.05 -25.11,22.36 -50.38,33.38 -30.56,-3.74 -28.1,-30.69 -64.98,-17.3 -24.81,9.02 -21.22,29.79 -37.09,45.38 -25.98,4.54 -43.66,-16.04 -67.59,8.83 -24.62,25.59 -2.74,40.73 -9.61,66.57 -17.94,15.59 -44.16,9.74 -52.85,38.36 -10.22,33.64 14.48,34.46 14.52,63.7 -12.11,19.3 -28.97,16.72 -35.32,38.57 -9.15,31.48 7.7,33.57 15.62,51.83 9.29,21.4 -4.85,35.14 11.89,55.44 14.2,17.22 27.77,9.38 45.98,22.5 9.24,26.8 -12.75,37.65 7.44,64.19 19.07,25.06 36.76,12.03 62.43,18.43 14.09,19.89 3.03,47.15 31.21,60.15 37.22,17.18 45.8,-14.19 65.16,-13.79 24.08,0.5 17.97,32.7 58.14,29.2 36.05,-3.13 24.45,-23.94 47.89,-38.37 27.83,0.47 31.61,27.89 66.88,12.93 28.19,-11.95 17.17,-36.17 37.72,-53.45 23.04,-1.66 39.78,11.36 60.58,-6.73 20.11,-17.47 9.61,-30.59 23.08,-49.02 23.48,-7.29 51.25,1.56 62.16,-29.4zm-63.28 -147.06c17.13,124.52 -79.7,228.68 -200.34,241.5 -116.66,12.4 -236.8,-62.96 -254.07,-183.25 -40.68,-283.33 416.24,-335.57 454.41,-58.25z"/>
  </g>
 </g>
</svg>
