<?xml version="1.0" encoding="UTF-8"?>
<!DOCTYPE svg PUBLIC "-//W3C//DTD SVG 1.1//EN" "http://www.w3.org/Graphics/SVG/1.1/DTD/svg11.dtd">
<!-- Creator: CorelDRAW 2018 (64-Bit) -->
<svg xmlns="http://www.w3.org/2000/svg" xml:space="preserve" width="6.66666in" height="6.66666in" version="1.1" style="shape-rendering:geometricPrecision; text-rendering:geometricPrecision; image-rendering:optimizeQuality; fill-rule:evenodd; clip-rule:evenodd"
viewBox="0 0 6666.66 6666.66"
 xmlns:xlink="http://www.w3.org/1999/xlink">
 <defs>
  <style type="text/css">
   <![CDATA[
    .fil1 {fill:#12A7A7}
    .fil0 {fill:black}
    .fil5 {fill:#2FBCB3}
    .fil4 {fill:#41B1B3}
    .fil2 {fill:#44269B}
    .fil3 {fill:white}
   ]]>
  </style>
 </defs>
<symbol id="Symbol13" viewBox="-1497.63 -1978.74 376.96 459.65">
 <path class="fil0" d="M-1120.67 -1552.09c-21,10.85 -42.91,19.04 -65.76,24.52 -22.73,5.64 -46.39,8.46 -70.96,8.46 -73.78,0 -132.32,-20.62 -175.57,-61.85 -43.13,-41.23 -64.67,-97.22 -64.67,-167.97 0,-70.75 21.54,-126.74 64.67,-167.97 43.24,-41.23 101.78,-61.85 175.57,-61.85 24.57,0 48.23,2.77 70.96,8.25 22.84,5.54 44.76,13.78 65.76,24.74l0 91.58c-21.27,-14.43 -42.21,-25.01 -62.72,-31.69 -20.56,-6.78 -42.21,-10.2 -64.89,-10.2 -40.8,0 -72.86,13.13 -96.14,39.28 -23.33,26.04 -34.94,62.01 -34.94,107.85 0,45.74 11.61,81.7 34.94,107.85 23.28,26.04 55.34,39.06 96.14,39.06 22.68,0 44.33,-3.31 64.89,-9.98 20.51,-6.78 41.45,-17.41 62.72,-31.9l0 91.81z"/>
</symbol>
<symbol id="m" viewBox="-1510.41 -1754.77 195.74 232.64">
 <path class="fil0" d="M-1314.67 -1742.41l0 57.72c-9.71,-6.51 -19.42,-11.34 -29.08,-14.54 -9.71,-3.15 -19.75,-4.78 -30.17,-4.78 -19.86,0 -35.26,5.81 -46.22,17.36 -11.01,11.45 -16.49,27.51 -16.49,48.18 0,20.83 5.48,37.06 16.49,48.61 10.96,11.45 26.37,17.15 46.22,17.15 11.12,0 21.59,-1.63 31.47,-4.99 9.98,-3.31 19.2,-8.14 27.78,-14.54l0 57.94c-11.18,4.07 -22.46,7.05 -33.85,9.11 -11.28,2.01 -22.73,3.04 -34.29,3.04 -39.93,0 -71.18,-10.2 -93.75,-30.6 -22.57,-20.51 -33.85,-49.1 -33.85,-85.72 0,-36.46 11.28,-64.94 33.85,-85.5 22.57,-20.51 53.82,-30.81 93.75,-30.81 11.56,0 23,1.09 34.29,3.26 11.28,2.06 22.57,5.1 33.85,9.11l-0 -0z"/>
</symbol>
<symbol id="v" viewBox="-1523.88 -1585.07 47.75 58.37">
 <path class="fil0" d="M-1476.13 -1530.82c-2.6,1.3 -5.37,2.33 -8.25,3.04 -2.93,0.7 -5.97,1.09 -9.11,1.09 -9.28,0 -16.66,-2.6 -22.14,-7.81 -5.54,-5.21 -8.25,-12.37 -8.25,-21.48 0,-8.95 2.71,-16.06 8.25,-21.27 5.48,-5.21 12.86,-7.81 22.14,-7.81 3.15,0 6.19,0.38 9.11,1.09 2.87,0.76 5.64,1.74 8.25,3.04l0 11.72c-2.6,-1.85 -5.21,-3.26 -7.81,-4.12 -2.6,-0.87 -5.37,-1.3 -8.25,-1.3 -5.21,0 -9.33,1.68 -12.37,4.99 -2.93,3.36 -4.34,7.92 -4.34,13.67 0,5.97 1.41,10.58 4.34,13.89 3.04,3.36 7.16,4.99 12.37,4.99 2.87,0 5.64,-0.43 8.25,-1.3 2.61,-0.87 5.21,-2.22 7.81,-4.12l0 11.7z"/>
</symbol>
<symbol id="n" viewBox="-1541.23 -1835.5 118.27 395.19">
 <path class="fil0" d="M-1493.71 -1749.35l70.75 0 0 217.67c0,29.62 -7.16,52.3 -21.48,67.93 -14.21,15.63 -34.83,23.44 -61.85,23.44l-34.94 0 0 -46.44 12.37 0c13.46,0 22.62,-3.04 27.56,-9.11 5.05,-6.07 7.59,-18.01 7.59,-35.81l-0 -217.67zm0 -86.15l70.75 0 0 57.72 -70.75 0 0 -57.72z"/>
</symbol>
<symbol id="p" viewBox="-1496.1 -1749.35 222.66 227.21">
 <path class="fil0" d="M-1496.09 -1613.93l0 -135.42 71.18 0 0 22.14c0,12.04 -0.11,27.13 -0.22,45.35 -0.16,18.12 -0.22,30.17 -0.22,36.24 0,17.8 0.43,30.6 1.3,38.41 0.98,7.81 2.6,13.56 4.78,17.15 3.04,4.67 6.83,8.19 11.5,10.63 4.61,2.5 9.98,3.69 16.06,3.69 14.76,0 26.31,-5.64 34.72,-16.93 8.52,-11.28 12.8,-27.02 12.8,-47.31l0 -109.37 70.75 0 0 221.57 -70.75 0 0 -32.12c-10.74,13.02 -22.08,22.57 -34.07,28.65 -11.88,6.07 -24.96,9.11 -39.28,9.11 -25.61,0 -45.14,-7.81 -58.59,-23.44 -13.35,-15.73 -19.96,-38.52 -19.96,-68.36l0 0z"/>
</symbol>
<symbol id="o" viewBox="-1490.67 -1823.14 243.28 295.36">
 <path class="fil0" d="M-1490.67 -1823.14l126.52 0c37.6,0 66.46,8.41 86.59,25.17 20.07,16.66 30.17,40.36 30.17,71.18 0,30.98 -10.09,54.85 -30.17,71.61 -20.13,16.66 -48.99,24.96 -86.59,24.96l-50.35 0 0 102.43 -76.17 0 0 -295.36zm76.17 55.12l0 82.46 42.31 0c14.76,0 26.09,-3.53 34.07,-10.63 8.08,-7.22 12.15,-17.41 12.15,-30.6 0,-13.13 -4.07,-23.28 -12.15,-30.38 -7.98,-7.22 -19.31,-10.85 -34.07,-10.85l-42.31 -0z"/>
</symbol>
<symbol id="r" viewBox="-1519.97 -1835.5 172.09 307.72">
 <path class="fil0" d="M-1347.88 -1835.5l0 46.44 -39.28 0c-9.98,0 -17.04,1.85 -21.05,5.43 -3.91,3.63 -5.86,9.93 -5.86,18.88l0 15.41 60.55 -0 0 50.56 -60.55 0 0 171 -70.74 0 0 -171 -35.16 0 0 -50.56 35.16 0 0 -15.41c0,-24.14 6.73,-41.94 20.18,-53.39 13.46,-11.56 34.29,-17.36 62.5,-17.36l54.25 0z"/>
</symbol>
<symbol id="s" viewBox="-1506.73 -1754.77 200.96 232.64">
 <path class="fil0" d="M-1320.75 -1742.41l0 53.82c-15.08,-6.35 -29.68,-11.12 -43.83,-14.32 -14.05,-3.15 -27.34,-4.78 -39.93,-4.78 -13.46,0 -23.44,1.74 -29.95,5.21 -6.51,3.36 -9.76,8.46 -9.76,15.41 0,5.64 2.44,9.98 7.38,13.02 4.88,3.04 13.78,5.31 26.69,6.73l12.37 1.95c36.3,4.5 60.66,12.04 73.13,22.57 12.59,10.58 18.88,27.13 18.88,49.7 0,23.6 -8.79,41.34 -26.26,53.17 -17.36,11.88 -43.35,17.8 -77.91,17.8 -14.65,0 -29.73,-1.19 -45.35,-3.47 -15.63,-2.17 -31.69,-5.54 -48.18,-10.2l0 -53.82c14.16,6.83 28.65,11.94 43.4,15.41 14.87,3.36 30,4.99 45.35,4.99 13.72,0 24.09,-1.85 31.03,-5.64 7.05,-3.74 10.63,-9.39 10.63,-16.93 0,-6.35 -2.5,-11.07 -7.38,-14.11 -4.78,-3.15 -14.32,-5.64 -28.65,-7.38l-12.37 -1.52c-31.57,-3.91 -53.71,-11.18 -66.41,-21.92 -12.59,-10.69 -18.88,-26.96 -18.88,-48.83 0,-23.44 8.03,-40.8 24.09,-52.08 16.06,-11.39 40.69,-17.15 74,-17.15 13.02,0 26.69,1.03 41.02,3.04 14.43,2.06 30.06,5.15 46.87,9.33l0 -0z"/>
</symbol>
<symbol id="q" viewBox="-1490.67 -1823.14 264.76 295.36">
 <polygon class="fil0" points="-1490.67,-1823.14 -1405.6,-1823.14 -1298.18,-1620.67 -1298.18,-1823.14 -1225.91,-1823.14 -1225.91,-1527.78 -1310.98,-1527.78 -1418.41,-1730.47 -1418.41,-1527.78 -1490.67,-1527.78 "/>
</symbol>
<symbol id="f" viewBox="-1493.71 -1835.5 222.65 307.72">
 <path class="fil0" d="M-1271.06 -1662.76l0 134.98 -71.18 0 0 -102.86c0,-19.37 -0.43,-32.66 -1.3,-39.93 -0.87,-7.22 -2.33,-12.59 -4.34,-16.06 -2.77,-4.61 -6.51,-8.14 -11.28,-10.63 -4.78,-2.6 -10.2,-3.91 -16.28,-3.91 -14.76,0 -26.42,5.75 -34.94,17.15 -8.41,11.28 -12.59,27.07 -12.59,47.31l0 108.94 -70.75 -0 0 -307.72 70.74 0 0 118.49c10.69,-12.86 22.03,-22.35 34.07,-28.43 11.99,-6.19 25.23,-9.33 39.71,-9.33 25.61,0 44.98,7.92 58.16,23.65 13.29,15.63 19.96,38.41 19.96,68.36l0 -0z"/>
</symbol>
<symbol id="c" viewBox="-1510.41 -1754.78 243.49 232.64">
 <path class="fil0" d="M-1388.24 -1704c-15.79,0 -27.78,5.64 -36.02,16.93 -8.24,11.29 -12.37,27.51 -12.37,48.61 0,21.27 4.12,37.54 12.37,48.83 8.25,11.28 20.24,16.93 36.02,16.93 15.3,0 27.02,-5.64 35.16,-16.93 8.25,-11.28 12.37,-27.56 12.37,-48.83 0,-21.1 -4.12,-37.33 -12.37,-48.61 -8.14,-11.28 -19.86,-16.93 -35.16,-16.93zm0 -50.78c38.03,0 67.76,10.36 89.19,31.03 21.38,20.56 32.12,48.99 32.12,85.29 0,36.46 -10.74,65 -32.12,85.5 -21.43,20.56 -51.16,30.81 -89.19,30.81 -38.36,0 -68.31,-10.25 -89.84,-30.81 -21.59,-20.51 -32.33,-49.04 -32.33,-85.5 0,-36.3 10.74,-64.72 32.33,-85.29 21.54,-20.67 51.48,-31.03 89.84,-31.03z"/>
</symbol>
<symbol id="t" viewBox="-1493.71 -1835.5 70.75 307.72">
 <path class="fil0" d="M-1493.71 -1749.35l70.75 0 0 221.57 -70.75 0 0 -221.57zm0 -86.15l70.75 0 0 57.72 -70.75 0 0 -57.72z"/>
</symbol>
<symbol id="g" viewBox="-1493.71 -1754.78 222.65 227">
 <path class="fil0" d="M-1271.06 -1662.76l0 134.98 -71.18 0 0 -103.3c0,-19.1 -0.43,-32.23 -1.3,-39.5 -0.87,-7.22 -2.33,-12.59 -4.34,-16.06 -2.77,-4.61 -6.51,-8.14 -11.28,-10.63 -4.78,-2.6 -10.2,-3.91 -16.28,-3.91 -14.76,0 -26.42,5.75 -34.94,17.15 -8.41,11.28 -12.59,27.07 -12.59,47.31l0 108.94 -70.75 0 0 -221.57 70.74 0 0 32.33c10.69,-12.86 22.03,-22.35 34.07,-28.43 11.99,-6.19 25.23,-9.33 39.71,-9.33 25.61,0 44.98,7.92 58.16,23.65 13.29,15.63 19.96,38.41 19.96,68.36z"/>
</symbol>
<symbol id="h" viewBox="-1494.15 -1754.78 356.56 227">
 <path class="fil0" d="M-1288.42 -1712.46c8.95,-13.72 19.59,-24.2 31.9,-31.47 12.43,-7.22 26.04,-10.85 40.8,-10.85 25.44,0 44.81,7.92 58.16,23.65 13.29,15.63 19.96,38.41 19.96,68.36l0 134.98 -71.19 0 0 -115.45 0 -5.43c0.11,-1.85 0.22,-4.45 0.22,-7.81 0,-15.73 -2.33,-27.13 -6.94,-34.07 -4.5,-7.05 -11.94,-10.63 -22.35,-10.63 -13.46,0 -23.87,5.59 -31.25,16.71 -7.27,11.01 -11.01,27.02 -11.28,47.96l0 108.72 -71.18 0 0 -115.45c0,-24.57 -2.11,-40.36 -6.3,-47.31 -4.23,-7.05 -11.72,-10.63 -22.57,-10.63 -13.62,0 -24.09,5.59 -31.47,16.71 -7.38,11.18 -11.07,27.07 -11.07,47.74l0 108.94 -71.17 0 0 -221.57 71.18 0 0 32.33c8.68,-12.43 18.67,-21.81 29.95,-28.21 11.28,-6.35 23.71,-9.55 37.33,-9.55 15.3,0 28.86,3.69 40.58,11.07 11.72,7.38 20.62,17.8 26.69,31.25z"/>
</symbol>
<symbol id="l" viewBox="-1509.55 -1835.5 237.85 313.36">
 <path class="fil0" d="M-1343.1 -1717.02l0 -118.49 71.4 0 0 307.72 -71.4 0 0 -32.12c-9.71,13.19 -20.4,22.79 -32.12,28.86 -11.72,5.91 -25.33,8.9 -40.8,8.9 -27.34,0 -49.8,-10.74 -67.28,-32.33 -17.52,-21.7 -26.26,-49.7 -26.26,-83.98 0,-34.13 8.74,-62.07 26.26,-83.77 17.47,-21.7 39.93,-32.55 67.28,-32.55 15.3,0 28.86,3.15 40.58,9.33 11.83,6.07 22.62,15.57 32.33,28.43l0 0zm-46.66 143.44c15.19,0 26.75,-5.48 34.72,-16.49 7.92,-11.12 11.94,-27.24 11.94,-48.39 0,-20.94 -4.02,-37 -11.94,-48.18 -7.98,-11.12 -19.53,-16.71 -34.72,-16.71 -15.08,0 -26.59,5.59 -34.5,16.71 -7.98,11.18 -11.94,27.24 -11.94,48.18 0,21.16 3.96,37.27 11.94,48.39 7.92,11.01 19.42,16.49 34.5,16.49z"/>
</symbol>
<symbol id="k" viewBox="-1493.7 -1835.5 237.85 313.36">
 <path class="fil0" d="M-1375.86 -1573.57c15.19,0 26.75,-5.48 34.72,-16.49 7.92,-11.12 11.94,-27.24 11.94,-48.39 0,-20.94 -4.02,-37 -11.94,-48.18 -7.98,-11.12 -19.53,-16.71 -34.72,-16.71 -15.19,0 -26.85,5.59 -34.94,16.71 -8.14,11.18 -12.15,27.24 -12.15,48.18 0,21 4.02,37.06 12.15,48.18 8.08,11.18 19.75,16.71 34.94,16.71zm-47.09 -143.44c9.82,-12.86 20.67,-22.35 32.55,-28.43 11.83,-6.19 25.44,-9.33 40.8,-9.33 27.34,0 49.75,10.85 67.28,32.55 17.63,21.7 26.48,49.64 26.48,83.77 0,34.29 -8.84,62.28 -26.48,83.98 -17.52,21.59 -39.93,32.33 -67.28,32.33 -15.35,0 -28.97,-3.04 -40.8,-9.11 -11.88,-6.07 -22.73,-15.63 -32.55,-28.65l0 32.12 -70.75 0 0 -307.72 70.75 0 0 118.48z"/>
</symbol>
<symbol id="j" viewBox="-1522.79 -1749.35 251.74 309.03">
 <path class="fil0" d="M-1522.79 -1749.35l70.75 0 59.68 150.39 50.56 -150.39 70.74 0 -93.1 242.63c-9.44,24.57 -20.34,41.78 -32.77,51.65 -12.48,9.82 -28.86,14.76 -49.26,14.76l-41.02 0 0 -46.44 22.14 0c11.99,0 20.72,-1.95 26.26,-5.86 5.48,-3.8 9.76,-10.63 12.8,-20.62l1.95 -6.07 -98.74 -230.04z"/>
</symbol>
<symbol id="i" viewBox="-1490.67 -1823.15 266.71 295.37">
 <path class="fil0" d="M-1382.38 -1692.28c15.9,0 27.34,-2.93 34.29,-8.9 6.94,-5.91 10.42,-15.68 10.42,-29.3 0,-13.29 -3.47,-22.84 -10.42,-28.65 -6.94,-5.91 -18.39,-8.9 -34.29,-8.9l-32.12 0 0 75.74 32.12 0zm-32.12 52.74l0 111.76 -76.17 -0 0 -295.36 116.32 0c38.9,0 67.38,6.51 85.5,19.53 18.23,13.02 27.34,33.74 27.34,62.07 0,19.42 -4.72,35.37 -14.11,47.96 -9.44,12.59 -23.65,21.86 -42.75,27.78 10.42,2.33 19.75,7.7 28,16.06 8.25,8.41 16.6,21.05 25.17,37.98l41.23 83.98 -81.16 -0 -35.81 -73.35c-7.38,-14.76 -14.87,-24.8 -22.35,-30.17 -7.38,-5.48 -17.25,-8.25 -29.52,-8.25l-21.7 0.01z"/>
</symbol>
<symbol id="b" viewBox="-1493.7 -1754.77 164.5 227">
 <path class="fil0" d="M-1329.21 -1689.02c-6.24,-2.87 -12.37,-4.99 -18.44,-6.3 -6.07,-1.41 -12.26,-2.17 -18.44,-2.17 -18.23,0 -32.28,5.86 -42.1,17.58 -9.87,11.61 -14.76,28.32 -14.76,50.13l0 102 -70.75 0 0 -221.57 70.74 0 0 36.46c9.11,-14.59 19.53,-25.23 31.25,-31.9 11.83,-6.62 26.04,-9.98 42.54,-9.98 2.44,0 5.05,0.16 7.81,0.43 2.71,0.16 6.73,0.6 11.94,1.3l0.22 64.02z"/>
</symbol>
<symbol id="a" viewBox="-1510.42 -1754.77 237.85 232.64">
 <path class="fil0" d="M-1272.57 -1639.11l0 20.18 -165.58 0c1.74,16.66 7.7,29.08 18.01,37.33 10.25,8.25 24.63,12.37 43.19,12.37 14.87,0 30.17,-2.17 45.79,-6.51 15.63,-4.45 31.69,-11.18 48.18,-20.18l0 54.69c-16.82,6.4 -33.58,11.18 -50.35,14.32 -16.82,3.15 -33.53,4.78 -50.13,4.78 -40.26,0 -71.5,-10.09 -93.75,-30.38 -22.14,-20.4 -33.2,-49.04 -33.2,-85.94 0,-36.02 10.91,-64.34 32.77,-85.07 21.81,-20.83 51.87,-31.25 90.06,-31.25 34.83,0 62.72,10.52 83.55,31.47 20.94,21 31.47,49.04 31.47,84.2l-0 -0zm-72.7 -23.65c0,-13.46 -4.02,-24.31 -11.94,-32.55 -7.81,-8.25 -18.01,-12.37 -30.6,-12.37 -13.78,0 -24.96,3.91 -33.64,11.72 -8.57,7.7 -13.83,18.77 -15.84,33.2l92.02 -0z"/>
</symbol>
<symbol id="d" viewBox="-1522.35 -1812.28 179.04 284.5">
 <path class="fil0" d="M-1416.45 -1812.28l0 62.93 73.13 0 0 50.56 -73.13 0 0 93.97c0,10.31 2.01,17.31 6.07,21.05 4.18,3.63 12.37,5.43 24.52,5.43l36.24 0 0 50.56 -60.55 0c-28.1,0 -47.96,-5.75 -59.68,-17.36 -11.61,-11.72 -17.36,-31.57 -17.36,-59.68l0 -93.97 -35.15 0 0 -50.56 35.15 0 0 -62.93 70.75 0z"/>
</symbol>
<symbol id="e" viewBox="-1510.41 -1754.77 224.18 232.63">
 <path class="fil0" d="M-1394.53 -1627.39c-14.76,0 -25.93,2.55 -33.42,7.59 -7.38,4.94 -11.07,12.26 -11.07,21.92 0,9.01 2.93,16 8.9,21.05 6.07,5.1 14.43,7.59 25.17,7.59 13.29,0 24.52,-4.78 33.64,-14.32 9.11,-9.55 13.67,-21.48 13.67,-35.81l0 -8.03 -36.89 0zm108.29 -26.91l0 126.52 -71.4 0 0 -32.77c-9.55,13.46 -20.29,23.22 -32.12,29.3 -11.88,6.07 -26.26,9.11 -43.19,9.11 -23,0 -41.67,-6.62 -55.99,-19.96 -14.32,-13.46 -21.48,-30.81 -21.48,-52.08 0,-26.04 8.9,-45.14 26.69,-57.29 17.91,-12.15 46.06,-18.23 84.42,-18.23l41.67 0 0 -5.43c0,-11.28 -4.45,-19.53 -13.24,-24.74 -8.84,-5.21 -22.68,-7.81 -41.45,-7.81 -15.08,0 -29.19,1.52 -42.32,4.56 -13.02,3.04 -25.12,7.59 -36.24,13.67l0 -54.04c15.03,-3.58 30.22,-6.35 45.57,-8.25 15.3,-2.01 30.65,-3.04 46.01,-3.04 39.93,0 68.69,7.92 86.37,23.65 17.8,15.79 26.69,41.4 26.69,76.82l-0 -0z"/>
</symbol>
<symbol id="Symbol2" viewBox="-1472.01 -1970.71 314.89 442.93">
 <polygon class="fil0" points="-1472.01,-1970.71 -1163.63,-1970.71 -1163.63,-1884.33 -1357.85,-1884.34 -1357.85,-1801.87 -1175.34,-1801.87 -1175.34,-1715.5 -1357.85,-1715.5 -1357.85,-1614.15 -1157.12,-1614.15 -1157.12,-1527.78 -1472.01,-1527.78 "/>
</symbol>
<symbol id="Symbol1" viewBox="-1524.74 -1970.71 464.18 442.93">
 <path class="fil0" d="M-1203.13 -1608.51l-178.6 0 -28.21 80.73 -114.8 0 164.06 -442.93 136.07 0 164.06 442.93 -114.8 0 -27.77 -80.73zm-150.17 -82.25l121.31 0 -60.55 -176.22 -60.76 176.22z"/>
</symbol>
<symbol id="Symbol3" viewBox="-1472.01 -1970.72 399.95 442.93">
 <path class="fil0" d="M-1309.68 -1774.31c23.87,0 41.02,-4.39 51.43,-13.24 10.42,-8.95 15.63,-23.65 15.63,-44.06 0,-20.07 -5.21,-34.5 -15.63,-43.19 -10.42,-8.79 -27.56,-13.24 -51.43,-13.24l-48.18 -0 0 113.72 48.18 0zm-48.18 78.99l0 167.53 -114.15 0 0 -442.93 174.47 0c58.27,0 101.02,9.76 128.26,29.3 27.18,19.53 40.8,50.51 40.8,92.88 0,29.24 -7.11,53.28 -21.27,72.05 -14.05,18.83 -35.32,32.72 -63.8,41.67 15.63,3.47 29.57,11.5 41.88,24.09 12.43,12.59 24.96,31.63 37.54,57.07l62.07 125.87 -121.74 0 -53.82 -110.03c-11.01,-22.14 -22.08,-37.22 -33.2,-45.35 -11.18,-8.08 -26.04,-12.15 -44.7,-12.15l-32.33 0.01z"/>
</symbol>
<symbol id="Symbol4" viewBox="-1472.01 -1970.71 396.93 442.93">
 <polygon class="fil0" points="-1472.01,-1970.71 -1357.86,-1970.71 -1357.86,-1801.87 -1189.23,-1801.88 -1189.23,-1970.71 -1075.08,-1970.71 -1075.08,-1527.78 -1189.23,-1527.78 -1189.23,-1715.5 -1357.86,-1715.5 -1357.86,-1527.78 -1472.01,-1527.78 "/>
</symbol>
<symbol id="u" viewBox="-1507.6 -1828.56 251.3 306.43">
 <path class="fil0" d="M-1256.3 -1544.06c-14.05,7.27 -28.65,12.7 -43.83,16.28 -15.19,3.74 -31.03,5.64 -47.53,5.64 -49.21,0 -88.22,-13.72 -116.97,-41.23 -28.65,-27.45 -42.97,-64.72 -42.97,-111.76 0,-47.31 14.32,-84.69 42.97,-112.2 28.76,-27.45 67.76,-41.23 116.97,-41.23 16.49,0 32.33,1.9 47.53,5.64 15.19,3.63 29.78,9.11 43.83,16.49l0 60.98c-14.21,-9.55 -28.16,-16.55 -41.88,-21.05 -13.62,-4.45 -28,-6.73 -43.19,-6.73 -27.24,0 -48.61,8.68 -64.24,26.04 -15.52,17.36 -23.22,41.4 -23.22,72.05 0,30.38 7.7,54.36 23.22,71.83 15.63,17.36 37,26.04 64.24,26.04 15.19,0 29.57,-2.22 43.19,-6.73 13.72,-4.45 27.67,-11.5 41.88,-21.05l0 60.99z"/>
</symbol>
<symbol id="Symbol8" viewBox="-1500.43 -1989.36 356.55 470.26">
 <path class="fil0" d="M-1250.65 -1811.42l0 -177.94 106.77 0 0 461.58 -106.77 0 0 -47.96c-14.65,19.53 -30.76,33.85 -48.39,42.97 -17.69,9.11 -38.09,13.67 -61.2,13.67 -40.96,0 -74.6,-16.28 -100.91,-48.83 -26.2,-32.55 -39.28,-74.44 -39.28,-125.65 0,-51.21 13.07,-93.1 39.28,-125.65 26.31,-32.55 59.95,-48.83 100.91,-48.83 23,0 43.3,4.67 60.98,13.89 17.8,9.11 33.96,23.38 48.61,42.75l0 -0.01zm-70.1 215.06c22.84,0 40.2,-8.3 52.08,-24.96 11.99,-16.6 18.01,-40.69 18.01,-72.26 0,-31.69 -6.02,-55.83 -18.01,-72.48 -11.88,-16.6 -29.24,-24.96 -52.08,-24.96 -22.57,0 -39.88,8.35 -51.87,24.96 -11.88,16.66 -17.8,40.8 -17.8,72.48 0,31.57 5.91,55.67 17.8,72.26 11.99,16.66 29.3,24.96 51.87,24.96z"/>
</symbol>
<symbol id="Symbol5" viewBox="-1484.16 -1978.74 349.61 459.63">
 <path class="fil0" d="M-1163.63 -1956.82l0 93.75c-24.47,-10.85 -48.29,-18.99 -71.4,-24.52 -23.17,-5.64 -45.03,-8.46 -65.54,-8.46 -27.24,0 -47.42,3.8 -60.55,11.28 -13.02,7.54 -19.53,19.26 -19.53,35.16 0,11.88 4.39,21.16 13.24,27.78 8.79,6.51 24.8,12.15 47.96,16.93l48.61 9.76c49.15,9.98 84.2,25.07 105.04,45.14 20.83,20.13 31.25,48.77 31.25,85.94 0,48.94 -14.54,85.29 -43.62,109.16 -28.97,23.87 -73.24,35.81 -132.81,35.81 -28.1,0 -56.31,-2.71 -84.64,-8.03 -28.21,-5.31 -56.43,-13.29 -84.64,-23.87l0 -96.35c28.21,15.08 55.45,26.42 81.81,34.07 26.48,7.54 51.98,11.28 76.61,11.28 24.85,0 43.89,-4.12 57.07,-12.37 13.29,-8.35 19.96,-20.24 19.96,-35.59 0,-13.89 -4.5,-24.57 -13.46,-32.12 -9.01,-7.49 -26.91,-14.21 -53.82,-20.18l-44.27 -9.76c-44.27,-9.55 -76.71,-24.63 -97.22,-45.35 -20.4,-20.83 -30.6,-48.83 -30.6,-83.98 0,-44.11 14.21,-78.02 42.75,-101.78 28.48,-23.71 69.44,-35.59 122.83,-35.59 24.31,0 49.31,1.85 75.09,5.43 25.72,3.63 52.35,9.11 79.86,16.49l0 0z"/>
</symbol>
<symbol id="Symbol6" viewBox="-1520.4 -1860.03 377.82 463.33">
 <path class="fil0" d="M-1520.4 -1860.03l106.33 0 89.19 225.47 75.96 -225.47 106.34 0 -139.75 363.72c-14.05,37 -30.49,62.83 -49.26,77.47 -18.67,14.76 -43.35,22.14 -74,22.14l-61.42 0 0 -69.66 33.2 0c18.07,0 31.14,-2.93 39.28,-8.68 8.25,-5.64 14.65,-15.95 19.31,-30.81l2.82 -9.11 -148.01 -345.06z"/>
</symbol>
<symbol id="Symbol7" viewBox="-1476.78 -1989.36 356.76 470.26">
 <path class="fil0" d="M-1299.92 -1596.35c22.68,0 40.04,-8.3 52.08,-24.96 11.99,-16.6 18.01,-40.69 18.01,-72.26 0,-31.69 -6.02,-55.83 -18.01,-72.48 -12.04,-16.6 -29.41,-24.96 -52.08,-24.96 -22.73,0 -40.15,8.41 -52.3,25.17 -12.15,16.66 -18.23,40.74 -18.23,72.26 0,31.41 6.07,55.5 18.23,72.26 12.15,16.66 29.57,24.96 52.3,24.96l0 0zm-70.53 -215.06c14.59,-19.37 30.81,-33.64 48.61,-42.75 17.8,-9.22 38.25,-13.89 61.41,-13.89 40.91,0 74.54,16.28 100.91,48.83 26.31,32.55 39.5,74.44 39.5,125.65 0,51.21 -13.19,93.1 -39.5,125.65 -26.37,32.55 -60,48.83 -100.91,48.83 -23.17,0 -43.62,-4.67 -61.41,-13.89 -17.8,-9.22 -34.02,-23.49 -48.61,-42.75l0 47.96 -106.33 0.01 0 -461.58 106.33 0 0 177.94z"/>
</symbol>
<symbol id="Symbol9" viewBox="-1501.75 -1868.05 356.78 348.96">
 <path class="fil0" d="M-1144.97 -1694.88l0 30.38 -248.49 0c2.6,24.9 11.56,43.57 26.91,55.99 15.46,12.48 37.11,18.67 64.89,18.67 22.24,0 45.14,-3.26 68.57,-9.76 23.44,-6.62 47.53,-16.71 72.26,-30.17l0 81.81c-25.07,9.55 -50.13,16.71 -75.3,21.48 -25.17,4.88 -50.29,7.38 -75.3,7.38 -60.22,0 -106.99,-15.24 -140.4,-45.79 -33.31,-30.65 -49.91,-73.57 -49.91,-128.69 0,-54.25 16.33,-96.84 49.04,-127.82 32.82,-31.09 77.91,-46.66 135.2,-46.66 52.19,0 94.02,15.79 125.43,47.31 31.36,31.41 47.09,73.35 47.09,125.87l0.01 0zm-109.16 -35.15c0,-20.24 -5.97,-36.51 -17.8,-48.83 -11.72,-12.43 -27.07,-18.67 -46.01,-18.67 -20.72,0 -37.49,5.81 -50.35,17.36 -12.75,11.61 -20.72,28.32 -23.87,50.13l138.02 0z"/>
</symbol>
<symbol id="Symbol11" viewBox="-1501.72 -1868.06 336.15 348.96">
 <path class="fil0" d="M-1327.91 -1677.31c-22.14,0 -38.79,3.8 -49.91,11.28 -11.18,7.54 -16.71,18.61 -16.71,33.2 0,13.46 4.45,24.04 13.46,31.69 8.95,7.54 21.48,11.28 37.54,11.28 19.96,0 36.73,-7.16 50.35,-21.48 13.72,-14.32 20.62,-32.23 20.62,-53.82l0 -12.15 -55.34 0zm162.33 -40.15l0 189.67 -106.99 0 0 -49.26c-14.32,20.13 -30.38,34.83 -48.18,44.06 -17.8,9.22 -39.44,13.89 -64.89,13.89 -34.45,0 -62.44,-10.04 -83.98,-30.17 -21.43,-20.07 -32.12,-46.11 -32.12,-78.13 0,-39.06 13.35,-67.6 40.15,-85.72 26.91,-18.23 69.01,-27.34 126.3,-27.34l62.72 -0 0 -8.46c0,-16.76 -6.67,-29.08 -19.96,-36.89 -13.19,-7.81 -33.85,-11.72 -62.07,-11.72 -22.73,0 -43.83,2.33 -63.37,6.94 -19.53,4.5 -37.76,11.28 -54.69,20.4l0 -80.94c22.84,-5.64 45.68,-9.82 68.57,-12.59 23,-2.87 45.9,-4.34 68.79,-4.34 60,0 103.3,11.88 129.78,35.59 26.59,23.6 39.93,61.96 39.93,115.02l0 0z"/>
</symbol>
<symbol id="Symbol10" viewBox="-1519.75 -1954.43 268.44 426.66">
 <path class="fil0" d="M-1360.68 -1954.43l0 94.4 109.37 0 0 75.96 -109.37 0 0 140.85c0,15.52 3.04,25.99 9.11,31.47 6.07,5.37 18.23,8.03 36.46,8.03l54.69 0 0 75.96 -91.15 0c-41.99,0 -71.72,-8.74 -89.19,-26.26 -17.52,-17.47 -26.26,-47.2 -26.26,-89.19l0 -140.85 -52.73 0 0 -75.96 52.73 0 0 -94.4 106.34 0z"/>
</symbol>
<symbol id="Symbol12" viewBox="-1476.78 -1868.05 246.96 340.28">
 <path class="fil0" d="M-1229.82 -1769.53c-9.44,-4.34 -18.77,-7.49 -28,-9.55 -9.11,-2.17 -18.34,-3.26 -27.56,-3.26 -27.34,0 -48.39,8.79 -63.15,26.26 -14.65,17.52 -21.92,42.64 -21.92,75.3l0 153 -106.33 -0 0 -332.25 106.34 0 0 54.47c13.56,-21.7 29.19,-37.54 46.87,-47.53 17.8,-9.98 39.06,-14.97 63.8,-14.97 3.47,0 7.27,0.16 11.5,0.43 4.18,0.33 10.2,0.98 18.01,1.95l0.43 96.13z"/>
</symbol>
 <g id="Layer_x0020_1">
  <metadata id="CorelCorpID_0Corel-Layer"/>
  <circle class="fil1" cx="3108.68" cy="3055.43" r="2390.14"/>
  <g id="_2520748183024">
   <path class="fil2" d="M2388.54 4099.03c6.45,-22 156.34,-283.02 180.76,-325.81 27.68,-48.53 82.55,-96.96 132.82,-120.44 76.87,-35.89 135.02,-30.72 222.54,-30.72 -1.95,20.53 -11.93,40.97 -16.62,61.31 -4.41,19.15 -9.94,46.81 -11.95,65.97 -15.12,144.12 38.83,342.76 -50.48,431.69 -70.56,70.26 -169.76,49.9 -266.91,50 -92.44,0.09 -142.81,-62.41 -190.15,-132zm772.47 -1014.98c5.91,-2.77 120.53,-33.72 121.3,-33.59l-11.49 479.45c-4.49,51.85 3.73,112.98 -0.76,164.83l-14.22 482.55c-0.03,32.32 9.19,134.66 -19.33,151.32 -65.06,37.99 -58.58,-65.8 -58.61,-97.75l0 -832.83c0,-84.54 9.84,-242.48 -16.89,-313.98zm-74.84 392.71c-28.83,17.72 -162.98,57.93 -200.3,57.83 -271.84,-0.72 -340.61,100.55 -461.31,317.93 -59.91,107.89 -122.31,225.67 -185.67,330.58 -29.2,48.35 -58.51,141.86 -126.24,129.8 -58.31,-10.38 -79.81,-119.6 -94.36,-169.22 -27.96,-95.4 -14.12,-386.24 -14.12,-502.13 0,-173.71 -0,-347.41 0,-521.12 0.01,-176.9 2.89,-278.96 70.88,-445.37 40.16,-98.31 132.48,-239.17 213.87,-307.26 110.63,-92.54 182.19,-145.71 320.94,-195.31 168.67,-60.31 295.9,-50.48 470.65,-50.48 119.91,0 990.89,-7.43 1031.73,5.65 64.51,20.67 109.81,86.52 102.57,154.34 -8.46,79.25 -55.7,105.14 -116.69,141.68 -245.15,146.89 -413.37,212.26 -550.06,487.32 -29.85,60.07 -56.23,116.86 -77.31,180.81 -24.76,75.1 -45.01,109.69 -101.98,159.96 -4.5,-59.58 8.84,-299.86 8.84,-384.6 -0.01,-67.08 4.87,-124.68 4.87,-189.94 -0.02,-229.7 17.23,-216.8 236.21,-258.47 40.03,-7.61 38.32,7.17 53.2,37.07 15.87,31.89 75.63,91.7 114.31,60.98 56.22,-44.66 -36.21,-81.35 -47.46,-123.11 -16.15,-59.93 24.47,-91.23 51.75,-131.84 49.07,-73.07 -59.65,-117.91 -117.67,14.1 -11.63,26.45 -10.37,46.28 -42.99,54.44 -111.04,27.75 -330.61,-0.07 -335.11,259.07 -1.11,63.83 -5.02,132.2 -5.14,194.54 -0.1,48.91 16,146.22 -27.26,172.42 -38.07,23.05 -111.49,48.56 -154.73,35 -32.86,-10.3 -28.61,-38.63 -124.52,-75.52 -100.58,-38.69 -205.94,-67.29 -312.93,-81.56 -26.95,-3.6 -60.8,-9.02 -87.38,-10.03 -25.7,-0.98 -63.77,7.42 -80.94,-16.47 -25.74,-35.81 -45.11,-95.22 -95.72,-104.6 -28.29,-5.24 -51.92,13.06 -50.74,42.33 1.14,28.49 22.27,39.13 40.14,56.58 37.73,36.84 50.65,94.13 7.09,132.49 -18.95,16.68 -43.58,20.3 -47.75,50.48 -10.53,76.3 103.01,60.73 146.95,-43.97 22.3,-53.13 107.98,-25.83 154.18,-19.63 126.99,17.06 356.31,59.62 414.51,179.7 27.26,56.25 19.63,119.26 19.81,179.88 0.17,56.46 5.3,142.92 -4.09,195.63zm-746.1 710.41c44.24,30.02 60.54,131.41 272.88,131.36 120.63,-0.03 232.38,13.33 313.87,-95.24 113.27,-150.91 19.56,-377.37 73.89,-539.78 48.05,-143.67 25.96,-79.52 88.46,-115.04 6.9,77.1 1.08,499.48 1.08,613.69 0,96.4 -19.26,183.75 78.43,229.27 85.11,39.65 164.98,-29.8 173.75,-113.46l5.79 -301.04c0.35,-96.88 5.84,-200.19 9.42,-297.41l5.67 -301.16c9.07,-61.94 70.85,-65.4 142.57,-169.13 37.18,-53.77 62.01,-151.62 90.25,-216.58 27.83,-64.01 70.9,-138 113.44,-193.39 171.4,-223.21 433.63,-283.48 531.13,-389.35 57.04,-61.94 76.91,-153.48 51.13,-233.54 -21.88,-67.94 -84.82,-132.76 -153.63,-153.13 -59.36,-17.56 -231.53,-8.89 -302.8,-8.9 -204.56,-0.01 -409.11,0 -613.66,0 -187.7,0 -398.01,-16.59 -578.2,35.41 -300.72,86.78 -531.02,291.17 -652.69,579.54 -82.06,194.48 -74.51,334.08 -74.35,539.31 0.09,113.03 -6.83,845.19 4.01,921.35 7.32,51.5 48.65,187.39 78.86,228.11 49.26,66.41 147.88,83.12 215.24,34.61 58.8,-42.35 94.39,-164.61 125.46,-185.52z"/>
   <path class="fil3" d="M2004.16 3120.42c-0,173.71 0,347.41 0,521.12 0,115.89 -13.85,406.74 14.12,502.13 14.55,49.61 36.04,158.83 94.36,169.22 67.74,12.06 97.04,-81.45 126.24,-129.8 63.37,-104.91 125.76,-222.69 185.67,-330.58 120.7,-217.39 189.48,-318.66 461.32,-317.93 37.32,0.1 171.47,-40.11 200.29,-57.83 9.39,-52.72 4.27,-139.18 4.1,-195.63 -0.18,-60.62 7.46,-123.63 -19.8,-179.88 -58.2,-120.08 -287.53,-162.64 -414.52,-179.7 -46.2,-6.21 -131.88,-33.5 -154.18,19.63 -43.94,104.7 -157.48,120.28 -146.95,43.97 4.17,-30.19 28.8,-33.8 47.75,-50.48 43.56,-38.36 30.64,-95.66 -7.09,-132.49 -17.87,-17.45 -38.99,-28.09 -40.14,-56.58 -1.17,-29.28 22.46,-47.58 50.75,-42.33 50.61,9.38 69.98,68.8 95.72,104.6 17.17,23.89 55.24,15.49 80.94,16.47 26.59,1.01 60.43,6.43 87.38,10.03 106.99,14.27 212.35,42.88 312.93,81.56 95.91,36.89 91.65,65.22 124.52,75.52 43.24,13.56 116.65,-11.95 154.72,-35 43.26,-26.2 27.15,-123.51 27.26,-172.43 0.13,-62.34 4.03,-130.71 5.14,-194.54 4.5,-259.14 224.06,-231.32 335.11,-259.07 32.62,-8.15 31.36,-27.98 42.99,-54.44 58.02,-132.02 166.73,-87.17 117.67,-14.1 -27.28,40.61 -67.9,71.91 -51.75,131.84 11.26,41.76 103.69,78.44 47.46,123.11 -38.68,30.72 -98.44,-29.09 -114.31,-60.98 -14.87,-29.9 -13.17,-44.69 -53.2,-37.07 -218.97,41.67 -236.23,28.77 -236.21,258.47 0,65.27 -4.87,122.87 -4.87,189.94 0,84.74 -13.34,325.02 -8.84,384.6 56.98,-50.26 77.22,-84.85 101.98,-159.96 21.08,-63.95 47.47,-120.74 77.32,-180.81 136.69,-275.06 304.91,-340.43 550.06,-487.33 60.99,-36.54 108.24,-62.43 116.69,-141.68 7.24,-67.82 -38.06,-133.68 -102.57,-154.34 -40.85,-13.08 -911.82,-5.65 -1031.73,-5.65 -42.94,0 -83,-0.59 -121.52,-0.59 -21.06,81.39 -124.06,106.22 -183.44,44.13 -15.83,-16.54 -14.79,-12.53 -39.65,-12.13 -19.6,0.31 -32.17,-3.19 -48.58,-3.2 -9.14,38.39 -30.79,81.06 -55.02,113.28 -53.47,71.11 -43.3,44.43 -83.59,85.25 10.02,13.75 34.46,38.22 51.2,41 101.96,16.92 134.99,104.18 103.07,158.03 -51.42,86.78 -213.21,35.92 -212.74,-77.52l-64.83 -57.43c-72.43,23.01 -122.35,35.91 -196.67,45.83 -9.69,1.3 -18.77,2.42 -27.33,3.4 -52.56,68 -100.37,149.41 -126.36,213.01 -67.99,166.42 -70.88,268.47 -70.88,445.37z"/>
   <path class="fil4" d="M2569.29 3773.22c-24.41,42.79 -174.3,303.8 -180.75,325.8 47.33,69.59 97.7,132.09 190.15,131.99 97.15,-0.09 196.35,20.27 266.91,-50 89.31,-88.93 35.37,-287.57 50.48,-431.69 2,-19.16 7.54,-46.81 11.95,-65.97 4.69,-20.34 14.67,-40.78 16.62,-61.3 -87.52,0 -145.66,-5.17 -222.54,30.72 -50.27,23.47 -105.14,71.91 -132.83,120.44z"/>
   <path class="fil3" d="M3177.91 3398.03l0 832.83c0.02,31.95 -6.44,135.74 58.61,97.75 28.52,-16.66 19.31,-119 19.33,-151.31l14.22 -482.56c4.48,-51.85 -3.73,-112.97 0.76,-164.82l11.49 -479.46c-0.77,-0.13 -115.39,30.81 -121.3,33.59 26.73,71.51 16.89,229.44 16.89,313.98z"/>
   <g>
    <g>
     <path class="fil2" d="M2772.91 2683.83c-0.66,42.7 -71.64,68.58 -94.06,34.74 -1.5,-35.47 32.1,-31.79 24.93,-57.63 -2.81,-10.13 -27.8,-49.75 -34.84,-62.37 -46.01,-82.51 -28.39,-45.06 -101.4,-41.43 -97.98,4.89 -86.88,-16.3 -103.58,31.82 -13.83,39.85 -32.11,79.61 -46.79,119.29 -9.84,26.61 -21.17,35.96 1.97,56.46 23.69,20.98 9.54,44.41 -18.33,43.85 -68.37,-1.38 -93.24,-65.14 -30.71,-63.91 25.74,0.5 24.07,-27.81 27.3,-48.04l19.7 -120.56c10.35,-64.78 -3.36,-25.54 -77.99,-88.6 -9.71,-8.2 -20.86,-17.61 -29.57,-27.14 -8.65,-9.47 -16.97,-23.18 -29.67,-21.27 -4.15,0.63 -113.44,53.25 -117.85,65.96 -3.85,11.11 11.15,52.86 -20.09,49.71 -50.13,-5.05 -74.87,-106.76 -23.24,-89.15 27.31,9.31 23.78,35.72 60,2.95 18.73,-16.94 39.63,-35.21 59.13,-49.69 31.3,-23.23 18.48,-29.75 6.54,-59.91 -8.53,-21.56 -14.7,-39.59 -18.69,-61.62 -12.75,-70.32 12.78,-66.02 -63.91,-81.89l-119.64 -27.73c-30.13,-4.59 -15.65,31.33 -53.52,31.77 -19.51,-17.93 -25.14,-38.52 -19.19,-62.79 5.64,-23.01 27.97,-56.15 49.92,-22.79 19.54,29.7 -7.91,36.22 46.01,38.9 21.07,1.05 41.93,0.14 63.56,1.19 21.28,1.04 41.83,0.1 63.57,1.2 55.96,2.82 20.67,-15.37 74.45,-101.03 19.65,-31.3 31.89,-29.69 5.51,-64.06 -16.95,-22.08 -33.92,-43.42 -50.15,-64.88l-51.48 -66.93c-21.47,-24.96 -44.54,14.25 -62.93,-13.24 -12.83,-19.17 12.14,-51.53 29.06,-61.79 16.38,-9.94 53.1,-16.12 49.93,15.21 -1.07,10.63 -10.17,22.38 -11.69,31.63 -2.44,14.92 11.25,21.3 20.52,29.65l125.35 108.05c23.43,17.15 45.35,-22.8 126.15,-44.61 43.53,-11.75 36.15,3.43 37.99,-105.37 0.51,-30.35 8.68,-43.63 -21.13,-57.85 -60.61,-28.91 33.17,-78.59 71.61,-40 29.94,30.06 -24.83,40.09 -32.09,52.06 -6.07,10.02 5.38,50.2 7.65,63.08 16.72,94.94 1.83,73 72,86.54 46.83,9.04 84.59,33.96 94.85,33.8 12.9,-0.19 45.43,-40.07 55.32,-52.76l55.83 -61.7c7.88,-8.73 19.14,-21.85 26.54,-30.91 9.04,-11.07 19.33,-15.41 12.17,-31.59 -4.07,-9.2 -13.38,-20.27 -9.31,-32.69 16.14,-49.34 122.81,37.63 75.85,61.21 -23.62,11.87 -43.3,-22.8 -61.04,9.16l-88.34 156.75c-23.88,40.24 6.57,29.7 45.85,98.63 15.56,27.31 24.83,58.57 37.63,62.63 2.61,0.82 118.37,-12.55 125.91,-14.78 22.23,-6.56 9.45,-55.73 39.48,-47.41 21.02,5.83 35.32,36.75 35.34,58.97 0.02,19.67 -10.89,57.9 -36.95,34.07 -37.41,-34.21 3.04,-44.28 -123.59,0.26 -54.09,19.03 -26.04,2.81 -34.6,108.38 -7.48,92.27 -63.65,49.56 99.09,151.87 14.51,9.12 47.38,37.97 63.08,29.81 17.73,-9.21 46.69,-36.08 51.52,10.56 5.14,49.63 -71.95,109.39 -67.04,25.44 1.46,-24.83 -13.5,-24.64 -48.04,-37.98 -21.06,-8.13 -42.11,-16.27 -63.17,-24.4 -82.59,-31.9 -67.69,-43.88 -117.87,19.5 -37.46,47.31 -82.62,35.35 -67.58,82.57 3.39,10.66 6.41,22.2 10.13,32.64 7.55,21.16 14.95,44.1 22.22,65.41 11.99,35.12 31.95,1.58 56.38,34.75zm-526.86 -648.21c-18.71,29 -34.33,54.78 -44.95,87.31 -7.14,21.89 -13.39,13.65 -80.38,13.15 -19.96,-0.15 -41.17,-3.21 -59.89,-1.69 -10.06,-17.75 -22.93,-61.38 -73.44,-51.71 -80.59,15.43 -75.93,186.26 16.48,174.78 22.19,-2.76 30.25,-14.29 43.09,-29.81l136.42 31.61c-1.78,49.03 28.54,110.82 31.18,128.84 -9.03,3.22 -50.03,42.58 -61.86,51.35 -17.29,-3.56 -52.89,-33.48 -88.44,7.46 -37.96,43.71 14.34,148.09 84.09,146.14 36.71,-1.02 56.55,-38.5 52.11,-70.92 18.24,-6.56 64.07,-37.39 78.68,-39.28 9.03,7.89 14.67,15.48 24.33,23.33 48.97,39.78 44.76,29.91 77.94,53.61l-24.3 147.5c-90.8,14.38 -72.46,107.7 4.3,133.52 66,22.2 147.11,-19.68 85.61,-102.6l55.2 -142.46c13.88,-1.56 43.12,0.81 59.37,0.24 20.03,-0.69 41.13,-7.81 58.64,-8.03l42.12 74.56c-57.56,63.74 10.27,130.31 81.82,104.27 30.19,-10.99 62.56,-34.09 65.63,-70.54 3.4,-40.2 -24.17,-60.19 -59.78,-66.81l-28.75 -85.24c9.3,-10.24 33,-24.38 44.93,-35.71 16.16,-15.34 25.89,-29.06 39.6,-44.68l135.38 53.54c3.69,25.6 6.84,67.41 53.22,73.92 34.67,4.87 65.69,-26.04 80.07,-54.12 36.35,-71 -23.11,-150.91 -88.04,-101.36l-124.65 -81.05c-0.07,-5.62 9.39,-54.33 10.83,-64.67 2.94,-21.16 -1.38,-46.01 0.14,-64.43l78.93 -28.48c4.37,3.03 10.24,11.22 17.18,16.95 46.14,38.16 108.97,2.85 96.84,-77.57 -12.3,-81.57 -107.24,-121.97 -132.79,-33.15l-87.91 11.09c-17.88,-37.08 -22.51,-44.53 -44.58,-76.13 -6.9,-9.88 -15.45,-17.07 -20.98,-26l81.44 -146.49c12.2,-1.87 67.08,10.72 80.16,-38.89 8.68,-32.9 -13.08,-70.81 -39.96,-90.5 -45.13,-33.06 -106.03,-32.33 -119.52,18.7 -3.66,13.85 -1.49,34.94 6.68,46.76l-114.77 129.61 -57.93 -20.89c-20.67,-6.2 -36.69,-8.76 -58.49,-11.93l-15.2 -83.3c9.71,-10.59 26.08,-14.17 35.39,-37.67 21.81,-55.06 -40.36,-93.33 -85.12,-89.55 -97.95,8.28 -112.02,89.11 -43.69,126.34l-3.83 89c-31.76,10.7 -84.69,24.93 -108.8,46.92l-73.13 -62.6c-63.76,-52.49 -39.98,-34.87 -38.46,-67.69 3.31,-71.44 -76.26,-80.44 -120.46,-39.74 -61.48,56.61 -39.63,121.93 11.92,131.54 47.49,8.86 10,-27.25 66.66,43.81 20.88,26.18 41.12,55.48 63.73,79.81z"/>
     <path class="fil2" d="M2649.59 2299.29c20.29,64.27 -82.31,122.22 -106.47,64.7 -11.21,-26.69 11.14,-59.23 32.46,-74.96 18.64,-13.74 63.91,-21.76 74.01,10.26zm-125.21 -11.23c-12.78,20.75 -23.87,37.99 -21.14,65.11 2.69,26.81 13.19,48.1 36.66,61.77 44.94,26.17 102.1,0.61 130.02,-37.88 27.93,-38.49 30.24,-101.8 -17.71,-128.35 -20.58,-11.39 -43.73,-12.36 -65.24,-6.54 -24.94,6.74 -49.13,24.04 -62.59,45.89z"/>
     <path class="fil2" d="M2559.28 2103.89c13.94,43.78 -62.1,87.88 -77.02,44.69 -14.36,-41.61 63.29,-87.82 77.02,-44.69zm-95.07 -18.36c-2.48,3.87 -10.5,8.38 -16.22,25.65 -29.55,89.36 81.25,126.11 131.85,56.2 60.06,-82.98 -32.36,-158.21 -105,-96.1 -0.78,0.67 -6.26,6.12 -6.8,6.83 -5.23,6.92 -3.57,7 -3.83,7.41z"/>
     <path class="fil2" d="M2363.51 2296.6c-21.52,-23.18 29.76,-75.54 53.13,-50.39 23.36,25.15 -31.6,73.57 -53.13,50.39zm-25.48 -60.15c-6.09,9.89 -8.25,8.89 -12.91,22.62 -25.05,73.76 73.84,113.59 119.32,46.68 52.21,-76.8 -38.54,-138.23 -97.63,-81.55 -0.63,0.61 -4.48,4.61 -4.96,5.23 -6.2,8.02 -2.67,5.14 -3.82,7.02z"/>
    </g>
    <path class="fil3" d="M2339.1 2487.44c74.63,63.05 88.33,23.83 77.99,88.6l-19.7 120.56c-3.23,20.23 -1.56,48.54 -27.3,48.04 -62.53,-1.22 -37.65,62.53 30.71,63.91 27.86,0.57 42.02,-22.87 18.33,-43.85 -23.14,-20.5 -11.81,-29.85 -1.97,-56.46 14.68,-39.68 32.96,-79.44 46.79,-119.29 16.7,-48.12 5.6,-26.93 103.58,-31.82 73.01,-3.64 55.4,-41.09 101.41,41.43 7.04,12.62 32.03,52.24 34.84,62.37 7.17,25.85 -26.43,22.16 -24.93,57.64 22.42,33.84 93.39,7.96 94.06,-34.74 -24.43,-33.17 -44.39,0.37 -56.38,-34.75 -7.28,-21.31 -14.67,-44.25 -22.22,-65.41 -3.72,-10.43 -6.74,-21.98 -10.13,-32.63 -15.04,-47.22 30.13,-35.26 67.58,-82.57 50.18,-63.38 35.28,-51.4 117.87,-19.5 21.06,8.13 42.12,16.27 63.17,24.4 34.54,13.34 49.49,13.15 48.04,37.98 -4.92,83.95 72.18,24.19 67.04,-25.44 -4.83,-46.65 -33.8,-19.77 -51.52,-10.56 -15.7,8.15 -48.57,-20.69 -63.08,-29.81 -162.74,-102.31 -106.58,-59.6 -99.09,-151.87 8.56,-105.57 -19.5,-89.35 34.6,-108.38 126.64,-44.54 86.19,-34.47 123.59,-0.26 26.06,23.83 36.97,-14.4 36.95,-34.07 -0.02,-22.22 -14.31,-53.14 -35.34,-58.97 -30.04,-8.32 -17.26,40.85 -39.48,47.41 -7.54,2.22 -123.3,15.6 -125.91,14.78 -12.8,-4.05 -22.07,-35.31 -37.63,-62.63 -39.28,-68.93 -69.74,-58.38 -45.85,-98.63l88.34 -156.75c17.74,-31.96 37.43,2.71 61.04,-9.16 46.96,-23.59 -59.71,-110.56 -75.85,-61.21 -4.06,12.43 5.24,23.5 9.31,32.69 7.16,16.18 -3.13,20.52 -12.17,31.59 -7.4,9.07 -18.67,22.18 -26.54,30.91l-55.83 61.7c-9.89,12.69 -42.43,52.57 -55.32,52.76 -10.26,0.16 -48.02,-24.76 -94.85,-33.8 -70.17,-13.54 -55.29,8.4 -72.01,-86.54 -2.27,-12.88 -13.71,-53.07 -7.65,-63.08 7.26,-11.97 62.03,-22 32.09,-52.06 -38.43,-38.59 -132.21,11.09 -71.61,40 29.81,14.22 21.64,27.49 21.13,57.85 -1.83,108.8 5.54,93.61 -37.99,105.37 -80.8,21.81 -102.72,61.76 -126.15,44.61l-125.35 -108.05c-9.26,-8.35 -22.96,-14.74 -20.52,-29.65 1.52,-9.26 10.61,-21 11.69,-31.63 3.17,-31.33 -33.56,-25.15 -49.93,-15.21 -16.92,10.26 -41.89,42.62 -29.06,61.78 18.39,27.49 41.46,-11.72 62.93,13.24l51.48 66.93c16.23,21.46 33.2,42.8 50.15,64.88 26.38,34.37 14.14,32.76 -5.51,64.06 -53.78,85.67 -18.48,103.85 -74.45,101.03 -21.74,-1.09 -42.29,-0.16 -63.57,-1.2 -21.63,-1.05 -42.49,-0.14 -63.56,-1.19 -53.91,-2.67 -26.47,-9.2 -46.01,-38.9 -21.94,-33.36 -44.27,-0.22 -49.92,22.79 -5.95,24.27 -0.32,44.86 19.19,62.79 37.87,-0.44 23.39,-36.36 53.52,-31.77l119.64 27.73c76.69,15.86 51.16,11.56 63.91,81.89 3.99,22.03 10.16,40.07 18.69,61.62 11.93,30.17 24.75,36.68 -6.54,59.91 -19.5,14.48 -40.4,32.74 -59.13,49.69 -36.22,32.77 -32.69,6.36 -60,-2.95 -51.64,-17.61 -26.89,84.09 23.24,89.15 31.24,3.15 16.24,-38.6 20.09,-49.71 4.41,-12.72 113.69,-65.34 117.85,-65.96 12.7,-1.91 21.02,11.8 29.67,21.27 8.7,9.53 19.86,18.93 29.57,27.14zm240.74 -320.05c-50.59,69.91 -161.4,33.16 -131.85,-56.2 5.71,-17.28 13.74,-21.78 16.22,-25.65 0.26,-0.41 -1.4,-0.49 3.83,-7.41 0.54,-0.71 6.02,-6.17 6.8,-6.83 72.64,-62.11 165.06,13.12 105,96.1zm90.08 209.68c-27.93,38.49 -85.09,64.06 -130.02,37.88 -23.47,-13.67 -33.96,-34.96 -36.66,-61.77 -2.73,-27.13 8.36,-44.36 21.14,-65.11 13.46,-21.85 37.65,-39.14 62.59,-45.89 21.51,-5.81 44.67,-4.85 65.24,6.54 47.95,26.54 45.64,89.85 17.71,128.35zm-225.49 -71.31c-45.48,66.9 -144.37,27.08 -119.32,-46.68 4.67,-13.74 6.82,-12.73 12.91,-22.62 1.15,-1.88 -2.39,1 3.82,-7.02 0.48,-0.62 4.32,-4.63 4.96,-5.23 59.09,-56.68 149.84,4.76 97.63,81.55z"/>
    <path class="fil5" d="M2543.12 2363.99c24.17,57.52 126.77,-0.43 106.48,-64.7 -10.11,-32.02 -55.37,-24 -74.01,-10.26 -21.32,15.72 -43.67,48.27 -32.46,74.96z"/>
    <path class="fil5" d="M2363.51 2296.6c21.53,23.18 76.49,-25.23 53.13,-50.39 -23.36,-25.16 -74.65,27.21 -53.13,50.39z"/>
    <path class="fil5" d="M2482.26 2148.58c14.92,43.2 90.96,-0.91 77.02,-44.69 -13.73,-43.13 -91.39,3.08 -77.02,44.69z"/>
   </g>
  </g>
 </g>
</svg>
