<?xml version="1.0" encoding="UTF-8"?>
<!DOCTYPE svg PUBLIC "-//W3C//DTD SVG 1.1//EN" "http://www.w3.org/Graphics/SVG/1.1/DTD/svg11.dtd">
<!-- Creator: CorelDRAW 2018 (64-Bit) -->
<svg xmlns="http://www.w3.org/2000/svg" xml:space="preserve" width="6.66666in" height="6.66666in" version="1.1" style="shape-rendering:geometricPrecision; text-rendering:geometricPrecision; image-rendering:optimizeQuality; fill-rule:evenodd; clip-rule:evenodd"
viewBox="0 0 6666.66 6666.66"
 xmlns:xlink="http://www.w3.org/1999/xlink">
 <defs>
  <style type="text/css">
   <![CDATA[
    .fil1 {fill:#12A7A7}
    .fil0 {fill:black}
    .fil4 {fill:#2EBDB6}
    .fil5 {fill:#39B7B3}
    .fil2 {fill:#44269B}
    .fil3 {fill:white}
   ]]>
  </style>
 </defs>
<symbol id="m" viewBox="-1510.41 -1754.77 195.74 232.64">
 <path class="fil0" d="M-1314.67 -1742.41l0 57.72c-9.71,-6.51 -19.42,-11.34 -29.08,-14.54 -9.71,-3.15 -19.75,-4.78 -30.17,-4.78 -19.86,0 -35.26,5.81 -46.22,17.36 -11.01,11.45 -16.49,27.51 -16.49,48.18 0,20.83 5.48,37.06 16.49,48.61 10.96,11.45 26.37,17.15 46.22,17.15 11.12,0 21.59,-1.63 31.47,-4.99 9.98,-3.31 19.2,-8.14 27.78,-14.54l0 57.94c-11.18,4.07 -22.46,7.05 -33.85,9.11 -11.28,2.01 -22.73,3.04 -34.29,3.04 -39.93,0 -71.18,-10.2 -93.75,-30.6 -22.57,-20.51 -33.85,-49.1 -33.85,-85.72 0,-36.46 11.28,-64.94 33.85,-85.5 22.57,-20.51 53.82,-30.81 93.75,-30.81 11.56,0 23,1.09 34.29,3.26 11.28,2.06 22.57,5.1 33.85,9.11l-0 -0z"/>
</symbol>
<symbol id="v" viewBox="-1523.88 -1585.07 47.75 58.37">
 <path class="fil0" d="M-1476.13 -1530.82c-2.6,1.3 -5.37,2.33 -8.25,3.04 -2.93,0.7 -5.97,1.09 -9.11,1.09 -9.28,0 -16.66,-2.6 -22.14,-7.81 -5.54,-5.21 -8.25,-12.37 -8.25,-21.48 0,-8.95 2.71,-16.06 8.25,-21.27 5.48,-5.21 12.86,-7.81 22.14,-7.81 3.15,0 6.19,0.38 9.11,1.09 2.87,0.76 5.64,1.74 8.25,3.04l0 11.72c-2.6,-1.85 -5.21,-3.26 -7.81,-4.12 -2.6,-0.87 -5.37,-1.3 -8.25,-1.3 -5.21,0 -9.33,1.68 -12.37,4.99 -2.93,3.36 -4.34,7.92 -4.34,13.67 0,5.97 1.41,10.58 4.34,13.89 3.04,3.36 7.16,4.99 12.37,4.99 2.87,0 5.64,-0.43 8.25,-1.3 2.61,-0.87 5.21,-2.22 7.81,-4.12l0 11.7z"/>
</symbol>
<symbol id="n" viewBox="-1541.23 -1835.5 118.27 395.19">
 <path class="fil0" d="M-1493.71 -1749.35l70.75 0 0 217.67c0,29.62 -7.16,52.3 -21.48,67.93 -14.21,15.63 -34.83,23.44 -61.85,23.44l-34.94 0 0 -46.44 12.37 0c13.46,0 22.62,-3.04 27.56,-9.11 5.05,-6.07 7.59,-18.01 7.59,-35.81l-0 -217.67zm0 -86.15l70.75 0 0 57.72 -70.75 0 0 -57.72z"/>
</symbol>
<symbol id="s" viewBox="-1506.73 -1754.77 200.96 232.64">
 <path class="fil0" d="M-1320.75 -1742.41l0 53.82c-15.08,-6.35 -29.68,-11.12 -43.83,-14.32 -14.05,-3.15 -27.34,-4.78 -39.93,-4.78 -13.46,0 -23.44,1.74 -29.95,5.21 -6.51,3.36 -9.76,8.46 -9.76,15.41 0,5.64 2.44,9.98 7.38,13.02 4.88,3.04 13.78,5.31 26.69,6.73l12.37 1.95c36.3,4.5 60.66,12.04 73.13,22.57 12.59,10.58 18.88,27.13 18.88,49.7 0,23.6 -8.79,41.34 -26.26,53.17 -17.36,11.88 -43.35,17.8 -77.91,17.8 -14.65,0 -29.73,-1.19 -45.35,-3.47 -15.63,-2.17 -31.69,-5.54 -48.18,-10.2l0 -53.82c14.16,6.83 28.65,11.94 43.4,15.41 14.87,3.36 30,4.99 45.35,4.99 13.72,0 24.09,-1.85 31.03,-5.64 7.05,-3.74 10.63,-9.39 10.63,-16.93 0,-6.35 -2.5,-11.07 -7.38,-14.11 -4.78,-3.15 -14.32,-5.64 -28.65,-7.38l-12.37 -1.52c-31.57,-3.91 -53.71,-11.18 -66.41,-21.92 -12.59,-10.69 -18.88,-26.96 -18.88,-48.83 0,-23.44 8.03,-40.8 24.09,-52.08 16.06,-11.39 40.69,-17.15 74,-17.15 13.02,0 26.69,1.03 41.02,3.04 14.43,2.06 30.06,5.15 46.87,9.33l0 -0z"/>
</symbol>
<symbol id="o" viewBox="-1490.67 -1823.14 243.28 295.36">
 <path class="fil0" d="M-1490.67 -1823.14l126.52 0c37.6,0 66.46,8.41 86.59,25.17 20.07,16.66 30.17,40.36 30.17,71.18 0,30.98 -10.09,54.85 -30.17,71.61 -20.13,16.66 -48.99,24.96 -86.59,24.96l-50.35 0 0 102.43 -76.17 0 0 -295.36zm76.17 55.12l0 82.46 42.31 0c14.76,0 26.09,-3.53 34.07,-10.63 8.08,-7.22 12.15,-17.41 12.15,-30.6 0,-13.13 -4.07,-23.28 -12.15,-30.38 -7.98,-7.22 -19.31,-10.85 -34.07,-10.85l-42.31 -0z"/>
</symbol>
<symbol id="p" viewBox="-1496.1 -1749.35 222.66 227.21">
 <path class="fil0" d="M-1496.09 -1613.93l0 -135.42 71.18 0 0 22.14c0,12.04 -0.11,27.13 -0.22,45.35 -0.16,18.12 -0.22,30.17 -0.22,36.24 0,17.8 0.43,30.6 1.3,38.41 0.98,7.81 2.6,13.56 4.78,17.15 3.04,4.67 6.83,8.19 11.5,10.63 4.61,2.5 9.98,3.69 16.06,3.69 14.76,0 26.31,-5.64 34.72,-16.93 8.52,-11.28 12.8,-27.02 12.8,-47.31l0 -109.37 70.75 0 0 221.57 -70.75 0 0 -32.12c-10.74,13.02 -22.08,22.57 -34.07,28.65 -11.88,6.07 -24.96,9.11 -39.28,9.11 -25.61,0 -45.14,-7.81 -58.59,-23.44 -13.35,-15.73 -19.96,-38.52 -19.96,-68.36l0 0z"/>
</symbol>
<symbol id="q" viewBox="-1490.67 -1823.14 264.76 295.36">
 <polygon class="fil0" points="-1490.67,-1823.14 -1405.6,-1823.14 -1298.18,-1620.67 -1298.18,-1823.14 -1225.91,-1823.14 -1225.91,-1527.78 -1310.98,-1527.78 -1418.41,-1730.47 -1418.41,-1527.78 -1490.67,-1527.78 "/>
</symbol>
<symbol id="r" viewBox="-1519.97 -1835.5 172.09 307.72">
 <path class="fil0" d="M-1347.88 -1835.5l0 46.44 -39.28 0c-9.98,0 -17.04,1.85 -21.05,5.43 -3.91,3.63 -5.86,9.93 -5.86,18.88l0 15.41 60.55 -0 0 50.56 -60.55 0 0 171 -70.74 0 0 -171 -35.16 0 0 -50.56 35.16 0 0 -15.41c0,-24.14 6.73,-41.94 20.18,-53.39 13.46,-11.56 34.29,-17.36 62.5,-17.36l54.25 0z"/>
</symbol>
<symbol id="c" viewBox="-1510.41 -1754.78 243.49 232.64">
 <path class="fil0" d="M-1388.24 -1704c-15.79,0 -27.78,5.64 -36.02,16.93 -8.24,11.29 -12.37,27.51 -12.37,48.61 0,21.27 4.12,37.54 12.37,48.83 8.25,11.28 20.24,16.93 36.02,16.93 15.3,0 27.02,-5.64 35.16,-16.93 8.25,-11.28 12.37,-27.56 12.37,-48.83 0,-21.1 -4.12,-37.33 -12.37,-48.61 -8.14,-11.28 -19.86,-16.93 -35.16,-16.93zm0 -50.78c38.03,0 67.76,10.36 89.19,31.03 21.38,20.56 32.12,48.99 32.12,85.29 0,36.46 -10.74,65 -32.12,85.5 -21.43,20.56 -51.16,30.81 -89.19,30.81 -38.36,0 -68.31,-10.25 -89.84,-30.81 -21.59,-20.51 -32.33,-49.04 -32.33,-85.5 0,-36.3 10.74,-64.72 32.33,-85.29 21.54,-20.67 51.48,-31.03 89.84,-31.03z"/>
</symbol>
<symbol id="f" viewBox="-1493.71 -1835.5 222.65 307.72">
 <path class="fil0" d="M-1271.06 -1662.76l0 134.98 -71.18 0 0 -102.86c0,-19.37 -0.43,-32.66 -1.3,-39.93 -0.87,-7.22 -2.33,-12.59 -4.34,-16.06 -2.77,-4.61 -6.51,-8.14 -11.28,-10.63 -4.78,-2.6 -10.2,-3.91 -16.28,-3.91 -14.76,0 -26.42,5.75 -34.94,17.15 -8.41,11.28 -12.59,27.07 -12.59,47.31l0 108.94 -70.75 -0 0 -307.72 70.74 0 0 118.49c10.69,-12.86 22.03,-22.35 34.07,-28.43 11.99,-6.19 25.23,-9.33 39.71,-9.33 25.61,0 44.98,7.92 58.16,23.65 13.29,15.63 19.96,38.41 19.96,68.36l0 -0z"/>
</symbol>
<symbol id="t" viewBox="-1493.71 -1835.5 70.75 307.72">
 <path class="fil0" d="M-1493.71 -1749.35l70.75 0 0 221.57 -70.75 0 0 -221.57zm0 -86.15l70.75 0 0 57.72 -70.75 0 0 -57.72z"/>
</symbol>
<symbol id="h" viewBox="-1494.15 -1754.78 356.56 227">
 <path class="fil0" d="M-1288.42 -1712.46c8.95,-13.72 19.59,-24.2 31.9,-31.47 12.43,-7.22 26.04,-10.85 40.8,-10.85 25.44,0 44.81,7.92 58.16,23.65 13.29,15.63 19.96,38.41 19.96,68.36l0 134.98 -71.19 0 0 -115.45 0 -5.43c0.11,-1.85 0.22,-4.45 0.22,-7.81 0,-15.73 -2.33,-27.13 -6.94,-34.07 -4.5,-7.05 -11.94,-10.63 -22.35,-10.63 -13.46,0 -23.87,5.59 -31.25,16.71 -7.27,11.01 -11.01,27.02 -11.28,47.96l0 108.72 -71.18 0 0 -115.45c0,-24.57 -2.11,-40.36 -6.3,-47.31 -4.23,-7.05 -11.72,-10.63 -22.57,-10.63 -13.62,0 -24.09,5.59 -31.47,16.71 -7.38,11.18 -11.07,27.07 -11.07,47.74l0 108.94 -71.17 0 0 -221.57 71.18 0 0 32.33c8.68,-12.43 18.67,-21.81 29.95,-28.21 11.28,-6.35 23.71,-9.55 37.33,-9.55 15.3,0 28.86,3.69 40.58,11.07 11.72,7.38 20.62,17.8 26.69,31.25z"/>
</symbol>
<symbol id="g" viewBox="-1493.71 -1754.78 222.65 227">
 <path class="fil0" d="M-1271.06 -1662.76l0 134.98 -71.18 0 0 -103.3c0,-19.1 -0.43,-32.23 -1.3,-39.5 -0.87,-7.22 -2.33,-12.59 -4.34,-16.06 -2.77,-4.61 -6.51,-8.14 -11.28,-10.63 -4.78,-2.6 -10.2,-3.91 -16.28,-3.91 -14.76,0 -26.42,5.75 -34.94,17.15 -8.41,11.28 -12.59,27.07 -12.59,47.31l0 108.94 -70.75 0 0 -221.57 70.74 0 0 32.33c10.69,-12.86 22.03,-22.35 34.07,-28.43 11.99,-6.19 25.23,-9.33 39.71,-9.33 25.61,0 44.98,7.92 58.16,23.65 13.29,15.63 19.96,38.41 19.96,68.36z"/>
</symbol>
<symbol id="d" viewBox="-1522.35 -1812.28 179.04 284.5">
 <path class="fil0" d="M-1416.45 -1812.28l0 62.93 73.13 0 0 50.56 -73.13 0 0 93.97c0,10.31 2.01,17.31 6.07,21.05 4.18,3.63 12.37,5.43 24.52,5.43l36.24 0 0 50.56 -60.55 0c-28.1,0 -47.96,-5.75 -59.68,-17.36 -11.61,-11.72 -17.36,-31.57 -17.36,-59.68l0 -93.97 -35.15 0 0 -50.56 35.15 0 0 -62.93 70.75 0z"/>
</symbol>
<symbol id="l" viewBox="-1509.55 -1835.5 237.85 313.36">
 <path class="fil0" d="M-1343.1 -1717.02l0 -118.49 71.4 0 0 307.72 -71.4 0 0 -32.12c-9.71,13.19 -20.4,22.79 -32.12,28.86 -11.72,5.91 -25.33,8.9 -40.8,8.9 -27.34,0 -49.8,-10.74 -67.28,-32.33 -17.52,-21.7 -26.26,-49.7 -26.26,-83.98 0,-34.13 8.74,-62.07 26.26,-83.77 17.47,-21.7 39.93,-32.55 67.28,-32.55 15.3,0 28.86,3.15 40.58,9.33 11.83,6.07 22.62,15.57 32.33,28.43l0 0zm-46.66 143.44c15.19,0 26.75,-5.48 34.72,-16.49 7.92,-11.12 11.94,-27.24 11.94,-48.39 0,-20.94 -4.02,-37 -11.94,-48.18 -7.98,-11.12 -19.53,-16.71 -34.72,-16.71 -15.08,0 -26.59,5.59 -34.5,16.71 -7.98,11.18 -11.94,27.24 -11.94,48.18 0,21.16 3.96,37.27 11.94,48.39 7.92,11.01 19.42,16.49 34.5,16.49z"/>
</symbol>
<symbol id="i" viewBox="-1490.67 -1823.15 266.71 295.37">
 <path class="fil0" d="M-1382.38 -1692.28c15.9,0 27.34,-2.93 34.29,-8.9 6.94,-5.91 10.42,-15.68 10.42,-29.3 0,-13.29 -3.47,-22.84 -10.42,-28.65 -6.94,-5.91 -18.39,-8.9 -34.29,-8.9l-32.12 0 0 75.74 32.12 0zm-32.12 52.74l0 111.76 -76.17 -0 0 -295.36 116.32 0c38.9,0 67.38,6.51 85.5,19.53 18.23,13.02 27.34,33.74 27.34,62.07 0,19.42 -4.72,35.37 -14.11,47.96 -9.44,12.59 -23.65,21.86 -42.75,27.78 10.42,2.33 19.75,7.7 28,16.06 8.25,8.41 16.6,21.05 25.17,37.98l41.23 83.98 -81.16 -0 -35.81 -73.35c-7.38,-14.76 -14.87,-24.8 -22.35,-30.17 -7.38,-5.48 -17.25,-8.25 -29.52,-8.25l-21.7 0.01z"/>
</symbol>
<symbol id="k" viewBox="-1493.7 -1835.5 237.85 313.36">
 <path class="fil0" d="M-1375.86 -1573.57c15.19,0 26.75,-5.48 34.72,-16.49 7.92,-11.12 11.94,-27.24 11.94,-48.39 0,-20.94 -4.02,-37 -11.94,-48.18 -7.98,-11.12 -19.53,-16.71 -34.72,-16.71 -15.19,0 -26.85,5.59 -34.94,16.71 -8.14,11.18 -12.15,27.24 -12.15,48.18 0,21 4.02,37.06 12.15,48.18 8.08,11.18 19.75,16.71 34.94,16.71zm-47.09 -143.44c9.82,-12.86 20.67,-22.35 32.55,-28.43 11.83,-6.19 25.44,-9.33 40.8,-9.33 27.34,0 49.75,10.85 67.28,32.55 17.63,21.7 26.48,49.64 26.48,83.77 0,34.29 -8.84,62.28 -26.48,83.98 -17.52,21.59 -39.93,32.33 -67.28,32.33 -15.35,0 -28.97,-3.04 -40.8,-9.11 -11.88,-6.07 -22.73,-15.63 -32.55,-28.65l0 32.12 -70.75 0 0 -307.72 70.75 0 0 118.48z"/>
</symbol>
<symbol id="j" viewBox="-1522.79 -1749.35 251.74 309.03">
 <path class="fil0" d="M-1522.79 -1749.35l70.75 0 59.68 150.39 50.56 -150.39 70.74 0 -93.1 242.63c-9.44,24.57 -20.34,41.78 -32.77,51.65 -12.48,9.82 -28.86,14.76 -49.26,14.76l-41.02 0 0 -46.44 22.14 0c11.99,0 20.72,-1.95 26.26,-5.86 5.48,-3.8 9.76,-10.63 12.8,-20.62l1.95 -6.07 -98.74 -230.04z"/>
</symbol>
<symbol id="u" viewBox="-1507.6 -1828.56 251.3 306.43">
 <path class="fil0" d="M-1256.3 -1544.06c-14.05,7.27 -28.65,12.7 -43.83,16.28 -15.19,3.74 -31.03,5.64 -47.53,5.64 -49.21,0 -88.22,-13.72 -116.97,-41.23 -28.65,-27.45 -42.97,-64.72 -42.97,-111.76 0,-47.31 14.32,-84.69 42.97,-112.2 28.76,-27.45 67.76,-41.23 116.97,-41.23 16.49,0 32.33,1.9 47.53,5.64 15.19,3.63 29.78,9.11 43.83,16.49l0 60.98c-14.21,-9.55 -28.16,-16.55 -41.88,-21.05 -13.62,-4.45 -28,-6.73 -43.19,-6.73 -27.24,0 -48.61,8.68 -64.24,26.04 -15.52,17.36 -23.22,41.4 -23.22,72.05 0,30.38 7.7,54.36 23.22,71.83 15.63,17.36 37,26.04 64.24,26.04 15.19,0 29.57,-2.22 43.19,-6.73 13.72,-4.45 27.67,-11.5 41.88,-21.05l0 60.99z"/>
</symbol>
<symbol id="Symbol1" viewBox="-1524.74 -1970.71 464.18 442.93">
 <path class="fil0" d="M-1203.13 -1608.51l-178.6 0 -28.21 80.73 -114.8 0 164.06 -442.93 136.07 0 164.06 442.93 -114.8 0 -27.77 -80.73zm-150.17 -82.25l121.31 0 -60.55 -176.22 -60.76 176.22z"/>
</symbol>
<symbol id="e" viewBox="-1510.41 -1754.77 224.18 232.63">
 <path class="fil0" d="M-1394.53 -1627.39c-14.76,0 -25.93,2.55 -33.42,7.59 -7.38,4.94 -11.07,12.26 -11.07,21.92 0,9.01 2.93,16 8.9,21.05 6.07,5.1 14.43,7.59 25.17,7.59 13.29,0 24.52,-4.78 33.64,-14.32 9.11,-9.55 13.67,-21.48 13.67,-35.81l0 -8.03 -36.89 0zm108.29 -26.91l0 126.52 -71.4 0 0 -32.77c-9.55,13.46 -20.29,23.22 -32.12,29.3 -11.88,6.07 -26.26,9.11 -43.19,9.11 -23,0 -41.67,-6.62 -55.99,-19.96 -14.32,-13.46 -21.48,-30.81 -21.48,-52.08 0,-26.04 8.9,-45.14 26.69,-57.29 17.91,-12.15 46.06,-18.23 84.42,-18.23l41.67 0 0 -5.43c0,-11.28 -4.45,-19.53 -13.24,-24.74 -8.84,-5.21 -22.68,-7.81 -41.45,-7.81 -15.08,0 -29.19,1.52 -42.32,4.56 -13.02,3.04 -25.12,7.59 -36.24,13.67l0 -54.04c15.03,-3.58 30.22,-6.35 45.57,-8.25 15.3,-2.01 30.65,-3.04 46.01,-3.04 39.93,0 68.69,7.92 86.37,23.65 17.8,15.79 26.69,41.4 26.69,76.82l-0 -0z"/>
</symbol>
<symbol id="a" viewBox="-1510.42 -1754.77 237.85 232.64">
 <path class="fil0" d="M-1272.57 -1639.11l0 20.18 -165.58 0c1.74,16.66 7.7,29.08 18.01,37.33 10.25,8.25 24.63,12.37 43.19,12.37 14.87,0 30.17,-2.17 45.79,-6.51 15.63,-4.45 31.69,-11.18 48.18,-20.18l0 54.69c-16.82,6.4 -33.58,11.18 -50.35,14.32 -16.82,3.15 -33.53,4.78 -50.13,4.78 -40.26,0 -71.5,-10.09 -93.75,-30.38 -22.14,-20.4 -33.2,-49.04 -33.2,-85.94 0,-36.02 10.91,-64.34 32.77,-85.07 21.81,-20.83 51.87,-31.25 90.06,-31.25 34.83,0 62.72,10.52 83.55,31.47 20.94,21 31.47,49.04 31.47,84.2l-0 -0zm-72.7 -23.65c0,-13.46 -4.02,-24.31 -11.94,-32.55 -7.81,-8.25 -18.01,-12.37 -30.6,-12.37 -13.78,0 -24.96,3.91 -33.64,11.72 -8.57,7.7 -13.83,18.77 -15.84,33.2l92.02 -0z"/>
</symbol>
<symbol id="b" viewBox="-1493.7 -1754.77 164.5 227">
 <path class="fil0" d="M-1329.21 -1689.02c-6.24,-2.87 -12.37,-4.99 -18.44,-6.3 -6.07,-1.41 -12.26,-2.17 -18.44,-2.17 -18.23,0 -32.28,5.86 -42.1,17.58 -9.87,11.61 -14.76,28.32 -14.76,50.13l0 102 -70.75 0 0 -221.57 70.74 0 0 36.46c9.11,-14.59 19.53,-25.23 31.25,-31.9 11.83,-6.62 26.04,-9.98 42.54,-9.98 2.44,0 5.05,0.16 7.81,0.43 2.71,0.16 6.73,0.6 11.94,1.3l0.22 64.02z"/>
</symbol>
<symbol id="Symbol3" viewBox="-1472.01 -1970.72 399.95 442.93">
 <path class="fil0" d="M-1309.68 -1774.31c23.87,0 41.02,-4.39 51.43,-13.24 10.42,-8.95 15.63,-23.65 15.63,-44.06 0,-20.07 -5.21,-34.5 -15.63,-43.19 -10.42,-8.79 -27.56,-13.24 -51.43,-13.24l-48.18 -0 0 113.72 48.18 0zm-48.18 78.99l0 167.53 -114.15 0 0 -442.93 174.47 0c58.27,0 101.02,9.76 128.26,29.3 27.18,19.53 40.8,50.51 40.8,92.88 0,29.24 -7.11,53.28 -21.27,72.05 -14.05,18.83 -35.32,32.72 -63.8,41.67 15.63,3.47 29.57,11.5 41.88,24.09 12.43,12.59 24.96,31.63 37.54,57.07l62.07 125.87 -121.74 0 -53.82 -110.03c-11.01,-22.14 -22.08,-37.22 -33.2,-45.35 -11.18,-8.08 -26.04,-12.15 -44.7,-12.15l-32.33 0.01z"/>
</symbol>
<symbol id="Symbol5" viewBox="-1484.16 -1978.74 349.61 459.63">
 <path class="fil0" d="M-1163.63 -1956.82l0 93.75c-24.47,-10.85 -48.29,-18.99 -71.4,-24.52 -23.17,-5.64 -45.03,-8.46 -65.54,-8.46 -27.24,0 -47.42,3.8 -60.55,11.28 -13.02,7.54 -19.53,19.26 -19.53,35.16 0,11.88 4.39,21.16 13.24,27.78 8.79,6.51 24.8,12.15 47.96,16.93l48.61 9.76c49.15,9.98 84.2,25.07 105.04,45.14 20.83,20.13 31.25,48.77 31.25,85.94 0,48.94 -14.54,85.29 -43.62,109.16 -28.97,23.87 -73.24,35.81 -132.81,35.81 -28.1,0 -56.31,-2.71 -84.64,-8.03 -28.21,-5.31 -56.43,-13.29 -84.64,-23.87l0 -96.35c28.21,15.08 55.45,26.42 81.81,34.07 26.48,7.54 51.98,11.28 76.61,11.28 24.85,0 43.89,-4.12 57.07,-12.37 13.29,-8.35 19.96,-20.24 19.96,-35.59 0,-13.89 -4.5,-24.57 -13.46,-32.12 -9.01,-7.49 -26.91,-14.21 -53.82,-20.18l-44.27 -9.76c-44.27,-9.55 -76.71,-24.63 -97.22,-45.35 -20.4,-20.83 -30.6,-48.83 -30.6,-83.98 0,-44.11 14.21,-78.02 42.75,-101.78 28.48,-23.71 69.44,-35.59 122.83,-35.59 24.31,0 49.31,1.85 75.09,5.43 25.72,3.63 52.35,9.11 79.86,16.49l0 0z"/>
</symbol>
<symbol id="Symbol2" viewBox="-1472.01 -1970.71 314.89 442.93">
 <polygon class="fil0" points="-1472.01,-1970.71 -1163.63,-1970.71 -1163.63,-1884.33 -1357.85,-1884.34 -1357.85,-1801.87 -1175.34,-1801.87 -1175.34,-1715.5 -1357.85,-1715.5 -1357.85,-1614.15 -1157.12,-1614.15 -1157.12,-1527.78 -1472.01,-1527.78 "/>
</symbol>
<symbol id="Symbol4" viewBox="-1472.01 -1970.71 396.93 442.93">
 <polygon class="fil0" points="-1472.01,-1970.71 -1357.86,-1970.71 -1357.86,-1801.87 -1189.23,-1801.88 -1189.23,-1970.71 -1075.08,-1970.71 -1075.08,-1527.78 -1189.23,-1527.78 -1189.23,-1715.5 -1357.86,-1715.5 -1357.86,-1527.78 -1472.01,-1527.78 "/>
</symbol>
<symbol id="Symbol7" viewBox="-1476.78 -1989.36 356.76 470.26">
 <path class="fil0" d="M-1299.92 -1596.35c22.68,0 40.04,-8.3 52.08,-24.96 11.99,-16.6 18.01,-40.69 18.01,-72.26 0,-31.69 -6.02,-55.83 -18.01,-72.48 -12.04,-16.6 -29.41,-24.96 -52.08,-24.96 -22.73,0 -40.15,8.41 -52.3,25.17 -12.15,16.66 -18.23,40.74 -18.23,72.26 0,31.41 6.07,55.5 18.23,72.26 12.15,16.66 29.57,24.96 52.3,24.96l0 0zm-70.53 -215.06c14.59,-19.37 30.81,-33.64 48.61,-42.75 17.8,-9.22 38.25,-13.89 61.41,-13.89 40.91,0 74.54,16.28 100.91,48.83 26.31,32.55 39.5,74.44 39.5,125.65 0,51.21 -13.19,93.1 -39.5,125.65 -26.37,32.55 -60,48.83 -100.91,48.83 -23.17,0 -43.62,-4.67 -61.41,-13.89 -17.8,-9.22 -34.02,-23.49 -48.61,-42.75l0 47.96 -106.33 0.01 0 -461.58 106.33 0 0 177.94z"/>
</symbol>
<symbol id="Symbol9" viewBox="-1501.75 -1868.05 356.78 348.96">
 <path class="fil0" d="M-1144.97 -1694.88l0 30.38 -248.49 0c2.6,24.9 11.56,43.57 26.91,55.99 15.46,12.48 37.11,18.67 64.89,18.67 22.24,0 45.14,-3.26 68.57,-9.76 23.44,-6.62 47.53,-16.71 72.26,-30.17l0 81.81c-25.07,9.55 -50.13,16.71 -75.3,21.48 -25.17,4.88 -50.29,7.38 -75.3,7.38 -60.22,0 -106.99,-15.24 -140.4,-45.79 -33.31,-30.65 -49.91,-73.57 -49.91,-128.69 0,-54.25 16.33,-96.84 49.04,-127.82 32.82,-31.09 77.91,-46.66 135.2,-46.66 52.19,0 94.02,15.79 125.43,47.31 31.36,31.41 47.09,73.35 47.09,125.87l0.01 0zm-109.16 -35.15c0,-20.24 -5.97,-36.51 -17.8,-48.83 -11.72,-12.43 -27.07,-18.67 -46.01,-18.67 -20.72,0 -37.49,5.81 -50.35,17.36 -12.75,11.61 -20.72,28.32 -23.87,50.13l138.02 0z"/>
</symbol>
<symbol id="Symbol6" viewBox="-1520.4 -1860.03 377.82 463.33">
 <path class="fil0" d="M-1520.4 -1860.03l106.33 0 89.19 225.47 75.96 -225.47 106.34 0 -139.75 363.72c-14.05,37 -30.49,62.83 -49.26,77.47 -18.67,14.76 -43.35,22.14 -74,22.14l-61.42 0 0 -69.66 33.2 0c18.07,0 31.14,-2.93 39.28,-8.68 8.25,-5.64 14.65,-15.95 19.31,-30.81l2.82 -9.11 -148.01 -345.06z"/>
</symbol>
<symbol id="Symbol8" viewBox="-1500.43 -1989.36 356.55 470.26">
 <path class="fil0" d="M-1250.65 -1811.42l0 -177.94 106.77 0 0 461.58 -106.77 0 0 -47.96c-14.65,19.53 -30.76,33.85 -48.39,42.97 -17.69,9.11 -38.09,13.67 -61.2,13.67 -40.96,0 -74.6,-16.28 -100.91,-48.83 -26.2,-32.55 -39.28,-74.44 -39.28,-125.65 0,-51.21 13.07,-93.1 39.28,-125.65 26.31,-32.55 59.95,-48.83 100.91,-48.83 23,0 43.3,4.67 60.98,13.89 17.8,9.11 33.96,23.38 48.61,42.75l0 -0.01zm-70.1 215.06c22.84,0 40.2,-8.3 52.08,-24.96 11.99,-16.6 18.01,-40.69 18.01,-72.26 0,-31.69 -6.02,-55.83 -18.01,-72.48 -11.88,-16.6 -29.24,-24.96 -52.08,-24.96 -22.57,0 -39.88,8.35 -51.87,24.96 -11.88,16.66 -17.8,40.8 -17.8,72.48 0,31.57 5.91,55.67 17.8,72.26 11.99,16.66 29.3,24.96 51.87,24.96z"/>
</symbol>
<symbol id="Symbol12" viewBox="-1476.78 -1868.05 246.96 340.28">
 <path class="fil0" d="M-1229.82 -1769.53c-9.44,-4.34 -18.77,-7.49 -28,-9.55 -9.11,-2.17 -18.34,-3.26 -27.56,-3.26 -27.34,0 -48.39,8.79 -63.15,26.26 -14.65,17.52 -21.92,42.64 -21.92,75.3l0 153 -106.33 -0 0 -332.25 106.34 0 0 54.47c13.56,-21.7 29.19,-37.54 46.87,-47.53 17.8,-9.98 39.06,-14.97 63.8,-14.97 3.47,0 7.27,0.16 11.5,0.43 4.18,0.33 10.2,0.98 18.01,1.95l0.43 96.13z"/>
</symbol>
<symbol id="Symbol10" viewBox="-1519.75 -1954.43 268.44 426.66">
 <path class="fil0" d="M-1360.68 -1954.43l0 94.4 109.37 0 0 75.96 -109.37 0 0 140.85c0,15.52 3.04,25.99 9.11,31.47 6.07,5.37 18.23,8.03 36.46,8.03l54.69 0 0 75.96 -91.15 0c-41.99,0 -71.72,-8.74 -89.19,-26.26 -17.52,-17.47 -26.26,-47.2 -26.26,-89.19l0 -140.85 -52.73 0 0 -75.96 52.73 0 0 -94.4 106.34 0z"/>
</symbol>
<symbol id="Symbol11" viewBox="-1501.72 -1868.06 336.15 348.96">
 <path class="fil0" d="M-1327.91 -1677.31c-22.14,0 -38.79,3.8 -49.91,11.28 -11.18,7.54 -16.71,18.61 -16.71,33.2 0,13.46 4.45,24.04 13.46,31.69 8.95,7.54 21.48,11.28 37.54,11.28 19.96,0 36.73,-7.16 50.35,-21.48 13.72,-14.32 20.62,-32.23 20.62,-53.82l0 -12.15 -55.34 0zm162.33 -40.15l0 189.67 -106.99 0 0 -49.26c-14.32,20.13 -30.38,34.83 -48.18,44.06 -17.8,9.22 -39.44,13.89 -64.89,13.89 -34.45,0 -62.44,-10.04 -83.98,-30.17 -21.43,-20.07 -32.12,-46.11 -32.12,-78.13 0,-39.06 13.35,-67.6 40.15,-85.72 26.91,-18.23 69.01,-27.34 126.3,-27.34l62.72 -0 0 -8.46c0,-16.76 -6.67,-29.08 -19.96,-36.89 -13.19,-7.81 -33.85,-11.72 -62.07,-11.72 -22.73,0 -43.83,2.33 -63.37,6.94 -19.53,4.5 -37.76,11.28 -54.69,20.4l0 -80.94c22.84,-5.64 45.68,-9.82 68.57,-12.59 23,-2.87 45.9,-4.34 68.79,-4.34 60,0 103.3,11.88 129.78,35.59 26.59,23.6 39.93,61.96 39.93,115.02l0 0z"/>
</symbol>
<symbol id="Symbol13" viewBox="-1497.63 -1978.74 376.96 459.65">
 <path class="fil0" d="M-1120.67 -1552.09c-21,10.85 -42.91,19.04 -65.76,24.52 -22.73,5.64 -46.39,8.46 -70.96,8.46 -73.78,0 -132.32,-20.62 -175.57,-61.85 -43.13,-41.23 -64.67,-97.22 -64.67,-167.97 0,-70.75 21.54,-126.74 64.67,-167.97 43.24,-41.23 101.78,-61.85 175.57,-61.85 24.57,0 48.23,2.77 70.96,8.25 22.84,5.54 44.76,13.78 65.76,24.74l0 91.58c-21.27,-14.43 -42.21,-25.01 -62.72,-31.69 -20.56,-6.78 -42.21,-10.2 -64.89,-10.2 -40.8,0 -72.86,13.13 -96.14,39.28 -23.33,26.04 -34.94,62.01 -34.94,107.85 0,45.74 11.61,81.7 34.94,107.85 23.28,26.04 55.34,39.06 96.14,39.06 22.68,0 44.33,-3.31 64.89,-9.98 20.51,-6.78 41.45,-17.41 62.72,-31.9l0 91.81z"/>
</symbol>
 <g id="Layer_x0020_1">
  <metadata id="CorelCorpID_0Corel-Layer"/>
  <circle class="fil1" cx="3108.68" cy="3055.43" r="2390.14"/>
  <g id="_2521249386592">
   <g>
    <path class="fil2" d="M3424.3 3653.19l17.7 41.49c86.95,184.28 12.68,394.39 -178.57,470.88 -83.01,33.2 -159.87,29.15 -246.11,11.53 -262.89,-53.7 -380.82,-261.74 -423.03,-509.28 -22.28,-130.63 -14.59,-316.35 17.56,-444.85 53.91,-215.5 201.03,-396.21 430.67,-428.04 152.07,-21.07 263.14,1.63 363.74,123.32 33.57,40.61 58.94,100.22 67.85,152.14 12.91,75.3 2.41,143.12 -29.66,211.93 -10.89,23.38 -23.65,45.3 -35.69,68.02 -5.64,10.65 -12.96,24.7 -16.21,37.63 116.36,62.82 182,123.43 251.75,239.04 114.52,189.8 127.04,403.65 128.28,619.61 0.09,15.07 -1.19,28.84 -2.95,43.72 -1.18,9.99 -2.01,19.57 -2.01,29.66l0 15.05 -194.66 -11.45 0 -13.38c0,-37.62 4.89,-74.78 4.89,-112.48 0,-142.27 -23.87,-341.47 -98.5,-464.26 -13.39,-22.04 -33.14,-54.03 -55.05,-80.28zm-139.88 -174.38c0,-58.1 23.76,-122.17 50.45,-172.96 52.94,-100.73 86.74,-185.37 29.5,-294.94 -42.14,-80.67 -130.31,-139 -222.26,-139 -115.22,0 -220.39,34.56 -303.97,115.61 -119.37,115.76 -165.12,296.91 -170.27,458.24 -4.95,155.13 27.41,348.57 114.37,480.08 35.41,53.55 86.15,97.22 142.21,128.02 121.54,66.8 287.31,81.4 392.28,-23.82 49.57,-49.69 80.35,-106.16 76.58,-177.7 -3.15,-59.65 -29.13,-119.35 -52.35,-173.63 -26.89,-62.84 -56.55,-130.35 -56.55,-199.89zm943.36 170.63c-60.33,64.82 -102.89,166.95 -123.22,243.77 -17.82,67.36 -28.92,132.54 -32.59,202.13 -3.76,71.21 -1.13,143.52 -1.13,214.87l0 13.38 -194.66 11.45 0 -15.05c0,-54.69 -9.16,-107.11 -4.59,-162.3 4.27,-51.53 4.76,-103.8 12.3,-154.98 20.03,-135.78 50.36,-260.85 121.69,-379.38 10.48,-17.43 21.93,-34.57 33.96,-50.97 35.84,-48.85 75.39,-89.87 123.74,-126.56 29.7,-22.54 59.49,-39.94 91.77,-57.27 -6.55,-19.78 -18.34,-41.38 -27.19,-58.79 -16.07,-31.63 -31.34,-62.96 -42.48,-96.75 -31.5,-95.53 -20.54,-183.5 28.42,-271.31 81.2,-145.67 237.17,-192.2 395.2,-164.1 234.3,41.66 371.57,206.49 427.79,430.28 21.45,85.39 26.81,162.92 26.81,250.95 0,175.31 -23.48,366.14 -132.76,509.62 -31.93,41.92 -70.83,78.51 -113.96,108.71 -115.98,81.2 -272.76,122.04 -410.73,78.37 -77.61,-24.57 -140.38,-73.35 -185.35,-141.02 -75,-112.85 -63.43,-222.64 -13.08,-343.17 5.65,-13.53 13.01,-27.62 20.05,-41.87zm28.9 -493.41c0,20.26 3.78,39.6 10.35,58.71 9.89,28.76 25.45,55.81 40.02,82.41 16.81,30.68 32.44,60.99 42.76,94.58 31.02,101.01 1.83,199.21 -44.17,290.65 -14.11,28.05 -26.67,58.05 -37.04,87.7 -9.72,27.8 -16.6,65.51 -13.61,94.93 9.73,95.62 52.41,174 141.74,215.59 136.12,63.39 318.84,7.29 421.41,-94.68 65.19,-64.81 112.35,-168.34 133.1,-257.28 9.07,-38.86 15.31,-79.83 20.48,-119.39 4.95,-37.89 9.41,-77.73 10.04,-115.94 0.36,-22.04 -4.78,-41.37 -5.3,-62.99 -3.59,-150.99 -51.58,-327.58 -160.8,-436.65 -100.04,-99.91 -190.63,-116.89 -328.65,-116.89 -51.95,0 -127.71,38.53 -161.81,77.08 -55.2,62.42 -68.53,119.98 -68.53,202.16z"/>
    <path class="fil3" d="M3142.11 2857.71c-551.19,0 -574.96,768.57 -371.7,1075.95 117.28,177.36 403.05,260.08 556.38,106.4 197.54,-198.01 -28.18,-374.54 -28.18,-561.24 0,-60.56 27.69,-126.15 48.82,-166.36 49.83,-94.8 92.43,-187.69 29.52,-308.12 -41.66,-79.75 -131.85,-146.62 -234.84,-146.62z"/>
    <path class="fil3" d="M4242.49 3156.04c0,154.95 200.31,222.15 50.48,519.97 -13.62,27.07 -27.36,59.67 -37.76,89.4 -10.94,31.29 -17.36,71.25 -14.33,101.05 10.33,101.59 56.65,183.61 149.86,227.02 135.09,62.91 324.45,14.81 437.4,-97.48 65.85,-65.47 115.06,-170.44 136.91,-264.11 14.02,-60.09 29.82,-173.96 30.89,-238.32 0.48,-29.75 -4.69,-38.05 -5.3,-63.56 -3.76,-157.76 -54.54,-336.08 -164.96,-446.36 -99.13,-99 -189.14,-121.04 -338.67,-121.04 -57.07,0 -136.41,41.13 -172.44,81.87 -55.59,62.87 -72.09,121.94 -72.09,211.56zm361.9 332.56c45.45,0 66.81,83.14 -14.67,83.14 -35.3,0 -55.19,-83.14 14.67,-83.14zm104.4 148.15c8.56,-11.33 21.33,-12.54 32.55,-6.98 28.87,14.29 9.22,37.35 28.69,59.98 0.46,0.53 2.35,2.98 2.7,2.19 0.35,-0.8 1.95,1.29 2.83,2.06 24.89,-6.65 25.38,-29.34 44.02,-29.34 18,0 29.34,12.52 29.34,24.45 0,45.54 -32.93,12.65 -19.56,68.47l44.02 0c15.1,22.56 24.99,16.49 0,53.8l-44.02 0c-3.14,13.5 -2.35,11.02 -9.78,19.56 8.28,12.37 29.34,26.44 29.34,39.12 0,30.48 -19.75,37.17 -35.67,31.34 -19.74,-7.23 -13.69,-20.04 -37.69,-26.44 -0.88,0.76 -2.3,1.58 -2.82,2.06 -0.51,0.48 -2.09,1.58 -2.68,2.21 -0.59,0.63 -1.85,1.69 -2.45,2.44 -13.32,16.95 -3.15,63.3 -40.07,59.08 -16.08,-1.84 -21.13,-13.85 -23.99,-28.02 -4.92,-24.43 3.39,-20.91 -16.02,-37.78 -33.82,9.03 -43.96,64.8 -78.24,0 8.32,-15.74 4.16,-9.91 16.02,-23.11 40.93,-45.57 -23.92,-40.36 -45.36,-45.36 -9.56,-41.02 -10.11,-46.2 29.39,-48.86 62.19,-4.18 4.81,-47 2.19,-60.33 -3.19,-16.15 8.86,-32.64 27.11,-32.64 17.73,0 30.76,20.47 44.01,29.34 8.54,-7.42 6.07,-6.63 19.56,-9.78 0,-18.44 -2.24,-35.8 6.59,-47.47zm-295.13 145.28c50.15,0 57.29,88.03 -4.89,88.03 -33.66,0 -39.12,-29.22 -39.12,-53.79 0,-15.57 24.92,-34.24 44.02,-34.24zm224.97 -533.07c-26.11,0 -31.61,-17.76 -48.91,-29.34 -8.54,7.43 -6.07,6.65 -19.56,9.79l0 44.02c-28.52,19.1 -25.27,19.1 -53.8,0l0 -44.02c-13.49,-3.14 -11.02,-2.36 -19.56,-9.79 -13.24,8.87 -26.28,29.34 -44.02,29.34 -18.69,0 -29.35,-14.47 -29.35,-34.23 0,-3.56 24.28,-26.67 29.35,-34.24 -4.14,-8.63 -5.64,-15.82 -9.78,-24.45 -20.43,0 -76.45,8.51 -48.91,-48.91 13.69,-3.19 26.44,-2.52 38.69,-5.32 17.8,-4.07 12.08,-7.75 19.99,-19.13 -8.87,-13.25 -29.35,-26.28 -29.35,-44.02 0,-15.81 13.53,-29.35 29.35,-29.35 17.73,0 30.77,20.47 44.02,29.35l9.64 -5.03c0.77,-0.6 2.09,-1.37 2.81,-2.09 0.71,-0.7 1.82,-1.65 2.43,-2.46 9.93,-13.31 2.45,-18.52 9.58,-49.11 12.83,-6.36 27.1,-12.11 40.13,-1.46 13.64,11.15 8.78,27.76 8.78,50.37 8.63,4.14 15.83,5.64 24.45,9.78 12.37,-8.28 26.44,-29.35 39.13,-29.35 15.81,0 29.34,13.53 29.34,29.35 0,17.73 -20.47,30.76 -29.34,44.02 7.42,8.54 6.64,6.06 9.78,19.56l44.01 0c19.1,28.53 19.1,25.28 0,53.8l-44.01 0c-3.14,13.49 -2.36,11.02 -9.78,19.56 11.58,17.3 29.34,22.81 29.34,48.91 0,11.4 -13.05,24.45 -24.45,24.45zm254.3 78.25c0,55.93 -88.03,62.35 -88.03,-4.89 0,-40.57 88.03,-60.87 88.03,4.89z"/>
    <path class="fil4" d="M4452.78 3180.48c-5.06,7.57 -29.35,30.67 -29.35,34.24 0,19.76 10.65,34.23 29.35,34.23 17.73,0 30.77,-20.47 44.02,-29.34 8.54,7.43 6.07,6.65 19.56,9.79l0 44.02c28.52,19.1 25.27,19.1 53.8,0l0 -44.02c13.49,-3.14 11.02,-2.36 19.56,-9.79 17.3,11.58 22.8,29.34 48.91,29.34 11.4,0 24.45,-13.05 24.45,-24.45 0,-26.1 -17.76,-31.61 -29.34,-48.91 7.42,-8.54 6.64,-6.06 9.78,-19.56l44.01 0c19.1,-28.52 19.1,-25.27 0,-53.8l-44.01 0c-3.14,-13.49 -2.36,-11.01 -9.78,-19.56 8.87,-13.25 29.34,-26.28 29.34,-44.02 0,-15.81 -13.53,-29.35 -29.34,-29.35 -12.69,0 -26.76,21.06 -39.13,29.35 -8.63,-4.14 -15.83,-5.64 -24.45,-9.78 0,-22.6 4.86,-39.22 -8.78,-50.37 -13.03,-10.65 -27.3,-4.9 -40.13,1.46 -7.13,30.59 0.35,35.8 -9.58,49.11 -0.61,0.81 -1.72,1.77 -2.43,2.46 -0.72,0.71 -2.04,1.48 -2.81,2.09l-9.64 5.03c-13.24,-8.87 -26.28,-29.35 -44.02,-29.35 -15.81,0 -29.35,13.53 -29.35,29.35 0,17.73 20.47,30.76 29.35,44.02 -7.91,11.38 -2.19,15.06 -19.99,19.13 -12.26,2.8 -25,2.13 -38.69,5.32 -27.55,57.41 28.48,48.91 48.91,48.91 4.14,8.63 5.64,15.82 9.78,24.45z"/>
    <path class="fil4" d="M4609.32 3757.62c-39.5,2.65 -38.94,7.83 -29.39,48.86 21.44,5 86.29,-0.22 45.36,45.36 -11.86,13.2 -7.7,7.38 -16.02,23.11 34.28,64.8 44.42,9.03 78.24,0 19.41,16.87 11.1,13.35 16.02,37.78 2.86,14.17 7.91,26.18 23.99,28.02 36.93,4.22 26.76,-42.13 40.07,-59.08 0.59,-0.76 1.86,-1.81 2.45,-2.44 0.59,-0.63 2.17,-1.73 2.68,-2.21 0.52,-0.48 1.94,-1.3 2.82,-2.06 24,6.41 17.95,19.21 37.69,26.44 15.91,5.83 35.67,-0.85 35.67,-31.34 0,-12.68 -21.06,-26.75 -29.34,-39.12 7.43,-8.54 6.64,-6.07 9.78,-19.56l44.02 0c24.99,-37.31 15.1,-31.24 0,-53.8l-44.02 0c-13.36,-55.83 19.56,-22.94 19.56,-68.47 0,-11.93 -11.34,-24.45 -29.34,-24.45 -18.63,0 -19.13,22.69 -44.02,29.34 -0.88,-0.76 -2.48,-2.86 -2.83,-2.06 -0.35,0.8 -2.24,-1.66 -2.7,-2.19 -19.48,-22.63 0.18,-45.69 -28.69,-59.98 -11.22,-5.56 -23.99,-4.35 -32.55,6.98 -8.83,11.68 -6.59,29.03 -6.59,47.47 -13.49,3.15 -11.02,2.36 -19.56,9.78 -13.24,-8.87 -26.28,-29.34 -44.01,-29.34 -18.26,0 -30.3,16.49 -27.11,32.64 2.63,13.33 60,56.15 -2.19,60.33z"/>
    <path class="fil4" d="M4604.39 3488.59c-69.85,0 -49.96,83.14 -14.67,83.14 81.48,0 60.12,-83.14 14.67,-83.14z"/>
    <path class="fil4" d="M4804.9 3322.31c0,67.24 88.03,60.82 88.03,4.89 0,-65.76 -88.03,-45.46 -88.03,-4.89z"/>
    <path class="fil4" d="M4369.64 3816.26c0,24.57 5.46,53.79 39.12,53.79 62.19,0 55.05,-88.03 4.89,-88.03 -19.09,0 -44.02,18.66 -44.02,34.24z"/>
   </g>
   <g>
    <path class="fil2" d="M2126.53 3074.85c-4.59,1.79 -9.31,3.21 -14.22,4.13 -1.59,0.3 -9.24,1.13 -10.29,1.67 -5.22,3.54 -26.1,69.09 -28.38,75.91 -20.6,61.59 -14.69,137.46 -12.38,201.68 3.06,85.45 3.41,176.26 -50.36,247.9 -70.27,93.61 -164.75,83.14 -268.38,83.16 -59.57,0.01 -124.03,-8.92 -171.87,-47.42 -14.04,-11.3 -25.13,-23.91 -36.37,-37.85 -4.9,-6.08 -10.71,-13.76 -16.94,-19.75 -6.15,7.57 -12.61,19.53 -15.82,25.47 -10.09,18.67 -19.28,37.74 -29.72,56.24 -13.18,23.38 -30.32,50.17 -52.36,66.04 -60.59,43.63 -148.94,28.72 -193.24,-31 -26.59,-35.84 -60.83,-148.29 -67.28,-193.67 -2.24,-15.8 -2.4,-34.22 -2.87,-50.2 -0.89,-29.85 -1.28,-59.74 -1.58,-89.6 -0.83,-82.06 -0.78,-164.16 -0.61,-246.22 0.26,-125.85 1.74,-251.78 1.65,-377.61 -0.06,-76.74 -2.17,-154.82 5.68,-231.22 7.94,-77.26 26.48,-147.57 56.68,-219.15 101.92,-241.56 295.04,-412.94 546.93,-485.63 152.3,-43.95 324.2,-29.72 481.3,-29.72 169.2,0 338.39,-0.01 507.59,0 40.17,0 80.42,-1.62 120.63,-1.76 25.07,-0.09 50.3,0.15 75.33,1.63 18.27,1.08 40.04,2.73 57.61,7.94 60.41,17.87 115.19,74.17 134.39,133.81 22.54,69.99 5.18,149.84 -44.66,203.96 -23.43,25.44 -55.57,45.93 -85.25,63.33 -37.5,21.99 -76.3,41.96 -114.15,63.41 -91.8,52.03 -174.3,109.93 -239.3,194.56 -47.28,61.57 -80.08,124.03 -107.42,196.32 -9.83,25.99 -18.65,52.39 -28.72,78.27 -8.62,22.17 -18.44,44.45 -32.02,64.07 -19.67,28.45 -41.05,51.5 -67.2,73.94 -13.17,11.3 -32.19,25.33 -41.32,40.06 -4.11,6.62 -6.45,13.56 -7.57,21.25 -3.34,22.8 -2.19,48.81 -1.86,71.91 0.25,17.74 0.46,35.72 -0.93,53.41 -3.19,40.76 -0.3,81.77 -1.8,122.6 -3.01,81.84 -7.49,163.74 -7.79,245.82l-4.8 249.47 -0.05 0.46c-8.56,81.52 -79.53,133.74 -158.73,103.21 -86.36,-33.3 -71.73,-126.21 -71.73,-200.14 0,-82.33 1.17,-164.74 1.6,-247.09 0.28,-53.35 0.48,-106.72 0.11,-160.06 -0.14,-20.4 -0.35,-40.82 -0.86,-61.22 -0.18,-7.36 -0.34,-14.85 -0.67,-22.32zm-0.51 -100.88c2.41,-26.2 2.05,-53.69 1.64,-79.85 -0.4,-25.95 -1.31,-51.94 -1.31,-77.89 0,-48.36 6.2,-98.01 -16.2,-142.92 -36.77,-73.72 -129.11,-91.61 -201.06,-112.94 -43.92,-13.03 -90.79,-20.76 -136.1,-27.15 -24.44,-3.44 -49.94,-8 -74.47,-10.09 -6.63,-0.57 -19.44,-1.67 -25.31,2.38 -5.43,3.75 -10.66,15.7 -13.41,21.5 -13.75,28.96 -35.83,56.54 -65.3,70.55 -19.96,9.49 -47.29,13.38 -64.86,-3.19 -12.42,-11.72 -14.26,-28.83 -10.85,-44.79 1.87,-8.78 5.89,-16.14 12.28,-22.43 9.59,-9.43 22.49,-14.08 31.82,-23.33 30.76,-30.51 17.35,-66.65 -10.15,-93.81 -17.56,-17.35 -36.68,-28.62 -34.37,-57.01 0.63,-7.68 3.09,-15.26 7.09,-21.85 1.02,-1.68 2.15,-3.3 3.37,-4.83 10.65,-13.4 26.6,-18.62 43.25,-15.14 23.37,4.89 43.74,25.41 57.94,43.44 12,15.24 17.92,29.8 27.78,45.57 1.01,1.6 2.06,3.18 3.16,4.72 0.48,0.67 1.05,1.27 1.68,1.8 9.7,8.19 45.98,3.74 59.68,5.13 110.89,11.28 235.3,33.04 337.24,80.44 24.77,11.52 48.33,24.74 70.72,40.39 4.63,3.24 22.24,17.14 26.33,18.61 34.06,7.82 90.63,-12.44 119.46,-30.61 27.38,-17.25 15.43,-106.89 15.2,-135.5 -0.2,-25.57 4.57,-50.65 4.56,-76.09 -0.02,-27.06 -0.79,-54.12 -0.5,-81.19 1.03,-95.07 47.87,-176.9 144.06,-201.05 46.53,-11.68 94.97,-15.16 142.1,-23.89 4.71,-0.87 10.5,-2.3 13.77,-6.11 4.3,-5.02 8.91,-20.44 11.65,-27.01 8.87,-21.25 21.51,-39.27 36.91,-56.32 58.41,-64.67 119.96,0.55 81.29,50.59 -22.62,29.27 -51.98,58.63 -40.82,99.03 2.85,10.3 15.99,22.89 23.44,30.33 12.74,12.73 30.3,29.2 31.17,48.37 0.67,14.62 -8.3,26.11 -19.29,34.67 -39.33,30.64 -92.56,-19.95 -111.1,-52.94 -3.71,-6.61 -6.73,-13.22 -9.56,-20.24 -0.56,-1.4 -2.07,-5.49 -3.1,-7.17 -4.01,-0.54 -17.59,2.13 -20.75,2.72 -22.76,4.26 -45.33,8.67 -68.19,12.48 -32.19,5.37 -79.14,14.65 -99.28,43.45 -10.84,15.51 -14.27,35.83 -15.93,54.29 -2.69,29.93 -1.75,61.56 -1.74,91.65 0.01,52.42 -4.03,104.69 -4.02,157.11 0,50.61 -2.7,102.07 -4.54,152.69 -1.19,32.97 -2.38,65.96 -3.09,98.94 -0.29,13.58 -0.75,28.02 -0.62,42.2 33.39,-33.04 47.25,-60.9 63.92,-111.45 48.84,-148.12 136.16,-295.67 257.65,-395.4 15.6,-12.81 36.22,-25.14 53.39,-35.89 27.76,-17.39 55.85,-34.3 83.96,-51.09 43.64,-26.07 87.65,-51.56 131.22,-77.73 48.09,-28.89 84.56,-49.67 89.09,-110.85 3.74,-50.3 -31.95,-99.93 -80.31,-113.48 -3.41,-0.87 -9.69,-1.06 -13.26,-1.28 -10.06,-0.62 -20.17,-0.95 -30.24,-1.26 -32.66,-0.97 -65.38,-1.35 -98.05,-1.67 -94.55,-0.93 -189.15,-0.91 -283.71,-0.78 -92.5,0.13 -184.99,0.49 -277.49,0.94 -49.54,0.24 -99.13,0.73 -148.67,0.73 -65.98,0 -132.81,-2.29 -198.63,2.63 -64.8,4.85 -124.72,17.28 -185.85,39.52 -49.47,18.01 -95.5,39.12 -139.85,67.62 -42.82,27.53 -82.5,60.33 -121.61,92.82 -65.3,54.26 -140.85,172.19 -172.71,250.87 -23.53,58.11 -40.63,115.31 -48.83,177.57 -8.16,61.9 -7.83,125.52 -7.83,187.87 0,143.69 0,287.37 0,431.06 0,66.47 -2.63,133.05 -2.8,199.6 -0.1,40.84 0.32,81.95 2.79,122.73 1.69,27.88 4.2,62.17 12.16,88.97 9.97,33.58 28.17,125.06 71.29,129.59 6.38,0.67 12.52,-0.07 18.52,-2.39 33.3,-12.84 55.89,-73.31 73.37,-102.68 53.31,-89.62 104.1,-181.14 153.19,-273.13 55.57,-104.15 94.54,-180.82 206.3,-234.41 68.96,-33.07 113.61,-31.22 187.54,-31.72 21.85,-0.14 126.84,-30.68 153.75,-45zm83.69 -309.67c11.26,38.84 12.26,92.38 12.51,130.5 0.26,40.76 -1.43,81.43 -1.43,122.15l0 688.87c0,13.56 -0.46,26.73 0.7,40.31 0.75,8.78 3.38,30.3 11.89,35.32 5.47,3.22 14.74,-1.52 19.4,-4.24 9.92,-5.79 11.43,-45.95 11.63,-56.18 0.39,-20 -1.09,-39.67 -1.07,-59.52l11.78 -399.77 0.02 -0.31c3.9,-45.02 -3.26,-90.79 0.6,-135.99l9.15 -381.97c-12.11,3.16 -24.46,6.84 -36.2,10.05 -10.64,2.91 -21.26,5.84 -31.87,8.85 -2.21,0.63 -4.65,1.27 -7.11,1.94zm-640.49 831.08c36.02,52.53 75.26,99.69 144.96,99.62 6.24,-0.01 12.48,0.09 18.72,0.24 65.82,1.61 142.89,12.81 194.33,-38.41 3.22,-3.2 6.21,-6.62 8.97,-10.23 39.46,-51.57 32.36,-148.48 29.57,-210.07 -1.94,-42.86 -4.44,-87.43 0.04,-130.15 1.93,-18.41 5.95,-37.83 10.11,-55.89 2.81,-12.21 8.22,-24.87 11.36,-37.34 -60.22,-0.42 -108.38,-2.65 -166.37,24.43 -39.7,18.54 -83.22,56.97 -104.98,95.12 -25.07,43.94 -50.21,87.84 -75.08,131.9 -16.63,29.46 -33.21,58.96 -49.41,88.65 -5.72,10.49 -11.42,21.01 -16.88,31.63 -1.42,2.76 -3.67,6.83 -5.35,10.48z"/>
    <path class="fil3" d="M1572.09 2331.19c23.37,4.89 43.74,25.41 57.94,43.44 12,15.24 17.92,29.8 27.78,45.57 1.01,1.6 2.06,3.18 3.16,4.72 0.48,0.67 1.05,1.27 1.68,1.8 9.7,8.19 45.98,3.74 59.68,5.13 110.89,11.28 235.3,33.04 337.24,80.44 24.77,11.52 48.33,24.74 70.72,40.39 4.63,3.24 22.24,17.14 26.33,18.61 34.06,7.82 90.63,-12.44 119.46,-30.61 27.38,-17.25 15.43,-106.89 15.2,-135.5 -0.2,-25.57 4.57,-50.65 4.56,-76.09 -0.02,-27.06 -0.79,-54.12 -0.5,-81.19 1.03,-95.07 47.87,-176.9 144.06,-201.05 46.53,-11.68 94.97,-15.16 142.1,-23.89 4.71,-0.87 10.5,-2.3 13.77,-6.11 4.3,-5.02 8.91,-20.44 11.65,-27.01 8.87,-21.25 21.51,-39.27 36.91,-56.32 58.41,-64.67 119.96,0.55 81.29,50.59 -22.62,29.27 -51.98,58.63 -40.82,99.03 2.85,10.3 15.99,22.89 23.44,30.33 12.74,12.73 30.3,29.2 31.17,48.37 0.67,14.62 -8.3,26.11 -19.29,34.67 -39.33,30.64 -92.56,-19.95 -111.1,-52.94 -3.71,-6.61 -6.73,-13.22 -9.56,-20.24 -0.56,-1.4 -2.07,-5.49 -3.1,-7.17 -4.01,-0.54 -17.59,2.13 -20.75,2.72 -22.76,4.26 -45.33,8.67 -68.19,12.48 -32.19,5.37 -79.14,14.65 -99.28,43.45 -10.84,15.51 -14.27,35.83 -15.93,54.29 -2.69,29.93 -1.75,61.56 -1.74,91.65 0.01,52.42 -4.03,104.69 -4.02,157.11 0,50.61 -2.7,102.07 -4.54,152.69 -1.19,32.97 -2.38,65.96 -3.09,98.94 -0.29,13.58 -0.75,28.02 -0.62,42.2 33.39,-33.04 47.25,-60.9 63.92,-111.45 48.84,-148.12 136.16,-295.67 257.65,-395.4 15.6,-12.81 36.22,-25.14 53.39,-35.89 27.76,-17.39 55.85,-34.3 83.96,-51.09 43.64,-26.07 87.65,-51.56 131.22,-77.73 48.09,-28.89 84.56,-49.67 89.09,-110.85 3.74,-50.3 -31.95,-99.93 -80.31,-113.48 -3.41,-0.87 -9.69,-1.06 -13.26,-1.28 -10.06,-0.62 -20.17,-0.95 -30.24,-1.26 -32.66,-0.97 -65.38,-1.35 -98.05,-1.67 -94.55,-0.93 -189.15,-0.91 -283.71,-0.78 -92.5,0.13 -184.99,0.49 -277.49,0.94 -49.54,0.24 -99.13,0.73 -148.67,0.73 -65.98,0 -132.81,-2.29 -198.63,2.63 -64.8,4.85 -124.72,17.28 -185.85,39.52 -49.47,18.01 -95.5,39.12 -139.85,67.62 -42.82,27.53 -82.5,60.33 -121.61,92.82 -65.3,54.26 -140.85,172.19 -172.71,250.87 -23.53,58.11 -40.63,115.31 -48.83,177.57 -8.16,61.9 -7.83,125.52 -7.83,187.87 0,143.69 0,287.37 0,431.06 0,66.47 -2.63,133.05 -2.8,199.6 -0.1,40.84 0.32,81.95 2.79,122.73 1.69,27.88 4.2,62.17 12.16,88.97 9.97,33.58 28.17,125.06 71.29,129.59 6.38,0.67 12.52,-0.07 18.52,-2.39 33.3,-12.84 55.89,-73.31 73.37,-102.68 53.31,-89.62 104.1,-181.14 153.19,-273.13 55.57,-104.15 94.54,-180.82 206.3,-234.41 68.96,-33.07 113.61,-31.22 187.54,-31.72 21.85,-0.14 126.84,-30.68 153.75,-45 2.41,-26.2 2.05,-53.69 1.64,-79.85 -0.4,-25.95 -1.31,-51.94 -1.31,-77.89 0,-48.36 6.2,-98.01 -16.2,-142.92 -36.77,-73.72 -129.11,-91.61 -201.06,-112.94 -43.92,-13.03 -90.79,-20.76 -136.1,-27.15 -24.44,-3.44 -49.94,-8 -74.47,-10.09 -6.63,-0.57 -19.44,-1.67 -25.31,2.38 -5.43,3.75 -10.66,15.7 -13.41,21.5 -13.75,28.96 -35.83,56.54 -65.3,70.55 -19.96,9.49 -47.29,13.38 -64.86,-3.19 -12.42,-11.72 -14.26,-28.83 -10.85,-44.79 1.87,-8.78 5.89,-16.14 12.28,-22.43 9.59,-9.43 22.49,-14.08 31.82,-23.33 30.76,-30.51 17.35,-66.65 -10.15,-93.81 -17.56,-17.35 -36.68,-28.62 -34.37,-57.01 0.63,-7.68 3.09,-15.26 7.09,-21.85 1.02,-1.68 2.15,-3.3 3.37,-4.83 10.65,-13.4 26.6,-18.62 43.25,-15.14z"/>
    <path class="fil5" d="M1591.44 3453.27c-5.72,10.49 -11.42,21.01 -16.88,31.63 -1.42,2.76 -3.67,6.83 -5.35,10.48 36.02,52.53 75.26,99.69 144.96,99.62 6.24,-0.01 12.48,0.09 18.72,0.24 65.82,1.61 142.89,12.81 194.33,-38.41 3.22,-3.2 6.21,-6.62 8.97,-10.23 39.46,-51.57 32.36,-148.48 29.57,-210.07 -1.94,-42.86 -4.44,-87.43 0.04,-130.15 1.93,-18.41 5.95,-37.83 10.11,-55.89 2.81,-12.21 8.22,-24.87 11.36,-37.34 -60.22,-0.42 -108.38,-2.65 -166.37,24.43 -39.7,18.54 -83.22,56.97 -104.98,95.12 -25.07,43.94 -50.21,87.84 -75.08,131.9 -16.63,29.46 -33.21,58.96 -49.41,88.65z"/>
   </g>
  </g>
 </g>
</svg>
