<?xml version="1.0" encoding="UTF-8"?>
<!DOCTYPE svg PUBLIC "-//W3C//DTD SVG 1.1//EN" "http://www.w3.org/Graphics/SVG/1.1/DTD/svg11.dtd">
<!-- Creator: CorelDRAW 2018 (64-Bit) -->
<svg xmlns="http://www.w3.org/2000/svg" xml:space="preserve" width="6.66666in" height="6.66666in" version="1.1" style="shape-rendering:geometricPrecision; text-rendering:geometricPrecision; image-rendering:optimizeQuality; fill-rule:evenodd; clip-rule:evenodd"
viewBox="0 0 6666.66 6666.66"
 xmlns:xlink="http://www.w3.org/1999/xlink">
 <defs>
  <style type="text/css">
   <![CDATA[
    .fil2 {fill:none}
    .fil1 {fill:#12A7A7}
    .fil0 {fill:black}
    .fil4 {fill:#44269B}
    .fil5 {fill:#45B0C1}
    .fil3 {fill:#FEFEFE}
   ]]>
  </style>
 </defs>
<symbol id="n" viewBox="-1541.23 -1835.5 118.27 395.19">
 <path class="fil0" d="M-1493.71 -1749.35l70.75 0 0 217.67c0,29.62 -7.16,52.3 -21.48,67.93 -14.21,15.63 -34.83,23.44 -61.85,23.44l-34.94 0 0 -46.44 12.37 0c13.46,0 22.62,-3.04 27.56,-9.11 5.05,-6.07 7.59,-18.01 7.59,-35.81l-0 -217.67zm0 -86.15l70.75 0 0 57.72 -70.75 0 0 -57.72z"/>
</symbol>
<symbol id="v" viewBox="-1523.88 -1585.07 47.75 58.37">
 <path class="fil0" d="M-1476.13 -1530.82c-2.6,1.3 -5.37,2.33 -8.25,3.04 -2.93,0.7 -5.97,1.09 -9.11,1.09 -9.28,0 -16.66,-2.6 -22.14,-7.81 -5.54,-5.21 -8.25,-12.37 -8.25,-21.48 0,-8.95 2.71,-16.06 8.25,-21.27 5.48,-5.21 12.86,-7.81 22.14,-7.81 3.15,0 6.19,0.38 9.11,1.09 2.87,0.76 5.64,1.74 8.25,3.04l0 11.72c-2.6,-1.85 -5.21,-3.26 -7.81,-4.12 -2.6,-0.87 -5.37,-1.3 -8.25,-1.3 -5.21,0 -9.33,1.68 -12.37,4.99 -2.93,3.36 -4.34,7.92 -4.34,13.67 0,5.97 1.41,10.58 4.34,13.89 3.04,3.36 7.16,4.99 12.37,4.99 2.87,0 5.64,-0.43 8.25,-1.3 2.61,-0.87 5.21,-2.22 7.81,-4.12l0 11.7z"/>
</symbol>
<symbol id="m" viewBox="-1510.41 -1754.77 195.74 232.64">
 <path class="fil0" d="M-1314.67 -1742.41l0 57.72c-9.71,-6.51 -19.42,-11.34 -29.08,-14.54 -9.71,-3.15 -19.75,-4.78 -30.17,-4.78 -19.86,0 -35.26,5.81 -46.22,17.36 -11.01,11.45 -16.49,27.51 -16.49,48.18 0,20.83 5.48,37.06 16.49,48.61 10.96,11.45 26.37,17.15 46.22,17.15 11.12,0 21.59,-1.63 31.47,-4.99 9.98,-3.31 19.2,-8.14 27.78,-14.54l0 57.94c-11.18,4.07 -22.46,7.05 -33.85,9.11 -11.28,2.01 -22.73,3.04 -34.29,3.04 -39.93,0 -71.18,-10.2 -93.75,-30.6 -22.57,-20.51 -33.85,-49.1 -33.85,-85.72 0,-36.46 11.28,-64.94 33.85,-85.5 22.57,-20.51 53.82,-30.81 93.75,-30.81 11.56,0 23,1.09 34.29,3.26 11.28,2.06 22.57,5.1 33.85,9.11l-0 -0z"/>
</symbol>
<symbol id="q" viewBox="-1490.67 -1823.14 264.76 295.36">
 <polygon class="fil0" points="-1490.67,-1823.14 -1405.6,-1823.14 -1298.18,-1620.67 -1298.18,-1823.14 -1225.91,-1823.14 -1225.91,-1527.78 -1310.98,-1527.78 -1418.41,-1730.47 -1418.41,-1527.78 -1490.67,-1527.78 "/>
</symbol>
<symbol id="o" viewBox="-1490.67 -1823.14 243.28 295.36">
 <path class="fil0" d="M-1490.67 -1823.14l126.52 0c37.6,0 66.46,8.41 86.59,25.17 20.07,16.66 30.17,40.36 30.17,71.18 0,30.98 -10.09,54.85 -30.17,71.61 -20.13,16.66 -48.99,24.96 -86.59,24.96l-50.35 0 0 102.43 -76.17 0 0 -295.36zm76.17 55.12l0 82.46 42.31 0c14.76,0 26.09,-3.53 34.07,-10.63 8.08,-7.22 12.15,-17.41 12.15,-30.6 0,-13.13 -4.07,-23.28 -12.15,-30.38 -7.98,-7.22 -19.31,-10.85 -34.07,-10.85l-42.31 -0z"/>
</symbol>
<symbol id="p" viewBox="-1496.1 -1749.35 222.66 227.21">
 <path class="fil0" d="M-1496.09 -1613.93l0 -135.42 71.18 0 0 22.14c0,12.04 -0.11,27.13 -0.22,45.35 -0.16,18.12 -0.22,30.17 -0.22,36.24 0,17.8 0.43,30.6 1.3,38.41 0.98,7.81 2.6,13.56 4.78,17.15 3.04,4.67 6.83,8.19 11.5,10.63 4.61,2.5 9.98,3.69 16.06,3.69 14.76,0 26.31,-5.64 34.72,-16.93 8.52,-11.28 12.8,-27.02 12.8,-47.31l0 -109.37 70.75 0 0 221.57 -70.75 0 0 -32.12c-10.74,13.02 -22.08,22.57 -34.07,28.65 -11.88,6.07 -24.96,9.11 -39.28,9.11 -25.61,0 -45.14,-7.81 -58.59,-23.44 -13.35,-15.73 -19.96,-38.52 -19.96,-68.36l0 0z"/>
</symbol>
<symbol id="t" viewBox="-1493.71 -1835.5 70.75 307.72">
 <path class="fil0" d="M-1493.71 -1749.35l70.75 0 0 221.57 -70.75 0 0 -221.57zm0 -86.15l70.75 0 0 57.72 -70.75 0 0 -57.72z"/>
</symbol>
<symbol id="r" viewBox="-1519.97 -1835.5 172.09 307.72">
 <path class="fil0" d="M-1347.88 -1835.5l0 46.44 -39.28 0c-9.98,0 -17.04,1.85 -21.05,5.43 -3.91,3.63 -5.86,9.93 -5.86,18.88l0 15.41 60.55 -0 0 50.56 -60.55 0 0 171 -70.74 0 0 -171 -35.16 0 0 -50.56 35.16 0 0 -15.41c0,-24.14 6.73,-41.94 20.18,-53.39 13.46,-11.56 34.29,-17.36 62.5,-17.36l54.25 0z"/>
</symbol>
<symbol id="s" viewBox="-1506.73 -1754.77 200.96 232.64">
 <path class="fil0" d="M-1320.75 -1742.41l0 53.82c-15.08,-6.35 -29.68,-11.12 -43.83,-14.32 -14.05,-3.15 -27.34,-4.78 -39.93,-4.78 -13.46,0 -23.44,1.74 -29.95,5.21 -6.51,3.36 -9.76,8.46 -9.76,15.41 0,5.64 2.44,9.98 7.38,13.02 4.88,3.04 13.78,5.31 26.69,6.73l12.37 1.95c36.3,4.5 60.66,12.04 73.13,22.57 12.59,10.58 18.88,27.13 18.88,49.7 0,23.6 -8.79,41.34 -26.26,53.17 -17.36,11.88 -43.35,17.8 -77.91,17.8 -14.65,0 -29.73,-1.19 -45.35,-3.47 -15.63,-2.17 -31.69,-5.54 -48.18,-10.2l0 -53.82c14.16,6.83 28.65,11.94 43.4,15.41 14.87,3.36 30,4.99 45.35,4.99 13.72,0 24.09,-1.85 31.03,-5.64 7.05,-3.74 10.63,-9.39 10.63,-16.93 0,-6.35 -2.5,-11.07 -7.38,-14.11 -4.78,-3.15 -14.32,-5.64 -28.65,-7.38l-12.37 -1.52c-31.57,-3.91 -53.71,-11.18 -66.41,-21.92 -12.59,-10.69 -18.88,-26.96 -18.88,-48.83 0,-23.44 8.03,-40.8 24.09,-52.08 16.06,-11.39 40.69,-17.15 74,-17.15 13.02,0 26.69,1.03 41.02,3.04 14.43,2.06 30.06,5.15 46.87,9.33l0 -0z"/>
</symbol>
<symbol id="g" viewBox="-1493.71 -1754.78 222.65 227">
 <path class="fil0" d="M-1271.06 -1662.76l0 134.98 -71.18 0 0 -103.3c0,-19.1 -0.43,-32.23 -1.3,-39.5 -0.87,-7.22 -2.33,-12.59 -4.34,-16.06 -2.77,-4.61 -6.51,-8.14 -11.28,-10.63 -4.78,-2.6 -10.2,-3.91 -16.28,-3.91 -14.76,0 -26.42,5.75 -34.94,17.15 -8.41,11.28 -12.59,27.07 -12.59,47.31l0 108.94 -70.75 0 0 -221.57 70.74 0 0 32.33c10.69,-12.86 22.03,-22.35 34.07,-28.43 11.99,-6.19 25.23,-9.33 39.71,-9.33 25.61,0 44.98,7.92 58.16,23.65 13.29,15.63 19.96,38.41 19.96,68.36z"/>
</symbol>
<symbol id="h" viewBox="-1494.15 -1754.78 356.56 227">
 <path class="fil0" d="M-1288.42 -1712.46c8.95,-13.72 19.59,-24.2 31.9,-31.47 12.43,-7.22 26.04,-10.85 40.8,-10.85 25.44,0 44.81,7.92 58.16,23.65 13.29,15.63 19.96,38.41 19.96,68.36l0 134.98 -71.19 0 0 -115.45 0 -5.43c0.11,-1.85 0.22,-4.45 0.22,-7.81 0,-15.73 -2.33,-27.13 -6.94,-34.07 -4.5,-7.05 -11.94,-10.63 -22.35,-10.63 -13.46,0 -23.87,5.59 -31.25,16.71 -7.27,11.01 -11.01,27.02 -11.28,47.96l0 108.72 -71.18 0 0 -115.45c0,-24.57 -2.11,-40.36 -6.3,-47.31 -4.23,-7.05 -11.72,-10.63 -22.57,-10.63 -13.62,0 -24.09,5.59 -31.47,16.71 -7.38,11.18 -11.07,27.07 -11.07,47.74l0 108.94 -71.17 0 0 -221.57 71.18 0 0 32.33c8.68,-12.43 18.67,-21.81 29.95,-28.21 11.28,-6.35 23.71,-9.55 37.33,-9.55 15.3,0 28.86,3.69 40.58,11.07 11.72,7.38 20.62,17.8 26.69,31.25z"/>
</symbol>
<symbol id="i" viewBox="-1490.67 -1823.15 266.71 295.37">
 <path class="fil0" d="M-1382.38 -1692.28c15.9,0 27.34,-2.93 34.29,-8.9 6.94,-5.91 10.42,-15.68 10.42,-29.3 0,-13.29 -3.47,-22.84 -10.42,-28.65 -6.94,-5.91 -18.39,-8.9 -34.29,-8.9l-32.12 0 0 75.74 32.12 0zm-32.12 52.74l0 111.76 -76.17 -0 0 -295.36 116.32 0c38.9,0 67.38,6.51 85.5,19.53 18.23,13.02 27.34,33.74 27.34,62.07 0,19.42 -4.72,35.37 -14.11,47.96 -9.44,12.59 -23.65,21.86 -42.75,27.78 10.42,2.33 19.75,7.7 28,16.06 8.25,8.41 16.6,21.05 25.17,37.98l41.23 83.98 -81.16 -0 -35.81 -73.35c-7.38,-14.76 -14.87,-24.8 -22.35,-30.17 -7.38,-5.48 -17.25,-8.25 -29.52,-8.25l-21.7 0.01z"/>
</symbol>
<symbol id="f" viewBox="-1493.71 -1835.5 222.65 307.72">
 <path class="fil0" d="M-1271.06 -1662.76l0 134.98 -71.18 0 0 -102.86c0,-19.37 -0.43,-32.66 -1.3,-39.93 -0.87,-7.22 -2.33,-12.59 -4.34,-16.06 -2.77,-4.61 -6.51,-8.14 -11.28,-10.63 -4.78,-2.6 -10.2,-3.91 -16.28,-3.91 -14.76,0 -26.42,5.75 -34.94,17.15 -8.41,11.28 -12.59,27.07 -12.59,47.31l0 108.94 -70.75 -0 0 -307.72 70.74 0 0 118.49c10.69,-12.86 22.03,-22.35 34.07,-28.43 11.99,-6.19 25.23,-9.33 39.71,-9.33 25.61,0 44.98,7.92 58.16,23.65 13.29,15.63 19.96,38.41 19.96,68.36l0 -0z"/>
</symbol>
<symbol id="c" viewBox="-1510.41 -1754.78 243.49 232.64">
 <path class="fil0" d="M-1388.24 -1704c-15.79,0 -27.78,5.64 -36.02,16.93 -8.24,11.29 -12.37,27.51 -12.37,48.61 0,21.27 4.12,37.54 12.37,48.83 8.25,11.28 20.24,16.93 36.02,16.93 15.3,0 27.02,-5.64 35.16,-16.93 8.25,-11.28 12.37,-27.56 12.37,-48.83 0,-21.1 -4.12,-37.33 -12.37,-48.61 -8.14,-11.28 -19.86,-16.93 -35.16,-16.93zm0 -50.78c38.03,0 67.76,10.36 89.19,31.03 21.38,20.56 32.12,48.99 32.12,85.29 0,36.46 -10.74,65 -32.12,85.5 -21.43,20.56 -51.16,30.81 -89.19,30.81 -38.36,0 -68.31,-10.25 -89.84,-30.81 -21.59,-20.51 -32.33,-49.04 -32.33,-85.5 0,-36.3 10.74,-64.72 32.33,-85.29 21.54,-20.67 51.48,-31.03 89.84,-31.03z"/>
</symbol>
<symbol id="l" viewBox="-1509.55 -1835.5 237.85 313.36">
 <path class="fil0" d="M-1343.1 -1717.02l0 -118.49 71.4 0 0 307.72 -71.4 0 0 -32.12c-9.71,13.19 -20.4,22.79 -32.12,28.86 -11.72,5.91 -25.33,8.9 -40.8,8.9 -27.34,0 -49.8,-10.74 -67.28,-32.33 -17.52,-21.7 -26.26,-49.7 -26.26,-83.98 0,-34.13 8.74,-62.07 26.26,-83.77 17.47,-21.7 39.93,-32.55 67.28,-32.55 15.3,0 28.86,3.15 40.58,9.33 11.83,6.07 22.62,15.57 32.33,28.43l0 0zm-46.66 143.44c15.19,0 26.75,-5.48 34.72,-16.49 7.92,-11.12 11.94,-27.24 11.94,-48.39 0,-20.94 -4.02,-37 -11.94,-48.18 -7.98,-11.12 -19.53,-16.71 -34.72,-16.71 -15.08,0 -26.59,5.59 -34.5,16.71 -7.98,11.18 -11.94,27.24 -11.94,48.18 0,21.16 3.96,37.27 11.94,48.39 7.92,11.01 19.42,16.49 34.5,16.49z"/>
</symbol>
<symbol id="d" viewBox="-1522.35 -1812.28 179.04 284.5">
 <path class="fil0" d="M-1416.45 -1812.28l0 62.93 73.13 0 0 50.56 -73.13 0 0 93.97c0,10.31 2.01,17.31 6.07,21.05 4.18,3.63 12.37,5.43 24.52,5.43l36.24 0 0 50.56 -60.55 0c-28.1,0 -47.96,-5.75 -59.68,-17.36 -11.61,-11.72 -17.36,-31.57 -17.36,-59.68l0 -93.97 -35.15 0 0 -50.56 35.15 0 0 -62.93 70.75 0z"/>
</symbol>
<symbol id="j" viewBox="-1522.79 -1749.35 251.74 309.03">
 <path class="fil0" d="M-1522.79 -1749.35l70.75 0 59.68 150.39 50.56 -150.39 70.74 0 -93.1 242.63c-9.44,24.57 -20.34,41.78 -32.77,51.65 -12.48,9.82 -28.86,14.76 -49.26,14.76l-41.02 0 0 -46.44 22.14 0c11.99,0 20.72,-1.95 26.26,-5.86 5.48,-3.8 9.76,-10.63 12.8,-20.62l1.95 -6.07 -98.74 -230.04z"/>
</symbol>
<symbol id="k" viewBox="-1493.7 -1835.5 237.85 313.36">
 <path class="fil0" d="M-1375.86 -1573.57c15.19,0 26.75,-5.48 34.72,-16.49 7.92,-11.12 11.94,-27.24 11.94,-48.39 0,-20.94 -4.02,-37 -11.94,-48.18 -7.98,-11.12 -19.53,-16.71 -34.72,-16.71 -15.19,0 -26.85,5.59 -34.94,16.71 -8.14,11.18 -12.15,27.24 -12.15,48.18 0,21 4.02,37.06 12.15,48.18 8.08,11.18 19.75,16.71 34.94,16.71zm-47.09 -143.44c9.82,-12.86 20.67,-22.35 32.55,-28.43 11.83,-6.19 25.44,-9.33 40.8,-9.33 27.34,0 49.75,10.85 67.28,32.55 17.63,21.7 26.48,49.64 26.48,83.77 0,34.29 -8.84,62.28 -26.48,83.98 -17.52,21.59 -39.93,32.33 -67.28,32.33 -15.35,0 -28.97,-3.04 -40.8,-9.11 -11.88,-6.07 -22.73,-15.63 -32.55,-28.65l0 32.12 -70.75 0 0 -307.72 70.75 0 0 118.48z"/>
</symbol>
<symbol id="e" viewBox="-1510.41 -1754.77 224.18 232.63">
 <path class="fil0" d="M-1394.53 -1627.39c-14.76,0 -25.93,2.55 -33.42,7.59 -7.38,4.94 -11.07,12.26 -11.07,21.92 0,9.01 2.93,16 8.9,21.05 6.07,5.1 14.43,7.59 25.17,7.59 13.29,0 24.52,-4.78 33.64,-14.32 9.11,-9.55 13.67,-21.48 13.67,-35.81l0 -8.03 -36.89 0zm108.29 -26.91l0 126.52 -71.4 0 0 -32.77c-9.55,13.46 -20.29,23.22 -32.12,29.3 -11.88,6.07 -26.26,9.11 -43.19,9.11 -23,0 -41.67,-6.62 -55.99,-19.96 -14.32,-13.46 -21.48,-30.81 -21.48,-52.08 0,-26.04 8.9,-45.14 26.69,-57.29 17.91,-12.15 46.06,-18.23 84.42,-18.23l41.67 0 0 -5.43c0,-11.28 -4.45,-19.53 -13.24,-24.74 -8.84,-5.21 -22.68,-7.81 -41.45,-7.81 -15.08,0 -29.19,1.52 -42.32,4.56 -13.02,3.04 -25.12,7.59 -36.24,13.67l0 -54.04c15.03,-3.58 30.22,-6.35 45.57,-8.25 15.3,-2.01 30.65,-3.04 46.01,-3.04 39.93,0 68.69,7.92 86.37,23.65 17.8,15.79 26.69,41.4 26.69,76.82l-0 -0z"/>
</symbol>
<symbol id="a" viewBox="-1510.42 -1754.77 237.85 232.64">
 <path class="fil0" d="M-1272.57 -1639.11l0 20.18 -165.58 0c1.74,16.66 7.7,29.08 18.01,37.33 10.25,8.25 24.63,12.37 43.19,12.37 14.87,0 30.17,-2.17 45.79,-6.51 15.63,-4.45 31.69,-11.18 48.18,-20.18l0 54.69c-16.82,6.4 -33.58,11.18 -50.35,14.32 -16.82,3.15 -33.53,4.78 -50.13,4.78 -40.26,0 -71.5,-10.09 -93.75,-30.38 -22.14,-20.4 -33.2,-49.04 -33.2,-85.94 0,-36.02 10.91,-64.34 32.77,-85.07 21.81,-20.83 51.87,-31.25 90.06,-31.25 34.83,0 62.72,10.52 83.55,31.47 20.94,21 31.47,49.04 31.47,84.2l-0 -0zm-72.7 -23.65c0,-13.46 -4.02,-24.31 -11.94,-32.55 -7.81,-8.25 -18.01,-12.37 -30.6,-12.37 -13.78,0 -24.96,3.91 -33.64,11.72 -8.57,7.7 -13.83,18.77 -15.84,33.2l92.02 -0z"/>
</symbol>
<symbol id="u" viewBox="-1507.6 -1828.56 251.3 306.43">
 <path class="fil0" d="M-1256.3 -1544.06c-14.05,7.27 -28.65,12.7 -43.83,16.28 -15.19,3.74 -31.03,5.64 -47.53,5.64 -49.21,0 -88.22,-13.72 -116.97,-41.23 -28.65,-27.45 -42.97,-64.72 -42.97,-111.76 0,-47.31 14.32,-84.69 42.97,-112.2 28.76,-27.45 67.76,-41.23 116.97,-41.23 16.49,0 32.33,1.9 47.53,5.64 15.19,3.63 29.78,9.11 43.83,16.49l0 60.98c-14.21,-9.55 -28.16,-16.55 -41.88,-21.05 -13.62,-4.45 -28,-6.73 -43.19,-6.73 -27.24,0 -48.61,8.68 -64.24,26.04 -15.52,17.36 -23.22,41.4 -23.22,72.05 0,30.38 7.7,54.36 23.22,71.83 15.63,17.36 37,26.04 64.24,26.04 15.19,0 29.57,-2.22 43.19,-6.73 13.72,-4.45 27.67,-11.5 41.88,-21.05l0 60.99z"/>
</symbol>
<symbol id="b" viewBox="-1493.7 -1754.77 164.5 227">
 <path class="fil0" d="M-1329.21 -1689.02c-6.24,-2.87 -12.37,-4.99 -18.44,-6.3 -6.07,-1.41 -12.26,-2.17 -18.44,-2.17 -18.23,0 -32.28,5.86 -42.1,17.58 -9.87,11.61 -14.76,28.32 -14.76,50.13l0 102 -70.75 0 0 -221.57 70.74 0 0 36.46c9.11,-14.59 19.53,-25.23 31.25,-31.9 11.83,-6.62 26.04,-9.98 42.54,-9.98 2.44,0 5.05,0.16 7.81,0.43 2.71,0.16 6.73,0.6 11.94,1.3l0.22 64.02z"/>
</symbol>
<symbol id="Symbol1" viewBox="-1524.74 -1970.71 464.18 442.93">
 <path class="fil0" d="M-1203.13 -1608.51l-178.6 0 -28.21 80.73 -114.8 0 164.06 -442.93 136.07 0 164.06 442.93 -114.8 0 -27.77 -80.73zm-150.17 -82.25l121.31 0 -60.55 -176.22 -60.76 176.22z"/>
</symbol>
<symbol id="Symbol2" viewBox="-1472.01 -1970.71 314.89 442.93">
 <polygon class="fil0" points="-1472.01,-1970.71 -1163.63,-1970.71 -1163.63,-1884.33 -1357.85,-1884.34 -1357.85,-1801.87 -1175.34,-1801.87 -1175.34,-1715.5 -1357.85,-1715.5 -1357.85,-1614.15 -1157.12,-1614.15 -1157.12,-1527.78 -1472.01,-1527.78 "/>
</symbol>
<symbol id="Symbol6" viewBox="-1520.4 -1860.03 377.82 463.33">
 <path class="fil0" d="M-1520.4 -1860.03l106.33 0 89.19 225.47 75.96 -225.47 106.34 0 -139.75 363.72c-14.05,37 -30.49,62.83 -49.26,77.47 -18.67,14.76 -43.35,22.14 -74,22.14l-61.42 0 0 -69.66 33.2 0c18.07,0 31.14,-2.93 39.28,-8.68 8.25,-5.64 14.65,-15.95 19.31,-30.81l2.82 -9.11 -148.01 -345.06z"/>
</symbol>
<symbol id="Symbol5" viewBox="-1484.16 -1978.74 349.61 459.63">
 <path class="fil0" d="M-1163.63 -1956.82l0 93.75c-24.47,-10.85 -48.29,-18.99 -71.4,-24.52 -23.17,-5.64 -45.03,-8.46 -65.54,-8.46 -27.24,0 -47.42,3.8 -60.55,11.28 -13.02,7.54 -19.53,19.26 -19.53,35.16 0,11.88 4.39,21.16 13.24,27.78 8.79,6.51 24.8,12.15 47.96,16.93l48.61 9.76c49.15,9.98 84.2,25.07 105.04,45.14 20.83,20.13 31.25,48.77 31.25,85.94 0,48.94 -14.54,85.29 -43.62,109.16 -28.97,23.87 -73.24,35.81 -132.81,35.81 -28.1,0 -56.31,-2.71 -84.64,-8.03 -28.21,-5.31 -56.43,-13.29 -84.64,-23.87l0 -96.35c28.21,15.08 55.45,26.42 81.81,34.07 26.48,7.54 51.98,11.28 76.61,11.28 24.85,0 43.89,-4.12 57.07,-12.37 13.29,-8.35 19.96,-20.24 19.96,-35.59 0,-13.89 -4.5,-24.57 -13.46,-32.12 -9.01,-7.49 -26.91,-14.21 -53.82,-20.18l-44.27 -9.76c-44.27,-9.55 -76.71,-24.63 -97.22,-45.35 -20.4,-20.83 -30.6,-48.83 -30.6,-83.98 0,-44.11 14.21,-78.02 42.75,-101.78 28.48,-23.71 69.44,-35.59 122.83,-35.59 24.31,0 49.31,1.85 75.09,5.43 25.72,3.63 52.35,9.11 79.86,16.49l0 0z"/>
</symbol>
<symbol id="Symbol7" viewBox="-1476.78 -1989.36 356.76 470.26">
 <path class="fil0" d="M-1299.92 -1596.35c22.68,0 40.04,-8.3 52.08,-24.96 11.99,-16.6 18.01,-40.69 18.01,-72.26 0,-31.69 -6.02,-55.83 -18.01,-72.48 -12.04,-16.6 -29.41,-24.96 -52.08,-24.96 -22.73,0 -40.15,8.41 -52.3,25.17 -12.15,16.66 -18.23,40.74 -18.23,72.26 0,31.41 6.07,55.5 18.23,72.26 12.15,16.66 29.57,24.96 52.3,24.96l0 0zm-70.53 -215.06c14.59,-19.37 30.81,-33.64 48.61,-42.75 17.8,-9.22 38.25,-13.89 61.41,-13.89 40.91,0 74.54,16.28 100.91,48.83 26.31,32.55 39.5,74.44 39.5,125.65 0,51.21 -13.19,93.1 -39.5,125.65 -26.37,32.55 -60,48.83 -100.91,48.83 -23.17,0 -43.62,-4.67 -61.41,-13.89 -17.8,-9.22 -34.02,-23.49 -48.61,-42.75l0 47.96 -106.33 0.01 0 -461.58 106.33 0 0 177.94z"/>
</symbol>
<symbol id="Symbol3" viewBox="-1472.01 -1970.72 399.95 442.93">
 <path class="fil0" d="M-1309.68 -1774.31c23.87,0 41.02,-4.39 51.43,-13.24 10.42,-8.95 15.63,-23.65 15.63,-44.06 0,-20.07 -5.21,-34.5 -15.63,-43.19 -10.42,-8.79 -27.56,-13.24 -51.43,-13.24l-48.18 -0 0 113.72 48.18 0zm-48.18 78.99l0 167.53 -114.15 0 0 -442.93 174.47 0c58.27,0 101.02,9.76 128.26,29.3 27.18,19.53 40.8,50.51 40.8,92.88 0,29.24 -7.11,53.28 -21.27,72.05 -14.05,18.83 -35.32,32.72 -63.8,41.67 15.63,3.47 29.57,11.5 41.88,24.09 12.43,12.59 24.96,31.63 37.54,57.07l62.07 125.87 -121.74 0 -53.82 -110.03c-11.01,-22.14 -22.08,-37.22 -33.2,-45.35 -11.18,-8.08 -26.04,-12.15 -44.7,-12.15l-32.33 0.01z"/>
</symbol>
<symbol id="Symbol4" viewBox="-1472.01 -1970.71 396.93 442.93">
 <polygon class="fil0" points="-1472.01,-1970.71 -1357.86,-1970.71 -1357.86,-1801.87 -1189.23,-1801.88 -1189.23,-1970.71 -1075.08,-1970.71 -1075.08,-1527.78 -1189.23,-1527.78 -1189.23,-1715.5 -1357.86,-1715.5 -1357.86,-1527.78 -1472.01,-1527.78 "/>
</symbol>
<symbol id="Symbol9" viewBox="-1501.75 -1868.05 356.78 348.96">
 <path class="fil0" d="M-1144.97 -1694.88l0 30.38 -248.49 0c2.6,24.9 11.56,43.57 26.91,55.99 15.46,12.48 37.11,18.67 64.89,18.67 22.24,0 45.14,-3.26 68.57,-9.76 23.44,-6.62 47.53,-16.71 72.26,-30.17l0 81.81c-25.07,9.55 -50.13,16.71 -75.3,21.48 -25.17,4.88 -50.29,7.38 -75.3,7.38 -60.22,0 -106.99,-15.24 -140.4,-45.79 -33.31,-30.65 -49.91,-73.57 -49.91,-128.69 0,-54.25 16.33,-96.84 49.04,-127.82 32.82,-31.09 77.91,-46.66 135.2,-46.66 52.19,0 94.02,15.79 125.43,47.31 31.36,31.41 47.09,73.35 47.09,125.87l0.01 0zm-109.16 -35.15c0,-20.24 -5.97,-36.51 -17.8,-48.83 -11.72,-12.43 -27.07,-18.67 -46.01,-18.67 -20.72,0 -37.49,5.81 -50.35,17.36 -12.75,11.61 -20.72,28.32 -23.87,50.13l138.02 0z"/>
</symbol>
<symbol id="Symbol10" viewBox="-1519.75 -1954.43 268.44 426.66">
 <path class="fil0" d="M-1360.68 -1954.43l0 94.4 109.37 0 0 75.96 -109.37 0 0 140.85c0,15.52 3.04,25.99 9.11,31.47 6.07,5.37 18.23,8.03 36.46,8.03l54.69 0 0 75.96 -91.15 0c-41.99,0 -71.72,-8.74 -89.19,-26.26 -17.52,-17.47 -26.26,-47.2 -26.26,-89.19l0 -140.85 -52.73 0 0 -75.96 52.73 0 0 -94.4 106.34 0z"/>
</symbol>
<symbol id="Symbol11" viewBox="-1501.72 -1868.06 336.15 348.96">
 <path class="fil0" d="M-1327.91 -1677.31c-22.14,0 -38.79,3.8 -49.91,11.28 -11.18,7.54 -16.71,18.61 -16.71,33.2 0,13.46 4.45,24.04 13.46,31.69 8.95,7.54 21.48,11.28 37.54,11.28 19.96,0 36.73,-7.16 50.35,-21.48 13.72,-14.32 20.62,-32.23 20.62,-53.82l0 -12.15 -55.34 0zm162.33 -40.15l0 189.67 -106.99 0 0 -49.26c-14.32,20.13 -30.38,34.83 -48.18,44.06 -17.8,9.22 -39.44,13.89 -64.89,13.89 -34.45,0 -62.44,-10.04 -83.98,-30.17 -21.43,-20.07 -32.12,-46.11 -32.12,-78.13 0,-39.06 13.35,-67.6 40.15,-85.72 26.91,-18.23 69.01,-27.34 126.3,-27.34l62.72 -0 0 -8.46c0,-16.76 -6.67,-29.08 -19.96,-36.89 -13.19,-7.81 -33.85,-11.72 -62.07,-11.72 -22.73,0 -43.83,2.33 -63.37,6.94 -19.53,4.5 -37.76,11.28 -54.69,20.4l0 -80.94c22.84,-5.64 45.68,-9.82 68.57,-12.59 23,-2.87 45.9,-4.34 68.79,-4.34 60,0 103.3,11.88 129.78,35.59 26.59,23.6 39.93,61.96 39.93,115.02l0 0z"/>
</symbol>
<symbol id="Symbol12" viewBox="-1476.78 -1868.05 246.96 340.28">
 <path class="fil0" d="M-1229.82 -1769.53c-9.44,-4.34 -18.77,-7.49 -28,-9.55 -9.11,-2.17 -18.34,-3.26 -27.56,-3.26 -27.34,0 -48.39,8.79 -63.15,26.26 -14.65,17.52 -21.92,42.64 -21.92,75.3l0 153 -106.33 -0 0 -332.25 106.34 0 0 54.47c13.56,-21.7 29.19,-37.54 46.87,-47.53 17.8,-9.98 39.06,-14.97 63.8,-14.97 3.47,0 7.27,0.16 11.5,0.43 4.18,0.33 10.2,0.98 18.01,1.95l0.43 96.13z"/>
</symbol>
<symbol id="Symbol8" viewBox="-1500.43 -1989.36 356.55 470.26">
 <path class="fil0" d="M-1250.65 -1811.42l0 -177.94 106.77 0 0 461.58 -106.77 0 0 -47.96c-14.65,19.53 -30.76,33.85 -48.39,42.97 -17.69,9.11 -38.09,13.67 -61.2,13.67 -40.96,0 -74.6,-16.28 -100.91,-48.83 -26.2,-32.55 -39.28,-74.44 -39.28,-125.65 0,-51.21 13.07,-93.1 39.28,-125.65 26.31,-32.55 59.95,-48.83 100.91,-48.83 23,0 43.3,4.67 60.98,13.89 17.8,9.11 33.96,23.38 48.61,42.75l0 -0.01zm-70.1 215.06c22.84,0 40.2,-8.3 52.08,-24.96 11.99,-16.6 18.01,-40.69 18.01,-72.26 0,-31.69 -6.02,-55.83 -18.01,-72.48 -11.88,-16.6 -29.24,-24.96 -52.08,-24.96 -22.57,0 -39.88,8.35 -51.87,24.96 -11.88,16.66 -17.8,40.8 -17.8,72.48 0,31.57 5.91,55.67 17.8,72.26 11.99,16.66 29.3,24.96 51.87,24.96z"/>
</symbol>
<symbol id="Symbol13" viewBox="-1497.63 -1978.74 376.96 459.65">
 <path class="fil0" d="M-1120.67 -1552.09c-21,10.85 -42.91,19.04 -65.76,24.52 -22.73,5.64 -46.39,8.46 -70.96,8.46 -73.78,0 -132.32,-20.62 -175.57,-61.85 -43.13,-41.23 -64.67,-97.22 -64.67,-167.97 0,-70.75 21.54,-126.74 64.67,-167.97 43.24,-41.23 101.78,-61.85 175.57,-61.85 24.57,0 48.23,2.77 70.96,8.25 22.84,5.54 44.76,13.78 65.76,24.74l0 91.58c-21.27,-14.43 -42.21,-25.01 -62.72,-31.69 -20.56,-6.78 -42.21,-10.2 -64.89,-10.2 -40.8,0 -72.86,13.13 -96.14,39.28 -23.33,26.04 -34.94,62.01 -34.94,107.85 0,45.74 11.61,81.7 34.94,107.85 23.28,26.04 55.34,39.06 96.14,39.06 22.68,0 44.33,-3.31 64.89,-9.98 20.51,-6.78 41.45,-17.41 62.72,-31.9l0 91.81z"/>
</symbol>
 <g id="Layer_x0020_1">
  <metadata id="CorelCorpID_0Corel-Layer"/>
  <circle class="fil1" cx="3108.68" cy="3055.43" r="2390.14"/>
  <g id="_2521249371936">
   <path class="fil2" d="M3698.06 3140.17c-9.81,-13.02 -19.98,-26.1 -30.72,-38.17 -4.88,-5.48 -9.9,-10.18 -14.94,-15.39 -7.07,-7.31 -12.63,-16.73 -17.83,-25.42 -16.61,-27.78 -32.34,-56.41 -48.2,-84.63 -4.43,-7.87 -17.65,-33.29 -25.94,-37.87 -4.43,-2.45 -9.46,-4.13 -14.12,-6.69 -11.03,-6.07 -21.59,-14.5 -31.13,-22.65 -38.15,-32.62 -44.35,-54.83 -45.6,-104.24 -0.39,-15.43 0.62,-30.24 3.09,-45.46 1.62,-9.98 4.02,-20.18 4.89,-30.23 1.14,-13.27 -1.15,-24.45 -5.92,-36.84 -3.81,-9.91 -8.81,-18.38 -14.53,-27.26 -16.57,-25.77 -24.51,-42.54 -29.5,-73.6 -8.02,-49.98 -4.94,-93.86 22.6,-137.27 16.76,-26.43 38.97,-49.6 57.17,-75.36 -40.74,-95.83 -41.72,-192.28 23.22,-277.58 20.76,-27.26 46.02,-50.45 73.46,-70.82 9.61,-7.14 19.44,-13.85 29.36,-20.54 3.98,-2.69 11.63,-7.39 14.84,-10.79 5.97,-6.3 12.8,-31.83 15.57,-40.62 7.15,-22.6 15.54,-44.94 29.41,-64.39 46.9,-65.81 128.02,-53.2 194.58,-28.83 21.74,7.96 45.53,18.57 62.95,34.2 11.08,9.94 16.89,19.59 24.74,31.8 6.96,10.84 13.4,18.16 24.46,25.12 21.22,13.35 42.19,19.69 66.61,24.08 18.82,3.39 39.98,5.48 57.16,14.26 21.47,10.97 32.52,30.37 39.52,52.71 11.66,37.2 13.44,85.73 13.66,125.43 118.52,8.67 168.9,67.92 188.74,182.07 57.65,7.3 119.83,23.72 155.56,73.13 22.18,30.67 31.11,69.13 36.44,105.98 6.82,47.18 9.02,95.91 13.32,143.52 99.3,72.13 160.92,199.59 195.77,313.99 44.48,146.04 58.42,308.29 46.87,460.21 -15.74,206.91 -82.82,433.79 -232.2,584.52 -73.58,74.25 -163.72,132.2 -266.25,156.27 -87.15,20.46 -177.71,14.67 -260.46,-20.12 -101.28,-42.57 -178.3,-122.88 -223.67,-222.22 -56.21,-123.09 -59.47,-263.8 -32.85,-394.72 3.39,-16.69 3.67,-32.81 1.34,-49.65 -2.85,-20.59 -9.22,-40.93 -14.83,-60.91 -6.43,-22.87 -11.8,-45.18 -15.04,-68.56 -27.92,11.28 -55.21,23.69 -82.61,36.22 -47.65,21.77 -93.8,41.56 -143.8,57.65 -31.33,10.08 -64.19,17.3 -96.43,23.83 -34.31,6.95 -68.83,12.95 -103.1,20.04 -17.06,3.53 -45.52,9.07 -62.44,17.07l14.48 689.21 -3.95 1.82c-139.46,64.43 -228.37,53.06 -369.94,5.66l-4.65 -1.56 17.05 -704.9c-114.75,-9.14 -213.33,-31.98 -320.98,-73.39 -55.78,-21.46 -110.56,-45.57 -166.02,-67.88 -3.57,23.13 -9.87,45.26 -16.38,67.81 -6.32,21.91 -12.89,44.54 -14.44,67.38 -0.66,9.71 -0.39,19.41 1.08,29.04 4.73,31.04 10.94,62.02 15.04,93.11 5.2,39.5 5.08,76.57 1.92,116.27 -9.43,118.36 -51.78,237.01 -133.99,324.54 -68.13,72.54 -154.54,115.98 -253.96,123.97 -147.76,11.88 -298.53,-56.54 -403.12,-158.59 -153.28,-149.54 -222.55,-374.91 -239.3,-583.54 -12.37,-154.12 1.8,-318.94 46.77,-467.16 34.61,-114.06 96.37,-244.04 195.64,-315.85 4.02,-47.46 6.09,-96.11 12.85,-143.14 5.27,-36.65 14.16,-74.8 36.17,-105.32 35.77,-49.62 98.35,-66.3 156.14,-73.94 20.78,-114.63 69.27,-172.84 188.59,-181.89 0.22,-48.46 2.06,-110.35 28.78,-151.05 16.15,-24.59 34.73,-39.15 63.89,-44.28 16.3,-2.87 32.92,-2.71 49.15,-6.24 19.97,-4.34 35.41,-13.54 49.79,-28.02 29.47,-29.69 52.58,-55.55 90.22,-76.47 54.28,-30.18 110.37,-30.99 166.26,-3.7 71.1,34.72 39.52,65.5 69.82,121.59 1.82,2.69 11.28,9.69 14.07,11.83 10.55,8.16 21.1,16.24 31.43,24.67 29.79,24.33 57.82,51.13 81.26,81.72 65.99,86.13 77.18,179.3 25.57,275.54 48.75,49.42 91.37,108.69 83.2,181.65 -4.8,42.92 -25.75,84.81 -43.77,123.57 -4.06,8.74 -6.47,17.91 -7.63,27.46 -2.91,24 1.9,49.52 4.28,73.47 5.11,51.41 -2.88,88.88 -44.29,124.37 -9.44,8.09 -19.88,16.43 -30.82,22.44 -4.72,2.6 -9.74,4.28 -14.26,6.75 -8.65,4.72 -21.7,29.56 -26.33,37.72 -11.02,19.43 -21.38,39.11 -31.89,58.8 -7.93,14.84 -16.03,29.68 -25.52,43.6 -15.6,22.87 -34.17,41.28 -55.04,58.73 56.33,20.28 113,35.54 172.4,44.63 79.5,12.17 160.66,13.2 240.97,12.84l-17.08 -1228.49 2.1 -2c91.05,-86.82 234.06,-96.41 340.8,-33.39 16.69,9.86 30.58,22.43 38.19,40.6 7.81,18.68 7.57,40.09 6.28,59.94 -1.72,26.59 -5.05,52.81 -6.11,79.53 -2.97,74.86 -4.5,149.76 -6.34,224.66 -7.06,286.4 -6.89,572.93 -9.88,859.39 81.22,-0.31 158.23,-4.59 238.44,-19.07 60.11,-10.85 119.7,-24.53 179.86,-35.71z"/>
   <g>
    <path class="fil3" d="M3632.91 2932.38c67.97,125.15 56.31,142.3 186.54,210.28 244.97,127.91 255.83,21.02 281.08,119.87 -66.36,23.98 -178.37,-16.38 -236.47,-42.73 -32.9,61.17 -55.74,168.35 -14.72,247.51 48.39,93.4 144.27,42.57 174.32,112.78 -61.44,54.2 -102.71,-22.97 -168.79,-15.03 -90.34,352.3 163.67,699.69 525.4,540.12 255.53,-112.71 392.1,-417.89 379.19,-790.33 -6.14,-176.65 -41.25,-347.86 -120.59,-467.55 -136.61,-206.05 -134.9,-120.39 -346.19,-234.09 -134.57,-72.42 -282.62,-132.69 -430.46,-32.26 -49.91,33.92 -106.47,106.1 -131.25,165.59 -66.46,159.62 -55.39,102.87 -98.06,185.84z"/>
    <path class="fil3" d="M2117.31 3262.81c24.33,-100.17 32.98,8.97 280.72,-120.38 96.13,-50.18 145.51,-99.23 186.61,-210.05 -18.87,-36.44 -37.15,-50.32 -60.49,-95.76 -44.43,-86.49 -57.03,-185.35 -178.02,-260.8 -156.39,-97.52 -287.7,-30.7 -428.16,43.22 -205.7,108.26 -212.91,24.13 -345,236.5 -191.18,307.38 -181.09,1063.26 273.85,1254.1 356.36,149.48 608.09,-204.59 517.83,-539.74 -14.57,-5.37 -5.13,-4.74 -26.69,-2.18l-61.41 20.75c-52.59,15.46 -49.63,20.1 -83.04,-7.65 19.14,-46.94 40.41,-32.11 95.29,-52.09 141.35,-51.42 108.76,-222.78 64.76,-308.77 -57.68,25.77 -169.79,66.55 -236.25,42.84z"/>
    <path class="fil4" d="M3632.91 2932.38c42.67,-82.96 31.59,-26.22 98.06,-185.84 24.78,-59.48 81.34,-131.67 131.25,-165.59 147.83,-100.43 295.89,-40.16 430.46,32.26 211.28,113.7 209.58,28.04 346.19,234.09 79.35,119.69 114.45,290.9 120.59,467.55 12.92,372.44 -123.66,677.61 -379.19,790.33 -361.73,159.57 -615.74,-187.83 -525.4,-540.12 66.08,-7.94 107.34,69.22 168.79,15.03 -30.06,-70.21 -125.93,-19.38 -174.32,-112.78 -41.02,-79.17 -18.17,-186.34 14.72,-247.51 58.09,26.35 170.11,66.71 236.47,42.73 -25.25,-98.85 -36.11,8.04 -281.08,-119.87 -130.23,-67.98 -118.57,-85.13 -186.54,-210.28zm-1515.6 330.43c66.46,23.71 178.57,-17.07 236.25,-42.84 44,85.99 76.59,257.35 -64.76,308.77 -54.88,19.98 -76.15,5.15 -95.29,52.09 33.41,27.74 30.45,23.11 83.04,7.65l61.41 -20.75c21.56,-2.56 12.11,-3.2 26.69,2.18 90.26,335.14 -161.47,689.21 -517.83,539.74 -454.94,-190.84 -465.03,-946.72 -273.85,-1254.1 132.09,-212.37 139.3,-128.24 345,-236.5 140.46,-73.93 271.78,-140.74 428.16,-43.22 121,75.45 133.6,174.31 178.02,260.8 23.34,45.44 41.61,59.32 60.49,95.76 -41.09,110.82 -90.47,159.87 -186.61,210.05 -247.74,129.35 -256.4,20.21 -280.72,120.38zm1104.2 -344.6l2.34 323.68c183.59,44.66 534.46,-68.64 565,-57.24 32.3,25.23 -5.19,112.95 -47.54,139.22 -170.36,105.67 -355.06,110.82 -514.17,151.79 -15.73,134.4 6.02,560.07 10.17,703.33 -74.86,41.23 -193.55,40.91 -255.28,-0.67l8.88 -693.31c-93.45,-47.44 -568,-64.99 -572.72,-258.81 -3.63,-148.84 355.44,126.28 567.33,7.91l-11.85 -1253.66c129.76,-40.8 132.96,-43.19 263.64,2.85l-15.83 934.92zm608.09 -1007.76c97.67,13 90.81,49.94 129.26,113.45 84.13,6.2 77.51,-5.76 142.61,25.42 14.41,51.22 10.73,113.5 11.38,176.33 303.25,19.06 97.82,133.88 230.43,181.03 3.83,1.36 7.58,2.44 11.61,3.65 12.3,3.71 30.69,5.05 46.74,9.39 108.53,29.33 109.5,127.3 109.75,222.6 -195.14,-37.52 -371.17,-226.53 -584.19,-152.17 -240.44,83.93 -238.11,303.91 -336.67,396.44 -55.5,-24.63 -71.78,-42.84 -61.57,-117.25 15.96,-116.39 28.68,-45.68 -23.36,-134.2 -71.7,-121.92 16.24,-192.53 84.42,-235.02 -34.37,-77.04 -92.03,-96.36 -33.67,-224.54 33.75,-74.09 77.22,-115.02 165.04,-131.87 1.07,-92.3 -3.75,-148.15 108.23,-133.26zm-1570.8 113.21c37.98,-63.63 31.67,-100.67 129.23,-113.31 111.66,-14.47 106.62,41.75 107.93,133.48 88.59,17.07 130.89,57.43 164.97,132.26 58.75,128.93 0.08,146.75 -33.78,224.99 74.78,44 150.81,110.8 84.55,233.34 -45.4,83.95 -36.65,24.8 -24.85,128.31 9.37,82.09 2.24,95.35 -59.7,123.82 -84.04,-75.53 -71.39,-152.92 -137.7,-241.7 -267.89,-358.72 -567.61,-44.44 -783.1,-2.48 0.08,-120.76 8.95,-198.39 121.01,-224.94 233.93,-55.44 -57.61,-169.39 277.28,-191.89 0.84,-100.75 -17.35,-105.98 21.27,-191.12l132.89 -10.74zm1911.5 155.69c-0.5,-249.15 -75.85,-155.42 -173.87,-217.09 -41.87,-26.34 -18.56,-56.72 -110.89,-90.51 -214.25,-78.43 -206.63,104.9 -232.45,132.17 -19.31,20.4 -247.18,125.24 -138.15,375.94 -45.93,66.73 -99.26,95.59 -80.77,210.8 9.02,56.19 30.56,65.43 43.67,99.53 16.55,43.07 -3.13,54.98 -1.63,114.75 1.26,49.72 7.93,69.14 43.27,99.36 54.25,46.38 37.05,5.65 72.67,69 92.1,163.82 36.59,62.95 117.65,171.46 -179.07,32.31 -225.86,56.57 -436.76,56.84 3.06,-288.16 2.88,-578.96 9.96,-866.21 1.84,-74.87 3.38,-149.91 6.34,-224.76 3.58,-90.06 25.46,-138.33 -35.11,-174.09 -115.49,-68.19 -253.17,-43.49 -332.83,32.48l17.13 1232.3c-172.67,0.92 -282.4,-5.77 -433.33,-61.84 68.69,-55.09 71.4,-81.14 119.91,-166.65 35.64,-62.83 19.36,-22.79 72.87,-68.67 84.72,-72.61 13.47,-153.26 45.93,-223.07 46.28,-99.53 85.46,-174.36 -41.61,-301.24 126.39,-227.45 -139.89,-373.13 -149.89,-391.65 -31.79,-58.85 1.06,-85.67 -66.96,-118.91 -128.12,-62.56 -215.89,45.7 -248.83,78.88 -60.59,61.02 -113.58,3.8 -161.99,77.5 -25.22,38.42 -27.56,96.43 -27.71,153.61 -122.32,7.39 -169.39,64.74 -189.52,181.65 -201.08,25 -188.05,129.96 -204.49,320.05 -291.17,206.4 -362.02,1009.68 -4.84,1358.18 171.65,167.46 459.29,235.33 647.6,34.82 72.09,-76.75 121.65,-188.11 132.2,-320.52 7.37,-92.57 -4.45,-125.98 -16.9,-207.85 -8.69,-56.99 22.79,-108.33 30.89,-174.56 166.31,66.28 276.63,127.79 499.21,144.46l-17.09 706.3c138.72,46.45 226.1,58.8 365.05,-5.39l-14.47 -689.03c37.15,-20.53 177.02,-34.39 266.67,-63.23 96.83,-31.16 151.25,-64.3 233.96,-96.9 9.57,83.6 42.57,125.67 29.54,189.8 -114.74,564.2 408.33,841.76 771.99,474.8 342.34,-345.45 284.07,-1139.43 -12.06,-1350.43 -17.45,-189.2 -3.25,-296.39 -204.71,-320.25 -19.04,-116.14 -67.93,-174.87 -189.63,-181.83z"/>
    <path class="fil3" d="M3237.34 1983.29c-130.69,-46.04 -133.88,-43.64 -263.64,-2.85l11.85 1253.66c-211.89,118.37 -570.96,-156.75 -567.33,-7.91 4.72,193.82 479.26,211.37 572.72,258.81l-8.88 693.31c61.72,41.58 180.41,41.9 255.28,0.67 -4.15,-143.27 -25.9,-568.94 -10.17,-703.33 159.11,-40.96 343.81,-46.12 514.17,-151.79 42.35,-26.27 79.83,-113.98 47.54,-139.22 -30.54,-11.39 -381.41,101.9 -565,57.24l-2.34 -323.68 15.83 -934.92z"/>
    <path class="fil3" d="M2428.69 2378.97c83.24,-0.6 168.95,83.98 113.45,171.19 -34.47,-13 -21.65,0.92 -36.44,-36.81 -7.01,-17.91 0.57,-27.28 -15.16,-53.31 -38.13,-63.07 -51.13,6.26 -61.84,-81.07zm-353 -43.06c89.07,-38.63 19.13,44.8 171.05,-40.24l34.25 -6.14c1.22,-3.3 5.92,2.64 8.88,3.98 25.7,73.57 -178.86,143.5 -214.18,42.4zm384.34 -186.54c51.06,98.1 -2.68,118.65 -2.89,118.89 -51.47,-29.22 -16.92,-28.13 -41.18,-88.65 -21.18,-52.84 -31.57,-22.72 -43.87,-83.93 46.45,0.67 69.06,17.4 87.95,53.7zm-201.23 -125.72l-132.89 10.74c-38.62,85.14 -20.43,90.37 -21.27,191.12 -334.89,22.51 -43.35,136.46 -277.28,191.89 -112.06,26.56 -120.93,104.18 -121.01,224.94 215.48,-41.97 515.2,-356.24 783.1,2.48 66.31,88.78 53.66,166.17 137.7,241.7 61.94,-28.48 69.07,-41.73 59.7,-123.82 -11.8,-103.51 -20.55,-44.36 24.85,-128.31 66.26,-122.54 -9.77,-189.33 -84.55,-233.34 33.87,-78.24 92.53,-96.07 33.78,-224.99 -34.09,-74.83 -76.39,-115.19 -164.97,-132.26 -1.3,-91.73 3.73,-147.95 -107.93,-133.48 -97.56,12.65 -91.24,49.68 -129.23,113.31z"/>
    <path class="fil3" d="M3661.35 2550.99c-48.79,-66.09 15.06,-179.93 111.33,-169 -10.91,74.59 -22.14,19.61 -60.48,77 -28.86,43.22 3.46,66.85 -50.85,92zm462.26 -209.48c-38.13,88.97 -221.69,26.2 -219.23,-34.59 2.69,-66.7 57.39,6.39 94.46,19.41 75.85,26.67 68.99,-24.38 124.78,15.18zm-356.11 -73.02c-8.2,-1.47 -89.12,17.77 -28.93,-107.88 21.13,-44.14 34.7,-68.52 89.54,-60.84 -7.43,114.32 -6.78,-58.06 -60.61,168.72zm-46.13 -224.77c-87.81,16.85 -131.29,57.78 -165.04,131.87 -58.36,128.18 -0.7,147.5 33.67,224.54 -68.17,42.48 -156.12,113.1 -84.42,235.02 52.04,88.52 39.32,17.8 23.36,134.2 -10.21,74.41 6.07,92.62 61.57,117.25 98.56,-92.53 96.23,-312.5 336.67,-396.44 213.02,-74.36 389.06,114.65 584.19,152.17 -0.25,-95.3 -1.22,-193.26 -109.75,-222.6 -16.05,-4.33 -34.44,-5.67 -46.74,-9.39 -4.03,-1.2 -7.78,-2.29 -11.61,-3.65 -132.61,-47.15 72.82,-161.97 -230.43,-181.03 -0.65,-62.83 3.03,-125.11 -11.38,-176.33 -65.11,-31.17 -58.48,-19.21 -142.61,-25.42 -38.45,-63.5 -31.59,-100.45 -129.26,-113.45 -111.98,-14.89 -107.16,40.96 -108.23,133.26z"/>
    <path class="fil4" d="M3904.39 2306.92c-2.46,60.79 181.1,123.56 219.23,34.59 -55.79,-39.56 -48.93,11.5 -124.78,-15.18 -37.06,-13.02 -91.76,-86.11 -94.46,-19.41z"/>
    <path class="fil4" d="M2075.69 2335.92c35.32,101.1 239.89,31.17 214.18,-42.4 -2.96,-1.34 -7.66,-7.28 -8.88,-3.98l-34.25 6.14c-151.92,85.04 -81.98,1.61 -171.05,40.24z"/>
    <path class="fil4" d="M3767.51 2268.48c53.83,-226.78 53.18,-54.4 60.61,-168.72 -54.83,-7.68 -68.4,16.7 -89.54,60.84 -60.19,125.65 20.73,106.41 28.93,107.88z"/>
    <path class="fil4" d="M2542.14 2550.17c55.5,-87.21 -30.2,-171.8 -113.45,-171.19 10.71,87.33 23.71,18 61.84,81.07 15.73,26.04 8.15,35.41 15.16,53.31 14.79,37.73 1.97,23.81 36.44,36.81z"/>
    <path class="fil4" d="M3661.35 2550.99c54.31,-25.15 21.99,-48.78 50.85,-92 38.34,-57.39 49.56,-2.41 60.48,-77 -96.27,-10.93 -160.12,102.91 -111.33,169z"/>
    <path class="fil4" d="M2457.14 2268.27c0.22,-0.24 53.95,-20.78 2.89,-118.89 -18.89,-36.3 -41.5,-53.03 -87.95,-53.7 12.3,61.21 22.69,31.09 43.87,83.93 24.26,60.52 -10.29,59.43 41.18,88.65z"/>
   </g>
   <path class="fil5" d="M2104.64 2225.53c-334.89,22.5 -43.35,136.46 -277.28,191.89 -112.06,26.56 -120.93,104.18 -121.02,224.94 215.49,-41.97 515.21,-356.24 783.1,2.48 66.31,88.78 53.67,166.17 137.7,241.7 61.94,-28.48 69.07,-41.73 59.7,-123.82 -11.8,-103.51 -20.55,-44.36 24.85,-128.31 66.26,-122.54 -9.77,-189.33 -84.55,-233.34 33.87,-78.24 92.53,-96.06 33.78,-224.99 -34.09,-74.83 -76.39,-115.19 -164.97,-132.26 -1.3,-91.73 3.73,-147.95 -107.93,-133.48 -97.56,12.65 -91.24,49.68 -129.23,113.31l-132.89 10.74c-38.62,85.14 -20.43,90.37 -21.27,191.12zm437.5 324.63c-34.47,-13 -21.65,0.92 -36.44,-36.81 -7.01,-17.9 0.57,-27.28 -15.16,-53.31 -38.13,-63.07 -51.13,6.26 -61.84,-81.07 83.24,-0.6 168.95,83.98 113.45,171.19zm-252.27 -256.65c25.7,73.57 -178.86,143.5 -214.18,42.4 89.07,-38.63 19.13,44.8 171.04,-40.24l34.26 -6.14c1.22,-3.3 5.92,2.64 8.88,3.98zm167.26 -25.25c-51.47,-29.21 -16.92,-28.13 -41.18,-88.65 -21.18,-52.84 -31.57,-22.72 -43.87,-83.93 46.45,0.67 69.06,17.4 87.95,53.7 51.06,98.1 -2.68,118.65 -2.89,118.89z"/>
   <path class="fil5" d="M3505.59 2635.13c52.04,88.52 39.32,17.81 23.36,134.2 -10.21,74.41 6.07,92.61 61.57,117.25 98.56,-92.54 96.23,-312.5 336.67,-396.44 213.02,-74.36 389.06,114.66 584.19,152.17 -0.25,-95.3 -1.22,-193.26 -109.75,-222.6 -16.05,-4.33 -34.44,-5.67 -46.74,-9.39 -4.03,-1.2 -7.78,-2.29 -11.61,-3.65 -132.61,-47.16 72.82,-161.98 -230.43,-181.04 -0.65,-62.83 3.02,-125.11 -11.38,-176.33 -65.11,-31.17 -58.48,-19.21 -142.61,-25.42 -38.45,-63.5 -31.59,-100.45 -129.26,-113.45 -111.98,-14.89 -107.16,40.96 -108.23,133.26 -87.81,16.85 -131.28,57.78 -165.04,131.87 -58.36,128.17 -0.7,147.5 33.67,224.54 -68.17,42.49 -156.11,113.1 -84.42,235.01zm155.77 -84.15c-48.79,-66.09 15.06,-179.93 111.33,-169 -10.91,74.59 -22.14,19.61 -60.48,77.01 -28.86,43.22 3.46,66.85 -50.85,92zm243.03 -244.07c2.7,-66.7 57.4,6.39 94.46,19.41 75.85,26.67 68.99,-24.38 124.78,15.18 -38.13,88.97 -221.69,26.2 -219.24,-34.59zm-136.87 -38.43c-8.2,-1.48 -89.12,17.77 -28.93,-107.88 21.13,-44.14 34.7,-68.52 89.54,-60.84 -7.43,114.32 -6.78,-58.06 -60.61,168.72z"/>
  </g>
 </g>
</svg>
