<?xml version="1.0" encoding="UTF-8"?>
<!DOCTYPE svg PUBLIC "-//W3C//DTD SVG 1.1//EN" "http://www.w3.org/Graphics/SVG/1.1/DTD/svg11.dtd">
<!-- Creator: CorelDRAW 2018 (64-Bit) -->
<svg xmlns="http://www.w3.org/2000/svg" xml:space="preserve" width="6.66666in" height="6.66666in" version="1.1" style="shape-rendering:geometricPrecision; text-rendering:geometricPrecision; image-rendering:optimizeQuality; fill-rule:evenodd; clip-rule:evenodd"
viewBox="0 0 6666.66 6666.66"
 xmlns:xlink="http://www.w3.org/1999/xlink">
 <defs>
  <style type="text/css">
   <![CDATA[
    .fil5 {fill:#EBECEC}
    .fil4 {fill:#7688A1}
    .fil1 {fill:#12A7A7}
    .fil0 {fill:black}
    .fil3 {fill:#3BB7AE}
    .fil6 {fill:#44269B}
    .fil2 {fill:white}
   ]]>
  </style>
 </defs>
<symbol id="Symbol12" viewBox="-1476.78 -1868.05 246.96 340.28">
 <path class="fil0" d="M-1229.82 -1769.53c-9.44,-4.34 -18.77,-7.49 -28,-9.55 -9.11,-2.17 -18.34,-3.26 -27.56,-3.26 -27.34,0 -48.39,8.79 -63.15,26.26 -14.65,17.52 -21.92,42.64 -21.92,75.3l0 153 -106.33 -0 0 -332.25 106.34 0 0 54.47c13.56,-21.7 29.19,-37.54 46.87,-47.53 17.8,-9.98 39.06,-14.97 63.8,-14.97 3.47,0 7.27,0.16 11.5,0.43 4.18,0.33 10.2,0.98 18.01,1.95l0.43 96.13z"/>
</symbol>
<symbol id="Symbol13" viewBox="-1497.63 -1978.74 376.96 459.65">
 <path class="fil0" d="M-1120.67 -1552.09c-21,10.85 -42.91,19.04 -65.76,24.52 -22.73,5.64 -46.39,8.46 -70.96,8.46 -73.78,0 -132.32,-20.62 -175.57,-61.85 -43.13,-41.23 -64.67,-97.22 -64.67,-167.97 0,-70.75 21.54,-126.74 64.67,-167.97 43.24,-41.23 101.78,-61.85 175.57,-61.85 24.57,0 48.23,2.77 70.96,8.25 22.84,5.54 44.76,13.78 65.76,24.74l0 91.58c-21.27,-14.43 -42.21,-25.01 -62.72,-31.69 -20.56,-6.78 -42.21,-10.2 -64.89,-10.2 -40.8,0 -72.86,13.13 -96.14,39.28 -23.33,26.04 -34.94,62.01 -34.94,107.85 0,45.74 11.61,81.7 34.94,107.85 23.28,26.04 55.34,39.06 96.14,39.06 22.68,0 44.33,-3.31 64.89,-9.98 20.51,-6.78 41.45,-17.41 62.72,-31.9l0 91.81z"/>
</symbol>
<symbol id="v" viewBox="-1523.88 -1585.07 47.75 58.37">
 <path class="fil0" d="M-1476.13 -1530.82c-2.6,1.3 -5.37,2.33 -8.25,3.04 -2.93,0.7 -5.97,1.09 -9.11,1.09 -9.28,0 -16.66,-2.6 -22.14,-7.81 -5.54,-5.21 -8.25,-12.37 -8.25,-21.48 0,-8.95 2.71,-16.06 8.25,-21.27 5.48,-5.21 12.86,-7.81 22.14,-7.81 3.15,0 6.19,0.38 9.11,1.09 2.87,0.76 5.64,1.74 8.25,3.04l0 11.72c-2.6,-1.85 -5.21,-3.26 -7.81,-4.12 -2.6,-0.87 -5.37,-1.3 -8.25,-1.3 -5.21,0 -9.33,1.68 -12.37,4.99 -2.93,3.36 -4.34,7.92 -4.34,13.67 0,5.97 1.41,10.58 4.34,13.89 3.04,3.36 7.16,4.99 12.37,4.99 2.87,0 5.64,-0.43 8.25,-1.3 2.61,-0.87 5.21,-2.22 7.81,-4.12l0 11.7z"/>
</symbol>
<symbol id="q" viewBox="-1490.67 -1823.14 264.76 295.36">
 <polygon class="fil0" points="-1490.67,-1823.14 -1405.6,-1823.14 -1298.18,-1620.67 -1298.18,-1823.14 -1225.91,-1823.14 -1225.91,-1527.78 -1310.98,-1527.78 -1418.41,-1730.47 -1418.41,-1527.78 -1490.67,-1527.78 "/>
</symbol>
<symbol id="n" viewBox="-1541.23 -1835.5 118.27 395.19">
 <path class="fil0" d="M-1493.71 -1749.35l70.75 0 0 217.67c0,29.62 -7.16,52.3 -21.48,67.93 -14.21,15.63 -34.83,23.44 -61.85,23.44l-34.94 0 0 -46.44 12.37 0c13.46,0 22.62,-3.04 27.56,-9.11 5.05,-6.07 7.59,-18.01 7.59,-35.81l-0 -217.67zm0 -86.15l70.75 0 0 57.72 -70.75 0 0 -57.72z"/>
</symbol>
<symbol id="m" viewBox="-1510.41 -1754.77 195.74 232.64">
 <path class="fil0" d="M-1314.67 -1742.41l0 57.72c-9.71,-6.51 -19.42,-11.34 -29.08,-14.54 -9.71,-3.15 -19.75,-4.78 -30.17,-4.78 -19.86,0 -35.26,5.81 -46.22,17.36 -11.01,11.45 -16.49,27.51 -16.49,48.18 0,20.83 5.48,37.06 16.49,48.61 10.96,11.45 26.37,17.15 46.22,17.15 11.12,0 21.59,-1.63 31.47,-4.99 9.98,-3.31 19.2,-8.14 27.78,-14.54l0 57.94c-11.18,4.07 -22.46,7.05 -33.85,9.11 -11.28,2.01 -22.73,3.04 -34.29,3.04 -39.93,0 -71.18,-10.2 -93.75,-30.6 -22.57,-20.51 -33.85,-49.1 -33.85,-85.72 0,-36.46 11.28,-64.94 33.85,-85.5 22.57,-20.51 53.82,-30.81 93.75,-30.81 11.56,0 23,1.09 34.29,3.26 11.28,2.06 22.57,5.1 33.85,9.11l-0 -0z"/>
</symbol>
<symbol id="o" viewBox="-1490.67 -1823.14 243.28 295.36">
 <path class="fil0" d="M-1490.67 -1823.14l126.52 0c37.6,0 66.46,8.41 86.59,25.17 20.07,16.66 30.17,40.36 30.17,71.18 0,30.98 -10.09,54.85 -30.17,71.61 -20.13,16.66 -48.99,24.96 -86.59,24.96l-50.35 0 0 102.43 -76.17 0 0 -295.36zm76.17 55.12l0 82.46 42.31 0c14.76,0 26.09,-3.53 34.07,-10.63 8.08,-7.22 12.15,-17.41 12.15,-30.6 0,-13.13 -4.07,-23.28 -12.15,-30.38 -7.98,-7.22 -19.31,-10.85 -34.07,-10.85l-42.31 -0z"/>
</symbol>
<symbol id="p" viewBox="-1496.1 -1749.35 222.66 227.21">
 <path class="fil0" d="M-1496.09 -1613.93l0 -135.42 71.18 0 0 22.14c0,12.04 -0.11,27.13 -0.22,45.35 -0.16,18.12 -0.22,30.17 -0.22,36.24 0,17.8 0.43,30.6 1.3,38.41 0.98,7.81 2.6,13.56 4.78,17.15 3.04,4.67 6.83,8.19 11.5,10.63 4.61,2.5 9.98,3.69 16.06,3.69 14.76,0 26.31,-5.64 34.72,-16.93 8.52,-11.28 12.8,-27.02 12.8,-47.31l0 -109.37 70.75 0 0 221.57 -70.75 0 0 -32.12c-10.74,13.02 -22.08,22.57 -34.07,28.65 -11.88,6.07 -24.96,9.11 -39.28,9.11 -25.61,0 -45.14,-7.81 -58.59,-23.44 -13.35,-15.73 -19.96,-38.52 -19.96,-68.36l0 0z"/>
</symbol>
<symbol id="s" viewBox="-1506.73 -1754.77 200.96 232.64">
 <path class="fil0" d="M-1320.75 -1742.41l0 53.82c-15.08,-6.35 -29.68,-11.12 -43.83,-14.32 -14.05,-3.15 -27.34,-4.78 -39.93,-4.78 -13.46,0 -23.44,1.74 -29.95,5.21 -6.51,3.36 -9.76,8.46 -9.76,15.41 0,5.64 2.44,9.98 7.38,13.02 4.88,3.04 13.78,5.31 26.69,6.73l12.37 1.95c36.3,4.5 60.66,12.04 73.13,22.57 12.59,10.58 18.88,27.13 18.88,49.7 0,23.6 -8.79,41.34 -26.26,53.17 -17.36,11.88 -43.35,17.8 -77.91,17.8 -14.65,0 -29.73,-1.19 -45.35,-3.47 -15.63,-2.17 -31.69,-5.54 -48.18,-10.2l0 -53.82c14.16,6.83 28.65,11.94 43.4,15.41 14.87,3.36 30,4.99 45.35,4.99 13.72,0 24.09,-1.85 31.03,-5.64 7.05,-3.74 10.63,-9.39 10.63,-16.93 0,-6.35 -2.5,-11.07 -7.38,-14.11 -4.78,-3.15 -14.32,-5.64 -28.65,-7.38l-12.37 -1.52c-31.57,-3.91 -53.71,-11.18 -66.41,-21.92 -12.59,-10.69 -18.88,-26.96 -18.88,-48.83 0,-23.44 8.03,-40.8 24.09,-52.08 16.06,-11.39 40.69,-17.15 74,-17.15 13.02,0 26.69,1.03 41.02,3.04 14.43,2.06 30.06,5.15 46.87,9.33l0 -0z"/>
</symbol>
<symbol id="r" viewBox="-1519.97 -1835.5 172.09 307.72">
 <path class="fil0" d="M-1347.88 -1835.5l0 46.44 -39.28 0c-9.98,0 -17.04,1.85 -21.05,5.43 -3.91,3.63 -5.86,9.93 -5.86,18.88l0 15.41 60.55 -0 0 50.56 -60.55 0 0 171 -70.74 0 0 -171 -35.16 0 0 -50.56 35.16 0 0 -15.41c0,-24.14 6.73,-41.94 20.18,-53.39 13.46,-11.56 34.29,-17.36 62.5,-17.36l54.25 0z"/>
</symbol>
<symbol id="h" viewBox="-1494.15 -1754.78 356.56 227">
 <path class="fil0" d="M-1288.42 -1712.46c8.95,-13.72 19.59,-24.2 31.9,-31.47 12.43,-7.22 26.04,-10.85 40.8,-10.85 25.44,0 44.81,7.92 58.16,23.65 13.29,15.63 19.96,38.41 19.96,68.36l0 134.98 -71.19 0 0 -115.45 0 -5.43c0.11,-1.85 0.22,-4.45 0.22,-7.81 0,-15.73 -2.33,-27.13 -6.94,-34.07 -4.5,-7.05 -11.94,-10.63 -22.35,-10.63 -13.46,0 -23.87,5.59 -31.25,16.71 -7.27,11.01 -11.01,27.02 -11.28,47.96l0 108.72 -71.18 0 0 -115.45c0,-24.57 -2.11,-40.36 -6.3,-47.31 -4.23,-7.05 -11.72,-10.63 -22.57,-10.63 -13.62,0 -24.09,5.59 -31.47,16.71 -7.38,11.18 -11.07,27.07 -11.07,47.74l0 108.94 -71.17 0 0 -221.57 71.18 0 0 32.33c8.68,-12.43 18.67,-21.81 29.95,-28.21 11.28,-6.35 23.71,-9.55 37.33,-9.55 15.3,0 28.86,3.69 40.58,11.07 11.72,7.38 20.62,17.8 26.69,31.25z"/>
</symbol>
<symbol id="f" viewBox="-1493.71 -1835.5 222.65 307.72">
 <path class="fil0" d="M-1271.06 -1662.76l0 134.98 -71.18 0 0 -102.86c0,-19.37 -0.43,-32.66 -1.3,-39.93 -0.87,-7.22 -2.33,-12.59 -4.34,-16.06 -2.77,-4.61 -6.51,-8.14 -11.28,-10.63 -4.78,-2.6 -10.2,-3.91 -16.28,-3.91 -14.76,0 -26.42,5.75 -34.94,17.15 -8.41,11.28 -12.59,27.07 -12.59,47.31l0 108.94 -70.75 -0 0 -307.72 70.74 0 0 118.49c10.69,-12.86 22.03,-22.35 34.07,-28.43 11.99,-6.19 25.23,-9.33 39.71,-9.33 25.61,0 44.98,7.92 58.16,23.65 13.29,15.63 19.96,38.41 19.96,68.36l0 -0z"/>
</symbol>
<symbol id="t" viewBox="-1493.71 -1835.5 70.75 307.72">
 <path class="fil0" d="M-1493.71 -1749.35l70.75 0 0 221.57 -70.75 0 0 -221.57zm0 -86.15l70.75 0 0 57.72 -70.75 0 0 -57.72z"/>
</symbol>
<symbol id="g" viewBox="-1493.71 -1754.78 222.65 227">
 <path class="fil0" d="M-1271.06 -1662.76l0 134.98 -71.18 0 0 -103.3c0,-19.1 -0.43,-32.23 -1.3,-39.5 -0.87,-7.22 -2.33,-12.59 -4.34,-16.06 -2.77,-4.61 -6.51,-8.14 -11.28,-10.63 -4.78,-2.6 -10.2,-3.91 -16.28,-3.91 -14.76,0 -26.42,5.75 -34.94,17.15 -8.41,11.28 -12.59,27.07 -12.59,47.31l0 108.94 -70.75 0 0 -221.57 70.74 0 0 32.33c10.69,-12.86 22.03,-22.35 34.07,-28.43 11.99,-6.19 25.23,-9.33 39.71,-9.33 25.61,0 44.98,7.92 58.16,23.65 13.29,15.63 19.96,38.41 19.96,68.36z"/>
</symbol>
<symbol id="j" viewBox="-1522.79 -1749.35 251.74 309.03">
 <path class="fil0" d="M-1522.79 -1749.35l70.75 0 59.68 150.39 50.56 -150.39 70.74 0 -93.1 242.63c-9.44,24.57 -20.34,41.78 -32.77,51.65 -12.48,9.82 -28.86,14.76 -49.26,14.76l-41.02 0 0 -46.44 22.14 0c11.99,0 20.72,-1.95 26.26,-5.86 5.48,-3.8 9.76,-10.63 12.8,-20.62l1.95 -6.07 -98.74 -230.04z"/>
</symbol>
<symbol id="c" viewBox="-1510.41 -1754.78 243.49 232.64">
 <path class="fil0" d="M-1388.24 -1704c-15.79,0 -27.78,5.64 -36.02,16.93 -8.24,11.29 -12.37,27.51 -12.37,48.61 0,21.27 4.12,37.54 12.37,48.83 8.25,11.28 20.24,16.93 36.02,16.93 15.3,0 27.02,-5.64 35.16,-16.93 8.25,-11.28 12.37,-27.56 12.37,-48.83 0,-21.1 -4.12,-37.33 -12.37,-48.61 -8.14,-11.28 -19.86,-16.93 -35.16,-16.93zm0 -50.78c38.03,0 67.76,10.36 89.19,31.03 21.38,20.56 32.12,48.99 32.12,85.29 0,36.46 -10.74,65 -32.12,85.5 -21.43,20.56 -51.16,30.81 -89.19,30.81 -38.36,0 -68.31,-10.25 -89.84,-30.81 -21.59,-20.51 -32.33,-49.04 -32.33,-85.5 0,-36.3 10.74,-64.72 32.33,-85.29 21.54,-20.67 51.48,-31.03 89.84,-31.03z"/>
</symbol>
<symbol id="i" viewBox="-1490.67 -1823.15 266.71 295.37">
 <path class="fil0" d="M-1382.38 -1692.28c15.9,0 27.34,-2.93 34.29,-8.9 6.94,-5.91 10.42,-15.68 10.42,-29.3 0,-13.29 -3.47,-22.84 -10.42,-28.65 -6.94,-5.91 -18.39,-8.9 -34.29,-8.9l-32.12 0 0 75.74 32.12 0zm-32.12 52.74l0 111.76 -76.17 -0 0 -295.36 116.32 0c38.9,0 67.38,6.51 85.5,19.53 18.23,13.02 27.34,33.74 27.34,62.07 0,19.42 -4.72,35.37 -14.11,47.96 -9.44,12.59 -23.65,21.86 -42.75,27.78 10.42,2.33 19.75,7.7 28,16.06 8.25,8.41 16.6,21.05 25.17,37.98l41.23 83.98 -81.16 -0 -35.81 -73.35c-7.38,-14.76 -14.87,-24.8 -22.35,-30.17 -7.38,-5.48 -17.25,-8.25 -29.52,-8.25l-21.7 0.01z"/>
</symbol>
<symbol id="l" viewBox="-1509.55 -1835.5 237.85 313.36">
 <path class="fil0" d="M-1343.1 -1717.02l0 -118.49 71.4 0 0 307.72 -71.4 0 0 -32.12c-9.71,13.19 -20.4,22.79 -32.12,28.86 -11.72,5.91 -25.33,8.9 -40.8,8.9 -27.34,0 -49.8,-10.74 -67.28,-32.33 -17.52,-21.7 -26.26,-49.7 -26.26,-83.98 0,-34.13 8.74,-62.07 26.26,-83.77 17.47,-21.7 39.93,-32.55 67.28,-32.55 15.3,0 28.86,3.15 40.58,9.33 11.83,6.07 22.62,15.57 32.33,28.43l0 0zm-46.66 143.44c15.19,0 26.75,-5.48 34.72,-16.49 7.92,-11.12 11.94,-27.24 11.94,-48.39 0,-20.94 -4.02,-37 -11.94,-48.18 -7.98,-11.12 -19.53,-16.71 -34.72,-16.71 -15.08,0 -26.59,5.59 -34.5,16.71 -7.98,11.18 -11.94,27.24 -11.94,48.18 0,21.16 3.96,37.27 11.94,48.39 7.92,11.01 19.42,16.49 34.5,16.49z"/>
</symbol>
<symbol id="d" viewBox="-1522.35 -1812.28 179.04 284.5">
 <path class="fil0" d="M-1416.45 -1812.28l0 62.93 73.13 0 0 50.56 -73.13 0 0 93.97c0,10.31 2.01,17.31 6.07,21.05 4.18,3.63 12.37,5.43 24.52,5.43l36.24 0 0 50.56 -60.55 0c-28.1,0 -47.96,-5.75 -59.68,-17.36 -11.61,-11.72 -17.36,-31.57 -17.36,-59.68l0 -93.97 -35.15 0 0 -50.56 35.15 0 0 -62.93 70.75 0z"/>
</symbol>
<symbol id="k" viewBox="-1493.7 -1835.5 237.85 313.36">
 <path class="fil0" d="M-1375.86 -1573.57c15.19,0 26.75,-5.48 34.72,-16.49 7.92,-11.12 11.94,-27.24 11.94,-48.39 0,-20.94 -4.02,-37 -11.94,-48.18 -7.98,-11.12 -19.53,-16.71 -34.72,-16.71 -15.19,0 -26.85,5.59 -34.94,16.71 -8.14,11.18 -12.15,27.24 -12.15,48.18 0,21 4.02,37.06 12.15,48.18 8.08,11.18 19.75,16.71 34.94,16.71zm-47.09 -143.44c9.82,-12.86 20.67,-22.35 32.55,-28.43 11.83,-6.19 25.44,-9.33 40.8,-9.33 27.34,0 49.75,10.85 67.28,32.55 17.63,21.7 26.48,49.64 26.48,83.77 0,34.29 -8.84,62.28 -26.48,83.98 -17.52,21.59 -39.93,32.33 -67.28,32.33 -15.35,0 -28.97,-3.04 -40.8,-9.11 -11.88,-6.07 -22.73,-15.63 -32.55,-28.65l0 32.12 -70.75 0 0 -307.72 70.75 0 0 118.48z"/>
</symbol>
<symbol id="b" viewBox="-1493.7 -1754.77 164.5 227">
 <path class="fil0" d="M-1329.21 -1689.02c-6.24,-2.87 -12.37,-4.99 -18.44,-6.3 -6.07,-1.41 -12.26,-2.17 -18.44,-2.17 -18.23,0 -32.28,5.86 -42.1,17.58 -9.87,11.61 -14.76,28.32 -14.76,50.13l0 102 -70.75 0 0 -221.57 70.74 0 0 36.46c9.11,-14.59 19.53,-25.23 31.25,-31.9 11.83,-6.62 26.04,-9.98 42.54,-9.98 2.44,0 5.05,0.16 7.81,0.43 2.71,0.16 6.73,0.6 11.94,1.3l0.22 64.02z"/>
</symbol>
<symbol id="u" viewBox="-1507.6 -1828.56 251.3 306.43">
 <path class="fil0" d="M-1256.3 -1544.06c-14.05,7.27 -28.65,12.7 -43.83,16.28 -15.19,3.74 -31.03,5.64 -47.53,5.64 -49.21,0 -88.22,-13.72 -116.97,-41.23 -28.65,-27.45 -42.97,-64.72 -42.97,-111.76 0,-47.31 14.32,-84.69 42.97,-112.2 28.76,-27.45 67.76,-41.23 116.97,-41.23 16.49,0 32.33,1.9 47.53,5.64 15.19,3.63 29.78,9.11 43.83,16.49l0 60.98c-14.21,-9.55 -28.16,-16.55 -41.88,-21.05 -13.62,-4.45 -28,-6.73 -43.19,-6.73 -27.24,0 -48.61,8.68 -64.24,26.04 -15.52,17.36 -23.22,41.4 -23.22,72.05 0,30.38 7.7,54.36 23.22,71.83 15.63,17.36 37,26.04 64.24,26.04 15.19,0 29.57,-2.22 43.19,-6.73 13.72,-4.45 27.67,-11.5 41.88,-21.05l0 60.99z"/>
</symbol>
<symbol id="a" viewBox="-1510.42 -1754.77 237.85 232.64">
 <path class="fil0" d="M-1272.57 -1639.11l0 20.18 -165.58 0c1.74,16.66 7.7,29.08 18.01,37.33 10.25,8.25 24.63,12.37 43.19,12.37 14.87,0 30.17,-2.17 45.79,-6.51 15.63,-4.45 31.69,-11.18 48.18,-20.18l0 54.69c-16.82,6.4 -33.58,11.18 -50.35,14.32 -16.82,3.15 -33.53,4.78 -50.13,4.78 -40.26,0 -71.5,-10.09 -93.75,-30.38 -22.14,-20.4 -33.2,-49.04 -33.2,-85.94 0,-36.02 10.91,-64.34 32.77,-85.07 21.81,-20.83 51.87,-31.25 90.06,-31.25 34.83,0 62.72,10.52 83.55,31.47 20.94,21 31.47,49.04 31.47,84.2l-0 -0zm-72.7 -23.65c0,-13.46 -4.02,-24.31 -11.94,-32.55 -7.81,-8.25 -18.01,-12.37 -30.6,-12.37 -13.78,0 -24.96,3.91 -33.64,11.72 -8.57,7.7 -13.83,18.77 -15.84,33.2l92.02 -0z"/>
</symbol>
<symbol id="Symbol1" viewBox="-1524.74 -1970.71 464.18 442.93">
 <path class="fil0" d="M-1203.13 -1608.51l-178.6 0 -28.21 80.73 -114.8 0 164.06 -442.93 136.07 0 164.06 442.93 -114.8 0 -27.77 -80.73zm-150.17 -82.25l121.31 0 -60.55 -176.22 -60.76 176.22z"/>
</symbol>
<symbol id="e" viewBox="-1510.41 -1754.77 224.18 232.63">
 <path class="fil0" d="M-1394.53 -1627.39c-14.76,0 -25.93,2.55 -33.42,7.59 -7.38,4.94 -11.07,12.26 -11.07,21.92 0,9.01 2.93,16 8.9,21.05 6.07,5.1 14.43,7.59 25.17,7.59 13.29,0 24.52,-4.78 33.64,-14.32 9.11,-9.55 13.67,-21.48 13.67,-35.81l0 -8.03 -36.89 0zm108.29 -26.91l0 126.52 -71.4 0 0 -32.77c-9.55,13.46 -20.29,23.22 -32.12,29.3 -11.88,6.07 -26.26,9.11 -43.19,9.11 -23,0 -41.67,-6.62 -55.99,-19.96 -14.32,-13.46 -21.48,-30.81 -21.48,-52.08 0,-26.04 8.9,-45.14 26.69,-57.29 17.91,-12.15 46.06,-18.23 84.42,-18.23l41.67 0 0 -5.43c0,-11.28 -4.45,-19.53 -13.24,-24.74 -8.84,-5.21 -22.68,-7.81 -41.45,-7.81 -15.08,0 -29.19,1.52 -42.32,4.56 -13.02,3.04 -25.12,7.59 -36.24,13.67l0 -54.04c15.03,-3.58 30.22,-6.35 45.57,-8.25 15.3,-2.01 30.65,-3.04 46.01,-3.04 39.93,0 68.69,7.92 86.37,23.65 17.8,15.79 26.69,41.4 26.69,76.82l-0 -0z"/>
</symbol>
<symbol id="Symbol3" viewBox="-1472.01 -1970.72 399.95 442.93">
 <path class="fil0" d="M-1309.68 -1774.31c23.87,0 41.02,-4.39 51.43,-13.24 10.42,-8.95 15.63,-23.65 15.63,-44.06 0,-20.07 -5.21,-34.5 -15.63,-43.19 -10.42,-8.79 -27.56,-13.24 -51.43,-13.24l-48.18 -0 0 113.72 48.18 0zm-48.18 78.99l0 167.53 -114.15 0 0 -442.93 174.47 0c58.27,0 101.02,9.76 128.26,29.3 27.18,19.53 40.8,50.51 40.8,92.88 0,29.24 -7.11,53.28 -21.27,72.05 -14.05,18.83 -35.32,32.72 -63.8,41.67 15.63,3.47 29.57,11.5 41.88,24.09 12.43,12.59 24.96,31.63 37.54,57.07l62.07 125.87 -121.74 0 -53.82 -110.03c-11.01,-22.14 -22.08,-37.22 -33.2,-45.35 -11.18,-8.08 -26.04,-12.15 -44.7,-12.15l-32.33 0.01z"/>
</symbol>
<symbol id="Symbol2" viewBox="-1472.01 -1970.71 314.89 442.93">
 <polygon class="fil0" points="-1472.01,-1970.71 -1163.63,-1970.71 -1163.63,-1884.33 -1357.85,-1884.34 -1357.85,-1801.87 -1175.34,-1801.87 -1175.34,-1715.5 -1357.85,-1715.5 -1357.85,-1614.15 -1157.12,-1614.15 -1157.12,-1527.78 -1472.01,-1527.78 "/>
</symbol>
<symbol id="Symbol6" viewBox="-1520.4 -1860.03 377.82 463.33">
 <path class="fil0" d="M-1520.4 -1860.03l106.33 0 89.19 225.47 75.96 -225.47 106.34 0 -139.75 363.72c-14.05,37 -30.49,62.83 -49.26,77.47 -18.67,14.76 -43.35,22.14 -74,22.14l-61.42 0 0 -69.66 33.2 0c18.07,0 31.14,-2.93 39.28,-8.68 8.25,-5.64 14.65,-15.95 19.31,-30.81l2.82 -9.11 -148.01 -345.06z"/>
</symbol>
<symbol id="Symbol5" viewBox="-1484.16 -1978.74 349.61 459.63">
 <path class="fil0" d="M-1163.63 -1956.82l0 93.75c-24.47,-10.85 -48.29,-18.99 -71.4,-24.52 -23.17,-5.64 -45.03,-8.46 -65.54,-8.46 -27.24,0 -47.42,3.8 -60.55,11.28 -13.02,7.54 -19.53,19.26 -19.53,35.16 0,11.88 4.39,21.16 13.24,27.78 8.79,6.51 24.8,12.15 47.96,16.93l48.61 9.76c49.15,9.98 84.2,25.07 105.04,45.14 20.83,20.13 31.25,48.77 31.25,85.94 0,48.94 -14.54,85.29 -43.62,109.16 -28.97,23.87 -73.24,35.81 -132.81,35.81 -28.1,0 -56.31,-2.71 -84.64,-8.03 -28.21,-5.31 -56.43,-13.29 -84.64,-23.87l0 -96.35c28.21,15.08 55.45,26.42 81.81,34.07 26.48,7.54 51.98,11.28 76.61,11.28 24.85,0 43.89,-4.12 57.07,-12.37 13.29,-8.35 19.96,-20.24 19.96,-35.59 0,-13.89 -4.5,-24.57 -13.46,-32.12 -9.01,-7.49 -26.91,-14.21 -53.82,-20.18l-44.27 -9.76c-44.27,-9.55 -76.71,-24.63 -97.22,-45.35 -20.4,-20.83 -30.6,-48.83 -30.6,-83.98 0,-44.11 14.21,-78.02 42.75,-101.78 28.48,-23.71 69.44,-35.59 122.83,-35.59 24.31,0 49.31,1.85 75.09,5.43 25.72,3.63 52.35,9.11 79.86,16.49l0 0z"/>
</symbol>
<symbol id="Symbol4" viewBox="-1472.01 -1970.71 396.93 442.93">
 <polygon class="fil0" points="-1472.01,-1970.71 -1357.86,-1970.71 -1357.86,-1801.87 -1189.23,-1801.88 -1189.23,-1970.71 -1075.08,-1970.71 -1075.08,-1527.78 -1189.23,-1527.78 -1189.23,-1715.5 -1357.86,-1715.5 -1357.86,-1527.78 -1472.01,-1527.78 "/>
</symbol>
<symbol id="Symbol8" viewBox="-1500.43 -1989.36 356.55 470.26">
 <path class="fil0" d="M-1250.65 -1811.42l0 -177.94 106.77 0 0 461.58 -106.77 0 0 -47.96c-14.65,19.53 -30.76,33.85 -48.39,42.97 -17.69,9.11 -38.09,13.67 -61.2,13.67 -40.96,0 -74.6,-16.28 -100.91,-48.83 -26.2,-32.55 -39.28,-74.44 -39.28,-125.65 0,-51.21 13.07,-93.1 39.28,-125.65 26.31,-32.55 59.95,-48.83 100.91,-48.83 23,0 43.3,4.67 60.98,13.89 17.8,9.11 33.96,23.38 48.61,42.75l0 -0.01zm-70.1 215.06c22.84,0 40.2,-8.3 52.08,-24.96 11.99,-16.6 18.01,-40.69 18.01,-72.26 0,-31.69 -6.02,-55.83 -18.01,-72.48 -11.88,-16.6 -29.24,-24.96 -52.08,-24.96 -22.57,0 -39.88,8.35 -51.87,24.96 -11.88,16.66 -17.8,40.8 -17.8,72.48 0,31.57 5.91,55.67 17.8,72.26 11.99,16.66 29.3,24.96 51.87,24.96z"/>
</symbol>
<symbol id="Symbol7" viewBox="-1476.78 -1989.36 356.76 470.26">
 <path class="fil0" d="M-1299.92 -1596.35c22.68,0 40.04,-8.3 52.08,-24.96 11.99,-16.6 18.01,-40.69 18.01,-72.26 0,-31.69 -6.02,-55.83 -18.01,-72.48 -12.04,-16.6 -29.41,-24.96 -52.08,-24.96 -22.73,0 -40.15,8.41 -52.3,25.17 -12.15,16.66 -18.23,40.74 -18.23,72.26 0,31.41 6.07,55.5 18.23,72.26 12.15,16.66 29.57,24.96 52.3,24.96l0 0zm-70.53 -215.06c14.59,-19.37 30.81,-33.64 48.61,-42.75 17.8,-9.22 38.25,-13.89 61.41,-13.89 40.91,0 74.54,16.28 100.91,48.83 26.31,32.55 39.5,74.44 39.5,125.65 0,51.21 -13.19,93.1 -39.5,125.65 -26.37,32.55 -60,48.83 -100.91,48.83 -23.17,0 -43.62,-4.67 -61.41,-13.89 -17.8,-9.22 -34.02,-23.49 -48.61,-42.75l0 47.96 -106.33 0.01 0 -461.58 106.33 0 0 177.94z"/>
</symbol>
<symbol id="Symbol11" viewBox="-1501.72 -1868.06 336.15 348.96">
 <path class="fil0" d="M-1327.91 -1677.31c-22.14,0 -38.79,3.8 -49.91,11.28 -11.18,7.54 -16.71,18.61 -16.71,33.2 0,13.46 4.45,24.04 13.46,31.69 8.95,7.54 21.48,11.28 37.54,11.28 19.96,0 36.73,-7.16 50.35,-21.48 13.72,-14.32 20.62,-32.23 20.62,-53.82l0 -12.15 -55.34 0zm162.33 -40.15l0 189.67 -106.99 0 0 -49.26c-14.32,20.13 -30.38,34.83 -48.18,44.06 -17.8,9.22 -39.44,13.89 -64.89,13.89 -34.45,0 -62.44,-10.04 -83.98,-30.17 -21.43,-20.07 -32.12,-46.11 -32.12,-78.13 0,-39.06 13.35,-67.6 40.15,-85.72 26.91,-18.23 69.01,-27.34 126.3,-27.34l62.72 -0 0 -8.46c0,-16.76 -6.67,-29.08 -19.96,-36.89 -13.19,-7.81 -33.85,-11.72 -62.07,-11.72 -22.73,0 -43.83,2.33 -63.37,6.94 -19.53,4.5 -37.76,11.28 -54.69,20.4l0 -80.94c22.84,-5.64 45.68,-9.82 68.57,-12.59 23,-2.87 45.9,-4.34 68.79,-4.34 60,0 103.3,11.88 129.78,35.59 26.59,23.6 39.93,61.96 39.93,115.02l0 0z"/>
</symbol>
<symbol id="Symbol9" viewBox="-1501.75 -1868.05 356.78 348.96">
 <path class="fil0" d="M-1144.97 -1694.88l0 30.38 -248.49 0c2.6,24.9 11.56,43.57 26.91,55.99 15.46,12.48 37.11,18.67 64.89,18.67 22.24,0 45.14,-3.26 68.57,-9.76 23.44,-6.62 47.53,-16.71 72.26,-30.17l0 81.81c-25.07,9.55 -50.13,16.71 -75.3,21.48 -25.17,4.88 -50.29,7.38 -75.3,7.38 -60.22,0 -106.99,-15.24 -140.4,-45.79 -33.31,-30.65 -49.91,-73.57 -49.91,-128.69 0,-54.25 16.33,-96.84 49.04,-127.82 32.82,-31.09 77.91,-46.66 135.2,-46.66 52.19,0 94.02,15.79 125.43,47.31 31.36,31.41 47.09,73.35 47.09,125.87l0.01 0zm-109.16 -35.15c0,-20.24 -5.97,-36.51 -17.8,-48.83 -11.72,-12.43 -27.07,-18.67 -46.01,-18.67 -20.72,0 -37.49,5.81 -50.35,17.36 -12.75,11.61 -20.72,28.32 -23.87,50.13l138.02 0z"/>
</symbol>
<symbol id="Symbol10" viewBox="-1519.75 -1954.43 268.44 426.66">
 <path class="fil0" d="M-1360.68 -1954.43l0 94.4 109.37 0 0 75.96 -109.37 0 0 140.85c0,15.52 3.04,25.99 9.11,31.47 6.07,5.37 18.23,8.03 36.46,8.03l54.69 0 0 75.96 -91.15 0c-41.99,0 -71.72,-8.74 -89.19,-26.26 -17.52,-17.47 -26.26,-47.2 -26.26,-89.19l0 -140.85 -52.73 0 0 -75.96 52.73 0 0 -94.4 106.34 0z"/>
</symbol>
 <g id="Layer_x0020_1">
  <metadata id="CorelCorpID_0Corel-Layer"/>
  <circle class="fil1" cx="3108.68" cy="3055.43" r="2390.14"/>
  <g id="_2521250737984">
   <path class="fil2" d="M2464.75 2096.52c97.36,-7.68 180.14,-108.16 166.9,-204.25 -14.78,-107.2 -99.77,-177.82 -209.89,-169.15 -113.01,8.91 -181.71,131.78 -168.05,205.65 19.65,106.22 99.18,176.56 211.04,167.74z"/>
   <path class="fil2" d="M3495.98 1865.9c-51.33,244.46 304.93,330.11 366.15,84.54 24.94,-100.09 -40.19,-199.92 -139.4,-223.45 -97.1,-23.04 -205.66,38.43 -226.75,138.91z"/>
   <path class="fil2" d="M3261 2567.8l833.99 0c0.61,-87.72 -67.48,-204.96 -131.25,-264.07 -75.81,-70.3 -181.7,-109.59 -285.74,-109.59 -102.29,0 -210.43,38.92 -282.99,112.35 -94.68,95.81 -103.2,134.81 -134.01,261.32z"/>
   <path class="fil2" d="M2026.26 2567.8l833.99 0c-21.22,-211.3 -205.2,-373.82 -416.99,-373.82 -121.08,0 -192.42,39.75 -284.8,110.69 -63.01,48.39 -130.35,183.79 -132.2,263.13z"/>
   <path class="fil2" d="M2526.73 3207.83l-192.35 436.64c23.31,23.25 61.98,28.15 89.7,47.27 37.78,26.04 31.82,55.22 50.1,82.06 55.87,-29.11 91.34,-45.49 156.56,-17.94 51.34,21.69 69.08,60.37 86.8,108.56 41.59,9.67 54.65,-4.85 102.82,26.74 48.22,31.62 34.02,44.99 61.47,73.55 10.11,4.6 53.48,-16.11 115.74,20.02 39.77,23.06 44.85,53.15 68.78,77.85 34.44,-0.69 32.87,-7.38 73.24,2.14 49.57,11.69 67.01,43.95 99.33,63.16l159.43 89.71c46.35,25.51 95.02,-8.61 83.85,-61.76 -11.92,-56.81 -281.43,-146.53 -295.24,-204.14 -5.15,-21.52 5.3,-42.18 25.17,-52.09 23.77,-11.85 40.61,-2.71 61.5,9.42 70.74,41.08 139.91,79.68 211.11,119.24 29.59,16.43 83.78,55.98 114.99,48.55 46.02,-10.96 57.32,-66.11 23.94,-95.41l-210.02 -120.34c-34.64,-20.9 -86.33,-40.55 -63.74,-88.27 24.73,-52.22 77.64,-12.94 109.58,4.52 32.8,17.93 193.03,114.03 213.69,117.12 56.83,8.5 90.19,-42.76 57.72,-85.23 -13.13,-17.17 -274.09,-161.98 -309.76,-183.08 -105.82,-62.58 -128.85,-64.02 -245.31,-17.04 -172.65,69.65 -341.8,130.26 -473.77,-49.22 -30.51,-41.49 -0.84,-78.84 36.63,-100.9 60.2,-35.45 256.08,-176.56 267.76,-219.64 -19.85,-0.42 -47.02,-7.64 -66.57,-9.6 -41.82,-4.2 -145.07,25.75 -187.56,31.65 -134.08,18.63 -157.97,-38.15 -225.6,-53.55z"/>
   <path class="fil2" d="M3189.52 3238.25c-71.38,28.53 -138.43,95.11 -192.37,148.81 -28.62,28.48 -183.31,136.55 -188.36,145.41 13.08,35.22 99.13,55.62 135.06,50.94 53.08,-6.91 97.69,-23.22 146.95,-43.14 98.06,-39.65 202.63,-87.63 305.67,-35.67l370 209.34c32.33,22.23 21.77,30.85 61.78,11.66 19.71,-9.44 46.56,-14.75 62.65,-28.44 0.76,-10.02 -159.2,-431.9 -171.8,-448.07 -49.63,0.6 -75.48,90.23 -261.67,15.83 -98.81,-39.48 -161.15,-69.34 -267.91,-26.67z"/>
   <path class="fil2" d="M3057.44 4173.03c-4.37,5.39 -65.17,121.37 -71.3,134.65 -30.73,66.61 53.72,106 93.98,61.32 13.15,-14.6 61.42,-110.44 72.56,-133.22 28.01,-57.25 -55.13,-112.09 -95.24,-62.75z"/>
   <path class="fil2" d="M2871.03 4084.1l-74.39 142.31c-34.49,75 65.22,109.44 98.11,54.7 23.15,-38.54 53.54,-101.67 73.81,-142.81 30.75,-62.42 -61.5,-114.01 -97.53,-54.21z"/>
   <path class="fil2" d="M2680.49 4007.28c-19.65,33.11 -76.92,125.57 -87.56,156.43 -23.32,67.61 70.76,121.43 113.99,32.47 26.46,-54.46 56.42,-107.02 82.93,-160.76 14.39,-29.19 -8.72,-65.86 -40.38,-73.94 -45.11,-11.52 -55.87,23.7 -68.98,45.81z"/>
   <path class="fil2" d="M2518.02 3866.48c-11.11,15.35 -69.91,124.61 -73.09,138.7 -14.06,62.13 66.25,102.89 102.5,42.34 21.26,-35.52 62.21,-100.77 74.54,-136.66 20.75,-60.39 -64.42,-98.99 -103.95,-44.38z"/>
   <path class="fil2" d="M3251.02 4247.75l-44.64 96.81c107.63,83.02 151.87,-82.87 44.64,-96.81z"/>
   <path class="fil3" d="M3891.48 3426.58c33.73,88.69 68.69,172.82 101.42,261.43 32.99,89.3 30.5,104.92 71.52,90 25.64,-9.33 111.29,-40.57 127.04,-52.28 2.68,-33.88 -49.37,-152.08 -63.99,-188.54 -34.46,-85.96 -193.49,-515.12 -212.44,-534.9 -22.7,-1.93 -110.41,34.74 -136.16,45.59 -33.71,14.2 -25.18,25.2 -12.84,54.53l125.44 324.19zm-5.89 -271.8c-60.73,23.83 -104.85,-60.71 -39.71,-88.75 65.68,-28.27 98.77,65.58 39.71,88.75z"/>
   <path class="fil3" d="M2407.16 3111.46c-59.6,23.39 -104.7,-60.78 -39.72,-88.75 67.7,-29.14 97.29,66.16 39.72,88.75zm-189.07 557.98c44.97,-107.81 278.63,-607.09 279.32,-647.34 -21.35,-17.79 -129.66,-64.36 -156.95,-64.47 -15.39,17.85 -72.63,154.85 -80.55,174.17l-156.02 353.04c-15.9,33.11 -73.55,151.81 -71.21,181.31 19.22,15.13 79.67,36.03 107.3,49.76 62.16,30.89 54.09,11.11 78.11,-46.48z"/>
   <path class="fil4" d="M2367.44 3022.7c-64.98,27.97 -19.88,112.15 39.72,88.75 57.57,-22.59 27.98,-117.89 -39.72,-88.75z"/>
   <path class="fil5" d="M3845.88 3066.03c-65.13,28.04 -21.02,112.58 39.71,88.75 59.06,-23.17 25.97,-117.02 -39.71,-88.75z"/>
   <g>
    <path class="fil6" d="M3206.38 4344.56l44.64 -96.81c107.23,13.94 63,179.83 -44.64,96.81zm-53.69 -108.77c-11.14,22.78 -59.41,118.61 -72.56,133.22 -40.26,44.69 -124.7,5.3 -93.98,-61.32 6.13,-13.28 66.93,-129.26 71.3,-134.65 40.11,-49.33 123.25,5.5 95.24,62.75zm-184.12 -97.48c-20.28,41.14 -50.67,104.27 -73.81,142.81 -32.88,54.74 -132.6,20.29 -98.11,-54.7l74.39 -142.31c36.03,-59.8 128.28,-8.21 97.53,54.21zm-178.71 -102.9c-26.51,53.75 -56.47,106.3 -82.93,160.76 -43.23,88.96 -137.31,35.15 -113.99,-32.47 10.64,-30.85 67.91,-123.31 87.56,-156.43 13.11,-22.11 23.87,-57.33 68.98,-45.81 31.65,8.08 54.77,44.75 40.38,73.94zm-167.88 -124.56c-12.33,35.89 -53.28,101.14 -74.54,136.66 -36.25,60.55 -116.56,19.79 -102.5,-42.34 3.19,-14.08 61.98,-123.35 73.09,-138.7 39.53,-54.61 124.7,-16.01 103.95,44.38zm186.82 -378.38c5.05,-8.87 159.74,-116.93 188.36,-145.41 53.94,-53.7 120.99,-120.28 192.37,-148.81 106.76,-42.67 169.09,-12.81 267.91,26.67 186.19,74.4 212.04,-15.22 261.67,-15.83 12.59,16.17 172.55,438.06 171.8,448.07 -16.09,13.69 -42.94,18.99 -62.65,28.44 -40,19.19 -29.45,10.57 -61.78,-11.66l-370 -209.34c-103.04,-51.97 -207.61,-3.98 -305.67,35.67 -49.26,19.92 -93.87,36.23 -146.95,43.14 -35.92,4.69 -121.98,-15.72 -135.06,-50.94zm257.56 530.11c-23.93,-24.7 -29,-54.79 -68.78,-77.85 -62.27,-36.12 -105.64,-15.42 -115.74,-20.02 -27.45,-28.56 -13.25,-41.93 -61.47,-73.55 -48.18,-31.59 -61.23,-17.08 -102.82,-26.74 -17.72,-48.19 -35.45,-86.87 -86.8,-108.56 -65.22,-27.55 -100.69,-11.17 -156.56,17.94 -18.28,-26.84 -12.33,-56.02 -50.1,-82.06 -27.73,-19.11 -66.39,-24.02 -89.7,-47.27l192.35 -436.64c67.63,15.39 91.52,72.18 225.6,53.55 42.5,-5.9 145.74,-35.85 187.56,-31.65 19.56,1.96 46.72,9.18 66.57,9.6 -11.67,43.09 -207.56,184.19 -267.76,219.64 -37.47,22.06 -67.14,59.41 -36.63,100.9 131.98,179.49 301.12,118.87 473.77,49.22 116.45,-46.98 139.48,-45.55 245.31,17.04 35.67,21.1 296.63,165.91 309.76,183.08 32.46,42.47 -0.89,93.73 -57.72,85.23 -20.66,-3.09 -180.89,-99.19 -213.69,-117.12 -31.94,-17.46 -84.85,-56.74 -109.58,-4.52 -22.59,47.72 29.1,67.37 63.74,88.27l210.02 120.34c33.38,29.3 22.08,84.45 -23.94,95.41 -31.21,7.43 -85.4,-32.12 -114.99,-48.55 -71.21,-39.56 -140.37,-78.16 -211.11,-119.24 -20.89,-12.13 -37.73,-21.27 -61.5,-9.42 -19.87,9.91 -30.32,30.56 -25.17,52.09 13.81,57.61 283.32,147.33 295.24,204.14 11.16,53.15 -37.5,87.26 -83.85,61.76l-159.43 -89.71c-32.33,-19.21 -49.76,-51.47 -99.33,-63.16 -40.37,-9.52 -38.81,-2.83 -73.24,-2.14zm848.69 -1060.31c18.95,19.78 177.98,448.94 212.44,534.9 14.62,36.46 66.67,154.66 63.99,188.54 -15.75,11.71 -101.4,42.96 -127.04,52.28 -41.02,14.92 -38.54,-0.69 -71.52,-90 -32.73,-88.6 -67.69,-172.73 -101.42,-261.43l-125.44 -324.19c-12.34,-29.33 -20.87,-40.33 12.84,-54.53 25.75,-10.85 113.46,-47.52 136.16,-45.59zm-1882.36 663.87c-2.34,-29.5 55.31,-148.21 71.21,-181.31l156.02 -353.04c7.92,-19.32 65.15,-156.32 80.55,-174.17 27.3,0.11 135.6,46.68 156.95,64.47 -0.69,40.25 -234.35,539.54 -279.32,647.34 -24.02,57.58 -15.95,77.37 -78.11,46.48 -27.63,-13.73 -88.08,-34.63 -107.3,-49.76zm264.36 70.48c67.51,37.81 72.16,4.35 89.72,95.28 18.96,98.21 4.17,46.49 -28.05,129.77 -27.67,71.54 -4.33,145.21 62.69,187.66 29.01,18.37 44.48,13.57 66.45,25.61 14.5,14.99 -7.7,71 67.61,132.76 70.26,57.62 146.33,14.3 156.74,18.89 30.52,31.28 20.83,39.04 70.18,62.88 49.89,24.11 63.43,12.39 110.82,6.46 14.24,3.87 25.3,66.74 116.25,86.07 74.86,15.91 98.29,-21.08 148.09,-53.2 16.96,3.89 126.2,90.03 221.11,-26.63 24.25,-29.81 19.48,-50.57 32.31,-75.99 43.56,-16.98 69.26,-0.05 119.39,-43.08 45.36,-38.95 33.8,-73.91 53.72,-108.75 9.89,-8.24 68.16,6.98 119.52,-53.78 41.6,-49.21 30.6,-77.36 32.13,-133.12 32.56,-33.7 76.05,-25.4 96.07,-101.64 9,-34.29 -7.42,-55.07 22.67,-68.84 25.22,-11.56 48.77,-17.12 72.65,-31.61 33.27,53.37 49.59,126.56 179.53,77.57 63.23,-23.83 158.36,-44.95 178.31,-114.14 18.28,-63.37 -37.02,-161.06 -59.35,-223.07 -25.13,-69.75 -54.71,-142.44 -81.81,-210.63 -28.17,-70.9 -53.59,-139.63 -82.07,-210.37 -51.82,-128.75 -63,-239.16 -219.25,-182.91 -74.45,26.8 -159.8,48.17 -177.66,114.78 -16.05,59.85 12.2,78.7 17.2,120.33 -28.92,22.16 -84.53,49.08 -124.73,41.02 -95.89,-19.23 -239.78,-130.71 -421.03,-40.11 -25.81,12.9 -29.04,26.51 -55.57,13.65 -170.59,-82.65 -270.75,1.52 -383.05,-2.16 -25.25,-0.83 -110.83,-34.38 -127.46,-50.83 2.11,-40.97 37.28,-55.24 21.64,-114.3 -9.13,-34.46 -35.65,-64.46 -67.95,-78.34 -65.09,-27.98 -151.46,-86.79 -221.43,-54.83 -58.87,26.89 -87.89,127.11 -113.54,184.33 -30.72,68.53 -60.87,138.21 -90.74,207.11 -28.91,66.67 -58.97,136.99 -89.92,202.52 -25.25,53.46 -85.03,164.3 -69.76,219.44 21.48,77.61 109.52,91.52 174.42,123.54 126.47,62.41 161.62,-42.62 184.14,-71.34z"/>
    <path class="fil6" d="M3678 2194.13c104.04,0 209.93,39.3 285.74,109.59 63.77,59.12 131.86,176.35 131.25,264.07l-833.99 0c30.81,-126.5 39.33,-165.51 134.01,-261.32 72.56,-73.43 180.7,-112.35 282.99,-112.35zm184.13 -243.7c-61.22,245.57 -417.48,159.93 -366.15,-84.54 21.09,-100.48 129.65,-161.95 226.75,-138.91 99.21,23.53 164.34,123.35 139.4,223.45zm-363.59 179.45c-1.02,0.67 -2.76,0.28 -3.22,1.73l-50.23 24.56c-135.59,67.4 -231.82,193.94 -266.46,340.07 -46.19,194.85 18.39,163.61 147.37,163.61l687.77 0c159.2,0 207.07,31.91 168.52,-157.68 -25.08,-123.3 -107.75,-238.2 -208.66,-311.24 -26.14,-18.93 -98.55,-48.41 -110.94,-61.26 8.13,-15.44 36.12,-39.77 49.88,-58.43 122.78,-166.41 11.85,-439.89 -229.14,-446.16 -115.21,-3.01 -222.96,73.23 -267.07,177.4 -25.91,61.19 -25.21,127.36 -8.14,190.26 19.33,71.24 50.19,88.2 90.33,137.12z"/>
    <path class="fil6" d="M2860.25 2567.8l-833.99 0c1.85,-79.34 69.19,-214.74 132.2,-263.13 92.37,-70.94 163.71,-110.69 284.8,-110.69 211.79,0 395.78,162.52 416.99,373.82zm-606.54 -639.03c-13.66,-73.88 55.04,-196.74 168.05,-205.65 110.12,-8.67 195.11,61.95 209.89,169.15 13.24,96.09 -69.54,196.57 -166.9,204.25 -111.86,8.81 -191.39,-61.52 -211.04,-167.74zm4.87 200.92c-7.19,6.14 -9.97,8.01 -23.23,13.51 -145.04,60.19 -257.75,202.22 -294.45,355.49 -7.88,32.92 -22.71,116.13 -0.26,143.89 26.93,33.29 112.74,17.28 156.02,17.28l687.77 0c161.39,0 200.85,22.56 160.21,-160.21 -34.81,-156.56 -126.3,-262 -259.89,-341.23 -23.8,-14.12 -39.54,-13.96 -56.82,-28.73 7.95,-15.09 35.67,-39.96 49.03,-59.29 129.87,-187.95 -11.48,-446.3 -233.72,-445.36 -218.42,0.93 -363.67,250.12 -235.88,442.15 13.69,20.57 42.97,46.83 51.22,62.5z"/>
    <path class="fil2" d="M3845.88 3066.03c-65.13,28.04 -21.02,112.58 39.71,88.75 59.06,-23.17 25.97,-117.02 -39.71,-88.75z"/>
    <path class="fil2" d="M2367.44 3022.7c-64.98,27.97 -19.88,112.15 39.72,88.75 57.57,-22.59 27.98,-117.89 -39.72,-88.75z"/>
   </g>
  </g>
 </g>
</svg>
