<?xml version="1.0" encoding="UTF-8"?>
<!DOCTYPE svg PUBLIC "-//W3C//DTD SVG 1.1//EN" "http://www.w3.org/Graphics/SVG/1.1/DTD/svg11.dtd">
<!-- Creator: CorelDRAW 2018 (64-Bit) -->
<svg xmlns="http://www.w3.org/2000/svg" xml:space="preserve" width="6.66666in" height="6.66666in" version="1.1" style="shape-rendering:geometricPrecision; text-rendering:geometricPrecision; image-rendering:optimizeQuality; fill-rule:evenodd; clip-rule:evenodd"
viewBox="0 0 6666.66 6666.66"
 xmlns:xlink="http://www.w3.org/1999/xlink">
 <defs>
  <style type="text/css">
   <![CDATA[
    .fil1 {fill:#12A7A7}
    .fil0 {fill:black}
    .fil3 {fill:#44269B}
    .fil2 {fill:white}
   ]]>
  </style>
 </defs>
<symbol id="m" viewBox="-1510.41 -1754.77 195.74 232.64">
 <path class="fil0" d="M-1314.67 -1742.41l0 57.72c-9.71,-6.51 -19.42,-11.34 -29.08,-14.54 -9.71,-3.15 -19.75,-4.78 -30.17,-4.78 -19.86,0 -35.26,5.81 -46.22,17.36 -11.01,11.45 -16.49,27.51 -16.49,48.18 0,20.83 5.48,37.06 16.49,48.61 10.96,11.45 26.37,17.15 46.22,17.15 11.12,0 21.59,-1.63 31.47,-4.99 9.98,-3.31 19.2,-8.14 27.78,-14.54l0 57.94c-11.18,4.07 -22.46,7.05 -33.85,9.11 -11.28,2.01 -22.73,3.04 -34.29,3.04 -39.93,0 -71.18,-10.2 -93.75,-30.6 -22.57,-20.51 -33.85,-49.1 -33.85,-85.72 0,-36.46 11.28,-64.94 33.85,-85.5 22.57,-20.51 53.82,-30.81 93.75,-30.81 11.56,0 23,1.09 34.29,3.26 11.28,2.06 22.57,5.1 33.85,9.11l-0 -0z"/>
</symbol>
<symbol id="n" viewBox="-1541.23 -1835.5 118.27 395.19">
 <path class="fil0" d="M-1493.71 -1749.35l70.75 0 0 217.67c0,29.62 -7.16,52.3 -21.48,67.93 -14.21,15.63 -34.83,23.44 -61.85,23.44l-34.94 0 0 -46.44 12.37 0c13.46,0 22.62,-3.04 27.56,-9.11 5.05,-6.07 7.59,-18.01 7.59,-35.81l-0 -217.67zm0 -86.15l70.75 0 0 57.72 -70.75 0 0 -57.72z"/>
</symbol>
<symbol id="v" viewBox="-1523.88 -1585.07 47.75 58.37">
 <path class="fil0" d="M-1476.13 -1530.82c-2.6,1.3 -5.37,2.33 -8.25,3.04 -2.93,0.7 -5.97,1.09 -9.11,1.09 -9.28,0 -16.66,-2.6 -22.14,-7.81 -5.54,-5.21 -8.25,-12.37 -8.25,-21.48 0,-8.95 2.71,-16.06 8.25,-21.27 5.48,-5.21 12.86,-7.81 22.14,-7.81 3.15,0 6.19,0.38 9.11,1.09 2.87,0.76 5.64,1.74 8.25,3.04l0 11.72c-2.6,-1.85 -5.21,-3.26 -7.81,-4.12 -2.6,-0.87 -5.37,-1.3 -8.25,-1.3 -5.21,0 -9.33,1.68 -12.37,4.99 -2.93,3.36 -4.34,7.92 -4.34,13.67 0,5.97 1.41,10.58 4.34,13.89 3.04,3.36 7.16,4.99 12.37,4.99 2.87,0 5.64,-0.43 8.25,-1.3 2.61,-0.87 5.21,-2.22 7.81,-4.12l0 11.7z"/>
</symbol>
<symbol id="o" viewBox="-1490.67 -1823.14 243.28 295.36">
 <path class="fil0" d="M-1490.67 -1823.14l126.52 0c37.6,0 66.46,8.41 86.59,25.17 20.07,16.66 30.17,40.36 30.17,71.18 0,30.98 -10.09,54.85 -30.17,71.61 -20.13,16.66 -48.99,24.96 -86.59,24.96l-50.35 0 0 102.43 -76.17 0 0 -295.36zm76.17 55.12l0 82.46 42.31 0c14.76,0 26.09,-3.53 34.07,-10.63 8.08,-7.22 12.15,-17.41 12.15,-30.6 0,-13.13 -4.07,-23.28 -12.15,-30.38 -7.98,-7.22 -19.31,-10.85 -34.07,-10.85l-42.31 -0z"/>
</symbol>
<symbol id="r" viewBox="-1519.97 -1835.5 172.09 307.72">
 <path class="fil0" d="M-1347.88 -1835.5l0 46.44 -39.28 0c-9.98,0 -17.04,1.85 -21.05,5.43 -3.91,3.63 -5.86,9.93 -5.86,18.88l0 15.41 60.55 -0 0 50.56 -60.55 0 0 171 -70.74 0 0 -171 -35.16 0 0 -50.56 35.16 0 0 -15.41c0,-24.14 6.73,-41.94 20.18,-53.39 13.46,-11.56 34.29,-17.36 62.5,-17.36l54.25 0z"/>
</symbol>
<symbol id="s" viewBox="-1506.73 -1754.77 200.96 232.64">
 <path class="fil0" d="M-1320.75 -1742.41l0 53.82c-15.08,-6.35 -29.68,-11.12 -43.83,-14.32 -14.05,-3.15 -27.34,-4.78 -39.93,-4.78 -13.46,0 -23.44,1.74 -29.95,5.21 -6.51,3.36 -9.76,8.46 -9.76,15.41 0,5.64 2.44,9.98 7.38,13.02 4.88,3.04 13.78,5.31 26.69,6.73l12.37 1.95c36.3,4.5 60.66,12.04 73.13,22.57 12.59,10.58 18.88,27.13 18.88,49.7 0,23.6 -8.79,41.34 -26.26,53.17 -17.36,11.88 -43.35,17.8 -77.91,17.8 -14.65,0 -29.73,-1.19 -45.35,-3.47 -15.63,-2.17 -31.69,-5.54 -48.18,-10.2l0 -53.82c14.16,6.83 28.65,11.94 43.4,15.41 14.87,3.36 30,4.99 45.35,4.99 13.72,0 24.09,-1.85 31.03,-5.64 7.05,-3.74 10.63,-9.39 10.63,-16.93 0,-6.35 -2.5,-11.07 -7.38,-14.11 -4.78,-3.15 -14.32,-5.64 -28.65,-7.38l-12.37 -1.52c-31.57,-3.91 -53.71,-11.18 -66.41,-21.92 -12.59,-10.69 -18.88,-26.96 -18.88,-48.83 0,-23.44 8.03,-40.8 24.09,-52.08 16.06,-11.39 40.69,-17.15 74,-17.15 13.02,0 26.69,1.03 41.02,3.04 14.43,2.06 30.06,5.15 46.87,9.33l0 -0z"/>
</symbol>
<symbol id="p" viewBox="-1496.1 -1749.35 222.66 227.21">
 <path class="fil0" d="M-1496.09 -1613.93l0 -135.42 71.18 0 0 22.14c0,12.04 -0.11,27.13 -0.22,45.35 -0.16,18.12 -0.22,30.17 -0.22,36.24 0,17.8 0.43,30.6 1.3,38.41 0.98,7.81 2.6,13.56 4.78,17.15 3.04,4.67 6.83,8.19 11.5,10.63 4.61,2.5 9.98,3.69 16.06,3.69 14.76,0 26.31,-5.64 34.72,-16.93 8.52,-11.28 12.8,-27.02 12.8,-47.31l0 -109.37 70.75 0 0 221.57 -70.75 0 0 -32.12c-10.74,13.02 -22.08,22.57 -34.07,28.65 -11.88,6.07 -24.96,9.11 -39.28,9.11 -25.61,0 -45.14,-7.81 -58.59,-23.44 -13.35,-15.73 -19.96,-38.52 -19.96,-68.36l0 0z"/>
</symbol>
<symbol id="q" viewBox="-1490.67 -1823.14 264.76 295.36">
 <polygon class="fil0" points="-1490.67,-1823.14 -1405.6,-1823.14 -1298.18,-1620.67 -1298.18,-1823.14 -1225.91,-1823.14 -1225.91,-1527.78 -1310.98,-1527.78 -1418.41,-1730.47 -1418.41,-1527.78 -1490.67,-1527.78 "/>
</symbol>
<symbol id="h" viewBox="-1494.15 -1754.78 356.56 227">
 <path class="fil0" d="M-1288.42 -1712.46c8.95,-13.72 19.59,-24.2 31.9,-31.47 12.43,-7.22 26.04,-10.85 40.8,-10.85 25.44,0 44.81,7.92 58.16,23.65 13.29,15.63 19.96,38.41 19.96,68.36l0 134.98 -71.19 0 0 -115.45 0 -5.43c0.11,-1.85 0.22,-4.45 0.22,-7.81 0,-15.73 -2.33,-27.13 -6.94,-34.07 -4.5,-7.05 -11.94,-10.63 -22.35,-10.63 -13.46,0 -23.87,5.59 -31.25,16.71 -7.27,11.01 -11.01,27.02 -11.28,47.96l0 108.72 -71.18 0 0 -115.45c0,-24.57 -2.11,-40.36 -6.3,-47.31 -4.23,-7.05 -11.72,-10.63 -22.57,-10.63 -13.62,0 -24.09,5.59 -31.47,16.71 -7.38,11.18 -11.07,27.07 -11.07,47.74l0 108.94 -71.17 0 0 -221.57 71.18 0 0 32.33c8.68,-12.43 18.67,-21.81 29.95,-28.21 11.28,-6.35 23.71,-9.55 37.33,-9.55 15.3,0 28.86,3.69 40.58,11.07 11.72,7.38 20.62,17.8 26.69,31.25z"/>
</symbol>
<symbol id="c" viewBox="-1510.41 -1754.78 243.49 232.64">
 <path class="fil0" d="M-1388.24 -1704c-15.79,0 -27.78,5.64 -36.02,16.93 -8.24,11.29 -12.37,27.51 -12.37,48.61 0,21.27 4.12,37.54 12.37,48.83 8.25,11.28 20.24,16.93 36.02,16.93 15.3,0 27.02,-5.64 35.16,-16.93 8.25,-11.28 12.37,-27.56 12.37,-48.83 0,-21.1 -4.12,-37.33 -12.37,-48.61 -8.14,-11.28 -19.86,-16.93 -35.16,-16.93zm0 -50.78c38.03,0 67.76,10.36 89.19,31.03 21.38,20.56 32.12,48.99 32.12,85.29 0,36.46 -10.74,65 -32.12,85.5 -21.43,20.56 -51.16,30.81 -89.19,30.81 -38.36,0 -68.31,-10.25 -89.84,-30.81 -21.59,-20.51 -32.33,-49.04 -32.33,-85.5 0,-36.3 10.74,-64.72 32.33,-85.29 21.54,-20.67 51.48,-31.03 89.84,-31.03z"/>
</symbol>
<symbol id="g" viewBox="-1493.71 -1754.78 222.65 227">
 <path class="fil0" d="M-1271.06 -1662.76l0 134.98 -71.18 0 0 -103.3c0,-19.1 -0.43,-32.23 -1.3,-39.5 -0.87,-7.22 -2.33,-12.59 -4.34,-16.06 -2.77,-4.61 -6.51,-8.14 -11.28,-10.63 -4.78,-2.6 -10.2,-3.91 -16.28,-3.91 -14.76,0 -26.42,5.75 -34.94,17.15 -8.41,11.28 -12.59,27.07 -12.59,47.31l0 108.94 -70.75 0 0 -221.57 70.74 0 0 32.33c10.69,-12.86 22.03,-22.35 34.07,-28.43 11.99,-6.19 25.23,-9.33 39.71,-9.33 25.61,0 44.98,7.92 58.16,23.65 13.29,15.63 19.96,38.41 19.96,68.36z"/>
</symbol>
<symbol id="t" viewBox="-1493.71 -1835.5 70.75 307.72">
 <path class="fil0" d="M-1493.71 -1749.35l70.75 0 0 221.57 -70.75 0 0 -221.57zm0 -86.15l70.75 0 0 57.72 -70.75 0 0 -57.72z"/>
</symbol>
<symbol id="f" viewBox="-1493.71 -1835.5 222.65 307.72">
 <path class="fil0" d="M-1271.06 -1662.76l0 134.98 -71.18 0 0 -102.86c0,-19.37 -0.43,-32.66 -1.3,-39.93 -0.87,-7.22 -2.33,-12.59 -4.34,-16.06 -2.77,-4.61 -6.51,-8.14 -11.28,-10.63 -4.78,-2.6 -10.2,-3.91 -16.28,-3.91 -14.76,0 -26.42,5.75 -34.94,17.15 -8.41,11.28 -12.59,27.07 -12.59,47.31l0 108.94 -70.75 -0 0 -307.72 70.74 0 0 118.49c10.69,-12.86 22.03,-22.35 34.07,-28.43 11.99,-6.19 25.23,-9.33 39.71,-9.33 25.61,0 44.98,7.92 58.16,23.65 13.29,15.63 19.96,38.41 19.96,68.36l0 -0z"/>
</symbol>
<symbol id="k" viewBox="-1493.7 -1835.5 237.85 313.36">
 <path class="fil0" d="M-1375.86 -1573.57c15.19,0 26.75,-5.48 34.72,-16.49 7.92,-11.12 11.94,-27.24 11.94,-48.39 0,-20.94 -4.02,-37 -11.94,-48.18 -7.98,-11.12 -19.53,-16.71 -34.72,-16.71 -15.19,0 -26.85,5.59 -34.94,16.71 -8.14,11.18 -12.15,27.24 -12.15,48.18 0,21 4.02,37.06 12.15,48.18 8.08,11.18 19.75,16.71 34.94,16.71zm-47.09 -143.44c9.82,-12.86 20.67,-22.35 32.55,-28.43 11.83,-6.19 25.44,-9.33 40.8,-9.33 27.34,0 49.75,10.85 67.28,32.55 17.63,21.7 26.48,49.64 26.48,83.77 0,34.29 -8.84,62.28 -26.48,83.98 -17.52,21.59 -39.93,32.33 -67.28,32.33 -15.35,0 -28.97,-3.04 -40.8,-9.11 -11.88,-6.07 -22.73,-15.63 -32.55,-28.65l0 32.12 -70.75 0 0 -307.72 70.75 0 0 118.48z"/>
</symbol>
<symbol id="j" viewBox="-1522.79 -1749.35 251.74 309.03">
 <path class="fil0" d="M-1522.79 -1749.35l70.75 0 59.68 150.39 50.56 -150.39 70.74 0 -93.1 242.63c-9.44,24.57 -20.34,41.78 -32.77,51.65 -12.48,9.82 -28.86,14.76 -49.26,14.76l-41.02 0 0 -46.44 22.14 0c11.99,0 20.72,-1.95 26.26,-5.86 5.48,-3.8 9.76,-10.63 12.8,-20.62l1.95 -6.07 -98.74 -230.04z"/>
</symbol>
<symbol id="l" viewBox="-1509.55 -1835.5 237.85 313.36">
 <path class="fil0" d="M-1343.1 -1717.02l0 -118.49 71.4 0 0 307.72 -71.4 0 0 -32.12c-9.71,13.19 -20.4,22.79 -32.12,28.86 -11.72,5.91 -25.33,8.9 -40.8,8.9 -27.34,0 -49.8,-10.74 -67.28,-32.33 -17.52,-21.7 -26.26,-49.7 -26.26,-83.98 0,-34.13 8.74,-62.07 26.26,-83.77 17.47,-21.7 39.93,-32.55 67.28,-32.55 15.3,0 28.86,3.15 40.58,9.33 11.83,6.07 22.62,15.57 32.33,28.43l0 0zm-46.66 143.44c15.19,0 26.75,-5.48 34.72,-16.49 7.92,-11.12 11.94,-27.24 11.94,-48.39 0,-20.94 -4.02,-37 -11.94,-48.18 -7.98,-11.12 -19.53,-16.71 -34.72,-16.71 -15.08,0 -26.59,5.59 -34.5,16.71 -7.98,11.18 -11.94,27.24 -11.94,48.18 0,21.16 3.96,37.27 11.94,48.39 7.92,11.01 19.42,16.49 34.5,16.49z"/>
</symbol>
<symbol id="i" viewBox="-1490.67 -1823.15 266.71 295.37">
 <path class="fil0" d="M-1382.38 -1692.28c15.9,0 27.34,-2.93 34.29,-8.9 6.94,-5.91 10.42,-15.68 10.42,-29.3 0,-13.29 -3.47,-22.84 -10.42,-28.65 -6.94,-5.91 -18.39,-8.9 -34.29,-8.9l-32.12 0 0 75.74 32.12 0zm-32.12 52.74l0 111.76 -76.17 -0 0 -295.36 116.32 0c38.9,0 67.38,6.51 85.5,19.53 18.23,13.02 27.34,33.74 27.34,62.07 0,19.42 -4.72,35.37 -14.11,47.96 -9.44,12.59 -23.65,21.86 -42.75,27.78 10.42,2.33 19.75,7.7 28,16.06 8.25,8.41 16.6,21.05 25.17,37.98l41.23 83.98 -81.16 -0 -35.81 -73.35c-7.38,-14.76 -14.87,-24.8 -22.35,-30.17 -7.38,-5.48 -17.25,-8.25 -29.52,-8.25l-21.7 0.01z"/>
</symbol>
<symbol id="b" viewBox="-1493.7 -1754.77 164.5 227">
 <path class="fil0" d="M-1329.21 -1689.02c-6.24,-2.87 -12.37,-4.99 -18.44,-6.3 -6.07,-1.41 -12.26,-2.17 -18.44,-2.17 -18.23,0 -32.28,5.86 -42.1,17.58 -9.87,11.61 -14.76,28.32 -14.76,50.13l0 102 -70.75 0 0 -221.57 70.74 0 0 36.46c9.11,-14.59 19.53,-25.23 31.25,-31.9 11.83,-6.62 26.04,-9.98 42.54,-9.98 2.44,0 5.05,0.16 7.81,0.43 2.71,0.16 6.73,0.6 11.94,1.3l0.22 64.02z"/>
</symbol>
<symbol id="d" viewBox="-1522.35 -1812.28 179.04 284.5">
 <path class="fil0" d="M-1416.45 -1812.28l0 62.93 73.13 0 0 50.56 -73.13 0 0 93.97c0,10.31 2.01,17.31 6.07,21.05 4.18,3.63 12.37,5.43 24.52,5.43l36.24 0 0 50.56 -60.55 0c-28.1,0 -47.96,-5.75 -59.68,-17.36 -11.61,-11.72 -17.36,-31.57 -17.36,-59.68l0 -93.97 -35.15 0 0 -50.56 35.15 0 0 -62.93 70.75 0z"/>
</symbol>
<symbol id="u" viewBox="-1507.6 -1828.56 251.3 306.43">
 <path class="fil0" d="M-1256.3 -1544.06c-14.05,7.27 -28.65,12.7 -43.83,16.28 -15.19,3.74 -31.03,5.64 -47.53,5.64 -49.21,0 -88.22,-13.72 -116.97,-41.23 -28.65,-27.45 -42.97,-64.72 -42.97,-111.76 0,-47.31 14.32,-84.69 42.97,-112.2 28.76,-27.45 67.76,-41.23 116.97,-41.23 16.49,0 32.33,1.9 47.53,5.64 15.19,3.63 29.78,9.11 43.83,16.49l0 60.98c-14.21,-9.55 -28.16,-16.55 -41.88,-21.05 -13.62,-4.45 -28,-6.73 -43.19,-6.73 -27.24,0 -48.61,8.68 -64.24,26.04 -15.52,17.36 -23.22,41.4 -23.22,72.05 0,30.38 7.7,54.36 23.22,71.83 15.63,17.36 37,26.04 64.24,26.04 15.19,0 29.57,-2.22 43.19,-6.73 13.72,-4.45 27.67,-11.5 41.88,-21.05l0 60.99z"/>
</symbol>
<symbol id="e" viewBox="-1510.41 -1754.77 224.18 232.63">
 <path class="fil0" d="M-1394.53 -1627.39c-14.76,0 -25.93,2.55 -33.42,7.59 -7.38,4.94 -11.07,12.26 -11.07,21.92 0,9.01 2.93,16 8.9,21.05 6.07,5.1 14.43,7.59 25.17,7.59 13.29,0 24.52,-4.78 33.64,-14.32 9.11,-9.55 13.67,-21.48 13.67,-35.81l0 -8.03 -36.89 0zm108.29 -26.91l0 126.52 -71.4 0 0 -32.77c-9.55,13.46 -20.29,23.22 -32.12,29.3 -11.88,6.07 -26.26,9.11 -43.19,9.11 -23,0 -41.67,-6.62 -55.99,-19.96 -14.32,-13.46 -21.48,-30.81 -21.48,-52.08 0,-26.04 8.9,-45.14 26.69,-57.29 17.91,-12.15 46.06,-18.23 84.42,-18.23l41.67 0 0 -5.43c0,-11.28 -4.45,-19.53 -13.24,-24.74 -8.84,-5.21 -22.68,-7.81 -41.45,-7.81 -15.08,0 -29.19,1.52 -42.32,4.56 -13.02,3.04 -25.12,7.59 -36.24,13.67l0 -54.04c15.03,-3.58 30.22,-6.35 45.57,-8.25 15.3,-2.01 30.65,-3.04 46.01,-3.04 39.93,0 68.69,7.92 86.37,23.65 17.8,15.79 26.69,41.4 26.69,76.82l-0 -0z"/>
</symbol>
<symbol id="a" viewBox="-1510.42 -1754.77 237.85 232.64">
 <path class="fil0" d="M-1272.57 -1639.11l0 20.18 -165.58 0c1.74,16.66 7.7,29.08 18.01,37.33 10.25,8.25 24.63,12.37 43.19,12.37 14.87,0 30.17,-2.17 45.79,-6.51 15.63,-4.45 31.69,-11.18 48.18,-20.18l0 54.69c-16.82,6.4 -33.58,11.18 -50.35,14.32 -16.82,3.15 -33.53,4.78 -50.13,4.78 -40.26,0 -71.5,-10.09 -93.75,-30.38 -22.14,-20.4 -33.2,-49.04 -33.2,-85.94 0,-36.02 10.91,-64.34 32.77,-85.07 21.81,-20.83 51.87,-31.25 90.06,-31.25 34.83,0 62.72,10.52 83.55,31.47 20.94,21 31.47,49.04 31.47,84.2l-0 -0zm-72.7 -23.65c0,-13.46 -4.02,-24.31 -11.94,-32.55 -7.81,-8.25 -18.01,-12.37 -30.6,-12.37 -13.78,0 -24.96,3.91 -33.64,11.72 -8.57,7.7 -13.83,18.77 -15.84,33.2l92.02 -0z"/>
</symbol>
<symbol id="Symbol3" viewBox="-1472.01 -1970.72 399.95 442.93">
 <path class="fil0" d="M-1309.68 -1774.31c23.87,0 41.02,-4.39 51.43,-13.24 10.42,-8.95 15.63,-23.65 15.63,-44.06 0,-20.07 -5.21,-34.5 -15.63,-43.19 -10.42,-8.79 -27.56,-13.24 -51.43,-13.24l-48.18 -0 0 113.72 48.18 0zm-48.18 78.99l0 167.53 -114.15 0 0 -442.93 174.47 0c58.27,0 101.02,9.76 128.26,29.3 27.18,19.53 40.8,50.51 40.8,92.88 0,29.24 -7.11,53.28 -21.27,72.05 -14.05,18.83 -35.32,32.72 -63.8,41.67 15.63,3.47 29.57,11.5 41.88,24.09 12.43,12.59 24.96,31.63 37.54,57.07l62.07 125.87 -121.74 0 -53.82 -110.03c-11.01,-22.14 -22.08,-37.22 -33.2,-45.35 -11.18,-8.08 -26.04,-12.15 -44.7,-12.15l-32.33 0.01z"/>
</symbol>
<symbol id="Symbol4" viewBox="-1472.01 -1970.71 396.93 442.93">
 <polygon class="fil0" points="-1472.01,-1970.71 -1357.86,-1970.71 -1357.86,-1801.87 -1189.23,-1801.88 -1189.23,-1970.71 -1075.08,-1970.71 -1075.08,-1527.78 -1189.23,-1527.78 -1189.23,-1715.5 -1357.86,-1715.5 -1357.86,-1527.78 -1472.01,-1527.78 "/>
</symbol>
<symbol id="Symbol1" viewBox="-1524.74 -1970.71 464.18 442.93">
 <path class="fil0" d="M-1203.13 -1608.51l-178.6 0 -28.21 80.73 -114.8 0 164.06 -442.93 136.07 0 164.06 442.93 -114.8 0 -27.77 -80.73zm-150.17 -82.25l121.31 0 -60.55 -176.22 -60.76 176.22z"/>
</symbol>
<symbol id="Symbol2" viewBox="-1472.01 -1970.71 314.89 442.93">
 <polygon class="fil0" points="-1472.01,-1970.71 -1163.63,-1970.71 -1163.63,-1884.33 -1357.85,-1884.34 -1357.85,-1801.87 -1175.34,-1801.87 -1175.34,-1715.5 -1357.85,-1715.5 -1357.85,-1614.15 -1157.12,-1614.15 -1157.12,-1527.78 -1472.01,-1527.78 "/>
</symbol>
<symbol id="Symbol7" viewBox="-1476.78 -1989.36 356.76 470.26">
 <path class="fil0" d="M-1299.92 -1596.35c22.68,0 40.04,-8.3 52.08,-24.96 11.99,-16.6 18.01,-40.69 18.01,-72.26 0,-31.69 -6.02,-55.83 -18.01,-72.48 -12.04,-16.6 -29.41,-24.96 -52.08,-24.96 -22.73,0 -40.15,8.41 -52.3,25.17 -12.15,16.66 -18.23,40.74 -18.23,72.26 0,31.41 6.07,55.5 18.23,72.26 12.15,16.66 29.57,24.96 52.3,24.96l0 0zm-70.53 -215.06c14.59,-19.37 30.81,-33.64 48.61,-42.75 17.8,-9.22 38.25,-13.89 61.41,-13.89 40.91,0 74.54,16.28 100.91,48.83 26.31,32.55 39.5,74.44 39.5,125.65 0,51.21 -13.19,93.1 -39.5,125.65 -26.37,32.55 -60,48.83 -100.91,48.83 -23.17,0 -43.62,-4.67 -61.41,-13.89 -17.8,-9.22 -34.02,-23.49 -48.61,-42.75l0 47.96 -106.33 0.01 0 -461.58 106.33 0 0 177.94z"/>
</symbol>
<symbol id="Symbol5" viewBox="-1484.16 -1978.74 349.61 459.63">
 <path class="fil0" d="M-1163.63 -1956.82l0 93.75c-24.47,-10.85 -48.29,-18.99 -71.4,-24.52 -23.17,-5.64 -45.03,-8.46 -65.54,-8.46 -27.24,0 -47.42,3.8 -60.55,11.28 -13.02,7.54 -19.53,19.26 -19.53,35.16 0,11.88 4.39,21.16 13.24,27.78 8.79,6.51 24.8,12.15 47.96,16.93l48.61 9.76c49.15,9.98 84.2,25.07 105.04,45.14 20.83,20.13 31.25,48.77 31.25,85.94 0,48.94 -14.54,85.29 -43.62,109.16 -28.97,23.87 -73.24,35.81 -132.81,35.81 -28.1,0 -56.31,-2.71 -84.64,-8.03 -28.21,-5.31 -56.43,-13.29 -84.64,-23.87l0 -96.35c28.21,15.08 55.45,26.42 81.81,34.07 26.48,7.54 51.98,11.28 76.61,11.28 24.85,0 43.89,-4.12 57.07,-12.37 13.29,-8.35 19.96,-20.24 19.96,-35.59 0,-13.89 -4.5,-24.57 -13.46,-32.12 -9.01,-7.49 -26.91,-14.21 -53.82,-20.18l-44.27 -9.76c-44.27,-9.55 -76.71,-24.63 -97.22,-45.35 -20.4,-20.83 -30.6,-48.83 -30.6,-83.98 0,-44.11 14.21,-78.02 42.75,-101.78 28.48,-23.71 69.44,-35.59 122.83,-35.59 24.31,0 49.31,1.85 75.09,5.43 25.72,3.63 52.35,9.11 79.86,16.49l0 0z"/>
</symbol>
<symbol id="Symbol6" viewBox="-1520.4 -1860.03 377.82 463.33">
 <path class="fil0" d="M-1520.4 -1860.03l106.33 0 89.19 225.47 75.96 -225.47 106.34 0 -139.75 363.72c-14.05,37 -30.49,62.83 -49.26,77.47 -18.67,14.76 -43.35,22.14 -74,22.14l-61.42 0 0 -69.66 33.2 0c18.07,0 31.14,-2.93 39.28,-8.68 8.25,-5.64 14.65,-15.95 19.31,-30.81l2.82 -9.11 -148.01 -345.06z"/>
</symbol>
<symbol id="Symbol11" viewBox="-1501.72 -1868.06 336.15 348.96">
 <path class="fil0" d="M-1327.91 -1677.31c-22.14,0 -38.79,3.8 -49.91,11.28 -11.18,7.54 -16.71,18.61 -16.71,33.2 0,13.46 4.45,24.04 13.46,31.69 8.95,7.54 21.48,11.28 37.54,11.28 19.96,0 36.73,-7.16 50.35,-21.48 13.72,-14.32 20.62,-32.23 20.62,-53.82l0 -12.15 -55.34 0zm162.33 -40.15l0 189.67 -106.99 0 0 -49.26c-14.32,20.13 -30.38,34.83 -48.18,44.06 -17.8,9.22 -39.44,13.89 -64.89,13.89 -34.45,0 -62.44,-10.04 -83.98,-30.17 -21.43,-20.07 -32.12,-46.11 -32.12,-78.13 0,-39.06 13.35,-67.6 40.15,-85.72 26.91,-18.23 69.01,-27.34 126.3,-27.34l62.72 -0 0 -8.46c0,-16.76 -6.67,-29.08 -19.96,-36.89 -13.19,-7.81 -33.85,-11.72 -62.07,-11.72 -22.73,0 -43.83,2.33 -63.37,6.94 -19.53,4.5 -37.76,11.28 -54.69,20.4l0 -80.94c22.84,-5.64 45.68,-9.82 68.57,-12.59 23,-2.87 45.9,-4.34 68.79,-4.34 60,0 103.3,11.88 129.78,35.59 26.59,23.6 39.93,61.96 39.93,115.02l0 0z"/>
</symbol>
<symbol id="Symbol9" viewBox="-1501.75 -1868.05 356.78 348.96">
 <path class="fil0" d="M-1144.97 -1694.88l0 30.38 -248.49 0c2.6,24.9 11.56,43.57 26.91,55.99 15.46,12.48 37.11,18.67 64.89,18.67 22.24,0 45.14,-3.26 68.57,-9.76 23.44,-6.62 47.53,-16.71 72.26,-30.17l0 81.81c-25.07,9.55 -50.13,16.71 -75.3,21.48 -25.17,4.88 -50.29,7.38 -75.3,7.38 -60.22,0 -106.99,-15.24 -140.4,-45.79 -33.31,-30.65 -49.91,-73.57 -49.91,-128.69 0,-54.25 16.33,-96.84 49.04,-127.82 32.82,-31.09 77.91,-46.66 135.2,-46.66 52.19,0 94.02,15.79 125.43,47.31 31.36,31.41 47.09,73.35 47.09,125.87l0.01 0zm-109.16 -35.15c0,-20.24 -5.97,-36.51 -17.8,-48.83 -11.72,-12.43 -27.07,-18.67 -46.01,-18.67 -20.72,0 -37.49,5.81 -50.35,17.36 -12.75,11.61 -20.72,28.32 -23.87,50.13l138.02 0z"/>
</symbol>
<symbol id="Symbol8" viewBox="-1500.43 -1989.36 356.55 470.26">
 <path class="fil0" d="M-1250.65 -1811.42l0 -177.94 106.77 0 0 461.58 -106.77 0 0 -47.96c-14.65,19.53 -30.76,33.85 -48.39,42.97 -17.69,9.11 -38.09,13.67 -61.2,13.67 -40.96,0 -74.6,-16.28 -100.91,-48.83 -26.2,-32.55 -39.28,-74.44 -39.28,-125.65 0,-51.21 13.07,-93.1 39.28,-125.65 26.31,-32.55 59.95,-48.83 100.91,-48.83 23,0 43.3,4.67 60.98,13.89 17.8,9.11 33.96,23.38 48.61,42.75l0 -0.01zm-70.1 215.06c22.84,0 40.2,-8.3 52.08,-24.96 11.99,-16.6 18.01,-40.69 18.01,-72.26 0,-31.69 -6.02,-55.83 -18.01,-72.48 -11.88,-16.6 -29.24,-24.96 -52.08,-24.96 -22.57,0 -39.88,8.35 -51.87,24.96 -11.88,16.66 -17.8,40.8 -17.8,72.48 0,31.57 5.91,55.67 17.8,72.26 11.99,16.66 29.3,24.96 51.87,24.96z"/>
</symbol>
<symbol id="Symbol10" viewBox="-1519.75 -1954.43 268.44 426.66">
 <path class="fil0" d="M-1360.68 -1954.43l0 94.4 109.37 0 0 75.96 -109.37 0 0 140.85c0,15.52 3.04,25.99 9.11,31.47 6.07,5.37 18.23,8.03 36.46,8.03l54.69 0 0 75.96 -91.15 0c-41.99,0 -71.72,-8.74 -89.19,-26.26 -17.52,-17.47 -26.26,-47.2 -26.26,-89.19l0 -140.85 -52.73 0 0 -75.96 52.73 0 0 -94.4 106.34 0z"/>
</symbol>
<symbol id="Symbol13" viewBox="-1497.63 -1978.74 376.96 459.65">
 <path class="fil0" d="M-1120.67 -1552.09c-21,10.85 -42.91,19.04 -65.76,24.52 -22.73,5.64 -46.39,8.46 -70.96,8.46 -73.78,0 -132.32,-20.62 -175.57,-61.85 -43.13,-41.23 -64.67,-97.22 -64.67,-167.97 0,-70.75 21.54,-126.74 64.67,-167.97 43.24,-41.23 101.78,-61.85 175.57,-61.85 24.57,0 48.23,2.77 70.96,8.25 22.84,5.54 44.76,13.78 65.76,24.74l0 91.58c-21.27,-14.43 -42.21,-25.01 -62.72,-31.69 -20.56,-6.78 -42.21,-10.2 -64.89,-10.2 -40.8,0 -72.86,13.13 -96.14,39.28 -23.33,26.04 -34.94,62.01 -34.94,107.85 0,45.74 11.61,81.7 34.94,107.85 23.28,26.04 55.34,39.06 96.14,39.06 22.68,0 44.33,-3.31 64.89,-9.98 20.51,-6.78 41.45,-17.41 62.72,-31.9l0 91.81z"/>
</symbol>
<symbol id="Symbol12" viewBox="-1476.78 -1868.05 246.96 340.28">
 <path class="fil0" d="M-1229.82 -1769.53c-9.44,-4.34 -18.77,-7.49 -28,-9.55 -9.11,-2.17 -18.34,-3.26 -27.56,-3.26 -27.34,0 -48.39,8.79 -63.15,26.26 -14.65,17.52 -21.92,42.64 -21.92,75.3l0 153 -106.33 -0 0 -332.25 106.34 0 0 54.47c13.56,-21.7 29.19,-37.54 46.87,-47.53 17.8,-9.98 39.06,-14.97 63.8,-14.97 3.47,0 7.27,0.16 11.5,0.43 4.18,0.33 10.2,0.98 18.01,1.95l0.43 96.13z"/>
</symbol>
 <g id="Layer_x0020_1">
  <metadata id="CorelCorpID_0Corel-Layer"/>
  <circle class="fil1" cx="3108.68" cy="3055.43" r="2390.14"/>
  <g id="_2520751277024">
   <path class="fil0" d="M3818.54 2475.89c10.88,-6.82 43.02,-10.81 63.71,-19.62 146.82,-62.52 157.73,-285.95 57.16,-246.9 -43,16.7 -15.72,80.29 -51.05,127.31 -44.25,58.91 -70.81,35.77 -122.27,50.57 -39.5,11.36 -58.13,72.62 -114.12,57.81 -24.23,-6.41 -40.66,-25.23 -67.78,-15.05 -46.58,17.49 2.19,86.15 -181.9,85.76 -59.7,-0.13 -66.26,30.92 -116.64,56.2 -150.82,75.68 -214.57,-45.03 -257.88,-53.01 -39.23,-7.22 -127.93,94.05 -273.06,16.24 -48.75,-26.14 -58.61,-72.48 -113.59,-58.12 -244.6,63.9 -335.4,-120.17 -360.81,-133.07 -40.69,-20.67 -92.02,22.74 -48.21,80.05 59.79,78.21 70.34,74.91 144.33,117.54 25.59,14.74 8.7,27.71 32.42,56.63 31.95,38.96 42.57,83.57 17.94,130.97 -2.12,4.09 -80.09,78.85 4.83,102.9 29.87,8.46 34.98,10.14 47.14,41.9 53.7,140.28 -61.54,136.44 -36.83,198.75 9.97,25.14 130.44,77.42 70.9,250.53 -29.04,84.42 -99.12,150.8 -187.02,169.13 -105.27,21.95 -65.69,86.85 -31.5,252.17 13.24,64.05 11.85,181.63 -2.31,248.25 -6.93,32.6 -11.63,41.98 -47.02,42.02 -37.28,-90.59 -19.45,-119.53 -26.88,-208.81 -6.24,-75.05 -19.14,-128.22 -35.27,-200.42 -7.74,-34.67 -6.14,-70.34 -12.73,-102.5 -12.63,-61.66 -165.37,-33.1 -176.19,-179.86 -12.19,-165.34 59.78,-218.09 83.61,-267.32 19.66,-40.61 -13.7,-51.62 -31.84,-77.85 -39.52,-57.16 -15.76,-120.03 37.89,-156.46 93.52,-63.5 11.55,-82.59 -9.11,-145.05 -30.44,-92.04 86.43,-91.46 42.1,-162.21 -55.42,-88.46 -22.95,-92.27 4.57,-174.16 27.53,-81.93 -179.22,-116.02 -35.51,-328.33 127.78,-188.77 548.91,-195.58 610.06,59.56 17.94,74.89 -5.76,140.6 103.79,99.65 49.11,-18.36 151.3,-14.91 169.95,45.18 55.84,179.9 125.16,-109.2 298.83,-15.59 94.5,50.94 76.7,39.7 130.24,-38.69 38.3,-56.05 98.24,-79.71 158.46,-39.57 88.09,58.71 82.19,-25.22 115.36,-74.07 51.06,-75.18 80.39,-66.76 155.79,-85.24 52.6,-12.89 49.93,-87.19 102.19,-133.58 49.05,-43.56 117.42,-53.56 179.56,-36.03 132.59,37.39 130.29,233.52 96.67,338.1 -20.74,64.52 -46.34,97.17 -91.7,144.64 -52.42,54.85 15.66,101.78 24.05,170.26 11.6,94.6 -69.69,114.35 -39.07,167.65 17.83,31.05 36.44,34.14 45.57,76.69 21.57,100.48 -56.25,120.37 -51,170.25 3.3,31.39 33.89,46.31 52.36,69.06 73.49,90.54 20.37,135.38 0.56,165.65 -40.81,62.39 53.08,73.91 55.37,154.71 2.65,93.46 -75.1,88.16 -63.63,162.04 8.97,57.81 36.41,147.46 -25.73,186.98 -30.03,19.09 -66.08,10.16 -89.96,25.33 -25.07,15.93 -20.74,54.01 -42.19,78.27 -48.97,55.4 -133.55,31 -181.17,54.52 -32.39,16 -70.57,76.83 -172.48,53.53 -79.2,-18.11 -76.82,-86.17 -155.13,-46.65 -120.94,61.04 -289.02,32.11 -311.89,-99.67 -4.94,-28.42 -0,-71.59 -28.52,-87.87 -70.26,-40.07 -108.03,85.68 -12.41,212.74 52.35,69.56 130.89,77.17 147.45,88.24 31.31,20.92 51.46,279.2 -58.67,377.43 -47.18,42.08 -126.87,36.69 -168.14,-14.44 -40.26,-49.88 -62.46,-109.44 -62.02,-173.67 1.07,-157.02 0.07,-314.4 0.07,-471.45 0,-135.27 -0.79,-235.5 189.77,-281.62 52.69,-12.75 167.87,-10.67 221,1.79 139.11,32.61 96.75,170.92 212.72,101.98 40.65,-24.16 53.48,-21.44 99.49,-21.39 80.54,0.09 137.7,81.7 164.34,12.42 21.27,-55.31 -75.46,-73.02 -27.5,-178.94 27.84,-61.49 111.63,-81.39 60.74,-141.02 -12.92,-15.14 -97.71,-79.48 -73.21,-154.13 10.22,-31.12 40.19,-48.12 43.15,-73.12 6.1,-51.46 -143.51,-107.02 -16.99,-236.07 58.22,-59.37 -51.05,-94.8 -33.2,-169.84zm211.65 -761.28l53.29 0c54.38,4.97 106.46,25.36 147.15,62.22 119.54,108.33 107.68,387.61 12.76,507.32 -28.17,35.52 -49.93,48.91 -34.96,97.66 18.28,59.54 34.73,81 17.9,146.4 -13.85,53.81 -30.92,66.28 -7.83,121.11 71.18,169 -43,175.11 6.47,256.01 27.38,44.77 50.71,62.13 51.86,120.93 0.87,44.52 -29.3,96.98 -19.77,129.06 14.98,50.47 43.23,54.04 40.08,123.73 -2.98,65.96 -21.47,71.34 -46.56,122.66 -21.53,44.05 -5.38,93.17 -5.44,139.75 -0.22,145.85 -119.44,165.7 -151.71,189.19 -85.93,62.54 -9.84,85.16 -209.65,125.56 -106.54,21.54 -116.67,91.34 -257.28,71.8 -49.9,-6.94 -80.24,-41.84 -117.24,-46.31 -24.93,-3.02 -98.06,18.48 -132.98,22.2 0,115.79 17,249.65 -40.31,352.5 -47.38,85.03 -110.28,129.47 -174.19,139.83l-59.37 0c-87.23,-14.06 -167.8,-89.33 -203.47,-208.77 -26.45,-88.58 -14.98,-277.81 -14.98,-377.83 0,-241.11 -49.91,-464.23 229.65,-555.98 89.03,-29.22 257.91,-30.91 343.66,8.87 30.63,14.21 109.73,82.27 109.98,82.33 10.33,2.67 56.25,-15.48 74.39,-18.81 30.35,-5.57 64.23,1.96 86.44,-7.87 11.37,-18.59 12.22,-72.43 30.45,-111.04 14.85,-31.46 48.29,-57.27 28.93,-79.76 -46.83,-54.39 -77.15,-135.67 -47.76,-205.87 27.87,-66.54 17.89,-31.14 -11.17,-92.73 -45.19,-95.79 -3.85,-154.81 27.76,-211.36 9.32,-16.68 -0.12,-27.39 -9.52,-42.07 -14.97,-23.4 -10.53,-26.46 -20.89,-46.45 -45.37,6.96 -51.96,13.04 -101.71,3.62 -64.76,63.81 -115.97,66.91 -201.85,76.61 -44.14,4.99 -27.65,3.23 -60.91,28.13 -163.92,122.73 -344.31,-12.55 -344.32,-12.55 -11.64,-2.96 -46.77,15.82 -61.9,20.1 -96,27.13 -214.17,8.88 -284.41,-57.13 -27.64,-25.97 -35.08,-9.89 -70.89,-4.87 -27.66,3.88 -58.18,-0.8 -85.87,2.45 22.85,78.72 32.07,95.28 -1.38,177.06 9.54,16.38 31.22,35.24 43.17,55.61 63,107.37 -2.06,235.59 -1.8,237.16 32.86,53.38 62.45,79.22 63.06,152.02 1,120.33 -22.44,221.96 -125.13,304.79 -25.51,20.57 -33.88,26.3 -63.63,41.12l-72.77 30.86c15.57,114.22 44.13,173.37 39.73,297.04 -2.74,76.69 -5.34,214.6 -95.13,242.34 -192,59.31 -171.94,-226.36 -177.1,-317.36 -3.07,-54.22 -17.59,-90.57 -25.54,-142.07 -25.37,-164.56 -75.92,-82.3 -150.37,-190.16 -59.04,-85.53 -53.44,-174.71 -32.77,-272.09 12.09,-56.95 33.06,-73.69 49.18,-119.52 14.7,-41.78 -18.7,-70.31 -28.91,-110.54 -32.61,-128.55 89.98,-146.8 62.67,-224.65 -23.29,-66.41 -35.16,-75.36 -3.11,-144.02 28.57,-61.22 14.77,-57.72 5.53,-119.41 -8.37,-55.89 21.38,-104 14.07,-136.44 -7.51,-33.33 -47.39,-56.04 -59.87,-101.24 -50.22,-181.9 88.15,-348.9 249.85,-409.98 163.91,-61.92 394.69,-44.26 512.94,98.59 85.32,103.08 18.65,163.39 164.06,160.19 75.98,-1.67 69.01,3.81 126.5,44.46 44,31.11 57.81,10.06 100.08,-9.75 130.32,-61.07 167.64,55.3 250.62,-38.2 101.58,-114.47 189.41,-22.92 233.15,-63.13 30.38,-27.93 35.9,-62.44 81.49,-90.58 36.14,-22.3 85.85,-29.04 114.61,-52.74 30.98,-25.54 39.26,-66.89 71.34,-96.1 47.37,-43.15 109.09,-68.29 171.66,-73.88z"/>
   <path class="fil2" d="M2512.31 3331.59c59.54,-173.11 -60.93,-225.39 -70.9,-250.53 -24.71,-62.31 90.53,-58.47 36.83,-198.75 -12.16,-31.76 -17.27,-33.44 -47.14,-41.9 -84.92,-24.05 -6.95,-98.81 -4.83,-102.9 24.63,-47.4 14.02,-92.02 -17.94,-130.97 -23.72,-28.92 -6.82,-41.88 -32.42,-56.63 -74,-42.64 -84.54,-39.33 -144.33,-117.54 -43.81,-57.3 7.52,-100.71 48.21,-80.05 25.41,12.9 116.21,196.96 360.81,133.07 54.98,-14.36 64.84,31.98 113.59,58.12 145.13,77.81 233.83,-23.46 273.06,-16.24 43.31,7.98 107.06,128.69 257.88,53.01 50.38,-25.28 56.94,-56.32 116.64,-56.2 184.09,0.39 135.32,-68.27 181.9,-85.76 27.12,-10.18 43.55,8.64 67.78,15.05 55.99,14.8 74.63,-46.46 114.12,-57.81 51.46,-14.8 78.02,8.33 122.27,-50.57 35.33,-47.02 8.04,-110.61 51.05,-127.31 100.57,-39.05 89.67,184.38 -57.16,246.9 -20.69,8.81 -52.83,12.8 -63.71,19.62 -17.85,75.05 91.42,110.47 33.2,169.84 -126.52,129.04 23.09,184.6 16.99,236.07 -2.96,25 -32.94,42 -43.15,73.12 -24.5,74.65 60.29,138.99 73.21,154.13 50.89,59.63 -32.9,79.53 -60.74,141.02 -47.96,105.92 48.77,123.63 27.5,178.94 -26.64,69.28 -83.81,-12.32 -164.34,-12.42 -46.01,-0.06 -58.84,-2.77 -99.49,21.39 -115.98,68.94 -73.61,-69.37 -212.72,-101.98 -53.13,-12.45 -168.3,-14.54 -221,-1.79 -190.56,46.11 -189.77,146.35 -189.77,281.62 0,157.06 0.99,314.44 -0.07,471.45 -0.44,64.23 21.76,123.79 62.02,173.67 9.47,11.73 20.96,21.06 33.62,27.95l115.53 0c6.74,-3.77 13.11,-8.27 18.98,-13.51 110.13,-98.23 89.98,-356.51 58.67,-377.43 -16.56,-11.07 -95.1,-18.67 -147.45,-88.24 -95.62,-127.06 -57.85,-252.81 12.41,-212.74 28.52,16.27 23.58,59.44 28.52,87.87 22.87,131.78 190.95,160.71 311.89,99.67 78.31,-39.52 75.93,28.54 155.13,46.65 101.91,23.3 140.09,-37.53 172.48,-53.53 47.62,-23.52 132.2,0.88 181.17,-54.52 21.45,-24.26 17.12,-62.34 42.19,-78.27 23.88,-15.17 59.94,-6.24 89.96,-25.33 62.14,-39.51 34.7,-129.17 25.73,-186.98 -11.47,-73.88 66.28,-68.57 63.63,-162.04 -2.29,-80.8 -96.18,-92.32 -55.37,-154.71 19.8,-30.27 72.93,-75.11 -0.56,-165.65 -18.47,-22.75 -49.06,-37.67 -52.36,-69.06 -5.25,-49.87 72.57,-69.76 51,-170.25 -9.13,-42.55 -27.74,-45.65 -45.57,-76.69 -30.62,-53.3 50.67,-73.05 39.07,-167.65 -8.39,-68.48 -76.47,-115.41 -24.05,-170.26 45.37,-47.47 70.96,-80.12 91.7,-144.64 33.61,-104.58 35.92,-300.71 -96.67,-338.1 -62.14,-17.52 -130.51,-7.52 -179.56,36.03 -52.26,46.4 -49.58,120.69 -102.19,133.58 -75.39,18.48 -104.73,10.06 -155.79,85.24 -33.17,48.84 -27.28,132.78 -115.36,74.07 -60.22,-40.14 -120.16,-16.48 -158.46,39.57 -53.55,78.39 -35.74,89.63 -130.24,38.69 -173.67,-93.61 -243,195.49 -298.83,15.59 -18.65,-60.09 -120.84,-63.54 -169.95,-45.18 -109.55,40.95 -85.85,-24.76 -103.79,-99.65 -61.15,-255.15 -482.28,-248.33 -610.06,-59.56 -143.71,212.31 63.04,246.4 35.51,328.33 -27.52,81.89 -59.99,85.7 -4.57,174.16 44.33,70.75 -72.54,70.17 -42.1,162.21 20.65,62.46 102.63,81.55 9.11,145.05 -53.65,36.43 -77.41,99.3 -37.89,156.46 18.14,26.23 51.5,37.24 31.84,77.85 -23.83,49.23 -95.8,101.98 -83.61,267.32 10.82,146.76 163.56,118.2 176.19,179.86 6.59,32.16 4.98,67.83 12.73,102.5 16.13,72.2 29.03,125.37 35.27,200.42 7.43,89.29 -10.4,118.22 26.88,208.81 35.4,-0.03 40.1,-9.42 47.02,-42.02 14.16,-66.63 15.56,-184.2 2.31,-248.25 -34.19,-165.31 -73.77,-230.21 31.5,-252.17 87.91,-18.33 157.99,-84.71 187.02,-169.13z"/>
   <path class="fil3" d="M2978.22 3615.85c0,-135.27 -0.79,-235.5 189.77,-281.62 52.69,-12.75 167.87,-10.67 221,1.79 139.11,32.61 96.75,170.92 212.72,101.98 40.65,-24.16 53.48,-21.44 99.49,-21.39 80.54,0.09 137.7,81.7 164.34,12.42 21.27,-55.31 -75.46,-73.02 -27.5,-178.94 27.84,-61.49 111.63,-81.39 60.74,-141.02 -12.92,-15.14 -97.71,-79.48 -73.21,-154.13 10.22,-31.12 40.19,-48.12 43.15,-73.12 6.1,-51.46 -143.51,-107.02 -16.99,-236.07 58.22,-59.37 -51.05,-94.8 -33.2,-169.84 10.88,-6.82 43.02,-10.81 63.71,-19.62 146.82,-62.52 157.73,-285.95 57.16,-246.9 -43,16.7 -15.72,80.29 -51.05,127.31 -44.25,58.91 -70.81,35.77 -122.27,50.57 -39.5,11.36 -58.13,72.62 -114.12,57.81 -24.23,-6.41 -40.66,-25.23 -67.78,-15.05 -46.58,17.49 2.19,86.15 -181.9,85.76 -59.7,-0.13 -66.26,30.92 -116.64,56.2 -150.82,75.68 -214.57,-45.03 -257.88,-53.01 -39.23,-7.22 -127.93,94.05 -273.06,16.24 -48.75,-26.14 -58.61,-72.48 -113.59,-58.12 -244.6,63.9 -335.4,-120.17 -360.81,-133.07 -40.69,-20.67 -92.02,22.74 -48.21,80.05 59.79,78.21 70.34,74.91 144.33,117.54 25.59,14.74 8.7,27.71 32.42,56.63 31.95,38.96 42.57,83.57 17.94,130.97 -2.12,4.09 -80.09,78.85 4.83,102.9 29.87,8.46 34.98,10.14 47.14,41.9 53.7,140.28 -61.54,136.44 -36.83,198.75 9.97,25.14 130.44,77.42 70.9,250.53 -29.04,84.42 -99.12,150.8 -187.02,169.13 -105.27,21.95 -65.69,86.85 -31.5,252.17 13.24,64.05 11.85,181.63 -2.31,248.25 -6.93,32.6 -11.63,41.98 -47.02,42.02 -37.28,-90.59 -19.45,-119.53 -26.88,-208.81 -6.24,-75.05 -19.14,-128.22 -35.27,-200.42 -7.74,-34.67 -6.14,-70.34 -12.73,-102.5 -12.63,-61.66 -165.37,-33.1 -176.19,-179.86 -12.19,-165.34 59.78,-218.09 83.61,-267.32 19.66,-40.61 -13.7,-51.62 -31.84,-77.85 -39.52,-57.16 -15.76,-120.03 37.89,-156.46 93.52,-63.5 11.55,-82.59 -9.11,-145.05 -30.44,-92.04 86.43,-91.46 42.1,-162.21 -55.42,-88.46 -22.95,-92.27 4.57,-174.16 27.53,-81.93 -179.22,-116.02 -35.51,-328.33 127.78,-188.77 548.91,-195.58 610.06,59.56 17.94,74.89 -5.76,140.6 103.79,99.65 49.11,-18.36 151.3,-14.91 169.95,45.18 55.84,179.9 125.16,-109.2 298.83,-15.59 94.5,50.94 76.7,39.7 130.24,-38.69 38.3,-56.05 98.24,-79.71 158.46,-39.57 88.09,58.71 82.19,-25.22 115.36,-74.07 51.06,-75.18 80.39,-66.76 155.79,-85.24 52.6,-12.89 49.93,-87.19 102.19,-133.58 49.05,-43.56 117.42,-53.56 179.56,-36.03 132.59,37.39 130.29,233.52 96.67,338.1 -20.74,64.52 -46.34,97.17 -91.7,144.64 -52.42,54.85 15.66,101.78 24.05,170.26 11.6,94.6 -69.69,114.35 -39.07,167.65 17.83,31.05 36.44,34.14 45.57,76.69 21.57,100.48 -56.25,120.37 -51,170.25 3.3,31.39 33.89,46.31 52.36,69.06 73.49,90.54 20.37,135.38 0.56,165.65 -40.81,62.39 53.08,73.91 55.37,154.71 2.65,93.46 -75.1,88.16 -63.63,162.04 8.97,57.81 36.41,147.46 -25.73,186.98 -30.03,19.09 -66.08,10.16 -89.96,25.33 -25.07,15.93 -20.74,54.01 -42.19,78.27 -48.97,55.4 -133.55,31 -181.17,54.52 -32.39,16 -70.57,76.83 -172.48,53.53 -79.2,-18.11 -76.82,-86.17 -155.13,-46.65 -120.94,61.04 -289.02,32.11 -311.89,-99.67 -4.94,-28.42 -0,-71.59 -28.52,-87.87 -70.26,-40.07 -108.03,85.68 -12.41,212.74 52.35,69.56 130.89,77.17 147.45,88.24 31.31,20.92 51.46,279.2 -58.67,377.43 -5.87,5.24 -12.24,9.74 -18.98,13.51 -35,19.57 -79.89,19.41 -115.53,0 -12.66,-6.89 -24.15,-16.22 -33.62,-27.95 -40.26,-49.88 -62.46,-109.44 -62.02,-173.67 1.07,-157.02 0.07,-314.4 0.07,-471.45zm1272.35 -214.12c25.09,-51.32 43.57,-56.7 46.56,-122.66 3.15,-69.69 -25.1,-73.26 -40.08,-123.73 -9.52,-32.09 20.64,-84.54 19.77,-129.06 -1.15,-58.8 -24.48,-76.16 -51.86,-120.93 -49.47,-80.9 64.7,-87.01 -6.47,-256.01 -23.09,-54.83 -6.02,-67.3 7.83,-121.11 16.83,-65.4 0.38,-86.86 -17.9,-146.4 -14.97,-48.76 6.79,-62.14 34.96,-97.66 94.93,-119.71 106.78,-398.99 -12.76,-507.32 -40.68,-36.87 -92.77,-57.25 -147.15,-62.22l-53.29 0c-62.57,5.59 -124.29,30.73 -171.66,73.88 -32.08,29.22 -40.36,70.56 -71.34,96.1 -28.76,23.7 -78.47,30.44 -114.61,52.74 -45.59,28.14 -51.11,62.65 -81.49,90.58 -43.74,40.21 -131.57,-51.33 -233.15,63.13 -82.98,93.5 -120.3,-22.87 -250.62,38.2 -42.27,19.8 -56.07,40.86 -100.08,9.75 -57.49,-40.64 -50.52,-46.13 -126.5,-44.46 -145.42,3.2 -78.74,-57.11 -164.06,-160.19 -118.25,-142.85 -349.03,-160.52 -512.94,-98.59 -161.7,61.09 -300.07,228.09 -249.85,409.98 12.48,45.21 52.36,67.91 59.87,101.24 7.31,32.44 -22.44,80.55 -14.07,136.44 9.24,61.7 23.04,58.2 -5.53,119.41 -32.05,68.65 -20.18,77.61 3.11,144.02 27.3,77.85 -95.29,96.11 -62.67,224.65 10.21,40.22 43.62,68.75 28.91,110.54 -16.12,45.83 -37.09,62.57 -49.18,119.52 -20.67,97.38 -26.27,186.56 32.77,272.09 74.46,107.86 125.01,25.6 150.37,190.16 7.94,51.49 22.46,87.85 25.54,142.07 5.16,91 -14.9,376.68 177.1,317.36 89.79,-27.74 92.39,-165.65 95.13,-242.34 4.41,-123.67 -24.15,-182.82 -39.73,-297.04l72.77 -30.86c29.76,-14.82 38.13,-20.55 63.63,-41.12 102.69,-82.83 126.14,-184.46 125.13,-304.79 -0.61,-72.8 -30.2,-98.64 -63.06,-152.02 -0.25,-1.57 64.8,-129.79 1.8,-237.16 -11.96,-20.38 -33.63,-39.24 -43.17,-55.61 33.45,-81.78 24.23,-98.34 1.38,-177.06 27.69,-3.25 58.2,1.43 85.87,-2.45 35.81,-5.02 43.25,-21.1 70.89,4.87 70.24,66.02 188.41,84.27 284.41,57.13 15.13,-4.28 50.26,-23.07 61.9,-20.1 0,0 180.4,135.28 344.32,12.55 33.26,-24.9 16.77,-23.14 60.91,-28.13 85.88,-9.7 137.09,-12.8 201.85,-76.61 49.74,9.42 56.33,3.34 101.71,-3.62 10.36,19.98 5.92,23.05 20.89,46.45 9.4,14.69 18.84,25.4 9.52,42.07 -31.61,56.55 -72.95,115.57 -27.76,211.36 29.06,61.59 39.03,26.19 11.17,92.73 -29.4,70.19 0.93,151.48 47.76,205.87 19.36,22.49 -14.07,48.3 -28.93,79.76 -18.23,38.61 -19.09,92.45 -30.45,111.04 -22.21,9.83 -56.09,2.3 -86.44,7.87 -18.14,3.33 -64.06,21.48 -74.39,18.81 -0.25,-0.06 -79.35,-68.12 -109.98,-82.33 -85.74,-39.78 -254.63,-38.09 -343.66,-8.87 -279.56,91.76 -229.65,314.88 -229.65,555.98 0,100.02 -11.47,289.26 14.98,377.83 11.54,38.63 27.77,72.64 47.4,101.45 41.07,60.28 97.05,97.81 156.07,107.32l59.37 0c55.2,-8.95 109.66,-43.32 154,-107.32 6.99,-10.09 13.74,-20.92 20.19,-32.5 57.31,-102.85 40.31,-236.71 40.31,-352.5 34.93,-3.72 108.05,-25.21 132.98,-22.2 37,4.48 67.33,39.38 117.24,46.31 140.61,19.54 150.74,-50.26 257.28,-71.8 199.81,-40.4 123.72,-63.02 209.65,-125.56 32.27,-23.49 151.49,-43.34 151.71,-189.19 0.07,-46.57 -16.09,-95.7 5.44,-139.75z"/>
  </g>
 </g>
</svg>
