<?xml version="1.0" encoding="UTF-8"?>
<!DOCTYPE svg PUBLIC "-//W3C//DTD SVG 1.1//EN" "http://www.w3.org/Graphics/SVG/1.1/DTD/svg11.dtd">
<!-- Creator: CorelDRAW 2018 (64-Bit) -->
<svg xmlns="http://www.w3.org/2000/svg" xml:space="preserve" width="6.66666in" height="6.66666in" version="1.1" style="shape-rendering:geometricPrecision; text-rendering:geometricPrecision; image-rendering:optimizeQuality; fill-rule:evenodd; clip-rule:evenodd"
viewBox="0 0 6666.66 6666.66"
 xmlns:xlink="http://www.w3.org/1999/xlink">
 <defs>
  <style type="text/css">
   <![CDATA[
    .fil1 {fill:#12A7A7}
    .fil0 {fill:black}
    .fil3 {fill:#44269B}
    .fil2 {fill:#45B0C1}
    .fil6 {fill:#FEFEFE}
    .fil5 {fill:#FDFDFD}
    .fil4 {fill:#FDFEFE}
   ]]>
  </style>
 </defs>
<symbol id="m" viewBox="-1510.41 -1754.77 195.74 232.64">
 <path class="fil0" d="M-1314.67 -1742.41l0 57.72c-9.71,-6.51 -19.42,-11.34 -29.08,-14.54 -9.71,-3.15 -19.75,-4.78 -30.17,-4.78 -19.86,0 -35.26,5.81 -46.22,17.36 -11.01,11.45 -16.49,27.51 -16.49,48.18 0,20.83 5.48,37.06 16.49,48.61 10.96,11.45 26.37,17.15 46.22,17.15 11.12,0 21.59,-1.63 31.47,-4.99 9.98,-3.31 19.2,-8.14 27.78,-14.54l0 57.94c-11.18,4.07 -22.46,7.05 -33.85,9.11 -11.28,2.01 -22.73,3.04 -34.29,3.04 -39.93,0 -71.18,-10.2 -93.75,-30.6 -22.57,-20.51 -33.85,-49.1 -33.85,-85.72 0,-36.46 11.28,-64.94 33.85,-85.5 22.57,-20.51 53.82,-30.81 93.75,-30.81 11.56,0 23,1.09 34.29,3.26 11.28,2.06 22.57,5.1 33.85,9.11l-0 -0z"/>
</symbol>
<symbol id="v" viewBox="-1523.88 -1585.07 47.75 58.37">
 <path class="fil0" d="M-1476.13 -1530.82c-2.6,1.3 -5.37,2.33 -8.25,3.04 -2.93,0.7 -5.97,1.09 -9.11,1.09 -9.28,0 -16.66,-2.6 -22.14,-7.81 -5.54,-5.21 -8.25,-12.37 -8.25,-21.48 0,-8.95 2.71,-16.06 8.25,-21.27 5.48,-5.21 12.86,-7.81 22.14,-7.81 3.15,0 6.19,0.38 9.11,1.09 2.87,0.76 5.64,1.74 8.25,3.04l0 11.72c-2.6,-1.85 -5.21,-3.26 -7.81,-4.12 -2.6,-0.87 -5.37,-1.3 -8.25,-1.3 -5.21,0 -9.33,1.68 -12.37,4.99 -2.93,3.36 -4.34,7.92 -4.34,13.67 0,5.97 1.41,10.58 4.34,13.89 3.04,3.36 7.16,4.99 12.37,4.99 2.87,0 5.64,-0.43 8.25,-1.3 2.61,-0.87 5.21,-2.22 7.81,-4.12l0 11.7z"/>
</symbol>
<symbol id="n" viewBox="-1541.23 -1835.5 118.27 395.19">
 <path class="fil0" d="M-1493.71 -1749.35l70.75 0 0 217.67c0,29.62 -7.16,52.3 -21.48,67.93 -14.21,15.63 -34.83,23.44 -61.85,23.44l-34.94 0 0 -46.44 12.37 0c13.46,0 22.62,-3.04 27.56,-9.11 5.05,-6.07 7.59,-18.01 7.59,-35.81l-0 -217.67zm0 -86.15l70.75 0 0 57.72 -70.75 0 0 -57.72z"/>
</symbol>
<symbol id="o" viewBox="-1490.67 -1823.14 243.28 295.36">
 <path class="fil0" d="M-1490.67 -1823.14l126.52 0c37.6,0 66.46,8.41 86.59,25.17 20.07,16.66 30.17,40.36 30.17,71.18 0,30.98 -10.09,54.85 -30.17,71.61 -20.13,16.66 -48.99,24.96 -86.59,24.96l-50.35 0 0 102.43 -76.17 0 0 -295.36zm76.17 55.12l0 82.46 42.31 0c14.76,0 26.09,-3.53 34.07,-10.63 8.08,-7.22 12.15,-17.41 12.15,-30.6 0,-13.13 -4.07,-23.28 -12.15,-30.38 -7.98,-7.22 -19.31,-10.85 -34.07,-10.85l-42.31 -0z"/>
</symbol>
<symbol id="s" viewBox="-1506.73 -1754.77 200.96 232.64">
 <path class="fil0" d="M-1320.75 -1742.41l0 53.82c-15.08,-6.35 -29.68,-11.12 -43.83,-14.32 -14.05,-3.15 -27.34,-4.78 -39.93,-4.78 -13.46,0 -23.44,1.74 -29.95,5.21 -6.51,3.36 -9.76,8.46 -9.76,15.41 0,5.64 2.44,9.98 7.38,13.02 4.88,3.04 13.78,5.31 26.69,6.73l12.37 1.95c36.3,4.5 60.66,12.04 73.13,22.57 12.59,10.58 18.88,27.13 18.88,49.7 0,23.6 -8.79,41.34 -26.26,53.17 -17.36,11.88 -43.35,17.8 -77.91,17.8 -14.65,0 -29.73,-1.19 -45.35,-3.47 -15.63,-2.17 -31.69,-5.54 -48.18,-10.2l0 -53.82c14.16,6.83 28.65,11.94 43.4,15.41 14.87,3.36 30,4.99 45.35,4.99 13.72,0 24.09,-1.85 31.03,-5.64 7.05,-3.74 10.63,-9.39 10.63,-16.93 0,-6.35 -2.5,-11.07 -7.38,-14.11 -4.78,-3.15 -14.32,-5.64 -28.65,-7.38l-12.37 -1.52c-31.57,-3.91 -53.71,-11.18 -66.41,-21.92 -12.59,-10.69 -18.88,-26.96 -18.88,-48.83 0,-23.44 8.03,-40.8 24.09,-52.08 16.06,-11.39 40.69,-17.15 74,-17.15 13.02,0 26.69,1.03 41.02,3.04 14.43,2.06 30.06,5.15 46.87,9.33l0 -0z"/>
</symbol>
<symbol id="r" viewBox="-1519.97 -1835.5 172.09 307.72">
 <path class="fil0" d="M-1347.88 -1835.5l0 46.44 -39.28 0c-9.98,0 -17.04,1.85 -21.05,5.43 -3.91,3.63 -5.86,9.93 -5.86,18.88l0 15.41 60.55 -0 0 50.56 -60.55 0 0 171 -70.74 0 0 -171 -35.16 0 0 -50.56 35.16 0 0 -15.41c0,-24.14 6.73,-41.94 20.18,-53.39 13.46,-11.56 34.29,-17.36 62.5,-17.36l54.25 0z"/>
</symbol>
<symbol id="q" viewBox="-1490.67 -1823.14 264.76 295.36">
 <polygon class="fil0" points="-1490.67,-1823.14 -1405.6,-1823.14 -1298.18,-1620.67 -1298.18,-1823.14 -1225.91,-1823.14 -1225.91,-1527.78 -1310.98,-1527.78 -1418.41,-1730.47 -1418.41,-1527.78 -1490.67,-1527.78 "/>
</symbol>
<symbol id="p" viewBox="-1496.1 -1749.35 222.66 227.21">
 <path class="fil0" d="M-1496.09 -1613.93l0 -135.42 71.18 0 0 22.14c0,12.04 -0.11,27.13 -0.22,45.35 -0.16,18.12 -0.22,30.17 -0.22,36.24 0,17.8 0.43,30.6 1.3,38.41 0.98,7.81 2.6,13.56 4.78,17.15 3.04,4.67 6.83,8.19 11.5,10.63 4.61,2.5 9.98,3.69 16.06,3.69 14.76,0 26.31,-5.64 34.72,-16.93 8.52,-11.28 12.8,-27.02 12.8,-47.31l0 -109.37 70.75 0 0 221.57 -70.75 0 0 -32.12c-10.74,13.02 -22.08,22.57 -34.07,28.65 -11.88,6.07 -24.96,9.11 -39.28,9.11 -25.61,0 -45.14,-7.81 -58.59,-23.44 -13.35,-15.73 -19.96,-38.52 -19.96,-68.36l0 0z"/>
</symbol>
<symbol id="h" viewBox="-1494.15 -1754.78 356.56 227">
 <path class="fil0" d="M-1288.42 -1712.46c8.95,-13.72 19.59,-24.2 31.9,-31.47 12.43,-7.22 26.04,-10.85 40.8,-10.85 25.44,0 44.81,7.92 58.16,23.65 13.29,15.63 19.96,38.41 19.96,68.36l0 134.98 -71.19 0 0 -115.45 0 -5.43c0.11,-1.85 0.22,-4.45 0.22,-7.81 0,-15.73 -2.33,-27.13 -6.94,-34.07 -4.5,-7.05 -11.94,-10.63 -22.35,-10.63 -13.46,0 -23.87,5.59 -31.25,16.71 -7.27,11.01 -11.01,27.02 -11.28,47.96l0 108.72 -71.18 0 0 -115.45c0,-24.57 -2.11,-40.36 -6.3,-47.31 -4.23,-7.05 -11.72,-10.63 -22.57,-10.63 -13.62,0 -24.09,5.59 -31.47,16.71 -7.38,11.18 -11.07,27.07 -11.07,47.74l0 108.94 -71.17 0 0 -221.57 71.18 0 0 32.33c8.68,-12.43 18.67,-21.81 29.95,-28.21 11.28,-6.35 23.71,-9.55 37.33,-9.55 15.3,0 28.86,3.69 40.58,11.07 11.72,7.38 20.62,17.8 26.69,31.25z"/>
</symbol>
<symbol id="c" viewBox="-1510.41 -1754.78 243.49 232.64">
 <path class="fil0" d="M-1388.24 -1704c-15.79,0 -27.78,5.64 -36.02,16.93 -8.24,11.29 -12.37,27.51 -12.37,48.61 0,21.27 4.12,37.54 12.37,48.83 8.25,11.28 20.24,16.93 36.02,16.93 15.3,0 27.02,-5.64 35.16,-16.93 8.25,-11.28 12.37,-27.56 12.37,-48.83 0,-21.1 -4.12,-37.33 -12.37,-48.61 -8.14,-11.28 -19.86,-16.93 -35.16,-16.93zm0 -50.78c38.03,0 67.76,10.36 89.19,31.03 21.38,20.56 32.12,48.99 32.12,85.29 0,36.46 -10.74,65 -32.12,85.5 -21.43,20.56 -51.16,30.81 -89.19,30.81 -38.36,0 -68.31,-10.25 -89.84,-30.81 -21.59,-20.51 -32.33,-49.04 -32.33,-85.5 0,-36.3 10.74,-64.72 32.33,-85.29 21.54,-20.67 51.48,-31.03 89.84,-31.03z"/>
</symbol>
<symbol id="g" viewBox="-1493.71 -1754.78 222.65 227">
 <path class="fil0" d="M-1271.06 -1662.76l0 134.98 -71.18 0 0 -103.3c0,-19.1 -0.43,-32.23 -1.3,-39.5 -0.87,-7.22 -2.33,-12.59 -4.34,-16.06 -2.77,-4.61 -6.51,-8.14 -11.28,-10.63 -4.78,-2.6 -10.2,-3.91 -16.28,-3.91 -14.76,0 -26.42,5.75 -34.94,17.15 -8.41,11.28 -12.59,27.07 -12.59,47.31l0 108.94 -70.75 0 0 -221.57 70.74 0 0 32.33c10.69,-12.86 22.03,-22.35 34.07,-28.43 11.99,-6.19 25.23,-9.33 39.71,-9.33 25.61,0 44.98,7.92 58.16,23.65 13.29,15.63 19.96,38.41 19.96,68.36z"/>
</symbol>
<symbol id="f" viewBox="-1493.71 -1835.5 222.65 307.72">
 <path class="fil0" d="M-1271.06 -1662.76l0 134.98 -71.18 0 0 -102.86c0,-19.37 -0.43,-32.66 -1.3,-39.93 -0.87,-7.22 -2.33,-12.59 -4.34,-16.06 -2.77,-4.61 -6.51,-8.14 -11.28,-10.63 -4.78,-2.6 -10.2,-3.91 -16.28,-3.91 -14.76,0 -26.42,5.75 -34.94,17.15 -8.41,11.28 -12.59,27.07 -12.59,47.31l0 108.94 -70.75 -0 0 -307.72 70.74 0 0 118.49c10.69,-12.86 22.03,-22.35 34.07,-28.43 11.99,-6.19 25.23,-9.33 39.71,-9.33 25.61,0 44.98,7.92 58.16,23.65 13.29,15.63 19.96,38.41 19.96,68.36l0 -0z"/>
</symbol>
<symbol id="t" viewBox="-1493.71 -1835.5 70.75 307.72">
 <path class="fil0" d="M-1493.71 -1749.35l70.75 0 0 221.57 -70.75 0 0 -221.57zm0 -86.15l70.75 0 0 57.72 -70.75 0 0 -57.72z"/>
</symbol>
<symbol id="k" viewBox="-1493.7 -1835.5 237.85 313.36">
 <path class="fil0" d="M-1375.86 -1573.57c15.19,0 26.75,-5.48 34.72,-16.49 7.92,-11.12 11.94,-27.24 11.94,-48.39 0,-20.94 -4.02,-37 -11.94,-48.18 -7.98,-11.12 -19.53,-16.71 -34.72,-16.71 -15.19,0 -26.85,5.59 -34.94,16.71 -8.14,11.18 -12.15,27.24 -12.15,48.18 0,21 4.02,37.06 12.15,48.18 8.08,11.18 19.75,16.71 34.94,16.71zm-47.09 -143.44c9.82,-12.86 20.67,-22.35 32.55,-28.43 11.83,-6.19 25.44,-9.33 40.8,-9.33 27.34,0 49.75,10.85 67.28,32.55 17.63,21.7 26.48,49.64 26.48,83.77 0,34.29 -8.84,62.28 -26.48,83.98 -17.52,21.59 -39.93,32.33 -67.28,32.33 -15.35,0 -28.97,-3.04 -40.8,-9.11 -11.88,-6.07 -22.73,-15.63 -32.55,-28.65l0 32.12 -70.75 0 0 -307.72 70.75 0 0 118.48z"/>
</symbol>
<symbol id="j" viewBox="-1522.79 -1749.35 251.74 309.03">
 <path class="fil0" d="M-1522.79 -1749.35l70.75 0 59.68 150.39 50.56 -150.39 70.74 0 -93.1 242.63c-9.44,24.57 -20.34,41.78 -32.77,51.65 -12.48,9.82 -28.86,14.76 -49.26,14.76l-41.02 0 0 -46.44 22.14 0c11.99,0 20.72,-1.95 26.26,-5.86 5.48,-3.8 9.76,-10.63 12.8,-20.62l1.95 -6.07 -98.74 -230.04z"/>
</symbol>
<symbol id="i" viewBox="-1490.67 -1823.15 266.71 295.37">
 <path class="fil0" d="M-1382.38 -1692.28c15.9,0 27.34,-2.93 34.29,-8.9 6.94,-5.91 10.42,-15.68 10.42,-29.3 0,-13.29 -3.47,-22.84 -10.42,-28.65 -6.94,-5.91 -18.39,-8.9 -34.29,-8.9l-32.12 0 0 75.74 32.12 0zm-32.12 52.74l0 111.76 -76.17 -0 0 -295.36 116.32 0c38.9,0 67.38,6.51 85.5,19.53 18.23,13.02 27.34,33.74 27.34,62.07 0,19.42 -4.72,35.37 -14.11,47.96 -9.44,12.59 -23.65,21.86 -42.75,27.78 10.42,2.33 19.75,7.7 28,16.06 8.25,8.41 16.6,21.05 25.17,37.98l41.23 83.98 -81.16 -0 -35.81 -73.35c-7.38,-14.76 -14.87,-24.8 -22.35,-30.17 -7.38,-5.48 -17.25,-8.25 -29.52,-8.25l-21.7 0.01z"/>
</symbol>
<symbol id="l" viewBox="-1509.55 -1835.5 237.85 313.36">
 <path class="fil0" d="M-1343.1 -1717.02l0 -118.49 71.4 0 0 307.72 -71.4 0 0 -32.12c-9.71,13.19 -20.4,22.79 -32.12,28.86 -11.72,5.91 -25.33,8.9 -40.8,8.9 -27.34,0 -49.8,-10.74 -67.28,-32.33 -17.52,-21.7 -26.26,-49.7 -26.26,-83.98 0,-34.13 8.74,-62.07 26.26,-83.77 17.47,-21.7 39.93,-32.55 67.28,-32.55 15.3,0 28.86,3.15 40.58,9.33 11.83,6.07 22.62,15.57 32.33,28.43l0 0zm-46.66 143.44c15.19,0 26.75,-5.48 34.72,-16.49 7.92,-11.12 11.94,-27.24 11.94,-48.39 0,-20.94 -4.02,-37 -11.94,-48.18 -7.98,-11.12 -19.53,-16.71 -34.72,-16.71 -15.08,0 -26.59,5.59 -34.5,16.71 -7.98,11.18 -11.94,27.24 -11.94,48.18 0,21.16 3.96,37.27 11.94,48.39 7.92,11.01 19.42,16.49 34.5,16.49z"/>
</symbol>
<symbol id="d" viewBox="-1522.35 -1812.28 179.04 284.5">
 <path class="fil0" d="M-1416.45 -1812.28l0 62.93 73.13 0 0 50.56 -73.13 0 0 93.97c0,10.31 2.01,17.31 6.07,21.05 4.18,3.63 12.37,5.43 24.52,5.43l36.24 0 0 50.56 -60.55 0c-28.1,0 -47.96,-5.75 -59.68,-17.36 -11.61,-11.72 -17.36,-31.57 -17.36,-59.68l0 -93.97 -35.15 0 0 -50.56 35.15 0 0 -62.93 70.75 0z"/>
</symbol>
<symbol id="b" viewBox="-1493.7 -1754.77 164.5 227">
 <path class="fil0" d="M-1329.21 -1689.02c-6.24,-2.87 -12.37,-4.99 -18.44,-6.3 -6.07,-1.41 -12.26,-2.17 -18.44,-2.17 -18.23,0 -32.28,5.86 -42.1,17.58 -9.87,11.61 -14.76,28.32 -14.76,50.13l0 102 -70.75 0 0 -221.57 70.74 0 0 36.46c9.11,-14.59 19.53,-25.23 31.25,-31.9 11.83,-6.62 26.04,-9.98 42.54,-9.98 2.44,0 5.05,0.16 7.81,0.43 2.71,0.16 6.73,0.6 11.94,1.3l0.22 64.02z"/>
</symbol>
<symbol id="a" viewBox="-1510.42 -1754.77 237.85 232.64">
 <path class="fil0" d="M-1272.57 -1639.11l0 20.18 -165.58 0c1.74,16.66 7.7,29.08 18.01,37.33 10.25,8.25 24.63,12.37 43.19,12.37 14.87,0 30.17,-2.17 45.79,-6.51 15.63,-4.45 31.69,-11.18 48.18,-20.18l0 54.69c-16.82,6.4 -33.58,11.18 -50.35,14.32 -16.82,3.15 -33.53,4.78 -50.13,4.78 -40.26,0 -71.5,-10.09 -93.75,-30.38 -22.14,-20.4 -33.2,-49.04 -33.2,-85.94 0,-36.02 10.91,-64.34 32.77,-85.07 21.81,-20.83 51.87,-31.25 90.06,-31.25 34.83,0 62.72,10.52 83.55,31.47 20.94,21 31.47,49.04 31.47,84.2l-0 -0zm-72.7 -23.65c0,-13.46 -4.02,-24.31 -11.94,-32.55 -7.81,-8.25 -18.01,-12.37 -30.6,-12.37 -13.78,0 -24.96,3.91 -33.64,11.72 -8.57,7.7 -13.83,18.77 -15.84,33.2l92.02 -0z"/>
</symbol>
<symbol id="u" viewBox="-1507.6 -1828.56 251.3 306.43">
 <path class="fil0" d="M-1256.3 -1544.06c-14.05,7.27 -28.65,12.7 -43.83,16.28 -15.19,3.74 -31.03,5.64 -47.53,5.64 -49.21,0 -88.22,-13.72 -116.97,-41.23 -28.65,-27.45 -42.97,-64.72 -42.97,-111.76 0,-47.31 14.32,-84.69 42.97,-112.2 28.76,-27.45 67.76,-41.23 116.97,-41.23 16.49,0 32.33,1.9 47.53,5.64 15.19,3.63 29.78,9.11 43.83,16.49l0 60.98c-14.21,-9.55 -28.16,-16.55 -41.88,-21.05 -13.62,-4.45 -28,-6.73 -43.19,-6.73 -27.24,0 -48.61,8.68 -64.24,26.04 -15.52,17.36 -23.22,41.4 -23.22,72.05 0,30.38 7.7,54.36 23.22,71.83 15.63,17.36 37,26.04 64.24,26.04 15.19,0 29.57,-2.22 43.19,-6.73 13.72,-4.45 27.67,-11.5 41.88,-21.05l0 60.99z"/>
</symbol>
<symbol id="Symbol1" viewBox="-1524.74 -1970.71 464.18 442.93">
 <path class="fil0" d="M-1203.13 -1608.51l-178.6 0 -28.21 80.73 -114.8 0 164.06 -442.93 136.07 0 164.06 442.93 -114.8 0 -27.77 -80.73zm-150.17 -82.25l121.31 0 -60.55 -176.22 -60.76 176.22z"/>
</symbol>
<symbol id="e" viewBox="-1510.41 -1754.77 224.18 232.63">
 <path class="fil0" d="M-1394.53 -1627.39c-14.76,0 -25.93,2.55 -33.42,7.59 -7.38,4.94 -11.07,12.26 -11.07,21.92 0,9.01 2.93,16 8.9,21.05 6.07,5.1 14.43,7.59 25.17,7.59 13.29,0 24.52,-4.78 33.64,-14.32 9.11,-9.55 13.67,-21.48 13.67,-35.81l0 -8.03 -36.89 0zm108.29 -26.91l0 126.52 -71.4 0 0 -32.77c-9.55,13.46 -20.29,23.22 -32.12,29.3 -11.88,6.07 -26.26,9.11 -43.19,9.11 -23,0 -41.67,-6.62 -55.99,-19.96 -14.32,-13.46 -21.48,-30.81 -21.48,-52.08 0,-26.04 8.9,-45.14 26.69,-57.29 17.91,-12.15 46.06,-18.23 84.42,-18.23l41.67 0 0 -5.43c0,-11.28 -4.45,-19.53 -13.24,-24.74 -8.84,-5.21 -22.68,-7.81 -41.45,-7.81 -15.08,0 -29.19,1.52 -42.32,4.56 -13.02,3.04 -25.12,7.59 -36.24,13.67l0 -54.04c15.03,-3.58 30.22,-6.35 45.57,-8.25 15.3,-2.01 30.65,-3.04 46.01,-3.04 39.93,0 68.69,7.92 86.37,23.65 17.8,15.79 26.69,41.4 26.69,76.82l-0 -0z"/>
</symbol>
<symbol id="Symbol2" viewBox="-1472.01 -1970.71 314.89 442.93">
 <polygon class="fil0" points="-1472.01,-1970.71 -1163.63,-1970.71 -1163.63,-1884.33 -1357.85,-1884.34 -1357.85,-1801.87 -1175.34,-1801.87 -1175.34,-1715.5 -1357.85,-1715.5 -1357.85,-1614.15 -1157.12,-1614.15 -1157.12,-1527.78 -1472.01,-1527.78 "/>
</symbol>
<symbol id="Symbol5" viewBox="-1484.16 -1978.74 349.61 459.63">
 <path class="fil0" d="M-1163.63 -1956.82l0 93.75c-24.47,-10.85 -48.29,-18.99 -71.4,-24.52 -23.17,-5.64 -45.03,-8.46 -65.54,-8.46 -27.24,0 -47.42,3.8 -60.55,11.28 -13.02,7.54 -19.53,19.26 -19.53,35.16 0,11.88 4.39,21.16 13.24,27.78 8.79,6.51 24.8,12.15 47.96,16.93l48.61 9.76c49.15,9.98 84.2,25.07 105.04,45.14 20.83,20.13 31.25,48.77 31.25,85.94 0,48.94 -14.54,85.29 -43.62,109.16 -28.97,23.87 -73.24,35.81 -132.81,35.81 -28.1,0 -56.31,-2.71 -84.64,-8.03 -28.21,-5.31 -56.43,-13.29 -84.64,-23.87l0 -96.35c28.21,15.08 55.45,26.42 81.81,34.07 26.48,7.54 51.98,11.28 76.61,11.28 24.85,0 43.89,-4.12 57.07,-12.37 13.29,-8.35 19.96,-20.24 19.96,-35.59 0,-13.89 -4.5,-24.57 -13.46,-32.12 -9.01,-7.49 -26.91,-14.21 -53.82,-20.18l-44.27 -9.76c-44.27,-9.55 -76.71,-24.63 -97.22,-45.35 -20.4,-20.83 -30.6,-48.83 -30.6,-83.98 0,-44.11 14.21,-78.02 42.75,-101.78 28.48,-23.71 69.44,-35.59 122.83,-35.59 24.31,0 49.31,1.85 75.09,5.43 25.72,3.63 52.35,9.11 79.86,16.49l0 0z"/>
</symbol>
<symbol id="Symbol3" viewBox="-1472.01 -1970.72 399.95 442.93">
 <path class="fil0" d="M-1309.68 -1774.31c23.87,0 41.02,-4.39 51.43,-13.24 10.42,-8.95 15.63,-23.65 15.63,-44.06 0,-20.07 -5.21,-34.5 -15.63,-43.19 -10.42,-8.79 -27.56,-13.24 -51.43,-13.24l-48.18 -0 0 113.72 48.18 0zm-48.18 78.99l0 167.53 -114.15 0 0 -442.93 174.47 0c58.27,0 101.02,9.76 128.26,29.3 27.18,19.53 40.8,50.51 40.8,92.88 0,29.24 -7.11,53.28 -21.27,72.05 -14.05,18.83 -35.32,32.72 -63.8,41.67 15.63,3.47 29.57,11.5 41.88,24.09 12.43,12.59 24.96,31.63 37.54,57.07l62.07 125.87 -121.74 0 -53.82 -110.03c-11.01,-22.14 -22.08,-37.22 -33.2,-45.35 -11.18,-8.08 -26.04,-12.15 -44.7,-12.15l-32.33 0.01z"/>
</symbol>
<symbol id="Symbol6" viewBox="-1520.4 -1860.03 377.82 463.33">
 <path class="fil0" d="M-1520.4 -1860.03l106.33 0 89.19 225.47 75.96 -225.47 106.34 0 -139.75 363.72c-14.05,37 -30.49,62.83 -49.26,77.47 -18.67,14.76 -43.35,22.14 -74,22.14l-61.42 0 0 -69.66 33.2 0c18.07,0 31.14,-2.93 39.28,-8.68 8.25,-5.64 14.65,-15.95 19.31,-30.81l2.82 -9.11 -148.01 -345.06z"/>
</symbol>
<symbol id="Symbol4" viewBox="-1472.01 -1970.71 396.93 442.93">
 <polygon class="fil0" points="-1472.01,-1970.71 -1357.86,-1970.71 -1357.86,-1801.87 -1189.23,-1801.88 -1189.23,-1970.71 -1075.08,-1970.71 -1075.08,-1527.78 -1189.23,-1527.78 -1189.23,-1715.5 -1357.86,-1715.5 -1357.86,-1527.78 -1472.01,-1527.78 "/>
</symbol>
<symbol id="Symbol8" viewBox="-1500.43 -1989.36 356.55 470.26">
 <path class="fil0" d="M-1250.65 -1811.42l0 -177.94 106.77 0 0 461.58 -106.77 0 0 -47.96c-14.65,19.53 -30.76,33.85 -48.39,42.97 -17.69,9.11 -38.09,13.67 -61.2,13.67 -40.96,0 -74.6,-16.28 -100.91,-48.83 -26.2,-32.55 -39.28,-74.44 -39.28,-125.65 0,-51.21 13.07,-93.1 39.28,-125.65 26.31,-32.55 59.95,-48.83 100.91,-48.83 23,0 43.3,4.67 60.98,13.89 17.8,9.11 33.96,23.38 48.61,42.75l0 -0.01zm-70.1 215.06c22.84,0 40.2,-8.3 52.08,-24.96 11.99,-16.6 18.01,-40.69 18.01,-72.26 0,-31.69 -6.02,-55.83 -18.01,-72.48 -11.88,-16.6 -29.24,-24.96 -52.08,-24.96 -22.57,0 -39.88,8.35 -51.87,24.96 -11.88,16.66 -17.8,40.8 -17.8,72.48 0,31.57 5.91,55.67 17.8,72.26 11.99,16.66 29.3,24.96 51.87,24.96z"/>
</symbol>
<symbol id="Symbol10" viewBox="-1519.75 -1954.43 268.44 426.66">
 <path class="fil0" d="M-1360.68 -1954.43l0 94.4 109.37 0 0 75.96 -109.37 0 0 140.85c0,15.52 3.04,25.99 9.11,31.47 6.07,5.37 18.23,8.03 36.46,8.03l54.69 0 0 75.96 -91.15 0c-41.99,0 -71.72,-8.74 -89.19,-26.26 -17.52,-17.47 -26.26,-47.2 -26.26,-89.19l0 -140.85 -52.73 0 0 -75.96 52.73 0 0 -94.4 106.34 0z"/>
</symbol>
<symbol id="Symbol7" viewBox="-1476.78 -1989.36 356.76 470.26">
 <path class="fil0" d="M-1299.92 -1596.35c22.68,0 40.04,-8.3 52.08,-24.96 11.99,-16.6 18.01,-40.69 18.01,-72.26 0,-31.69 -6.02,-55.83 -18.01,-72.48 -12.04,-16.6 -29.41,-24.96 -52.08,-24.96 -22.73,0 -40.15,8.41 -52.3,25.17 -12.15,16.66 -18.23,40.74 -18.23,72.26 0,31.41 6.07,55.5 18.23,72.26 12.15,16.66 29.57,24.96 52.3,24.96l0 0zm-70.53 -215.06c14.59,-19.37 30.81,-33.64 48.61,-42.75 17.8,-9.22 38.25,-13.89 61.41,-13.89 40.91,0 74.54,16.28 100.91,48.83 26.31,32.55 39.5,74.44 39.5,125.65 0,51.21 -13.19,93.1 -39.5,125.65 -26.37,32.55 -60,48.83 -100.91,48.83 -23.17,0 -43.62,-4.67 -61.41,-13.89 -17.8,-9.22 -34.02,-23.49 -48.61,-42.75l0 47.96 -106.33 0.01 0 -461.58 106.33 0 0 177.94z"/>
</symbol>
<symbol id="Symbol9" viewBox="-1501.75 -1868.05 356.78 348.96">
 <path class="fil0" d="M-1144.97 -1694.88l0 30.38 -248.49 0c2.6,24.9 11.56,43.57 26.91,55.99 15.46,12.48 37.11,18.67 64.89,18.67 22.24,0 45.14,-3.26 68.57,-9.76 23.44,-6.62 47.53,-16.71 72.26,-30.17l0 81.81c-25.07,9.55 -50.13,16.71 -75.3,21.48 -25.17,4.88 -50.29,7.38 -75.3,7.38 -60.22,0 -106.99,-15.24 -140.4,-45.79 -33.31,-30.65 -49.91,-73.57 -49.91,-128.69 0,-54.25 16.33,-96.84 49.04,-127.82 32.82,-31.09 77.91,-46.66 135.2,-46.66 52.19,0 94.02,15.79 125.43,47.31 31.36,31.41 47.09,73.35 47.09,125.87l0.01 0zm-109.16 -35.15c0,-20.24 -5.97,-36.51 -17.8,-48.83 -11.72,-12.43 -27.07,-18.67 -46.01,-18.67 -20.72,0 -37.49,5.81 -50.35,17.36 -12.75,11.61 -20.72,28.32 -23.87,50.13l138.02 0z"/>
</symbol>
<symbol id="Symbol12" viewBox="-1476.78 -1868.05 246.96 340.28">
 <path class="fil0" d="M-1229.82 -1769.53c-9.44,-4.34 -18.77,-7.49 -28,-9.55 -9.11,-2.17 -18.34,-3.26 -27.56,-3.26 -27.34,0 -48.39,8.79 -63.15,26.26 -14.65,17.52 -21.92,42.64 -21.92,75.3l0 153 -106.33 -0 0 -332.25 106.34 0 0 54.47c13.56,-21.7 29.19,-37.54 46.87,-47.53 17.8,-9.98 39.06,-14.97 63.8,-14.97 3.47,0 7.27,0.16 11.5,0.43 4.18,0.33 10.2,0.98 18.01,1.95l0.43 96.13z"/>
</symbol>
<symbol id="Symbol13" viewBox="-1497.63 -1978.74 376.96 459.65">
 <path class="fil0" d="M-1120.67 -1552.09c-21,10.85 -42.91,19.04 -65.76,24.52 -22.73,5.64 -46.39,8.46 -70.96,8.46 -73.78,0 -132.32,-20.62 -175.57,-61.85 -43.13,-41.23 -64.67,-97.22 -64.67,-167.97 0,-70.75 21.54,-126.74 64.67,-167.97 43.24,-41.23 101.78,-61.85 175.57,-61.85 24.57,0 48.23,2.77 70.96,8.25 22.84,5.54 44.76,13.78 65.76,24.74l0 91.58c-21.27,-14.43 -42.21,-25.01 -62.72,-31.69 -20.56,-6.78 -42.21,-10.2 -64.89,-10.2 -40.8,0 -72.86,13.13 -96.14,39.28 -23.33,26.04 -34.94,62.01 -34.94,107.85 0,45.74 11.61,81.7 34.94,107.85 23.28,26.04 55.34,39.06 96.14,39.06 22.68,0 44.33,-3.31 64.89,-9.98 20.51,-6.78 41.45,-17.41 62.72,-31.9l0 91.81z"/>
</symbol>
<symbol id="Symbol11" viewBox="-1501.72 -1868.06 336.15 348.96">
 <path class="fil0" d="M-1327.91 -1677.31c-22.14,0 -38.79,3.8 -49.91,11.28 -11.18,7.54 -16.71,18.61 -16.71,33.2 0,13.46 4.45,24.04 13.46,31.69 8.95,7.54 21.48,11.28 37.54,11.28 19.96,0 36.73,-7.16 50.35,-21.48 13.72,-14.32 20.62,-32.23 20.62,-53.82l0 -12.15 -55.34 0zm162.33 -40.15l0 189.67 -106.99 0 0 -49.26c-14.32,20.13 -30.38,34.83 -48.18,44.06 -17.8,9.22 -39.44,13.89 -64.89,13.89 -34.45,0 -62.44,-10.04 -83.98,-30.17 -21.43,-20.07 -32.12,-46.11 -32.12,-78.13 0,-39.06 13.35,-67.6 40.15,-85.72 26.91,-18.23 69.01,-27.34 126.3,-27.34l62.72 -0 0 -8.46c0,-16.76 -6.67,-29.08 -19.96,-36.89 -13.19,-7.81 -33.85,-11.72 -62.07,-11.72 -22.73,0 -43.83,2.33 -63.37,6.94 -19.53,4.5 -37.76,11.28 -54.69,20.4l0 -80.94c22.84,-5.64 45.68,-9.82 68.57,-12.59 23,-2.87 45.9,-4.34 68.79,-4.34 60,0 103.3,11.88 129.78,35.59 26.59,23.6 39.93,61.96 39.93,115.02l0 0z"/>
</symbol>
 <g id="Layer_x0020_1">
  <metadata id="CorelCorpID_0Corel-Layer"/>
  <circle class="fil1" cx="3108.68" cy="3055.43" r="2390.14"/>
  <g id="_2520738917808">
   <g>
    <path class="fil2" d="M4011.87 1870.78c-45.59,39.13 -102.19,76.02 -149.89,113.25 -8.74,6.82 -17.17,14.02 -26.04,20.68 -65.75,49.35 -15.33,123.49 55.77,68.07 15.12,-11.78 30.96,-23.08 46.4,-34.47 48.68,-35.89 109.85,-80.83 154.72,-119.81 12.78,-11.11 41.98,-35 41.98,-53.13 0,-44.04 -57.21,-61.8 -95.12,-86.31 -25.94,-16.77 -51.68,-33.36 -78.47,-48.53 39.66,-37.43 126.07,-97.48 170.84,-129.92 12.85,-9.31 26.8,-21.59 33.69,-36.2 11.13,-23.6 -0.05,-45.98 -23.53,-54.72 -17.63,-6.56 -26.25,-3.49 -41.8,6.41 -45.09,28.71 -130.47,96.28 -175.82,131.41 -13.87,10.74 -27.79,21.85 -41.94,32.2 -53.58,39.21 -62.81,69.7 -4.46,109.24l90.24 54.64 43.43 27.19z"/>
    <path class="fil2" d="M3955.65 2209.56c0,30.96 55.41,55.52 79.24,66.56l71.93 31.28 121.13 59.21c49.02,21.38 82.76,22.88 86.19,-39.63 1.37,-24.98 0.17,-51.14 0.07,-76.23 -0.13,-34.15 3.59,-67.79 5.19,-101.75 31.65,16.12 63.63,31.16 96.44,45.16 40.83,17.43 115.32,73.37 151.85,49.65 13.7,-8.91 17.73,-24.72 17.73,-40.15 0,-12.15 -9.85,-21.47 -18.69,-28.44 -30.06,-23.73 -99.38,-56.92 -133.87,-73.17 -9.5,-4.48 -147.72,-68.83 -159.39,-68.83l-38.24 10.34 -2.06 8.82c-14.63,62.81 -7.84,149.32 -6.58,216.21 -55.63,-21.67 -120.91,-66.62 -180.15,-91.02 -21.66,-8.92 -54.86,-20.55 -75.78,-4.25 -11.31,8.81 -15.03,22.46 -15.03,36.24z"/>
    <path class="fil3" d="M1641.2 3174.57c-64.28,-377.78 204.03,-715.63 512.74,-897.06 178.17,-104.71 392.35,-162.29 596.19,-188.59 188.95,-24.38 388.75,-24.81 577.34,3.27 376.49,56.05 646.05,231.44 895.57,512.63 106.4,119.91 197.65,262.12 262.07,408.89 121.64,277.15 159.04,601.49 -36.97,854.78 -21.33,27.56 -47.09,58.19 -75.78,78.36 -19.81,13.93 -39.52,21.77 -63.62,24.22 -16.67,1.7 -33.48,0.76 -50.2,1.98 -21.23,1.55 -40.52,6.44 -60.3,14.32 -7.1,2.83 -12.77,6.74 -17.46,12.8 -10.11,13.06 -15.89,37.04 -20.71,52.81 -9.45,30.9 -20.45,57.69 -40.65,83.41 -72.07,91.73 -229.48,117.67 -337.38,129.04 -19.13,2.01 -38.5,2.46 -57.73,2.76 -19.75,0.3 -96.74,-1.26 -109.27,15.61 -7.71,10.38 7.14,41.19 11.81,50.18 9.69,18.68 21.63,36.64 32.63,54.59 21.57,35.22 46.62,79.18 39.59,122.05 -6.63,40.45 -38.67,65.27 -74.06,81.03 -30.81,13.71 -63.52,18.31 -95.37,5.11 -54.11,-22.44 -86.31,-89.12 -124.56,-131.79 -54.7,-61.03 -106.38,-124.27 -164.5,-182.22 -26.88,-26.8 -57.52,-45.87 -90.12,-64.75 -31.48,-18.23 -63.96,-36.06 -90.23,-61.63 -6.4,-6.23 -12.38,-12.87 -17.84,-19.95 -12.95,-16.79 -28.49,-31.36 -50.12,-34.87 -22.22,-3.61 -50.67,4.22 -72.2,9.69 -37.57,9.54 -72.45,17.82 -111.52,19.22 -81.97,2.94 -173.83,-11.11 -252.28,-34.36 -99.61,-29.52 -216,-85.91 -261.51,-185.48 -3.05,-6.67 -5.66,-13.53 -7.87,-20.52 -6.29,-19.89 -9.3,-40.56 -10.82,-61.31 -1.96,-26.65 -1.25,-53.37 -3.09,-79.97 -1.2,-17.31 -3.79,-38.74 -13.49,-53.59 -8.38,-12.84 -21.29,-19.3 -35.8,-23.07 -52.75,-13.74 -106.58,-20.3 -160.42,-27.98 -53,-7.55 -106.44,-16.35 -156.59,-35.74 -68.88,-26.65 -120.71,-69.51 -161.54,-131.03 -57.69,-86.92 -86.65,-201.23 -103.94,-302.85z"/>
    <g>
     <path class="fil4" d="M2544.81 3662.35c59.44,-76.82 -8.19,-133.76 124.02,-184.69 -10.38,22.96 2.19,2.25 -12.01,19.43l-30.07 29.99c-13.91,17.75 -22.64,38.65 -28.19,59.81 -10.1,38.53 -19.1,111.21 -18.14,151.56 2.41,100.44 51.6,158.68 136.42,195.75 -50.87,3.33 -40.97,0.42 -76.73,27.57 -18.64,-85.66 -55.86,-91.69 -81.28,-163.82 -33.79,-95.88 -16.22,-81.75 -93.35,-143.19l79.33 7.58zm487.33 -298.29c42.73,-62.18 146.53,5.67 228.39,-21.14 64.77,-21.22 113.15,-76.23 182.13,-78.19 -37.87,7.47 -76.85,42.15 -110.95,70.18 -48.11,39.57 -81.03,37.17 -115.65,63.84 -2.64,85.3 54.44,57.69 110.78,99.64 6.06,4.52 15.92,14.77 20.1,20.98 9.98,14.85 4.71,6.27 9.83,22.88 -106.23,-59.96 -117.08,-63.66 -145.84,63.15 -13.15,-87.87 15.37,-109.63 -37.66,-192.07 -31.24,-48.54 -83.6,-81.31 -141.13,-49.29zm165.49 -633.85c93.07,-90.91 156.39,7.11 250.93,-65.89 68.23,-52.69 95.45,-133.12 13.46,-176.54 49.36,22.94 55.67,37.94 109.33,20.72 43.93,-14.1 96.23,-14.56 145.3,-25.59 -0.57,1.37 18.83,27.17 -61.07,32.01 -142.65,8.63 -81.42,46.11 -143.17,123.65 -51.44,64.58 -167.18,108.72 -111.37,209.42 -49.44,-36.3 -6.8,-78.34 -50.4,-130.62 -84.36,-20.35 -85.01,4.44 -153,12.84zm402.56 -381.09c19.02,-2.93 226.65,-11.41 118.19,-78.07 -65.56,-40.28 -141.11,-36.28 -208.02,-2.91 -64.92,32.39 -27.83,41.72 -65.67,64.05 -0.17,0.09 -253.28,48.08 -236.65,148.88 22.56,51.46 49.09,25.4 65.5,80.07 -43.54,73.98 -231.82,17.25 -311.54,214.96 -79.19,196.4 31.14,251.78 6.69,323.72 -17.03,50.09 -26.01,46.88 -16.59,106.09 66.8,-9.33 27.7,-71.13 200.65,-139.98 153.47,-61.11 56.4,-104.72 77.76,-226.04 9.2,19.19 53.19,261.54 260.45,165.89 146.35,-67.55 96.48,-229.37 195.39,-261.89 -43.95,84.15 -33.15,73.75 -50.95,166.26 -14.82,77 -45.62,83.25 -92.13,129.83 22.28,41.39 51.66,50.17 49.72,107.94 -80.69,-135.93 -111.82,-61.72 -266.81,-97.73 -70.33,-16.35 -63.81,24.79 -125.05,44.16 -194.5,61.5 -115.37,94.44 -216.56,152.69 -47.65,27.43 -68.06,26.8 -107.36,72.07 -58.6,67.51 -91.77,196.04 -29.27,270.22 55.8,-3.87 33.73,-12.07 69.51,-36.3 -52.87,84.09 -78.84,87.22 -12.26,163.08 -16.61,-5.46 -99.59,-90.64 -192.44,17.21 53.68,-59.59 60.91,-44.39 114.66,-84.53 7.07,-58.32 -38.5,-93.38 -36.99,-179.41 1.14,-65.35 33.13,-115.58 36.4,-169.78 -175.78,-69.7 -328.87,64.08 -440.8,175.95 -125.37,125.3 -62.81,371.06 98.19,417.5 -44.45,-5.05 -68.5,-30.13 -106.48,-16.37 -9.38,52.41 101.08,117.24 146.87,135.15 74.13,28.99 174.38,41.89 253.93,40.1 88.05,-1.99 174.81,-19.95 258.04,-45.94 42.26,-13.2 168.48,-56.3 204.02,-88.63 -65.1,-49.49 -74.04,-90.1 -112.96,-124.29 -147.86,0.11 -142.5,39.06 -171.21,149.9 -18.54,-35.9 1.7,-54.17 -34.05,-79.48 -30.46,-21.57 -45.65,-6.57 -76.06,-23.23 80.88,-24.02 35.28,20.9 163.06,-40.37 83.4,-39.99 53.55,-56.17 71.16,-134.13 21.92,49.03 9.9,93.27 87.33,102.61 70.98,8.54 81.17,-15.33 113,-67.13 8.38,41.94 17.19,110.44 141.37,63.07 110.37,-42.1 87.08,-15.96 178.06,28.95 108.75,53.7 287.45,68.03 373.34,-25.73 47.06,-51.35 47.89,-123.39 32.74,-190.21 -23.43,-103.32 -70.45,-49.53 -149.83,-60.52 -69.5,-9.64 -100.96,-70.83 -175.11,-51.03 -63.98,17.09 -62.18,63.97 -164.08,58.99 79.62,-25.56 185.78,-83.63 174.08,-183.5l-70.29 0.73c91.72,-68.61 75.89,-8.2 158.36,-137.27 99.74,-156.11 72.35,-226.28 83.31,-343.59 15.38,-164.39 86.26,-153.56 -43.56,-304.06 65.24,10.05 69.9,55.59 104.68,59.56 14.13,1.61 128.45,-10.98 144.76,-18.69 20.45,-61.4 -19.53,-67.22 -56.44,-103.34 -37.28,-36.48 -44.41,-65.71 -105.55,-59.4 -44.1,30.94 -22.47,40.29 -47.03,63.71 -19.23,-47.59 33.5,-171.28 -64.24,-171.04 -58.06,0.15 -99.55,69.09 -195.23,21.22z"/>
     <path class="fil4" d="M1876.35 3006.85c27.18,-58.99 51.14,-63.15 103.61,-98.82l-7.58 -76.21c8.11,7.38 74.16,75.48 77.78,80.81 -77.52,42.91 -26.61,-8.52 -173.81,94.22zm1108.96 -686.56c-2.34,-28.56 -7.14,-56.87 3.59,-85.01 6.45,-16.92 22.66,-28.39 21.82,-31.6 -12.91,41.11 -14.3,63.51 6.44,100.03 65.91,29.73 53.21,-30.28 112.62,-48.98 -14.68,26.24 -53.41,91.69 -71.74,121.15 -53.83,-48.22 -70.8,-32.89 -142.59,-38.77l69.85 -16.81zm-83.39 -111.21l-22.15 -57.8c-65.83,-7.85 -74.89,12.87 -107.69,55.73 -23.93,31.27 -85.22,43.8 -120.19,29.44 50.47,-31.49 96.13,8.59 105.14,-59.57 -52.4,-37.58 -356.62,9.33 -367.85,123.61 43.55,30.26 73.08,5.76 115.53,27.11 51.14,25.72 -0.41,26.4 62.28,54.67 -41.05,88.06 -65.12,91.64 17.1,165.17 62.59,55.98 72.83,103.19 161.41,52.35 13.57,-69.02 -28.68,-62.69 -0.66,-160.16 23.61,-82.16 -17.23,-70.44 40.56,-140.43 -21.01,61.99 -15.17,31.14 -8.41,95.99 6.18,59.25 -85,258.22 151.09,115.71 -12.25,59.81 -52.83,67.92 -109.43,82.74 -23.56,6.17 -94.77,56 -113.43,73.93 -10.83,50.78 17.07,74.73 -4.02,168.05 -17.85,79.06 28,76.37 38.64,145.98 -95.78,-81.66 -9.26,-90.01 -230.5,-50.13 -108.97,19.65 -201,-29.91 -254.11,64.26 -19.28,34.17 -30.67,75.64 -56.62,102.83 -26.2,27.44 -259.32,144 40.3,246.13 -114.97,11.33 -157.85,-55.22 -210.37,-141.33 -74.33,-17.01 -95.72,6.02 -157.83,-41.81 74.33,4.53 148.73,35.9 217.74,-33.25 -26.3,-21.68 -34.7,-19.82 -50.35,-46.87 55.08,8.22 128.68,35.83 165.68,-27.43 40.77,-69.68 20.54,-70.49 84.67,-143.14 100.91,-14.48 315.85,19.52 377.93,-101.4 38.15,-74.29 -1.53,-115.57 -39.12,-175.41 -57.37,-91.32 -61.01,-63.61 -128.37,-121.61 7.87,-61.14 34.9,-87.89 15.88,-155.49 -65.24,-50.16 -212.55,-24.71 -212.81,86.43l53.68 24.41c-97.67,23.09 -205.32,99.93 -171.15,211.12 55.05,10.65 89.74,-27.76 160.31,-2.02 60.39,22.03 47.28,41.02 129.68,49.28 -103.55,14.52 -128.24,-45.72 -206.74,-26.59 -98.8,24.08 -49.8,96.07 -105.5,153.41l8.51 -69c-96.64,-6.86 -61.71,-23.29 -129.64,-64.57 -142.46,-8.13 -284.34,200.96 -283.48,341.31 0.45,72.18 -55.81,88.95 -13.87,258.28 11.5,46.41 29.49,74.75 78.69,83.67 80.34,14.58 74.3,-15.04 109.56,-55.78 47.4,100.77 188.29,157.78 299,159.39 82.78,1.2 95.96,-33.91 141.76,-84.14 34.44,-37.77 107.9,-77.41 128.83,-110.57 -76.08,-38.99 -139.44,-21.41 -157.7,-133.4 36.6,41.83 110.27,131 172.31,69.2 26.09,-25.98 20.4,-58.3 50.09,-100.02 17.22,-24.16 15.4,-12.37 24.2,-43.57 11.52,-40.86 -2.33,-33.4 17.03,-69.06 25.3,134.29 -40.81,118.34 -34.24,232.94 44.38,1.22 62.28,-27.53 132.76,-24.72 120.22,4.8 178.61,23.22 223.36,-121.51 24.32,-78.63 -8.2,-71.13 -25.35,-136.36 -23.75,-90.31 -5.57,-210.72 49.36,-287.38 126.49,-176.48 294.72,-43.97 208.22,-246.24 44.25,-39.38 69.99,-82.88 132.12,-101.13 137.55,-40.39 103.29,-1.98 167.65,-80.58 40.49,-49.46 60.04,2.43 79.75,-41.59 15.88,-35.46 -41.15,-49.54 -66.89,-52.52 -70.16,-8.12 -123.46,30.38 -198.94,33.94 22.84,-26.57 20.62,-4.7 29.61,-44.83 -50.2,-49.09 -303.06,-47.24 -344.34,-27.83 -46.53,21.88 -31.43,48.34 -58.66,72.15z"/>
     <path class="fil3" d="M3392.9 4155.7l104.51 -45.78 127.45 107.39c-28.79,22.04 -99.45,28.02 -138.56,21.37 -64.34,-10.93 -63.34,-50.7 -93.4,-82.98zm132.93 -68.81l67.11 -63.9c37.67,20.66 84.26,67.15 133.63,92.56 39.71,20.44 135.61,39.09 155.99,69.83 -42.57,30.22 -163.17,36.06 -214.74,18.51 -87.41,-29.75 -120.46,-98.17 -141.99,-117zm-463.1 -31.17c38.28,-27.56 116.48,-51.78 161.39,-45.61 36.43,65.51 27.74,86.69 97.56,122.04 42.91,21.72 69.04,83.13 113.77,114.89 91.96,65.33 36.92,-36.17 128.25,101 29.19,43.83 76.83,92.39 79.46,147.3 -25.81,26.09 -60.53,45.47 -97.12,48.41l-218.42 -258.34c-161.93,-169.28 -211.73,-115.08 -264.87,-229.69zm970.56 61.24c-79.63,69.52 -120.18,41.03 -214.92,5.99 -55.57,-20.56 -154.24,-58.87 -180.16,-106.8 71.48,-43.13 358.42,8.24 395.08,100.81zm-390.59 -149.47c39.52,-144.46 374.84,-66.59 471.95,-9.58 -1.22,43.03 -20.26,82.07 -39.74,119.53 -36.5,-5.09 -127.45,-61.04 -193.34,-77.4 -66.4,-16.48 -202.68,-19.42 -238.87,-32.56zm-53.87 -42.64c-10.74,62.86 -64.48,106.4 -112.47,142.86 -51.21,38.92 -130.91,62.64 -178.8,8.31 -130.69,-148.31 252.98,-154.16 291.27,-151.17zm5.29 -76.59c-41.82,45.06 -304.85,66.96 -340.78,43.04 -23.96,-15.94 -67.89,-56.57 -55.06,-89.92 22.66,-58.84 136.68,28.76 226.72,-14.16 38.92,-18.56 54.96,-40.25 98.22,-16.93 31.81,17.14 65.66,42.84 70.9,77.96zm-1599.91 -299.29c22.16,-72.37 58.63,-39.5 102.48,-26.76 56.28,16.37 115.91,2.79 172.66,17.03 -7.52,137.29 -256.35,28.25 -275.13,9.72zm-217.35 -124.57c66.38,-6.83 223.28,-9.52 250.88,61.94 -32.24,27.85 -98.41,59.37 -141.39,38.74 -37.67,-18.1 -91.91,-64.74 -109.49,-100.69zm2599.06 -263.12c109.3,-167.75 146.26,160.07 132.95,215.09 -36.94,9.16 -101.76,-6.26 -131.59,-29.98 -6.58,-75.76 57.28,-62.65 -1.35,-185.11zm-2670.88 8.6c-22.24,-60.81 -17.75,-148.61 -5.27,-212.37 14.41,-73.55 13.5,-120.05 89.27,-121.5 8.39,48.04 -31.41,115.96 -46.51,165.8 -22.42,74.01 -16.34,139.61 -37.49,168.07zm2357.84 -276.14l-25.04 -55.68c-5.12,57.13 -8.11,183.89 59.03,201.81 75.69,20.21 105.87,-59.67 149.79,-105.42 57.09,-59.46 127.89,-28.51 153.54,38.83 33.51,87.94 -7.56,130.39 -59.01,187.96 40.79,83.88 70.96,28.34 18.97,147.06 -18.03,41.18 18.87,100.71 15.54,176.37l33.74 -100.67c178.66,62.25 109.52,199.46 81.75,222 -36.71,-10.35 -27.66,-17.81 -55.17,-36.35 5.84,47.35 81.34,100.13 11.62,153.49 -54.11,41.39 -83.87,-13.14 -166.81,54.94 64.47,1.21 62.8,-47.68 126.41,-6.07 28.15,108.03 -179.77,151.6 -265.65,137.17 -207.79,-34.92 -137.03,-99.63 -96.41,-228.82 136.21,14.2 123.87,22.8 238.4,-50.95 -19.39,-32.04 -47.76,21.48 -97.04,32.37 -81.43,17.98 -164,-6.42 -164.54,-103.17 -0.32,-55.28 19.81,-51.92 60.43,-76.11 -44.7,3.13 -157.29,14.38 -196.87,12.49 -33.67,-1.6 -139.67,-47.5 -160.16,-67.19 -35.46,-79.34 29,-118.51 66.94,-170.32 49.1,-67.03 51,-127.19 85.67,-181.13 49.01,75.43 -12.25,143.53 219.78,188.76 6.57,31.18 -4.61,47.64 -11.94,76 39.62,-43.65 50.61,-120.43 133.27,-116.34 23.69,61.06 -4.37,145.06 -7.92,208.19 65.59,-64.05 65.03,-237.15 21.54,-323.02 -26.35,43.76 -26.49,90.65 -88.58,120.45 -146.64,70.38 -274.91,-118.7 -244.95,-387.69 15.58,-139.82 40.55,-237.99 209.1,-204.43 80.27,15.98 198.85,138.39 209.05,217.39 -58.27,36.38 -82.99,-22.63 -110.06,70.22 -17.49,60.03 -33.13,86.65 -102.62,73.02 -117.4,-77.52 59.5,-79.21 34.43,-203.9 -11.46,64.13 -8.02,80.11 -76.23,98.77zm-462.7 -544.61c95.69,47.87 137.17,-21.07 195.23,-21.22 97.74,-0.24 45.01,123.44 64.24,171.04 24.56,-23.42 2.93,-32.76 47.03,-63.71 61.14,-6.31 68.26,22.92 105.55,59.4 36.91,36.12 76.89,41.94 56.44,103.34 -16.3,7.71 -130.63,20.3 -144.76,18.69 -34.78,-3.96 -39.44,-49.5 -104.68,-59.56 129.82,150.5 58.94,139.67 43.56,304.06 -10.97,117.31 16.43,187.48 -83.31,343.59 -82.47,129.06 -66.64,68.66 -158.36,137.27l70.29 -0.73c11.7,99.87 -94.46,157.94 -174.08,183.5 101.9,4.98 100.1,-41.9 164.08,-58.99 74.15,-19.8 105.61,41.39 175.11,51.03 79.37,10.99 126.4,-42.8 149.83,60.52 15.15,66.81 14.31,138.86 -32.74,190.21 -85.89,93.76 -264.59,79.43 -373.34,25.73 -90.98,-44.91 -67.7,-71.06 -178.06,-28.95 -124.19,47.37 -133,-21.14 -141.37,-63.07 -31.83,51.8 -42.02,75.68 -113,67.13 -77.43,-9.33 -65.41,-53.57 -87.33,-102.61 -17.61,77.96 12.24,94.13 -71.16,134.13 -127.77,61.27 -82.18,16.35 -163.06,40.37 30.4,16.67 45.59,1.66 76.06,23.23 35.74,25.31 15.51,43.58 34.05,79.48 28.71,-110.83 23.35,-149.79 171.21,-149.9 38.92,34.19 47.87,74.8 112.96,124.29 -35.54,32.33 -161.76,75.43 -204.02,88.63 -83.22,25.99 -169.99,43.95 -258.04,45.94 -79.55,1.79 -179.8,-11.11 -253.93,-40.1 -45.8,-17.91 -156.25,-82.74 -146.87,-135.15 37.98,-13.76 62.03,11.32 106.48,16.37 -161.01,-46.44 -223.56,-292.2 -98.19,-417.5 111.93,-111.87 265.03,-245.65 440.8,-175.95 -3.27,54.2 -35.26,104.43 -36.4,169.78 -1.51,86.04 44.06,121.09 36.99,179.41 -53.75,40.15 -60.98,24.94 -114.66,84.53 92.85,-107.85 175.84,-22.67 192.44,-17.21 -66.58,-75.85 -40.6,-78.98 12.26,-163.08 -35.78,24.22 -13.71,32.43 -69.51,36.3 -62.5,-74.18 -29.33,-202.7 29.27,-270.22 39.3,-45.28 59.71,-44.64 107.36,-72.07 101.19,-58.25 22.06,-91.19 216.56,-152.69 61.24,-19.37 54.72,-60.5 125.05,-44.16 154.98,36.02 186.11,-38.19 266.81,97.73 1.94,-57.76 -27.44,-66.54 -49.72,-107.94 46.51,-46.58 77.31,-52.83 92.13,-129.83 17.8,-92.51 7,-82.1 50.95,-166.26 -98.9,32.52 -49.03,194.34 -195.39,261.89 -207.26,95.65 -251.24,-146.71 -260.45,-165.89 -21.36,121.31 75.71,164.93 -77.76,226.04 -172.94,68.85 -133.85,130.64 -200.65,139.98 -9.41,-59.21 -0.43,-56 16.59,-106.09 24.46,-71.95 -85.87,-127.32 -6.69,-323.72 79.72,-197.7 268,-140.98 311.54,-214.96 -16.41,-54.67 -42.93,-28.61 -65.5,-80.07 -16.63,-100.8 236.48,-148.79 236.65,-148.88 37.84,-22.33 0.76,-31.66 65.67,-64.05 66.9,-33.38 142.46,-37.37 208.02,2.91 108.46,66.65 -99.17,75.14 -118.19,78.07zm-1675.64 209.55c41.7,-94.25 332.23,-310.42 449.83,-309.61 5.56,85.86 -46.16,103.29 -101.99,134.36 53.39,82.83 -80,133.68 -120.45,219.42 -56.24,7.35 -68.52,-6.88 -134.97,10.3 2.56,1.07 6.06,1.5 8.11,1.84l64.46 7.48c71.44,14.62 106.35,97.12 55.67,123.69 -83.85,15.7 -58.6,-98.98 -207.4,-18.07 -131.2,71.33 -92.34,118.27 -172.21,79.29 -15.42,-63.92 71.75,-179.72 123.67,-207.34 46.11,-24.53 87.33,-16.65 115.56,-54.04 48.97,-64.89 36.65,-33.47 98.26,-70.32 -122.48,1.34 -82.68,86.02 -178.53,83zm977.39 -349.59c27.24,-23.81 12.13,-50.27 58.66,-72.15 41.28,-19.41 294.14,-21.26 344.34,27.83 -8.99,40.13 -6.77,18.26 -29.61,44.83 75.48,-3.56 128.78,-42.06 198.94,-33.94 25.74,2.98 82.76,17.05 66.89,52.52 -19.71,44.03 -39.26,-7.86 -79.75,41.59 -64.35,78.61 -30.09,40.19 -167.65,80.58 -62.13,18.24 -87.87,61.74 -132.12,101.13 86.5,202.27 -81.73,69.76 -208.22,246.24 -54.93,76.66 -73.11,197.07 -49.36,287.38 17.15,65.23 49.67,57.73 25.35,136.36 -44.76,144.73 -103.15,126.31 -223.36,121.51 -70.48,-2.81 -88.38,25.94 -132.76,24.72 -6.57,-114.6 59.54,-98.65 34.24,-232.94 -19.36,35.66 -5.51,28.2 -17.03,69.06 -8.8,31.2 -6.98,19.41 -24.2,43.57 -29.69,41.71 -24,74.03 -50.09,100.02 -62.05,61.79 -135.71,-27.37 -172.31,-69.2 18.25,111.99 81.62,94.41 157.7,133.4 -20.93,33.17 -94.39,72.81 -128.83,110.57 -45.81,50.23 -58.98,85.34 -141.76,84.14 -110.7,-1.6 -251.6,-58.61 -299,-159.39 -35.26,40.74 -29.22,70.36 -109.56,55.78 -49.2,-8.92 -67.19,-37.26 -78.69,-83.67 -41.94,-169.33 14.32,-186.1 13.87,-258.28 -0.86,-140.34 141.02,-349.44 283.48,-341.31 67.93,41.28 33,57.7 129.64,64.57l-8.51 69c55.7,-57.34 6.71,-129.33 105.5,-153.41 78.5,-19.14 103.19,41.11 206.74,26.59 -82.4,-8.26 -69.29,-27.25 -129.68,-49.28 -70.57,-25.74 -105.27,12.68 -160.31,2.02 -34.17,-111.2 73.49,-188.03 171.15,-211.12l-53.68 -24.41c0.26,-111.14 147.57,-136.59 212.81,-86.43 19.02,67.59 -8,94.35 -15.88,155.49 67.36,58 71,30.3 128.37,121.61 37.59,59.84 77.27,101.13 39.12,175.41 -62.09,120.92 -277.02,86.92 -377.93,101.4 -64.13,72.65 -43.9,73.46 -84.67,143.14 -37,63.26 -110.6,35.65 -165.68,27.43 15.65,27.05 24.05,25.19 50.35,46.87 -69,69.15 -143.41,37.78 -217.74,33.25 62.11,47.83 83.5,24.8 157.83,41.81 52.52,86.11 95.4,152.66 210.37,141.33 -299.62,-102.13 -66.5,-218.69 -40.3,-246.13 25.95,-27.19 37.34,-68.67 56.62,-102.83 53.11,-94.17 145.14,-44.62 254.11,-64.26 221.23,-39.89 134.72,-31.53 230.5,50.13 -10.64,-69.6 -56.49,-66.92 -38.64,-145.98 21.09,-93.32 -6.8,-117.27 4.02,-168.05 18.65,-17.94 89.86,-67.77 113.43,-73.93 56.6,-14.82 97.18,-22.93 109.43,-82.74 -236.09,142.52 -144.91,-56.46 -151.09,-115.71 -6.76,-64.85 -12.59,-34 8.41,-95.99 -57.79,70 -16.94,58.27 -40.56,140.43 -28.02,97.48 14.23,91.15 0.66,160.16 -88.58,50.83 -98.81,3.63 -161.41,-52.35 -82.22,-73.54 -58.15,-77.11 -17.1,-165.17 -62.7,-28.27 -11.15,-28.95 -62.28,-54.67 -42.45,-21.35 -71.98,3.15 -115.53,-27.11 11.23,-114.28 315.45,-161.2 367.85,-123.61 -9,68.17 -54.67,28.08 -105.14,59.57 34.97,14.36 96.26,1.83 120.19,-29.44 32.8,-42.85 41.87,-63.58 107.69,-55.73l22.15 57.8zm-1235.6 961.22c85.26,501.01 321.43,414.09 563.8,477.21 108.26,28.2 44.94,158.72 87.83,252.53 69.81,152.75 339.78,210.36 489.69,204.97 118.91,-4.27 185.54,-74.14 254.94,15.87 45.62,59.14 128.17,76.22 196,143.85 61.11,60.93 108.68,119.9 165.48,183.26 59.44,66.31 92.79,163.93 190.58,120.4 121.36,-54.02 27.89,-148.8 -10.42,-222.66 -66,-127.24 77.5,-95.33 175.15,-105.62 448.57,-47.23 306.11,-235.19 409.44,-276.39 114.01,-45.45 127.52,33.47 239.18,-110.82 291.17,-376.25 49.69,-922.72 -224.01,-1231.17 -245.53,-276.69 -509.56,-449.15 -880.26,-504.33 -362.59,-53.98 -835.5,-6.78 -1156.87,182.09 -298.9,175.66 -563,503.75 -500.54,870.81z"/>
     <path class="fil4" d="M4062.88 2893.74c68.22,-18.67 64.77,-34.64 76.23,-98.77 25.08,124.69 -151.83,126.38 -34.43,203.9 69.48,13.63 85.13,-12.99 102.62,-73.02 27.07,-92.85 51.78,-33.83 110.06,-70.22 -10.2,-79.01 -128.78,-201.41 -209.05,-217.39 -168.55,-33.57 -193.52,64.6 -209.1,204.43 -29.96,268.99 98.31,458.07 244.95,387.69 62.09,-29.8 62.22,-76.69 88.58,-120.45 43.49,85.87 44.05,258.98 -21.54,323.02 3.56,-63.13 31.61,-147.13 7.92,-208.19 -82.66,-4.09 -93.65,72.69 -133.27,116.34 7.32,-28.35 18.5,-44.82 11.94,-76 -232.03,-45.23 -170.76,-113.33 -219.78,-188.76 -34.67,53.94 -36.57,114.1 -85.67,181.13 -37.94,51.81 -102.41,90.98 -66.94,170.32 20.49,19.69 126.49,65.59 160.16,67.19 39.58,1.89 152.17,-9.36 196.87,-12.49 -40.63,24.2 -60.75,20.83 -60.43,76.11 0.54,96.76 83.1,121.15 164.54,103.17 49.28,-10.89 77.65,-64.41 97.04,-32.37 -114.53,73.75 -102.19,65.15 -238.4,50.95 -40.62,129.19 -111.38,193.9 96.41,228.82 85.89,14.43 293.81,-29.14 265.65,-137.17 -63.6,-41.61 -61.93,7.28 -126.41,6.07 82.94,-68.07 112.7,-13.54 166.81,-54.94 69.72,-53.35 -5.78,-106.14 -11.62,-153.49 27.5,18.55 18.45,26 55.17,36.35 27.76,-22.54 96.91,-159.75 -81.75,-222l-33.74 100.67c3.33,-75.65 -33.57,-135.19 -15.54,-176.37 51.98,-118.72 21.82,-63.18 -18.97,-147.06 51.46,-57.57 92.52,-100.02 59.01,-187.96 -25.65,-67.33 -96.44,-98.29 -153.54,-38.83 -43.92,45.75 -74.1,125.63 -149.79,105.42 -67.13,-17.93 -64.15,-144.68 -59.03,-201.81l25.04 55.68z"/>
     <path class="fil4" d="M1924.54 2558.67c95.85,3.02 56.05,-81.66 178.53,-83 -61.61,36.85 -49.29,5.44 -98.26,70.32 -28.22,37.38 -69.44,29.51 -115.56,54.04 -51.93,27.62 -139.09,143.43 -123.67,207.34 79.87,38.98 41.02,-7.96 172.21,-79.29 148.8,-80.91 123.56,33.77 207.4,18.07 50.68,-26.56 15.77,-109.07 -55.67,-123.69l-64.46 -7.48c-2.05,-0.34 -5.56,-0.77 -8.11,-1.84 66.45,-17.18 78.73,-2.95 134.97,-10.3 40.45,-85.74 173.84,-136.58 120.45,-219.42 55.83,-31.07 107.55,-48.5 101.99,-134.36 -117.6,-0.81 -408.13,215.36 -449.83,309.61z"/>
     <path class="fil4" d="M3546.02 4543.76c36.59,-2.94 71.31,-22.31 97.12,-48.41 -2.63,-54.9 -50.27,-103.46 -79.46,-147.3 -91.33,-137.17 -36.29,-35.67 -128.25,-101 -44.72,-31.77 -70.85,-93.17 -113.77,-114.89 -69.81,-35.35 -61.13,-56.53 -97.56,-122.04 -44.9,-6.17 -123.11,18.04 -161.39,45.61 53.14,114.61 102.95,60.41 264.87,229.69l218.42 258.34z"/>
     <path class="fil4" d="M3642.69 3967.49c36.19,13.13 172.47,16.08 238.87,32.56 65.89,16.36 156.84,72.31 193.34,77.4 19.48,-37.46 38.51,-76.5 39.74,-119.53 -97.11,-57.01 -432.43,-134.88 -471.95,9.58z"/>
     <path class="fil4" d="M3594.11 3848.25c-5.24,-35.12 -39.09,-60.83 -70.9,-77.96 -43.25,-23.33 -59.3,-1.63 -98.22,16.93 -90.04,42.93 -204.06,-44.68 -226.72,14.16 -12.83,33.34 31.09,73.98 55.06,89.92 35.93,23.92 298.96,2.02 340.78,-43.04z"/>
     <path class="fil4" d="M3588.82 3924.85c-38.3,-2.99 -421.96,2.86 -291.27,151.17 47.89,54.33 127.59,30.61 178.8,-8.31 47.98,-36.46 101.72,-80 112.47,-142.86z"/>
     <path class="fil4" d="M4033.29 4116.96c-36.66,-92.57 -323.6,-143.94 -395.08,-100.81 25.92,47.93 124.58,86.24 180.16,106.8 94.74,35.04 135.29,63.53 214.92,-5.99z"/>
     <path class="fil5" d="M3525.82 4086.89c21.52,18.83 54.57,87.25 141.99,117 51.57,17.55 172.17,11.71 214.74,-18.51 -20.38,-30.74 -116.28,-49.39 -155.99,-69.83 -49.37,-25.41 -95.96,-71.9 -133.63,-92.56l-67.11 63.9z"/>
     <path class="fil4" d="M4375.91 3161.28c58.63,122.46 -5.23,109.35 1.35,185.11 29.83,23.72 94.65,39.13 131.59,29.98 13.31,-55.01 -23.65,-382.84 -132.95,-215.09z"/>
     <path class="fil3" d="M3032.14 3364.06c57.53,-32.02 109.89,0.75 141.13,49.29 53.04,82.43 24.52,104.2 37.66,192.07 28.76,-126.81 39.61,-123.11 145.84,-63.15 -5.12,-16.61 0.15,-8.03 -9.83,-22.88 -4.18,-6.21 -14.04,-16.46 -20.1,-20.98 -56.33,-41.95 -113.41,-14.35 -110.78,-99.64 34.61,-26.67 67.53,-24.27 115.65,-63.84 34.1,-28.04 73.08,-62.71 110.95,-70.18 -68.98,1.95 -117.37,56.96 -182.13,78.19 -81.86,26.81 -185.65,-41.04 -228.39,21.14z"/>
     <path class="fil3" d="M3197.63 2730.21c68,-8.4 68.64,-33.19 153,-12.84 43.59,52.28 0.96,94.32 50.4,130.62 -55.81,-100.7 59.92,-144.83 111.37,-209.42 61.75,-77.54 0.53,-115.02 143.17,-123.65 79.91,-4.84 60.51,-30.65 61.07,-32.01 -49.07,11.03 -101.37,11.48 -145.3,25.59 -53.66,17.23 -59.96,2.22 -109.33,-20.72 81.98,43.42 54.76,123.85 -13.46,176.54 -94.54,73 -157.85,-25.02 -250.93,65.89z"/>
     <path class="fil3" d="M2544.81 3662.35l-79.33 -7.58c77.14,61.44 59.56,47.31 93.35,143.19 25.42,72.13 62.64,78.16 81.28,163.82 35.76,-27.15 25.86,-24.24 76.73,-27.57 -84.82,-37.07 -134.01,-95.31 -136.42,-195.75 -0.96,-40.35 8.04,-113.02 18.14,-151.56 5.54,-21.16 14.28,-42.07 28.19,-59.81l30.07 -29.99c14.2,-17.19 1.63,3.53 12.01,-19.43 -132.21,50.93 -64.57,107.87 -124.02,184.69z"/>
     <path class="fil4" d="M1776.85 3424.39c17.58,35.94 71.82,82.59 109.49,100.69 42.98,20.63 109.15,-10.9 141.39,-38.74 -27.6,-71.46 -184.5,-68.77 -250.88,-61.94z"/>
     <path class="fil5" d="M1994.2 3548.96c18.78,18.52 267.61,127.57 275.13,-9.72 -56.75,-14.24 -116.38,-0.66 -172.66,-17.03 -43.84,-12.74 -80.31,-45.62 -102.48,26.76z"/>
     <path class="fil4" d="M3392.9 4155.7c30.06,32.28 29.06,72.04 93.4,82.98 39.11,6.65 109.78,0.66 138.56,-21.37l-127.45 -107.39 -104.51 45.78z"/>
     <path class="fil5" d="M1705.04 3169.88c21.15,-28.46 15.07,-94.06 37.49,-168.07 15.1,-49.83 54.91,-117.75 46.51,-165.8 -75.77,1.44 -74.87,47.95 -89.27,121.5 -12.48,63.76 -16.97,151.56 5.27,212.37z"/>
     <path class="fil3" d="M2985.31 2320.29l-69.85 16.81c71.78,5.89 88.75,-9.45 142.59,38.77 18.33,-29.46 57.06,-94.9 71.74,-121.15 -59.41,18.7 -46.71,78.72 -112.62,48.98 -20.74,-36.52 -19.35,-58.92 -6.44,-100.03 0.83,3.21 -15.37,14.68 -21.82,31.6 -10.73,28.14 -5.93,56.45 -3.59,85.01z"/>
     <path class="fil3" d="M1979.96 2908.03c-52.47,35.67 -76.43,39.83 -103.61,98.82 147.2,-102.74 96.29,-51.3 173.81,-94.22 -3.62,-5.33 -69.67,-73.43 -77.78,-80.81l7.58 76.21z"/>
    </g>
   </g>
   <path class="fil6" d="M3861.98 1984.03c-8.74,6.82 -17.17,14.02 -26.04,20.68 -65.75,49.35 -15.33,123.49 55.77,68.07 15.12,-11.78 30.96,-23.08 46.4,-34.47 48.68,-35.89 109.85,-80.83 154.72,-119.81 12.78,-11.11 41.98,-35 41.98,-53.13 0,-44.04 -57.21,-61.8 -95.12,-86.31 -25.94,-16.77 -51.68,-33.36 -78.47,-48.53 39.66,-37.43 126.07,-97.48 170.84,-129.92 12.85,-9.31 26.8,-21.59 33.69,-36.2 11.13,-23.6 -0.05,-45.98 -23.53,-54.72 -17.63,-6.56 -26.25,-3.49 -41.8,6.41 -45.09,28.71 -130.47,96.28 -175.82,131.41 -13.87,10.74 -27.79,21.85 -41.94,32.2 -53.58,39.21 -62.81,69.7 -4.46,109.24l90.24 54.64 43.43 27.19c-45.59,39.13 -102.19,76.02 -149.89,113.25z"/>
   <path class="fil6" d="M4226.61 2268.59c-55.63,-21.67 -120.91,-66.62 -180.15,-91.02 -21.66,-8.92 -54.86,-20.55 -75.78,-4.25 -11.31,8.81 -15.03,22.46 -15.03,36.24 0,30.96 55.41,55.52 79.24,66.56l71.93 31.28 121.13 59.21c49.02,21.38 82.76,22.88 86.19,-39.63 1.37,-24.98 0.17,-51.14 0.07,-76.23 -0.13,-34.15 3.59,-67.79 5.19,-101.75 31.65,16.12 63.63,31.16 96.44,45.16 40.83,17.43 115.32,73.37 151.85,49.65 13.7,-8.91 17.73,-24.72 17.73,-40.15 0,-12.15 -9.85,-21.47 -18.69,-28.44 -30.06,-23.73 -99.38,-56.92 -133.87,-73.17 -9.5,-4.48 -147.72,-68.83 -159.39,-68.83l-38.24 10.34 -2.06 8.82c-14.63,62.81 -7.84,149.32 -6.58,216.21z"/>
  </g>
 </g>
</svg>
