<?xml version="1.0" encoding="UTF-8"?>
<!DOCTYPE svg PUBLIC "-//W3C//DTD SVG 1.1//EN" "http://www.w3.org/Graphics/SVG/1.1/DTD/svg11.dtd">
<!-- Creator: CorelDRAW 2018 (64-Bit) -->
<svg xmlns="http://www.w3.org/2000/svg" xml:space="preserve" width="6.66666in" height="6.66666in" version="1.1" style="shape-rendering:geometricPrecision; text-rendering:geometricPrecision; image-rendering:optimizeQuality; fill-rule:evenodd; clip-rule:evenodd"
viewBox="0 0 6666.66 6666.66"
 xmlns:xlink="http://www.w3.org/1999/xlink">
 <defs>
  <style type="text/css">
   <![CDATA[
    .fil1 {fill:#12A7A7}
    .fil0 {fill:black}
    .fil4 {fill:#2EBDB6}
    .fil2 {fill:#44269B}
    .fil5 {fill:#45B0C1}
    .fil6 {fill:#FEFEFE}
    .fil3 {fill:white}
   ]]>
  </style>
 </defs>
<symbol id="v" viewBox="-1523.88 -1585.07 47.75 58.37">
 <path class="fil0" d="M-1476.13 -1530.82c-2.6,1.3 -5.37,2.33 -8.25,3.04 -2.93,0.7 -5.97,1.09 -9.11,1.09 -9.28,0 -16.66,-2.6 -22.14,-7.81 -5.54,-5.21 -8.25,-12.37 -8.25,-21.48 0,-8.95 2.71,-16.06 8.25,-21.27 5.48,-5.21 12.86,-7.81 22.14,-7.81 3.15,0 6.19,0.38 9.11,1.09 2.87,0.76 5.64,1.74 8.25,3.04l0 11.72c-2.6,-1.85 -5.21,-3.26 -7.81,-4.12 -2.6,-0.87 -5.37,-1.3 -8.25,-1.3 -5.21,0 -9.33,1.68 -12.37,4.99 -2.93,3.36 -4.34,7.92 -4.34,13.67 0,5.97 1.41,10.58 4.34,13.89 3.04,3.36 7.16,4.99 12.37,4.99 2.87,0 5.64,-0.43 8.25,-1.3 2.61,-0.87 5.21,-2.22 7.81,-4.12l0 11.7z"/>
</symbol>
<symbol id="m" viewBox="-1510.41 -1754.77 195.74 232.64">
 <path class="fil0" d="M-1314.67 -1742.41l0 57.72c-9.71,-6.51 -19.42,-11.34 -29.08,-14.54 -9.71,-3.15 -19.75,-4.78 -30.17,-4.78 -19.86,0 -35.26,5.81 -46.22,17.36 -11.01,11.45 -16.49,27.51 -16.49,48.18 0,20.83 5.48,37.06 16.49,48.61 10.96,11.45 26.37,17.15 46.22,17.15 11.12,0 21.59,-1.63 31.47,-4.99 9.98,-3.31 19.2,-8.14 27.78,-14.54l0 57.94c-11.18,4.07 -22.46,7.05 -33.85,9.11 -11.28,2.01 -22.73,3.04 -34.29,3.04 -39.93,0 -71.18,-10.2 -93.75,-30.6 -22.57,-20.51 -33.85,-49.1 -33.85,-85.72 0,-36.46 11.28,-64.94 33.85,-85.5 22.57,-20.51 53.82,-30.81 93.75,-30.81 11.56,0 23,1.09 34.29,3.26 11.28,2.06 22.57,5.1 33.85,9.11l-0 -0z"/>
</symbol>
<symbol id="n" viewBox="-1541.23 -1835.5 118.27 395.19">
 <path class="fil0" d="M-1493.71 -1749.35l70.75 0 0 217.67c0,29.62 -7.16,52.3 -21.48,67.93 -14.21,15.63 -34.83,23.44 -61.85,23.44l-34.94 0 0 -46.44 12.37 0c13.46,0 22.62,-3.04 27.56,-9.11 5.05,-6.07 7.59,-18.01 7.59,-35.81l-0 -217.67zm0 -86.15l70.75 0 0 57.72 -70.75 0 0 -57.72z"/>
</symbol>
<symbol id="o" viewBox="-1490.67 -1823.14 243.28 295.36">
 <path class="fil0" d="M-1490.67 -1823.14l126.52 0c37.6,0 66.46,8.41 86.59,25.17 20.07,16.66 30.17,40.36 30.17,71.18 0,30.98 -10.09,54.85 -30.17,71.61 -20.13,16.66 -48.99,24.96 -86.59,24.96l-50.35 0 0 102.43 -76.17 0 0 -295.36zm76.17 55.12l0 82.46 42.31 0c14.76,0 26.09,-3.53 34.07,-10.63 8.08,-7.22 12.15,-17.41 12.15,-30.6 0,-13.13 -4.07,-23.28 -12.15,-30.38 -7.98,-7.22 -19.31,-10.85 -34.07,-10.85l-42.31 -0z"/>
</symbol>
<symbol id="r" viewBox="-1519.97 -1835.5 172.09 307.72">
 <path class="fil0" d="M-1347.88 -1835.5l0 46.44 -39.28 0c-9.98,0 -17.04,1.85 -21.05,5.43 -3.91,3.63 -5.86,9.93 -5.86,18.88l0 15.41 60.55 -0 0 50.56 -60.55 0 0 171 -70.74 0 0 -171 -35.16 0 0 -50.56 35.16 0 0 -15.41c0,-24.14 6.73,-41.94 20.18,-53.39 13.46,-11.56 34.29,-17.36 62.5,-17.36l54.25 0z"/>
</symbol>
<symbol id="q" viewBox="-1490.67 -1823.14 264.76 295.36">
 <polygon class="fil0" points="-1490.67,-1823.14 -1405.6,-1823.14 -1298.18,-1620.67 -1298.18,-1823.14 -1225.91,-1823.14 -1225.91,-1527.78 -1310.98,-1527.78 -1418.41,-1730.47 -1418.41,-1527.78 -1490.67,-1527.78 "/>
</symbol>
<symbol id="t" viewBox="-1493.71 -1835.5 70.75 307.72">
 <path class="fil0" d="M-1493.71 -1749.35l70.75 0 0 221.57 -70.75 0 0 -221.57zm0 -86.15l70.75 0 0 57.72 -70.75 0 0 -57.72z"/>
</symbol>
<symbol id="p" viewBox="-1496.1 -1749.35 222.66 227.21">
 <path class="fil0" d="M-1496.09 -1613.93l0 -135.42 71.18 0 0 22.14c0,12.04 -0.11,27.13 -0.22,45.35 -0.16,18.12 -0.22,30.17 -0.22,36.24 0,17.8 0.43,30.6 1.3,38.41 0.98,7.81 2.6,13.56 4.78,17.15 3.04,4.67 6.83,8.19 11.5,10.63 4.61,2.5 9.98,3.69 16.06,3.69 14.76,0 26.31,-5.64 34.72,-16.93 8.52,-11.28 12.8,-27.02 12.8,-47.31l0 -109.37 70.75 0 0 221.57 -70.75 0 0 -32.12c-10.74,13.02 -22.08,22.57 -34.07,28.65 -11.88,6.07 -24.96,9.11 -39.28,9.11 -25.61,0 -45.14,-7.81 -58.59,-23.44 -13.35,-15.73 -19.96,-38.52 -19.96,-68.36l0 0z"/>
</symbol>
<symbol id="s" viewBox="-1506.73 -1754.77 200.96 232.64">
 <path class="fil0" d="M-1320.75 -1742.41l0 53.82c-15.08,-6.35 -29.68,-11.12 -43.83,-14.32 -14.05,-3.15 -27.34,-4.78 -39.93,-4.78 -13.46,0 -23.44,1.74 -29.95,5.21 -6.51,3.36 -9.76,8.46 -9.76,15.41 0,5.64 2.44,9.98 7.38,13.02 4.88,3.04 13.78,5.31 26.69,6.73l12.37 1.95c36.3,4.5 60.66,12.04 73.13,22.57 12.59,10.58 18.88,27.13 18.88,49.7 0,23.6 -8.79,41.34 -26.26,53.17 -17.36,11.88 -43.35,17.8 -77.91,17.8 -14.65,0 -29.73,-1.19 -45.35,-3.47 -15.63,-2.17 -31.69,-5.54 -48.18,-10.2l0 -53.82c14.16,6.83 28.65,11.94 43.4,15.41 14.87,3.36 30,4.99 45.35,4.99 13.72,0 24.09,-1.85 31.03,-5.64 7.05,-3.74 10.63,-9.39 10.63,-16.93 0,-6.35 -2.5,-11.07 -7.38,-14.11 -4.78,-3.15 -14.32,-5.64 -28.65,-7.38l-12.37 -1.52c-31.57,-3.91 -53.71,-11.18 -66.41,-21.92 -12.59,-10.69 -18.88,-26.96 -18.88,-48.83 0,-23.44 8.03,-40.8 24.09,-52.08 16.06,-11.39 40.69,-17.15 74,-17.15 13.02,0 26.69,1.03 41.02,3.04 14.43,2.06 30.06,5.15 46.87,9.33l0 -0z"/>
</symbol>
<symbol id="g" viewBox="-1493.71 -1754.78 222.65 227">
 <path class="fil0" d="M-1271.06 -1662.76l0 134.98 -71.18 0 0 -103.3c0,-19.1 -0.43,-32.23 -1.3,-39.5 -0.87,-7.22 -2.33,-12.59 -4.34,-16.06 -2.77,-4.61 -6.51,-8.14 -11.28,-10.63 -4.78,-2.6 -10.2,-3.91 -16.28,-3.91 -14.76,0 -26.42,5.75 -34.94,17.15 -8.41,11.28 -12.59,27.07 -12.59,47.31l0 108.94 -70.75 0 0 -221.57 70.74 0 0 32.33c10.69,-12.86 22.03,-22.35 34.07,-28.43 11.99,-6.19 25.23,-9.33 39.71,-9.33 25.61,0 44.98,7.92 58.16,23.65 13.29,15.63 19.96,38.41 19.96,68.36z"/>
</symbol>
<symbol id="f" viewBox="-1493.71 -1835.5 222.65 307.72">
 <path class="fil0" d="M-1271.06 -1662.76l0 134.98 -71.18 0 0 -102.86c0,-19.37 -0.43,-32.66 -1.3,-39.93 -0.87,-7.22 -2.33,-12.59 -4.34,-16.06 -2.77,-4.61 -6.51,-8.14 -11.28,-10.63 -4.78,-2.6 -10.2,-3.91 -16.28,-3.91 -14.76,0 -26.42,5.75 -34.94,17.15 -8.41,11.28 -12.59,27.07 -12.59,47.31l0 108.94 -70.75 -0 0 -307.72 70.74 0 0 118.49c10.69,-12.86 22.03,-22.35 34.07,-28.43 11.99,-6.19 25.23,-9.33 39.71,-9.33 25.61,0 44.98,7.92 58.16,23.65 13.29,15.63 19.96,38.41 19.96,68.36l0 -0z"/>
</symbol>
<symbol id="c" viewBox="-1510.41 -1754.78 243.49 232.64">
 <path class="fil0" d="M-1388.24 -1704c-15.79,0 -27.78,5.64 -36.02,16.93 -8.24,11.29 -12.37,27.51 -12.37,48.61 0,21.27 4.12,37.54 12.37,48.83 8.25,11.28 20.24,16.93 36.02,16.93 15.3,0 27.02,-5.64 35.16,-16.93 8.25,-11.28 12.37,-27.56 12.37,-48.83 0,-21.1 -4.12,-37.33 -12.37,-48.61 -8.14,-11.28 -19.86,-16.93 -35.16,-16.93zm0 -50.78c38.03,0 67.76,10.36 89.19,31.03 21.38,20.56 32.12,48.99 32.12,85.29 0,36.46 -10.74,65 -32.12,85.5 -21.43,20.56 -51.16,30.81 -89.19,30.81 -38.36,0 -68.31,-10.25 -89.84,-30.81 -21.59,-20.51 -32.33,-49.04 -32.33,-85.5 0,-36.3 10.74,-64.72 32.33,-85.29 21.54,-20.67 51.48,-31.03 89.84,-31.03z"/>
</symbol>
<symbol id="h" viewBox="-1494.15 -1754.78 356.56 227">
 <path class="fil0" d="M-1288.42 -1712.46c8.95,-13.72 19.59,-24.2 31.9,-31.47 12.43,-7.22 26.04,-10.85 40.8,-10.85 25.44,0 44.81,7.92 58.16,23.65 13.29,15.63 19.96,38.41 19.96,68.36l0 134.98 -71.19 0 0 -115.45 0 -5.43c0.11,-1.85 0.22,-4.45 0.22,-7.81 0,-15.73 -2.33,-27.13 -6.94,-34.07 -4.5,-7.05 -11.94,-10.63 -22.35,-10.63 -13.46,0 -23.87,5.59 -31.25,16.71 -7.27,11.01 -11.01,27.02 -11.28,47.96l0 108.72 -71.18 0 0 -115.45c0,-24.57 -2.11,-40.36 -6.3,-47.31 -4.23,-7.05 -11.72,-10.63 -22.57,-10.63 -13.62,0 -24.09,5.59 -31.47,16.71 -7.38,11.18 -11.07,27.07 -11.07,47.74l0 108.94 -71.17 0 0 -221.57 71.18 0 0 32.33c8.68,-12.43 18.67,-21.81 29.95,-28.21 11.28,-6.35 23.71,-9.55 37.33,-9.55 15.3,0 28.86,3.69 40.58,11.07 11.72,7.38 20.62,17.8 26.69,31.25z"/>
</symbol>
<symbol id="i" viewBox="-1490.67 -1823.15 266.71 295.37">
 <path class="fil0" d="M-1382.38 -1692.28c15.9,0 27.34,-2.93 34.29,-8.9 6.94,-5.91 10.42,-15.68 10.42,-29.3 0,-13.29 -3.47,-22.84 -10.42,-28.65 -6.94,-5.91 -18.39,-8.9 -34.29,-8.9l-32.12 0 0 75.74 32.12 0zm-32.12 52.74l0 111.76 -76.17 -0 0 -295.36 116.32 0c38.9,0 67.38,6.51 85.5,19.53 18.23,13.02 27.34,33.74 27.34,62.07 0,19.42 -4.72,35.37 -14.11,47.96 -9.44,12.59 -23.65,21.86 -42.75,27.78 10.42,2.33 19.75,7.7 28,16.06 8.25,8.41 16.6,21.05 25.17,37.98l41.23 83.98 -81.16 -0 -35.81 -73.35c-7.38,-14.76 -14.87,-24.8 -22.35,-30.17 -7.38,-5.48 -17.25,-8.25 -29.52,-8.25l-21.7 0.01z"/>
</symbol>
<symbol id="l" viewBox="-1509.55 -1835.5 237.85 313.36">
 <path class="fil0" d="M-1343.1 -1717.02l0 -118.49 71.4 0 0 307.72 -71.4 0 0 -32.12c-9.71,13.19 -20.4,22.79 -32.12,28.86 -11.72,5.91 -25.33,8.9 -40.8,8.9 -27.34,0 -49.8,-10.74 -67.28,-32.33 -17.52,-21.7 -26.26,-49.7 -26.26,-83.98 0,-34.13 8.74,-62.07 26.26,-83.77 17.47,-21.7 39.93,-32.55 67.28,-32.55 15.3,0 28.86,3.15 40.58,9.33 11.83,6.07 22.62,15.57 32.33,28.43l0 0zm-46.66 143.44c15.19,0 26.75,-5.48 34.72,-16.49 7.92,-11.12 11.94,-27.24 11.94,-48.39 0,-20.94 -4.02,-37 -11.94,-48.18 -7.98,-11.12 -19.53,-16.71 -34.72,-16.71 -15.08,0 -26.59,5.59 -34.5,16.71 -7.98,11.18 -11.94,27.24 -11.94,48.18 0,21.16 3.96,37.27 11.94,48.39 7.92,11.01 19.42,16.49 34.5,16.49z"/>
</symbol>
<symbol id="d" viewBox="-1522.35 -1812.28 179.04 284.5">
 <path class="fil0" d="M-1416.45 -1812.28l0 62.93 73.13 0 0 50.56 -73.13 0 0 93.97c0,10.31 2.01,17.31 6.07,21.05 4.18,3.63 12.37,5.43 24.52,5.43l36.24 0 0 50.56 -60.55 0c-28.1,0 -47.96,-5.75 -59.68,-17.36 -11.61,-11.72 -17.36,-31.57 -17.36,-59.68l0 -93.97 -35.15 0 0 -50.56 35.15 0 0 -62.93 70.75 0z"/>
</symbol>
<symbol id="j" viewBox="-1522.79 -1749.35 251.74 309.03">
 <path class="fil0" d="M-1522.79 -1749.35l70.75 0 59.68 150.39 50.56 -150.39 70.74 0 -93.1 242.63c-9.44,24.57 -20.34,41.78 -32.77,51.65 -12.48,9.82 -28.86,14.76 -49.26,14.76l-41.02 0 0 -46.44 22.14 0c11.99,0 20.72,-1.95 26.26,-5.86 5.48,-3.8 9.76,-10.63 12.8,-20.62l1.95 -6.07 -98.74 -230.04z"/>
</symbol>
<symbol id="k" viewBox="-1493.7 -1835.5 237.85 313.36">
 <path class="fil0" d="M-1375.86 -1573.57c15.19,0 26.75,-5.48 34.72,-16.49 7.92,-11.12 11.94,-27.24 11.94,-48.39 0,-20.94 -4.02,-37 -11.94,-48.18 -7.98,-11.12 -19.53,-16.71 -34.72,-16.71 -15.19,0 -26.85,5.59 -34.94,16.71 -8.14,11.18 -12.15,27.24 -12.15,48.18 0,21 4.02,37.06 12.15,48.18 8.08,11.18 19.75,16.71 34.94,16.71zm-47.09 -143.44c9.82,-12.86 20.67,-22.35 32.55,-28.43 11.83,-6.19 25.44,-9.33 40.8,-9.33 27.34,0 49.75,10.85 67.28,32.55 17.63,21.7 26.48,49.64 26.48,83.77 0,34.29 -8.84,62.28 -26.48,83.98 -17.52,21.59 -39.93,32.33 -67.28,32.33 -15.35,0 -28.97,-3.04 -40.8,-9.11 -11.88,-6.07 -22.73,-15.63 -32.55,-28.65l0 32.12 -70.75 0 0 -307.72 70.75 0 0 118.48z"/>
</symbol>
<symbol id="b" viewBox="-1493.7 -1754.77 164.5 227">
 <path class="fil0" d="M-1329.21 -1689.02c-6.24,-2.87 -12.37,-4.99 -18.44,-6.3 -6.07,-1.41 -12.26,-2.17 -18.44,-2.17 -18.23,0 -32.28,5.86 -42.1,17.58 -9.87,11.61 -14.76,28.32 -14.76,50.13l0 102 -70.75 0 0 -221.57 70.74 0 0 36.46c9.11,-14.59 19.53,-25.23 31.25,-31.9 11.83,-6.62 26.04,-9.98 42.54,-9.98 2.44,0 5.05,0.16 7.81,0.43 2.71,0.16 6.73,0.6 11.94,1.3l0.22 64.02z"/>
</symbol>
<symbol id="e" viewBox="-1510.41 -1754.77 224.18 232.63">
 <path class="fil0" d="M-1394.53 -1627.39c-14.76,0 -25.93,2.55 -33.42,7.59 -7.38,4.94 -11.07,12.26 -11.07,21.92 0,9.01 2.93,16 8.9,21.05 6.07,5.1 14.43,7.59 25.17,7.59 13.29,0 24.52,-4.78 33.64,-14.32 9.11,-9.55 13.67,-21.48 13.67,-35.81l0 -8.03 -36.89 0zm108.29 -26.91l0 126.52 -71.4 0 0 -32.77c-9.55,13.46 -20.29,23.22 -32.12,29.3 -11.88,6.07 -26.26,9.11 -43.19,9.11 -23,0 -41.67,-6.62 -55.99,-19.96 -14.32,-13.46 -21.48,-30.81 -21.48,-52.08 0,-26.04 8.9,-45.14 26.69,-57.29 17.91,-12.15 46.06,-18.23 84.42,-18.23l41.67 0 0 -5.43c0,-11.28 -4.45,-19.53 -13.24,-24.74 -8.84,-5.21 -22.68,-7.81 -41.45,-7.81 -15.08,0 -29.19,1.52 -42.32,4.56 -13.02,3.04 -25.12,7.59 -36.24,13.67l0 -54.04c15.03,-3.58 30.22,-6.35 45.57,-8.25 15.3,-2.01 30.65,-3.04 46.01,-3.04 39.93,0 68.69,7.92 86.37,23.65 17.8,15.79 26.69,41.4 26.69,76.82l-0 -0z"/>
</symbol>
<symbol id="a" viewBox="-1510.42 -1754.77 237.85 232.64">
 <path class="fil0" d="M-1272.57 -1639.11l0 20.18 -165.58 0c1.74,16.66 7.7,29.08 18.01,37.33 10.25,8.25 24.63,12.37 43.19,12.37 14.87,0 30.17,-2.17 45.79,-6.51 15.63,-4.45 31.69,-11.18 48.18,-20.18l0 54.69c-16.82,6.4 -33.58,11.18 -50.35,14.32 -16.82,3.15 -33.53,4.78 -50.13,4.78 -40.26,0 -71.5,-10.09 -93.75,-30.38 -22.14,-20.4 -33.2,-49.04 -33.2,-85.94 0,-36.02 10.91,-64.34 32.77,-85.07 21.81,-20.83 51.87,-31.25 90.06,-31.25 34.83,0 62.72,10.52 83.55,31.47 20.94,21 31.47,49.04 31.47,84.2l-0 -0zm-72.7 -23.65c0,-13.46 -4.02,-24.31 -11.94,-32.55 -7.81,-8.25 -18.01,-12.37 -30.6,-12.37 -13.78,0 -24.96,3.91 -33.64,11.72 -8.57,7.7 -13.83,18.77 -15.84,33.2l92.02 -0z"/>
</symbol>
<symbol id="Symbol4" viewBox="-1472.01 -1970.71 396.93 442.93">
 <polygon class="fil0" points="-1472.01,-1970.71 -1357.86,-1970.71 -1357.86,-1801.87 -1189.23,-1801.88 -1189.23,-1970.71 -1075.08,-1970.71 -1075.08,-1527.78 -1189.23,-1527.78 -1189.23,-1715.5 -1357.86,-1715.5 -1357.86,-1527.78 -1472.01,-1527.78 "/>
</symbol>
<symbol id="u" viewBox="-1507.6 -1828.56 251.3 306.43">
 <path class="fil0" d="M-1256.3 -1544.06c-14.05,7.27 -28.65,12.7 -43.83,16.28 -15.19,3.74 -31.03,5.64 -47.53,5.64 -49.21,0 -88.22,-13.72 -116.97,-41.23 -28.65,-27.45 -42.97,-64.72 -42.97,-111.76 0,-47.31 14.32,-84.69 42.97,-112.2 28.76,-27.45 67.76,-41.23 116.97,-41.23 16.49,0 32.33,1.9 47.53,5.64 15.19,3.63 29.78,9.11 43.83,16.49l0 60.98c-14.21,-9.55 -28.16,-16.55 -41.88,-21.05 -13.62,-4.45 -28,-6.73 -43.19,-6.73 -27.24,0 -48.61,8.68 -64.24,26.04 -15.52,17.36 -23.22,41.4 -23.22,72.05 0,30.38 7.7,54.36 23.22,71.83 15.63,17.36 37,26.04 64.24,26.04 15.19,0 29.57,-2.22 43.19,-6.73 13.72,-4.45 27.67,-11.5 41.88,-21.05l0 60.99z"/>
</symbol>
<symbol id="Symbol2" viewBox="-1472.01 -1970.71 314.89 442.93">
 <polygon class="fil0" points="-1472.01,-1970.71 -1163.63,-1970.71 -1163.63,-1884.33 -1357.85,-1884.34 -1357.85,-1801.87 -1175.34,-1801.87 -1175.34,-1715.5 -1357.85,-1715.5 -1357.85,-1614.15 -1157.12,-1614.15 -1157.12,-1527.78 -1472.01,-1527.78 "/>
</symbol>
<symbol id="Symbol3" viewBox="-1472.01 -1970.72 399.95 442.93">
 <path class="fil0" d="M-1309.68 -1774.31c23.87,0 41.02,-4.39 51.43,-13.24 10.42,-8.95 15.63,-23.65 15.63,-44.06 0,-20.07 -5.21,-34.5 -15.63,-43.19 -10.42,-8.79 -27.56,-13.24 -51.43,-13.24l-48.18 -0 0 113.72 48.18 0zm-48.18 78.99l0 167.53 -114.15 0 0 -442.93 174.47 0c58.27,0 101.02,9.76 128.26,29.3 27.18,19.53 40.8,50.51 40.8,92.88 0,29.24 -7.11,53.28 -21.27,72.05 -14.05,18.83 -35.32,32.72 -63.8,41.67 15.63,3.47 29.57,11.5 41.88,24.09 12.43,12.59 24.96,31.63 37.54,57.07l62.07 125.87 -121.74 0 -53.82 -110.03c-11.01,-22.14 -22.08,-37.22 -33.2,-45.35 -11.18,-8.08 -26.04,-12.15 -44.7,-12.15l-32.33 0.01z"/>
</symbol>
<symbol id="Symbol1" viewBox="-1524.74 -1970.71 464.18 442.93">
 <path class="fil0" d="M-1203.13 -1608.51l-178.6 0 -28.21 80.73 -114.8 0 164.06 -442.93 136.07 0 164.06 442.93 -114.8 0 -27.77 -80.73zm-150.17 -82.25l121.31 0 -60.55 -176.22 -60.76 176.22z"/>
</symbol>
<symbol id="Symbol8" viewBox="-1500.43 -1989.36 356.55 470.26">
 <path class="fil0" d="M-1250.65 -1811.42l0 -177.94 106.77 0 0 461.58 -106.77 0 0 -47.96c-14.65,19.53 -30.76,33.85 -48.39,42.97 -17.69,9.11 -38.09,13.67 -61.2,13.67 -40.96,0 -74.6,-16.28 -100.91,-48.83 -26.2,-32.55 -39.28,-74.44 -39.28,-125.65 0,-51.21 13.07,-93.1 39.28,-125.65 26.31,-32.55 59.95,-48.83 100.91,-48.83 23,0 43.3,4.67 60.98,13.89 17.8,9.11 33.96,23.38 48.61,42.75l0 -0.01zm-70.1 215.06c22.84,0 40.2,-8.3 52.08,-24.96 11.99,-16.6 18.01,-40.69 18.01,-72.26 0,-31.69 -6.02,-55.83 -18.01,-72.48 -11.88,-16.6 -29.24,-24.96 -52.08,-24.96 -22.57,0 -39.88,8.35 -51.87,24.96 -11.88,16.66 -17.8,40.8 -17.8,72.48 0,31.57 5.91,55.67 17.8,72.26 11.99,16.66 29.3,24.96 51.87,24.96z"/>
</symbol>
<symbol id="Symbol5" viewBox="-1484.16 -1978.74 349.61 459.63">
 <path class="fil0" d="M-1163.63 -1956.82l0 93.75c-24.47,-10.85 -48.29,-18.99 -71.4,-24.52 -23.17,-5.64 -45.03,-8.46 -65.54,-8.46 -27.24,0 -47.42,3.8 -60.55,11.28 -13.02,7.54 -19.53,19.26 -19.53,35.16 0,11.88 4.39,21.16 13.24,27.78 8.79,6.51 24.8,12.15 47.96,16.93l48.61 9.76c49.15,9.98 84.2,25.07 105.04,45.14 20.83,20.13 31.25,48.77 31.25,85.94 0,48.94 -14.54,85.29 -43.62,109.16 -28.97,23.87 -73.24,35.81 -132.81,35.81 -28.1,0 -56.31,-2.71 -84.64,-8.03 -28.21,-5.31 -56.43,-13.29 -84.64,-23.87l0 -96.35c28.21,15.08 55.45,26.42 81.81,34.07 26.48,7.54 51.98,11.28 76.61,11.28 24.85,0 43.89,-4.12 57.07,-12.37 13.29,-8.35 19.96,-20.24 19.96,-35.59 0,-13.89 -4.5,-24.57 -13.46,-32.12 -9.01,-7.49 -26.91,-14.21 -53.82,-20.18l-44.27 -9.76c-44.27,-9.55 -76.71,-24.63 -97.22,-45.35 -20.4,-20.83 -30.6,-48.83 -30.6,-83.98 0,-44.11 14.21,-78.02 42.75,-101.78 28.48,-23.71 69.44,-35.59 122.83,-35.59 24.31,0 49.31,1.85 75.09,5.43 25.72,3.63 52.35,9.11 79.86,16.49l0 0z"/>
</symbol>
<symbol id="Symbol7" viewBox="-1476.78 -1989.36 356.76 470.26">
 <path class="fil0" d="M-1299.92 -1596.35c22.68,0 40.04,-8.3 52.08,-24.96 11.99,-16.6 18.01,-40.69 18.01,-72.26 0,-31.69 -6.02,-55.83 -18.01,-72.48 -12.04,-16.6 -29.41,-24.96 -52.08,-24.96 -22.73,0 -40.15,8.41 -52.3,25.17 -12.15,16.66 -18.23,40.74 -18.23,72.26 0,31.41 6.07,55.5 18.23,72.26 12.15,16.66 29.57,24.96 52.3,24.96l0 0zm-70.53 -215.06c14.59,-19.37 30.81,-33.64 48.61,-42.75 17.8,-9.22 38.25,-13.89 61.41,-13.89 40.91,0 74.54,16.28 100.91,48.83 26.31,32.55 39.5,74.44 39.5,125.65 0,51.21 -13.19,93.1 -39.5,125.65 -26.37,32.55 -60,48.83 -100.91,48.83 -23.17,0 -43.62,-4.67 -61.41,-13.89 -17.8,-9.22 -34.02,-23.49 -48.61,-42.75l0 47.96 -106.33 0.01 0 -461.58 106.33 0 0 177.94z"/>
</symbol>
<symbol id="Symbol6" viewBox="-1520.4 -1860.03 377.82 463.33">
 <path class="fil0" d="M-1520.4 -1860.03l106.33 0 89.19 225.47 75.96 -225.47 106.34 0 -139.75 363.72c-14.05,37 -30.49,62.83 -49.26,77.47 -18.67,14.76 -43.35,22.14 -74,22.14l-61.42 0 0 -69.66 33.2 0c18.07,0 31.14,-2.93 39.28,-8.68 8.25,-5.64 14.65,-15.95 19.31,-30.81l2.82 -9.11 -148.01 -345.06z"/>
</symbol>
<symbol id="Symbol11" viewBox="-1501.72 -1868.06 336.15 348.96">
 <path class="fil0" d="M-1327.91 -1677.31c-22.14,0 -38.79,3.8 -49.91,11.28 -11.18,7.54 -16.71,18.61 -16.71,33.2 0,13.46 4.45,24.04 13.46,31.69 8.95,7.54 21.48,11.28 37.54,11.28 19.96,0 36.73,-7.16 50.35,-21.48 13.72,-14.32 20.62,-32.23 20.62,-53.82l0 -12.15 -55.34 0zm162.33 -40.15l0 189.67 -106.99 0 0 -49.26c-14.32,20.13 -30.38,34.83 -48.18,44.06 -17.8,9.22 -39.44,13.89 -64.89,13.89 -34.45,0 -62.44,-10.04 -83.98,-30.17 -21.43,-20.07 -32.12,-46.11 -32.12,-78.13 0,-39.06 13.35,-67.6 40.15,-85.72 26.91,-18.23 69.01,-27.34 126.3,-27.34l62.72 -0 0 -8.46c0,-16.76 -6.67,-29.08 -19.96,-36.89 -13.19,-7.81 -33.85,-11.72 -62.07,-11.72 -22.73,0 -43.83,2.33 -63.37,6.94 -19.53,4.5 -37.76,11.28 -54.69,20.4l0 -80.94c22.84,-5.64 45.68,-9.82 68.57,-12.59 23,-2.87 45.9,-4.34 68.79,-4.34 60,0 103.3,11.88 129.78,35.59 26.59,23.6 39.93,61.96 39.93,115.02l0 0z"/>
</symbol>
<symbol id="Symbol13" viewBox="-1497.63 -1978.74 376.96 459.65">
 <path class="fil0" d="M-1120.67 -1552.09c-21,10.85 -42.91,19.04 -65.76,24.52 -22.73,5.64 -46.39,8.46 -70.96,8.46 -73.78,0 -132.32,-20.62 -175.57,-61.85 -43.13,-41.23 -64.67,-97.22 -64.67,-167.97 0,-70.75 21.54,-126.74 64.67,-167.97 43.24,-41.23 101.78,-61.85 175.57,-61.85 24.57,0 48.23,2.77 70.96,8.25 22.84,5.54 44.76,13.78 65.76,24.74l0 91.58c-21.27,-14.43 -42.21,-25.01 -62.72,-31.69 -20.56,-6.78 -42.21,-10.2 -64.89,-10.2 -40.8,0 -72.86,13.13 -96.14,39.28 -23.33,26.04 -34.94,62.01 -34.94,107.85 0,45.74 11.61,81.7 34.94,107.85 23.28,26.04 55.34,39.06 96.14,39.06 22.68,0 44.33,-3.31 64.89,-9.98 20.51,-6.78 41.45,-17.41 62.72,-31.9l0 91.81z"/>
</symbol>
<symbol id="Symbol9" viewBox="-1501.75 -1868.05 356.78 348.96">
 <path class="fil0" d="M-1144.97 -1694.88l0 30.38 -248.49 0c2.6,24.9 11.56,43.57 26.91,55.99 15.46,12.48 37.11,18.67 64.89,18.67 22.24,0 45.14,-3.26 68.57,-9.76 23.44,-6.62 47.53,-16.71 72.26,-30.17l0 81.81c-25.07,9.55 -50.13,16.71 -75.3,21.48 -25.17,4.88 -50.29,7.38 -75.3,7.38 -60.22,0 -106.99,-15.24 -140.4,-45.79 -33.31,-30.65 -49.91,-73.57 -49.91,-128.69 0,-54.25 16.33,-96.84 49.04,-127.82 32.82,-31.09 77.91,-46.66 135.2,-46.66 52.19,0 94.02,15.79 125.43,47.31 31.36,31.41 47.09,73.35 47.09,125.87l0.01 0zm-109.16 -35.15c0,-20.24 -5.97,-36.51 -17.8,-48.83 -11.72,-12.43 -27.07,-18.67 -46.01,-18.67 -20.72,0 -37.49,5.81 -50.35,17.36 -12.75,11.61 -20.72,28.32 -23.87,50.13l138.02 0z"/>
</symbol>
<symbol id="Symbol10" viewBox="-1519.75 -1954.43 268.44 426.66">
 <path class="fil0" d="M-1360.68 -1954.43l0 94.4 109.37 0 0 75.96 -109.37 0 0 140.85c0,15.52 3.04,25.99 9.11,31.47 6.07,5.37 18.23,8.03 36.46,8.03l54.69 0 0 75.96 -91.15 0c-41.99,0 -71.72,-8.74 -89.19,-26.26 -17.52,-17.47 -26.26,-47.2 -26.26,-89.19l0 -140.85 -52.73 0 0 -75.96 52.73 0 0 -94.4 106.34 0z"/>
</symbol>
<symbol id="Symbol12" viewBox="-1476.78 -1868.05 246.96 340.28">
 <path class="fil0" d="M-1229.82 -1769.53c-9.44,-4.34 -18.77,-7.49 -28,-9.55 -9.11,-2.17 -18.34,-3.26 -27.56,-3.26 -27.34,0 -48.39,8.79 -63.15,26.26 -14.65,17.52 -21.92,42.64 -21.92,75.3l0 153 -106.33 -0 0 -332.25 106.34 0 0 54.47c13.56,-21.7 29.19,-37.54 46.87,-47.53 17.8,-9.98 39.06,-14.97 63.8,-14.97 3.47,0 7.27,0.16 11.5,0.43 4.18,0.33 10.2,0.98 18.01,1.95l0.43 96.13z"/>
</symbol>
 <g id="Layer_x0020_1">
  <metadata id="CorelCorpID_0Corel-Layer"/>
  <circle class="fil1" cx="3108.68" cy="3055.43" r="2390.14"/>
  <g id="_2520572969968">
   <g>
    <g>
     <path class="fil2" d="M3622.66 3559.17l15.2 35.63c74.68,158.27 10.89,338.74 -153.37,404.43 -71.3,28.52 -137.31,25.03 -211.38,9.9 -225.8,-46.12 -327.09,-224.81 -363.34,-437.42 -19.13,-112.2 -12.53,-271.71 15.08,-382.08 46.31,-185.09 172.67,-340.3 369.9,-367.64 130.61,-18.1 226.01,1.4 312.42,105.93 28.83,34.88 50.63,86.08 58.27,130.67 11.09,64.68 2.07,122.93 -25.47,182.03 -9.35,20.08 -20.31,38.91 -30.65,58.42 -4.85,9.15 -11.14,21.21 -13.93,32.32 99.94,53.95 156.32,106.01 216.23,205.3 98.36,163.02 109.12,346.69 110.18,532.18 0.07,12.94 -1.02,24.77 -2.53,37.55 -1.01,8.58 -1.72,16.81 -1.72,25.47l0 12.93 -167.19 -9.83 0 -11.5c0,-32.31 4.2,-64.22 4.2,-96.61 0,-122.2 -20.5,-293.29 -84.6,-398.75 -11.5,-18.92 -28.47,-46.4 -47.28,-68.94zm-120.15 -149.77c0,-49.91 20.41,-104.94 43.33,-148.56 45.47,-86.52 74.5,-159.21 25.34,-253.33 -36.2,-69.28 -111.93,-119.39 -190.9,-119.39 -98.96,0 -189.29,29.69 -261.07,99.3 -102.53,99.43 -141.82,255.02 -146.24,393.57 -4.26,133.24 23.54,299.39 98.23,412.34 30.41,45.99 74,83.5 122.15,109.96 104.39,57.37 246.77,69.91 336.93,-20.46 42.57,-42.68 69.01,-91.18 65.77,-152.62 -2.7,-51.23 -25.01,-102.5 -44.96,-149.13 -23.09,-53.98 -48.57,-111.95 -48.57,-171.69zm810.24 146.55c-51.82,55.67 -88.37,143.39 -105.83,209.37 -15.31,57.85 -24.84,113.84 -28,173.61 -3.22,61.16 -0.97,123.26 -0.97,184.54l0 11.5 -167.19 9.83 0 -12.93c0,-46.97 -7.87,-92 -3.94,-139.4 3.67,-44.26 4.09,-89.15 10.57,-133.11 17.2,-116.62 43.26,-224.04 104.52,-325.85 9.01,-14.97 18.84,-29.69 29.17,-43.78 30.78,-41.96 64.76,-77.19 106.28,-108.7 25.51,-19.35 51.09,-34.3 78.82,-49.19 -5.62,-16.99 -15.76,-35.54 -23.35,-50.5 -13.8,-27.17 -26.92,-54.07 -36.49,-83.1 -27.05,-82.05 -17.63,-157.6 24.41,-233.02 69.74,-125.11 203.7,-165.07 339.44,-140.94 201.23,35.78 319.14,177.35 367.43,369.57 18.42,73.33 23.03,139.93 23.03,215.54 0,150.57 -20.17,314.47 -114.03,437.7 -27.42,36 -60.83,67.43 -97.88,93.37 -99.61,69.74 -234.27,104.82 -352.78,67.31 -66.66,-21.1 -120.57,-63 -159.2,-121.12 -64.42,-96.93 -54.48,-191.22 -11.24,-294.75 4.85,-11.62 11.18,-23.72 17.22,-35.96zm24.82 -423.78c0,17.4 3.25,34.01 8.89,50.43 8.5,24.7 21.86,47.94 34.37,70.78 14.44,26.34 27.87,52.38 36.72,81.23 26.64,86.76 1.57,171.11 -37.94,249.63 -12.12,24.09 -22.91,49.86 -31.81,75.33 -8.35,23.88 -14.26,56.26 -11.69,81.54 8.35,82.13 45.01,149.44 121.74,185.17 116.91,54.44 273.85,6.26 361.94,-81.32 55.99,-55.67 96.5,-144.58 114.32,-220.97 7.79,-33.38 13.15,-68.57 17.59,-102.54 4.25,-32.54 8.09,-66.76 8.63,-99.58 0.31,-18.93 -4.11,-35.53 -4.55,-54.1 -3.09,-129.68 -44.3,-281.36 -138.11,-375.04 -85.92,-85.81 -163.72,-100.4 -282.27,-100.4 -44.62,0 -109.69,33.09 -138.98,66.2 -47.41,53.61 -58.86,103.05 -58.86,173.63z"/>
     <path class="fil3" d="M3380.29 2875.94c-473.41,0 -493.83,660.12 -319.26,924.12 100.73,152.33 346.18,223.38 477.87,91.39 169.67,-170.07 -24.2,-321.69 -24.2,-482.05 0,-52.02 23.78,-108.35 41.93,-142.89 42.8,-81.43 79.39,-161.2 25.35,-264.64 -35.78,-68.5 -113.25,-125.93 -201.7,-125.93z"/>
     <path class="fil3" d="M4325.39 3132.17c0,133.09 172.05,190.81 43.36,446.6 -11.7,23.25 -23.5,51.25 -32.43,76.78 -9.4,26.87 -14.91,61.19 -12.31,86.79 8.88,87.26 48.65,157.7 128.72,194.99 116.03,54.03 278.67,12.72 375.68,-83.72 56.56,-56.23 98.82,-146.39 117.59,-226.85 12.04,-51.61 25.61,-149.41 26.53,-204.69 0.42,-25.56 -4.03,-32.68 -4.55,-54.59 -3.23,-135.5 -46.84,-288.66 -141.68,-383.37 -85.15,-85.03 -162.45,-103.96 -290.89,-103.96 -49.02,0 -117.16,35.32 -148.11,70.32 -47.75,54 -61.92,104.74 -61.92,181.7zm310.83 285.63c39.04,0 57.38,71.41 -12.6,71.41 -30.31,0 -47.4,-71.41 12.6,-71.41zm89.67 127.24c7.35,-9.73 18.32,-10.76 27.95,-5.99 24.8,12.28 7.92,32.08 24.65,51.52 0.39,0.46 2.02,2.57 2.32,1.88 0.3,-0.69 1.68,1.11 2.43,1.76 21.38,-5.71 21.8,-25.2 37.81,-25.2 15.46,0 25.2,10.76 25.2,21 0,39.11 -28.28,10.86 -16.8,58.81l37.81 0c12.97,19.37 21.46,14.16 0,46.2l-37.81 0c-2.7,11.59 -2.02,9.46 -8.4,16.8 7.11,10.62 25.2,22.7 25.2,33.6 0,26.18 -16.96,31.93 -30.63,26.92 -16.95,-6.21 -11.76,-17.21 -32.37,-22.71 -0.75,0.66 -1.98,1.36 -2.42,1.78 -0.44,0.41 -1.8,1.35 -2.3,1.89 -0.51,0.54 -1.59,1.45 -2.1,2.1 -11.44,14.56 -2.7,54.37 -34.42,50.74 -13.81,-1.57 -18.15,-11.89 -20.6,-24.07 -4.22,-20.98 2.91,-17.96 -13.76,-32.44 -29.05,7.76 -37.76,55.65 -67.2,0 7.15,-13.52 3.57,-8.51 13.76,-19.85 35.15,-39.14 -20.54,-34.67 -38.96,-38.96 -8.21,-35.23 -8.69,-39.69 25.24,-41.96 53.41,-3.59 4.14,-40.37 1.88,-51.82 -2.74,-13.87 7.61,-28.03 23.29,-28.03 15.23,0 26.42,17.58 37.8,25.2 7.34,-6.37 5.21,-5.7 16.8,-8.4 0,-15.84 -1.93,-30.74 5.66,-40.78zm-253.48 124.78c43.08,0 49.21,75.61 -4.2,75.61 -28.91,0 -33.6,-25.1 -33.6,-46.2 0,-13.37 21.41,-29.41 37.8,-29.41zm193.22 -457.85c-22.42,0 -27.15,-15.26 -42.01,-25.2 -7.33,6.38 -5.21,5.71 -16.8,8.41l0 37.81c-24.5,16.4 -21.7,16.4 -46.2,0l0 -37.81c-11.59,-2.7 -9.46,-2.02 -16.8,-8.41 -11.37,7.62 -22.57,25.2 -37.8,25.2 -16.05,0 -25.2,-12.43 -25.2,-29.4 0,-3.06 20.85,-22.91 25.2,-29.41 -3.56,-7.41 -4.84,-13.59 -8.4,-21 -17.55,0 -65.67,7.31 -42.01,-42 11.76,-2.74 22.71,-2.17 33.24,-4.57 15.29,-3.49 10.37,-6.65 17.17,-16.43 -7.62,-11.38 -25.2,-22.57 -25.2,-37.8 0,-13.58 11.62,-25.2 25.2,-25.2 15.23,0 26.43,17.58 37.8,25.2l8.28 -4.32c0.66,-0.52 1.79,-1.18 2.41,-1.79 0.61,-0.6 1.56,-1.42 2.08,-2.12 8.53,-11.43 2.11,-15.9 8.23,-42.18 11.02,-5.46 23.27,-10.4 34.46,-1.25 11.72,9.58 7.54,23.85 7.54,43.26 7.41,3.55 13.59,4.84 21,8.4 10.62,-7.11 22.71,-25.2 33.61,-25.2 13.58,0 25.2,11.62 25.2,25.2 0,15.23 -17.58,26.43 -25.2,37.8 6.37,7.34 5.7,5.21 8.4,16.8l37.8 0c16.41,24.5 16.41,21.71 0,46.21l-37.8 0c-2.7,11.59 -2.02,9.47 -8.4,16.8 9.94,14.86 25.2,19.59 25.2,42.01 0,9.79 -11.21,21 -21,21zm218.42 67.21c0,48.04 -75.61,53.55 -75.61,-4.2 0,-34.85 75.61,-52.28 75.61,4.2z"/>
     <path class="fil4" d="M4506.01 3153.17c-4.35,6.5 -25.2,26.35 -25.2,29.41 0,16.97 9.15,29.4 25.2,29.4 15.23,0 26.43,-17.58 37.8,-25.2 7.34,6.38 5.22,5.71 16.8,8.41l0 37.81c24.5,16.4 21.7,16.4 46.2,0l0 -37.81c11.59,-2.7 9.47,-2.02 16.8,-8.41 14.85,9.95 19.59,25.2 42.01,25.2 9.79,0 21,-11.21 21,-21 0,-22.42 -15.26,-27.15 -25.2,-42.01 6.37,-7.33 5.7,-5.21 8.4,-16.8l37.8 0c16.41,-24.5 16.41,-21.7 0,-46.21l-37.8 0c-2.7,-11.59 -2.02,-9.46 -8.4,-16.8 7.62,-11.38 25.2,-22.57 25.2,-37.8 0,-13.58 -11.62,-25.2 -25.2,-25.2 -10.9,0 -22.98,18.09 -33.61,25.2 -7.41,-3.56 -13.59,-4.85 -21,-8.4 0,-19.41 4.18,-33.68 -7.54,-43.26 -11.19,-9.15 -23.44,-4.21 -34.46,1.25 -6.12,26.28 0.3,30.74 -8.23,42.18 -0.52,0.7 -1.47,1.52 -2.08,2.12 -0.62,0.61 -1.75,1.28 -2.41,1.79l-8.28 4.32c-11.37,-7.62 -22.57,-25.2 -37.8,-25.2 -13.58,0 -25.2,11.62 -25.2,25.2 0,15.23 17.58,26.43 25.2,37.8 -6.8,9.78 -1.88,12.94 -17.17,16.43 -10.53,2.41 -21.47,1.83 -33.24,4.57 -23.66,49.31 24.46,42 42.01,42 3.56,7.41 4.84,13.59 8.4,21z"/>
     <path class="fil4" d="M4640.46 3648.86c-33.93,2.28 -33.45,6.73 -25.24,41.96 18.42,4.29 74.11,-0.18 38.96,38.96 -10.19,11.34 -6.61,6.33 -13.76,19.85 29.44,55.65 38.15,7.76 67.2,0 16.67,14.49 9.54,11.46 13.76,32.44 2.45,12.17 6.79,22.49 20.6,24.07 31.72,3.62 22.98,-36.19 34.42,-50.74 0.51,-0.65 1.59,-1.56 2.1,-2.1 0.5,-0.54 1.87,-1.48 2.3,-1.89 0.44,-0.42 1.67,-1.12 2.42,-1.78 20.61,5.5 15.42,16.5 32.37,22.71 13.67,5.01 30.63,-0.74 30.63,-26.92 0,-10.89 -18.09,-22.98 -25.2,-33.6 6.38,-7.34 5.7,-5.22 8.4,-16.8l37.81 0c21.46,-32.05 12.97,-26.83 0,-46.2l-37.81 0c-11.48,-47.95 16.8,-19.7 16.8,-58.81 0,-10.24 -9.74,-21 -25.2,-21 -16,0 -16.43,19.49 -37.81,25.2 -0.75,-0.65 -2.13,-2.45 -2.43,-1.76 -0.3,0.69 -1.93,-1.43 -2.32,-1.88 -16.73,-19.44 0.15,-39.24 -24.65,-51.52 -9.63,-4.77 -20.6,-3.74 -27.95,5.99 -7.58,10.03 -5.66,24.93 -5.66,40.78 -11.59,2.7 -9.46,2.02 -16.8,8.4 -11.38,-7.62 -22.57,-25.2 -37.8,-25.2 -15.68,0 -26.03,14.17 -23.29,28.03 2.26,11.44 51.53,48.23 -1.88,51.82z"/>
     <path class="fil4" d="M4636.22 3417.8c-60,0 -42.91,71.41 -12.6,71.41 69.98,0 51.64,-71.41 12.6,-71.41z"/>
     <path class="fil4" d="M4808.44 3274.98c0,57.75 75.61,52.24 75.61,4.2 0,-56.48 -75.61,-39.05 -75.61,-4.2z"/>
     <path class="fil4" d="M4434.6 3699.23c0,21.1 4.69,46.2 33.6,46.2 53.41,0 47.28,-75.61 4.2,-75.61 -16.4,0 -37.8,16.03 -37.8,29.41z"/>
    </g>
    <g>
     <g>
      <path class="fil5" d="M2189.81 2798.04c14.78,61.85 -61.39,41.1 -102.72,57.3 -49.34,19.33 -194.85,102.02 -91.64,153.94 33.2,16.7 83.7,29.64 120.24,37.52 31.98,6.89 28.61,12.97 58.9,-3.13 102.85,-54.66 136.07,-131.78 167.78,-235.81 10.35,-33.95 -8.1,-35.14 -37.21,-108.31 -24.1,-60.58 -47.11,-47.79 -106.13,-56 -33.29,-4.63 -100.86,-22.85 -129.21,-16.17 -45.22,10.66 -86.68,22.2 -132.78,29.7 -74.86,12.18 -43.36,2.54 -44.26,104.74 -0.59,67.12 -40.7,73.87 -52.8,109.33 119.98,0 135.15,-54.77 229.61,-90.28 29.35,-11.03 110.05,-25.39 120.23,17.18z"/>
      <path class="fil5" d="M1568.57 2687.77c1.67,27.96 31.47,77.55 53.22,99.2 27.17,27.05 61.51,45.09 94.27,59.48 24.69,10.85 27.39,6.16 46.27,-13.49 11.24,-11.7 29.91,-27.84 39.03,-39.87 29.75,-39.22 7.99,-87.29 7.95,-132.28 -14.04,-0.02 -21.88,-1.6 -34.35,-5.33 -41.5,-12.4 -25.19,-5.99 -79.47,36.12 -61.44,47.66 -75.69,4.85 -126.91,-3.83z"/>
      <path class="fil5" d="M1680.2 2333.23c-56.91,52.04 -127.15,193.79 -119.61,260.78 25.11,19.11 75.64,53.83 105.41,24.31 77.66,-76.99 104.92,-35.61 174.65,-28.1 38.28,4.12 179.87,-21.85 199.94,-35.53 -147.04,-126.57 -128.4,-68.83 -203.82,-78.81 -144.36,-19.1 -110.3,-118.5 -156.57,-142.65z"/>
      <path class="fil5" d="M1991.43 2154.96c-73.73,16.43 -209.06,72.21 -250.29,121.13 5.26,13.19 12.52,13.2 20.83,24.54 11.35,15.5 5.3,21.89 17.08,35.34 48.34,-7.37 238.92,-144.92 324.6,-35.23 29.37,37.59 9.12,31.63 57.59,51.96 70.95,29.76 44.16,141.83 105.11,108.37 13.9,-7.63 16.04,-19.24 27.31,-30.18 15.5,-15.07 23.71,-8.79 35.81,-19.79 -17.84,-76.61 -187.94,-193.71 -249.49,-244.46 -38.38,-31.65 -40.62,-22.36 -88.56,-11.68z"/>
      <path class="fil5" d="M2173.02 2139.35c22.93,34.94 113.77,76.45 189.12,178.98 18.64,25.37 30.43,55.22 48.64,78.44 31.79,-36.79 29.24,-42.31 86.03,-51.95 31.08,-5.28 61.7,-47.41 65.08,-73.06 -99.08,-75.44 -263.2,-132.41 -388.87,-132.41z"/>
      <path class="fil5" d="M1836.54 2396.79c46.03,32.2 75.51,-23.83 176.11,43.16 51.65,34.39 77.11,84.11 129.98,5.91 -12.24,-23.71 -0.05,-17.84 -27.69,-29.34 -67.33,-28.03 -51.57,-75.84 -99.67,-80.12 -52.91,-4.7 -169.85,47.08 -178.73,60.39z"/>
      <path class="fil5" d="M2465.44 2449.3l-25.12 18.7c5.69,23.48 27.57,80.06 36.83,103.41 14.43,36.44 38.02,63.89 77.15,67.48 98.88,9.07 153.06,-65.66 223.45,-65.72 -1.49,-72.27 -92.58,-199.59 -153.22,-250.83 -21.22,29.99 -40.4,68.2 -77.64,85.71 -19.39,9.11 -49.49,7.5 -63.22,20.04 -5.13,4.68 -9.44,13.7 -18.23,21.2z"/>
      <path class="fil5" d="M2374.59 2660.81c4.68,54.37 80.24,140.62 113.31,184.68 93.6,124.72 47.84,148.38 36.44,217.72 82.42,-13.58 199.01,-114.93 210.9,-155.56 4.77,-16.29 -23.47,-65.74 -33.73,-82.96 -41.73,-70.02 -194.4,-130.31 -277.76,-151.69 -12.96,-3.32 -38.67,-7.29 -49.15,-12.2z"/>
      <path class="fil5" d="M2405.91 2862.41c-13.49,24.06 -22.8,69.9 -55.78,120.12 -28.33,43.14 -52.81,58.28 -80.76,93.57 50.71,5.76 104.95,9.52 156.82,4.41 21.66,-28.7 39.38,-77.11 36.04,-117.24 -3.19,-38.41 -34.08,-72.17 -56.33,-100.87z"/>
      <path class="fil5" d="M2292.51 3154.82l-215.9 -38.27c33.41,65.95 45.77,81.73 58.34,156.39 4.26,25.3 1.77,45.11 3.76,70.73l82.47 -29.58c-6.67,-15.36 -19.36,-71.99 -17.39,-87.53 3.82,-30.27 34,-45.13 60.77,-35.35 26.91,9.83 72.29,51.71 139.06,71.6 143.55,42.77 238.14,-48 238.28,-163.79 -48.34,13.36 -82.55,45.4 -193.42,56.36 -60.76,6 -58.66,5.16 -113.57,0.86 -14.57,-1.15 -27.45,0.51 -42.4,-1.42z"/>
      <path class="fil5" d="M2677.7 2694.37c36.43,36.52 31.1,7.13 90.81,93.98 10.39,15.12 -0.79,7.44 13.61,12.69 1.15,-54.56 21.12,-80.51 8.01,-152.62 -24.2,0.76 -90.36,34.58 -112.43,45.95z"/>
      <path class="fil5" d="M2184.66 2516.96c-13.93,10.91 -34.04,20.03 -36.81,37.56 30.09,21.94 84.91,14.2 121.57,23.04l0 -39.44c-37.95,9.15 -52.5,-2.05 -84.76,-21.16z"/>
      <path class="fil5" d="M2343.67 2524.89c1.44,21.71 0.94,38.67 7.51,58.55l48.93 3.15 -24.61 -75.67c-7.19,-19.56 -0.98,-15.53 -14.06,-21 -28.24,0.1 -19.24,12.91 -17.78,34.98z"/>
     </g>
     <path class="fil2" d="M1349.36 3268.57c-59.33,114.75 -24.52,99.19 -8.85,131.21 -13.15,19.33 -25.97,29.53 -16.6,57.39 9.1,27.07 26.06,24.34 44,36.07 30.84,20.16 -13.97,56.5 -6.11,129.4 10.26,95.17 91.42,129.74 173.95,152.76 92.65,25.84 180.54,34.92 273.56,49.15 121.35,18.57 108.8,126.02 156.3,170.4 5.65,5.28 11.87,8.74 18.28,10.66l25.44 0c24.82,-7.06 44.53,-33.79 34.63,-65 -9.11,-28.72 -38.35,-81.69 -54.81,-108.65 -99.86,-163.63 -293.85,-83.19 -483.11,-170.28 -114.52,-52.69 31.04,-127.99 -44.78,-232.74 17.48,2.03 56.87,8.11 74.02,-2.36 18.91,-11.54 28.26,-36.31 22.33,-55.14 -17.65,-56.05 -83.25,-29.88 -120.94,-50.75 5.27,-43.56 49.24,-92.27 5.44,-128.95 -17.54,-14.69 -111.29,-24.92 -141.1,-34.54 -22.39,-7.23 -15.61,-8.34 7.38,-49.14l97.51 -165.44c64.94,-114.07 79.76,-126.01 72.25,-260.62 -5.37,-96.37 28.49,-188.69 78.68,-269.72 201.56,-325.46 627.02,-443.65 967.14,-262.56 155.81,82.95 266.39,221.05 301.88,395.23 43.19,211.93 -21.95,369.09 -120.31,549.91 -105.06,193.14 -163.72,315.51 -79.85,534.78 31.4,82.09 74.57,156.31 119.63,231.16 20.13,33.45 36.45,89.7 77.26,101.03 51.33,14.26 73.87,-38.48 50.63,-82.98 -32.51,-62.29 -78.73,-117.08 -128.11,-221.17 -42.13,-88.81 -75.82,-182.41 -53.58,-281.59 35.97,-160.43 163.24,-314.52 214.36,-483.26 115.45,-381.07 -77.04,-753.25 -451.35,-880.84 -366.38,-124.88 -760.95,10.89 -972.79,333.19 -49.58,75.44 -83.7,159.03 -99.04,248.11 -10.62,61.74 2.05,104.7 -0.99,162.13 -2.7,51.06 -27.35,77.97 -51.74,119.76l-129.4 222.09c-52.81,120.51 55.52,155.92 148.78,171.3z"/>
    </g>
   </g>
   <path class="fil6" d="M1621.79 2786.97c27.17,27.05 61.51,45.08 94.27,59.47 24.69,10.85 27.39,6.17 46.27,-13.49 11.24,-11.7 29.91,-27.85 39.03,-39.87 29.75,-39.22 7.99,-87.29 7.94,-132.28 -14.04,-0.02 -21.87,-1.61 -34.35,-5.33 -41.5,-12.4 -25.19,-5.99 -79.47,36.12 -61.44,47.67 -75.69,4.85 -126.91,-3.83 1.67,27.96 31.47,77.55 53.22,99.2z"/>
   <path class="fil6" d="M1892.78 2761.82c-0.59,67.12 -40.7,73.87 -52.81,109.32 119.98,0 135.15,-54.77 229.61,-90.28 29.35,-11.03 110.05,-25.39 120.23,17.18 14.78,61.85 -61.39,41.11 -102.72,57.3 -49.34,19.33 -194.85,102.02 -91.63,153.94 33.19,16.7 83.7,29.64 120.24,37.52 31.98,6.89 28.61,12.97 58.89,-3.13 102.85,-54.66 136.07,-131.78 167.79,-235.81 10.35,-33.95 -8.1,-35.14 -37.21,-108.3 -24.1,-60.58 -47.11,-47.8 -106.13,-56.01 -33.29,-4.63 -100.86,-22.86 -129.21,-16.17 -45.22,10.66 -86.68,22.2 -132.78,29.7 -74.86,12.18 -43.36,2.54 -44.26,104.74z"/>
   <path class="fil6" d="M2292.5 3154.82l-215.89 -38.27c33.41,65.95 45.77,81.73 58.34,156.39 4.26,25.29 1.77,45.11 3.76,70.73l82.46 -29.58c-6.67,-15.36 -19.36,-71.99 -17.39,-87.53 3.82,-30.27 34,-45.13 60.77,-35.35 26.91,9.83 72.29,51.71 139.06,71.6 143.55,42.77 238.14,-48 238.28,-163.79 -48.35,13.36 -82.55,45.41 -193.43,56.36 -60.76,6 -58.66,5.16 -113.57,0.85 -14.57,-1.14 -27.45,0.52 -42.41,-1.41z"/>
   <path class="fil6" d="M2269.37 3076.11c50.71,5.76 104.95,9.52 156.82,4.41 21.66,-28.7 39.38,-77.11 36.04,-117.24 -3.19,-38.41 -34.08,-72.17 -56.33,-100.87 -13.49,24.05 -22.8,69.9 -55.78,120.12 -28.33,43.14 -52.81,58.28 -80.76,93.57z"/>
   <path class="fil6" d="M2487.9 2845.49c93.6,124.72 47.84,148.38 36.44,217.72 82.42,-13.58 199.01,-114.94 210.9,-155.56 4.77,-16.29 -23.47,-65.74 -33.73,-82.96 -41.73,-70.02 -194.4,-130.31 -277.76,-151.69 -12.96,-3.32 -38.67,-7.28 -49.15,-12.2 4.68,54.37 80.24,140.62 113.3,184.68z"/>
   <path class="fil6" d="M2677.7 2694.37c36.43,36.52 31.11,7.13 90.82,93.98 10.39,15.12 -0.79,7.44 13.61,12.69 1.15,-54.56 21.12,-80.51 8.01,-152.62 -24.19,0.76 -90.35,34.59 -112.43,45.95z"/>
   <path class="fil6" d="M2554.3 2638.89c98.88,9.07 153.06,-65.66 223.45,-65.72 -1.49,-72.27 -92.58,-199.59 -153.22,-250.83 -21.22,29.99 -40.4,68.2 -77.64,85.71 -19.39,9.11 -49.49,7.5 -63.22,20.04 -5.13,4.69 -9.44,13.69 -18.23,21.21l-25.13 18.69c5.69,23.48 27.57,80.06 36.83,103.41 14.43,36.44 38.02,63.89 77.15,67.48z"/>
   <path class="fil6" d="M2400.11 2586.58l-24.61 -75.68c-7.19,-19.56 -0.98,-15.52 -14.06,-20.99 -28.24,0.1 -19.24,12.91 -17.78,34.98 1.43,21.7 0.94,38.67 7.51,58.54l48.93 3.15z"/>
   <path class="fil6" d="M2269.42 2577.56l0 -39.44c-37.95,9.15 -52.5,-2.06 -84.76,-21.16 -13.92,10.91 -34.03,20.03 -36.81,37.56 30.09,21.94 84.91,14.2 121.57,23.04z"/>
   <path class="fil6" d="M2161.24 2352.7c70.94,29.76 44.17,141.83 105.11,108.37 13.9,-7.63 16.04,-19.24 27.31,-30.18 15.5,-15.07 23.71,-8.79 35.81,-19.79 -17.83,-76.61 -187.94,-193.71 -249.48,-244.46 -38.38,-31.66 -40.62,-22.37 -88.55,-11.68 -73.73,16.43 -209.06,72.21 -250.3,121.13 5.26,13.19 12.52,13.2 20.83,24.54 11.35,15.5 5.3,21.89 17.08,35.34 48.34,-7.37 238.92,-144.92 324.61,-35.23 29.37,37.59 9.12,31.63 57.59,51.96z"/>
   <path class="fil6" d="M2114.95 2416.52c-67.33,-28.03 -51.58,-75.84 -99.68,-80.12 -52.91,-4.7 -169.85,47.08 -178.73,60.39 46.03,32.2 75.51,-23.83 176.1,43.15 51.65,34.39 77.11,84.12 129.99,5.91 -12.24,-23.71 -0.05,-17.84 -27.68,-29.34z"/>
   <path class="fil6" d="M2040.6 2554.69c-147.04,-126.57 -128.4,-68.83 -203.82,-78.81 -144.35,-19.1 -110.3,-118.5 -156.57,-142.65 -56.92,52.04 -127.15,193.79 -119.61,260.78 25.11,19.11 75.64,53.82 105.41,24.31 77.66,-77 104.92,-35.61 174.65,-28.1 38.28,4.13 179.87,-21.85 199.94,-35.53z"/>
   <path class="fil6" d="M2173.02 2139.35c22.93,34.94 113.77,76.45 189.12,178.98 18.64,25.37 30.43,55.23 48.64,78.44 31.79,-36.78 29.24,-42.31 86.03,-51.94 31.08,-5.28 61.7,-47.41 65.08,-73.06 -99.08,-75.44 -263.2,-132.41 -388.87,-132.41z"/>
  </g>
 </g>
</svg>
