<?xml version="1.0" encoding="UTF-8"?>
<!DOCTYPE svg PUBLIC "-//W3C//DTD SVG 1.1//EN" "http://www.w3.org/Graphics/SVG/1.1/DTD/svg11.dtd">
<!-- Creator: CorelDRAW 2018 (64-Bit) -->
<svg xmlns="http://www.w3.org/2000/svg" xml:space="preserve" width="6.66666in" height="6.66666in" version="1.1" style="shape-rendering:geometricPrecision; text-rendering:geometricPrecision; image-rendering:optimizeQuality; fill-rule:evenodd; clip-rule:evenodd"
viewBox="0 0 6666.66 6666.66"
 xmlns:xlink="http://www.w3.org/1999/xlink">
 <defs>
  <style type="text/css">
   <![CDATA[
    .fil1 {fill:#12A7A7}
    .fil0 {fill:black}
    .fil2 {fill:#44269B}
    .fil3 {fill:white}
   ]]>
  </style>
 </defs>
<symbol id="m" viewBox="-1510.41 -1754.77 195.74 232.64">
 <path class="fil0" d="M-1314.67 -1742.41l0 57.72c-9.71,-6.51 -19.42,-11.34 -29.08,-14.54 -9.71,-3.15 -19.75,-4.78 -30.17,-4.78 -19.86,0 -35.26,5.81 -46.22,17.36 -11.01,11.45 -16.49,27.51 -16.49,48.18 0,20.83 5.48,37.06 16.49,48.61 10.96,11.45 26.37,17.15 46.22,17.15 11.12,0 21.59,-1.63 31.47,-4.99 9.98,-3.31 19.2,-8.14 27.78,-14.54l0 57.94c-11.18,4.07 -22.46,7.05 -33.85,9.11 -11.28,2.01 -22.73,3.04 -34.29,3.04 -39.93,0 -71.18,-10.2 -93.75,-30.6 -22.57,-20.51 -33.85,-49.1 -33.85,-85.72 0,-36.46 11.28,-64.94 33.85,-85.5 22.57,-20.51 53.82,-30.81 93.75,-30.81 11.56,0 23,1.09 34.29,3.26 11.28,2.06 22.57,5.1 33.85,9.11l-0 -0z"/>
</symbol>
<symbol id="n" viewBox="-1541.23 -1835.5 118.27 395.19">
 <path class="fil0" d="M-1493.71 -1749.35l70.75 0 0 217.67c0,29.62 -7.16,52.3 -21.48,67.93 -14.21,15.63 -34.83,23.44 -61.85,23.44l-34.94 0 0 -46.44 12.37 0c13.46,0 22.62,-3.04 27.56,-9.11 5.05,-6.07 7.59,-18.01 7.59,-35.81l-0 -217.67zm0 -86.15l70.75 0 0 57.72 -70.75 0 0 -57.72z"/>
</symbol>
<symbol id="o" viewBox="-1490.67 -1823.14 243.28 295.36">
 <path class="fil0" d="M-1490.67 -1823.14l126.52 0c37.6,0 66.46,8.41 86.59,25.17 20.07,16.66 30.17,40.36 30.17,71.18 0,30.98 -10.09,54.85 -30.17,71.61 -20.13,16.66 -48.99,24.96 -86.59,24.96l-50.35 0 0 102.43 -76.17 0 0 -295.36zm76.17 55.12l0 82.46 42.31 0c14.76,0 26.09,-3.53 34.07,-10.63 8.08,-7.22 12.15,-17.41 12.15,-30.6 0,-13.13 -4.07,-23.28 -12.15,-30.38 -7.98,-7.22 -19.31,-10.85 -34.07,-10.85l-42.31 -0z"/>
</symbol>
<symbol id="v" viewBox="-1523.88 -1585.07 47.75 58.37">
 <path class="fil0" d="M-1476.13 -1530.82c-2.6,1.3 -5.37,2.33 -8.25,3.04 -2.93,0.7 -5.97,1.09 -9.11,1.09 -9.28,0 -16.66,-2.6 -22.14,-7.81 -5.54,-5.21 -8.25,-12.37 -8.25,-21.48 0,-8.95 2.71,-16.06 8.25,-21.27 5.48,-5.21 12.86,-7.81 22.14,-7.81 3.15,0 6.19,0.38 9.11,1.09 2.87,0.76 5.64,1.74 8.25,3.04l0 11.72c-2.6,-1.85 -5.21,-3.26 -7.81,-4.12 -2.6,-0.87 -5.37,-1.3 -8.25,-1.3 -5.21,0 -9.33,1.68 -12.37,4.99 -2.93,3.36 -4.34,7.92 -4.34,13.67 0,5.97 1.41,10.58 4.34,13.89 3.04,3.36 7.16,4.99 12.37,4.99 2.87,0 5.64,-0.43 8.25,-1.3 2.61,-0.87 5.21,-2.22 7.81,-4.12l0 11.7z"/>
</symbol>
<symbol id="p" viewBox="-1496.1 -1749.35 222.66 227.21">
 <path class="fil0" d="M-1496.09 -1613.93l0 -135.42 71.18 0 0 22.14c0,12.04 -0.11,27.13 -0.22,45.35 -0.16,18.12 -0.22,30.17 -0.22,36.24 0,17.8 0.43,30.6 1.3,38.41 0.98,7.81 2.6,13.56 4.78,17.15 3.04,4.67 6.83,8.19 11.5,10.63 4.61,2.5 9.98,3.69 16.06,3.69 14.76,0 26.31,-5.64 34.72,-16.93 8.52,-11.28 12.8,-27.02 12.8,-47.31l0 -109.37 70.75 0 0 221.57 -70.75 0 0 -32.12c-10.74,13.02 -22.08,22.57 -34.07,28.65 -11.88,6.07 -24.96,9.11 -39.28,9.11 -25.61,0 -45.14,-7.81 -58.59,-23.44 -13.35,-15.73 -19.96,-38.52 -19.96,-68.36l0 0z"/>
</symbol>
<symbol id="r" viewBox="-1519.97 -1835.5 172.09 307.72">
 <path class="fil0" d="M-1347.88 -1835.5l0 46.44 -39.28 0c-9.98,0 -17.04,1.85 -21.05,5.43 -3.91,3.63 -5.86,9.93 -5.86,18.88l0 15.41 60.55 -0 0 50.56 -60.55 0 0 171 -70.74 0 0 -171 -35.16 0 0 -50.56 35.16 0 0 -15.41c0,-24.14 6.73,-41.94 20.18,-53.39 13.46,-11.56 34.29,-17.36 62.5,-17.36l54.25 0z"/>
</symbol>
<symbol id="s" viewBox="-1506.73 -1754.77 200.96 232.64">
 <path class="fil0" d="M-1320.75 -1742.41l0 53.82c-15.08,-6.35 -29.68,-11.12 -43.83,-14.32 -14.05,-3.15 -27.34,-4.78 -39.93,-4.78 -13.46,0 -23.44,1.74 -29.95,5.21 -6.51,3.36 -9.76,8.46 -9.76,15.41 0,5.64 2.44,9.98 7.38,13.02 4.88,3.04 13.78,5.31 26.69,6.73l12.37 1.95c36.3,4.5 60.66,12.04 73.13,22.57 12.59,10.58 18.88,27.13 18.88,49.7 0,23.6 -8.79,41.34 -26.26,53.17 -17.36,11.88 -43.35,17.8 -77.91,17.8 -14.65,0 -29.73,-1.19 -45.35,-3.47 -15.63,-2.17 -31.69,-5.54 -48.18,-10.2l0 -53.82c14.16,6.83 28.65,11.94 43.4,15.41 14.87,3.36 30,4.99 45.35,4.99 13.72,0 24.09,-1.85 31.03,-5.64 7.05,-3.74 10.63,-9.39 10.63,-16.93 0,-6.35 -2.5,-11.07 -7.38,-14.11 -4.78,-3.15 -14.32,-5.64 -28.65,-7.38l-12.37 -1.52c-31.57,-3.91 -53.71,-11.18 -66.41,-21.92 -12.59,-10.69 -18.88,-26.96 -18.88,-48.83 0,-23.44 8.03,-40.8 24.09,-52.08 16.06,-11.39 40.69,-17.15 74,-17.15 13.02,0 26.69,1.03 41.02,3.04 14.43,2.06 30.06,5.15 46.87,9.33l0 -0z"/>
</symbol>
<symbol id="q" viewBox="-1490.67 -1823.14 264.76 295.36">
 <polygon class="fil0" points="-1490.67,-1823.14 -1405.6,-1823.14 -1298.18,-1620.67 -1298.18,-1823.14 -1225.91,-1823.14 -1225.91,-1527.78 -1310.98,-1527.78 -1418.41,-1730.47 -1418.41,-1527.78 -1490.67,-1527.78 "/>
</symbol>
<symbol id="g" viewBox="-1493.71 -1754.78 222.65 227">
 <path class="fil0" d="M-1271.06 -1662.76l0 134.98 -71.18 0 0 -103.3c0,-19.1 -0.43,-32.23 -1.3,-39.5 -0.87,-7.22 -2.33,-12.59 -4.34,-16.06 -2.77,-4.61 -6.51,-8.14 -11.28,-10.63 -4.78,-2.6 -10.2,-3.91 -16.28,-3.91 -14.76,0 -26.42,5.75 -34.94,17.15 -8.41,11.28 -12.59,27.07 -12.59,47.31l0 108.94 -70.75 0 0 -221.57 70.74 0 0 32.33c10.69,-12.86 22.03,-22.35 34.07,-28.43 11.99,-6.19 25.23,-9.33 39.71,-9.33 25.61,0 44.98,7.92 58.16,23.65 13.29,15.63 19.96,38.41 19.96,68.36z"/>
</symbol>
<symbol id="t" viewBox="-1493.71 -1835.5 70.75 307.72">
 <path class="fil0" d="M-1493.71 -1749.35l70.75 0 0 221.57 -70.75 0 0 -221.57zm0 -86.15l70.75 0 0 57.72 -70.75 0 0 -57.72z"/>
</symbol>
<symbol id="h" viewBox="-1494.15 -1754.78 356.56 227">
 <path class="fil0" d="M-1288.42 -1712.46c8.95,-13.72 19.59,-24.2 31.9,-31.47 12.43,-7.22 26.04,-10.85 40.8,-10.85 25.44,0 44.81,7.92 58.16,23.65 13.29,15.63 19.96,38.41 19.96,68.36l0 134.98 -71.19 0 0 -115.45 0 -5.43c0.11,-1.85 0.22,-4.45 0.22,-7.81 0,-15.73 -2.33,-27.13 -6.94,-34.07 -4.5,-7.05 -11.94,-10.63 -22.35,-10.63 -13.46,0 -23.87,5.59 -31.25,16.71 -7.27,11.01 -11.01,27.02 -11.28,47.96l0 108.72 -71.18 0 0 -115.45c0,-24.57 -2.11,-40.36 -6.3,-47.31 -4.23,-7.05 -11.72,-10.63 -22.57,-10.63 -13.62,0 -24.09,5.59 -31.47,16.71 -7.38,11.18 -11.07,27.07 -11.07,47.74l0 108.94 -71.17 0 0 -221.57 71.18 0 0 32.33c8.68,-12.43 18.67,-21.81 29.95,-28.21 11.28,-6.35 23.71,-9.55 37.33,-9.55 15.3,0 28.86,3.69 40.58,11.07 11.72,7.38 20.62,17.8 26.69,31.25z"/>
</symbol>
<symbol id="f" viewBox="-1493.71 -1835.5 222.65 307.72">
 <path class="fil0" d="M-1271.06 -1662.76l0 134.98 -71.18 0 0 -102.86c0,-19.37 -0.43,-32.66 -1.3,-39.93 -0.87,-7.22 -2.33,-12.59 -4.34,-16.06 -2.77,-4.61 -6.51,-8.14 -11.28,-10.63 -4.78,-2.6 -10.2,-3.91 -16.28,-3.91 -14.76,0 -26.42,5.75 -34.94,17.15 -8.41,11.28 -12.59,27.07 -12.59,47.31l0 108.94 -70.75 -0 0 -307.72 70.74 0 0 118.49c10.69,-12.86 22.03,-22.35 34.07,-28.43 11.99,-6.19 25.23,-9.33 39.71,-9.33 25.61,0 44.98,7.92 58.16,23.65 13.29,15.63 19.96,38.41 19.96,68.36l0 -0z"/>
</symbol>
<symbol id="c" viewBox="-1510.41 -1754.78 243.49 232.64">
 <path class="fil0" d="M-1388.24 -1704c-15.79,0 -27.78,5.64 -36.02,16.93 -8.24,11.29 -12.37,27.51 -12.37,48.61 0,21.27 4.12,37.54 12.37,48.83 8.25,11.28 20.24,16.93 36.02,16.93 15.3,0 27.02,-5.64 35.16,-16.93 8.25,-11.28 12.37,-27.56 12.37,-48.83 0,-21.1 -4.12,-37.33 -12.37,-48.61 -8.14,-11.28 -19.86,-16.93 -35.16,-16.93zm0 -50.78c38.03,0 67.76,10.36 89.19,31.03 21.38,20.56 32.12,48.99 32.12,85.29 0,36.46 -10.74,65 -32.12,85.5 -21.43,20.56 -51.16,30.81 -89.19,30.81 -38.36,0 -68.31,-10.25 -89.84,-30.81 -21.59,-20.51 -32.33,-49.04 -32.33,-85.5 0,-36.3 10.74,-64.72 32.33,-85.29 21.54,-20.67 51.48,-31.03 89.84,-31.03z"/>
</symbol>
<symbol id="i" viewBox="-1490.67 -1823.15 266.71 295.37">
 <path class="fil0" d="M-1382.38 -1692.28c15.9,0 27.34,-2.93 34.29,-8.9 6.94,-5.91 10.42,-15.68 10.42,-29.3 0,-13.29 -3.47,-22.84 -10.42,-28.65 -6.94,-5.91 -18.39,-8.9 -34.29,-8.9l-32.12 0 0 75.74 32.12 0zm-32.12 52.74l0 111.76 -76.17 -0 0 -295.36 116.32 0c38.9,0 67.38,6.51 85.5,19.53 18.23,13.02 27.34,33.74 27.34,62.07 0,19.42 -4.72,35.37 -14.11,47.96 -9.44,12.59 -23.65,21.86 -42.75,27.78 10.42,2.33 19.75,7.7 28,16.06 8.25,8.41 16.6,21.05 25.17,37.98l41.23 83.98 -81.16 -0 -35.81 -73.35c-7.38,-14.76 -14.87,-24.8 -22.35,-30.17 -7.38,-5.48 -17.25,-8.25 -29.52,-8.25l-21.7 0.01z"/>
</symbol>
<symbol id="d" viewBox="-1522.35 -1812.28 179.04 284.5">
 <path class="fil0" d="M-1416.45 -1812.28l0 62.93 73.13 0 0 50.56 -73.13 0 0 93.97c0,10.31 2.01,17.31 6.07,21.05 4.18,3.63 12.37,5.43 24.52,5.43l36.24 0 0 50.56 -60.55 0c-28.1,0 -47.96,-5.75 -59.68,-17.36 -11.61,-11.72 -17.36,-31.57 -17.36,-59.68l0 -93.97 -35.15 0 0 -50.56 35.15 0 0 -62.93 70.75 0z"/>
</symbol>
<symbol id="j" viewBox="-1522.79 -1749.35 251.74 309.03">
 <path class="fil0" d="M-1522.79 -1749.35l70.75 0 59.68 150.39 50.56 -150.39 70.74 0 -93.1 242.63c-9.44,24.57 -20.34,41.78 -32.77,51.65 -12.48,9.82 -28.86,14.76 -49.26,14.76l-41.02 0 0 -46.44 22.14 0c11.99,0 20.72,-1.95 26.26,-5.86 5.48,-3.8 9.76,-10.63 12.8,-20.62l1.95 -6.07 -98.74 -230.04z"/>
</symbol>
<symbol id="l" viewBox="-1509.55 -1835.5 237.85 313.36">
 <path class="fil0" d="M-1343.1 -1717.02l0 -118.49 71.4 0 0 307.72 -71.4 0 0 -32.12c-9.71,13.19 -20.4,22.79 -32.12,28.86 -11.72,5.91 -25.33,8.9 -40.8,8.9 -27.34,0 -49.8,-10.74 -67.28,-32.33 -17.52,-21.7 -26.26,-49.7 -26.26,-83.98 0,-34.13 8.74,-62.07 26.26,-83.77 17.47,-21.7 39.93,-32.55 67.28,-32.55 15.3,0 28.86,3.15 40.58,9.33 11.83,6.07 22.62,15.57 32.33,28.43l0 0zm-46.66 143.44c15.19,0 26.75,-5.48 34.72,-16.49 7.92,-11.12 11.94,-27.24 11.94,-48.39 0,-20.94 -4.02,-37 -11.94,-48.18 -7.98,-11.12 -19.53,-16.71 -34.72,-16.71 -15.08,0 -26.59,5.59 -34.5,16.71 -7.98,11.18 -11.94,27.24 -11.94,48.18 0,21.16 3.96,37.27 11.94,48.39 7.92,11.01 19.42,16.49 34.5,16.49z"/>
</symbol>
<symbol id="k" viewBox="-1493.7 -1835.5 237.85 313.36">
 <path class="fil0" d="M-1375.86 -1573.57c15.19,0 26.75,-5.48 34.72,-16.49 7.92,-11.12 11.94,-27.24 11.94,-48.39 0,-20.94 -4.02,-37 -11.94,-48.18 -7.98,-11.12 -19.53,-16.71 -34.72,-16.71 -15.19,0 -26.85,5.59 -34.94,16.71 -8.14,11.18 -12.15,27.24 -12.15,48.18 0,21 4.02,37.06 12.15,48.18 8.08,11.18 19.75,16.71 34.94,16.71zm-47.09 -143.44c9.82,-12.86 20.67,-22.35 32.55,-28.43 11.83,-6.19 25.44,-9.33 40.8,-9.33 27.34,0 49.75,10.85 67.28,32.55 17.63,21.7 26.48,49.64 26.48,83.77 0,34.29 -8.84,62.28 -26.48,83.98 -17.52,21.59 -39.93,32.33 -67.28,32.33 -15.35,0 -28.97,-3.04 -40.8,-9.11 -11.88,-6.07 -22.73,-15.63 -32.55,-28.65l0 32.12 -70.75 0 0 -307.72 70.75 0 0 118.48z"/>
</symbol>
<symbol id="u" viewBox="-1507.6 -1828.56 251.3 306.43">
 <path class="fil0" d="M-1256.3 -1544.06c-14.05,7.27 -28.65,12.7 -43.83,16.28 -15.19,3.74 -31.03,5.64 -47.53,5.64 -49.21,0 -88.22,-13.72 -116.97,-41.23 -28.65,-27.45 -42.97,-64.72 -42.97,-111.76 0,-47.31 14.32,-84.69 42.97,-112.2 28.76,-27.45 67.76,-41.23 116.97,-41.23 16.49,0 32.33,1.9 47.53,5.64 15.19,3.63 29.78,9.11 43.83,16.49l0 60.98c-14.21,-9.55 -28.16,-16.55 -41.88,-21.05 -13.62,-4.45 -28,-6.73 -43.19,-6.73 -27.24,0 -48.61,8.68 -64.24,26.04 -15.52,17.36 -23.22,41.4 -23.22,72.05 0,30.38 7.7,54.36 23.22,71.83 15.63,17.36 37,26.04 64.24,26.04 15.19,0 29.57,-2.22 43.19,-6.73 13.72,-4.45 27.67,-11.5 41.88,-21.05l0 60.99z"/>
</symbol>
<symbol id="e" viewBox="-1510.41 -1754.77 224.18 232.63">
 <path class="fil0" d="M-1394.53 -1627.39c-14.76,0 -25.93,2.55 -33.42,7.59 -7.38,4.94 -11.07,12.26 -11.07,21.92 0,9.01 2.93,16 8.9,21.05 6.07,5.1 14.43,7.59 25.17,7.59 13.29,0 24.52,-4.78 33.64,-14.32 9.11,-9.55 13.67,-21.48 13.67,-35.81l0 -8.03 -36.89 0zm108.29 -26.91l0 126.52 -71.4 0 0 -32.77c-9.55,13.46 -20.29,23.22 -32.12,29.3 -11.88,6.07 -26.26,9.11 -43.19,9.11 -23,0 -41.67,-6.62 -55.99,-19.96 -14.32,-13.46 -21.48,-30.81 -21.48,-52.08 0,-26.04 8.9,-45.14 26.69,-57.29 17.91,-12.15 46.06,-18.23 84.42,-18.23l41.67 0 0 -5.43c0,-11.28 -4.45,-19.53 -13.24,-24.74 -8.84,-5.21 -22.68,-7.81 -41.45,-7.81 -15.08,0 -29.19,1.52 -42.32,4.56 -13.02,3.04 -25.12,7.59 -36.24,13.67l0 -54.04c15.03,-3.58 30.22,-6.35 45.57,-8.25 15.3,-2.01 30.65,-3.04 46.01,-3.04 39.93,0 68.69,7.92 86.37,23.65 17.8,15.79 26.69,41.4 26.69,76.82l-0 -0z"/>
</symbol>
<symbol id="a" viewBox="-1510.42 -1754.77 237.85 232.64">
 <path class="fil0" d="M-1272.57 -1639.11l0 20.18 -165.58 0c1.74,16.66 7.7,29.08 18.01,37.33 10.25,8.25 24.63,12.37 43.19,12.37 14.87,0 30.17,-2.17 45.79,-6.51 15.63,-4.45 31.69,-11.18 48.18,-20.18l0 54.69c-16.82,6.4 -33.58,11.18 -50.35,14.32 -16.82,3.15 -33.53,4.78 -50.13,4.78 -40.26,0 -71.5,-10.09 -93.75,-30.38 -22.14,-20.4 -33.2,-49.04 -33.2,-85.94 0,-36.02 10.91,-64.34 32.77,-85.07 21.81,-20.83 51.87,-31.25 90.06,-31.25 34.83,0 62.72,10.52 83.55,31.47 20.94,21 31.47,49.04 31.47,84.2l-0 -0zm-72.7 -23.65c0,-13.46 -4.02,-24.31 -11.94,-32.55 -7.81,-8.25 -18.01,-12.37 -30.6,-12.37 -13.78,0 -24.96,3.91 -33.64,11.72 -8.57,7.7 -13.83,18.77 -15.84,33.2l92.02 -0z"/>
</symbol>
<symbol id="b" viewBox="-1493.7 -1754.77 164.5 227">
 <path class="fil0" d="M-1329.21 -1689.02c-6.24,-2.87 -12.37,-4.99 -18.44,-6.3 -6.07,-1.41 -12.26,-2.17 -18.44,-2.17 -18.23,0 -32.28,5.86 -42.1,17.58 -9.87,11.61 -14.76,28.32 -14.76,50.13l0 102 -70.75 0 0 -221.57 70.74 0 0 36.46c9.11,-14.59 19.53,-25.23 31.25,-31.9 11.83,-6.62 26.04,-9.98 42.54,-9.98 2.44,0 5.05,0.16 7.81,0.43 2.71,0.16 6.73,0.6 11.94,1.3l0.22 64.02z"/>
</symbol>
<symbol id="Symbol3" viewBox="-1472.01 -1970.72 399.95 442.93">
 <path class="fil0" d="M-1309.68 -1774.31c23.87,0 41.02,-4.39 51.43,-13.24 10.42,-8.95 15.63,-23.65 15.63,-44.06 0,-20.07 -5.21,-34.5 -15.63,-43.19 -10.42,-8.79 -27.56,-13.24 -51.43,-13.24l-48.18 -0 0 113.72 48.18 0zm-48.18 78.99l0 167.53 -114.15 0 0 -442.93 174.47 0c58.27,0 101.02,9.76 128.26,29.3 27.18,19.53 40.8,50.51 40.8,92.88 0,29.24 -7.11,53.28 -21.27,72.05 -14.05,18.83 -35.32,32.72 -63.8,41.67 15.63,3.47 29.57,11.5 41.88,24.09 12.43,12.59 24.96,31.63 37.54,57.07l62.07 125.87 -121.74 0 -53.82 -110.03c-11.01,-22.14 -22.08,-37.22 -33.2,-45.35 -11.18,-8.08 -26.04,-12.15 -44.7,-12.15l-32.33 0.01z"/>
</symbol>
<symbol id="Symbol1" viewBox="-1524.74 -1970.71 464.18 442.93">
 <path class="fil0" d="M-1203.13 -1608.51l-178.6 0 -28.21 80.73 -114.8 0 164.06 -442.93 136.07 0 164.06 442.93 -114.8 0 -27.77 -80.73zm-150.17 -82.25l121.31 0 -60.55 -176.22 -60.76 176.22z"/>
</symbol>
<symbol id="Symbol2" viewBox="-1472.01 -1970.71 314.89 442.93">
 <polygon class="fil0" points="-1472.01,-1970.71 -1163.63,-1970.71 -1163.63,-1884.33 -1357.85,-1884.34 -1357.85,-1801.87 -1175.34,-1801.87 -1175.34,-1715.5 -1357.85,-1715.5 -1357.85,-1614.15 -1157.12,-1614.15 -1157.12,-1527.78 -1472.01,-1527.78 "/>
</symbol>
<symbol id="Symbol4" viewBox="-1472.01 -1970.71 396.93 442.93">
 <polygon class="fil0" points="-1472.01,-1970.71 -1357.86,-1970.71 -1357.86,-1801.87 -1189.23,-1801.88 -1189.23,-1970.71 -1075.08,-1970.71 -1075.08,-1527.78 -1189.23,-1527.78 -1189.23,-1715.5 -1357.86,-1715.5 -1357.86,-1527.78 -1472.01,-1527.78 "/>
</symbol>
<symbol id="Symbol5" viewBox="-1484.16 -1978.74 349.61 459.63">
 <path class="fil0" d="M-1163.63 -1956.82l0 93.75c-24.47,-10.85 -48.29,-18.99 -71.4,-24.52 -23.17,-5.64 -45.03,-8.46 -65.54,-8.46 -27.24,0 -47.42,3.8 -60.55,11.28 -13.02,7.54 -19.53,19.26 -19.53,35.16 0,11.88 4.39,21.16 13.24,27.78 8.79,6.51 24.8,12.15 47.96,16.93l48.61 9.76c49.15,9.98 84.2,25.07 105.04,45.14 20.83,20.13 31.25,48.77 31.25,85.94 0,48.94 -14.54,85.29 -43.62,109.16 -28.97,23.87 -73.24,35.81 -132.81,35.81 -28.1,0 -56.31,-2.71 -84.64,-8.03 -28.21,-5.31 -56.43,-13.29 -84.64,-23.87l0 -96.35c28.21,15.08 55.45,26.42 81.81,34.07 26.48,7.54 51.98,11.28 76.61,11.28 24.85,0 43.89,-4.12 57.07,-12.37 13.29,-8.35 19.96,-20.24 19.96,-35.59 0,-13.89 -4.5,-24.57 -13.46,-32.12 -9.01,-7.49 -26.91,-14.21 -53.82,-20.18l-44.27 -9.76c-44.27,-9.55 -76.71,-24.63 -97.22,-45.35 -20.4,-20.83 -30.6,-48.83 -30.6,-83.98 0,-44.11 14.21,-78.02 42.75,-101.78 28.48,-23.71 69.44,-35.59 122.83,-35.59 24.31,0 49.31,1.85 75.09,5.43 25.72,3.63 52.35,9.11 79.86,16.49l0 0z"/>
</symbol>
<symbol id="Symbol7" viewBox="-1476.78 -1989.36 356.76 470.26">
 <path class="fil0" d="M-1299.92 -1596.35c22.68,0 40.04,-8.3 52.08,-24.96 11.99,-16.6 18.01,-40.69 18.01,-72.26 0,-31.69 -6.02,-55.83 -18.01,-72.48 -12.04,-16.6 -29.41,-24.96 -52.08,-24.96 -22.73,0 -40.15,8.41 -52.3,25.17 -12.15,16.66 -18.23,40.74 -18.23,72.26 0,31.41 6.07,55.5 18.23,72.26 12.15,16.66 29.57,24.96 52.3,24.96l0 0zm-70.53 -215.06c14.59,-19.37 30.81,-33.64 48.61,-42.75 17.8,-9.22 38.25,-13.89 61.41,-13.89 40.91,0 74.54,16.28 100.91,48.83 26.31,32.55 39.5,74.44 39.5,125.65 0,51.21 -13.19,93.1 -39.5,125.65 -26.37,32.55 -60,48.83 -100.91,48.83 -23.17,0 -43.62,-4.67 -61.41,-13.89 -17.8,-9.22 -34.02,-23.49 -48.61,-42.75l0 47.96 -106.33 0.01 0 -461.58 106.33 0 0 177.94z"/>
</symbol>
<symbol id="Symbol6" viewBox="-1520.4 -1860.03 377.82 463.33">
 <path class="fil0" d="M-1520.4 -1860.03l106.33 0 89.19 225.47 75.96 -225.47 106.34 0 -139.75 363.72c-14.05,37 -30.49,62.83 -49.26,77.47 -18.67,14.76 -43.35,22.14 -74,22.14l-61.42 0 0 -69.66 33.2 0c18.07,0 31.14,-2.93 39.28,-8.68 8.25,-5.64 14.65,-15.95 19.31,-30.81l2.82 -9.11 -148.01 -345.06z"/>
</symbol>
<symbol id="Symbol8" viewBox="-1500.43 -1989.36 356.55 470.26">
 <path class="fil0" d="M-1250.65 -1811.42l0 -177.94 106.77 0 0 461.58 -106.77 0 0 -47.96c-14.65,19.53 -30.76,33.85 -48.39,42.97 -17.69,9.11 -38.09,13.67 -61.2,13.67 -40.96,0 -74.6,-16.28 -100.91,-48.83 -26.2,-32.55 -39.28,-74.44 -39.28,-125.65 0,-51.21 13.07,-93.1 39.28,-125.65 26.31,-32.55 59.95,-48.83 100.91,-48.83 23,0 43.3,4.67 60.98,13.89 17.8,9.11 33.96,23.38 48.61,42.75l0 -0.01zm-70.1 215.06c22.84,0 40.2,-8.3 52.08,-24.96 11.99,-16.6 18.01,-40.69 18.01,-72.26 0,-31.69 -6.02,-55.83 -18.01,-72.48 -11.88,-16.6 -29.24,-24.96 -52.08,-24.96 -22.57,0 -39.88,8.35 -51.87,24.96 -11.88,16.66 -17.8,40.8 -17.8,72.48 0,31.57 5.91,55.67 17.8,72.26 11.99,16.66 29.3,24.96 51.87,24.96z"/>
</symbol>
<symbol id="Symbol10" viewBox="-1519.75 -1954.43 268.44 426.66">
 <path class="fil0" d="M-1360.68 -1954.43l0 94.4 109.37 0 0 75.96 -109.37 0 0 140.85c0,15.52 3.04,25.99 9.11,31.47 6.07,5.37 18.23,8.03 36.46,8.03l54.69 0 0 75.96 -91.15 0c-41.99,0 -71.72,-8.74 -89.19,-26.26 -17.52,-17.47 -26.26,-47.2 -26.26,-89.19l0 -140.85 -52.73 0 0 -75.96 52.73 0 0 -94.4 106.34 0z"/>
</symbol>
<symbol id="Symbol9" viewBox="-1501.75 -1868.05 356.78 348.96">
 <path class="fil0" d="M-1144.97 -1694.88l0 30.38 -248.49 0c2.6,24.9 11.56,43.57 26.91,55.99 15.46,12.48 37.11,18.67 64.89,18.67 22.24,0 45.14,-3.26 68.57,-9.76 23.44,-6.62 47.53,-16.71 72.26,-30.17l0 81.81c-25.07,9.55 -50.13,16.71 -75.3,21.48 -25.17,4.88 -50.29,7.38 -75.3,7.38 -60.22,0 -106.99,-15.24 -140.4,-45.79 -33.31,-30.65 -49.91,-73.57 -49.91,-128.69 0,-54.25 16.33,-96.84 49.04,-127.82 32.82,-31.09 77.91,-46.66 135.2,-46.66 52.19,0 94.02,15.79 125.43,47.31 31.36,31.41 47.09,73.35 47.09,125.87l0.01 0zm-109.16 -35.15c0,-20.24 -5.97,-36.51 -17.8,-48.83 -11.72,-12.43 -27.07,-18.67 -46.01,-18.67 -20.72,0 -37.49,5.81 -50.35,17.36 -12.75,11.61 -20.72,28.32 -23.87,50.13l138.02 0z"/>
</symbol>
<symbol id="Symbol12" viewBox="-1476.78 -1868.05 246.96 340.28">
 <path class="fil0" d="M-1229.82 -1769.53c-9.44,-4.34 -18.77,-7.49 -28,-9.55 -9.11,-2.17 -18.34,-3.26 -27.56,-3.26 -27.34,0 -48.39,8.79 -63.15,26.26 -14.65,17.52 -21.92,42.64 -21.92,75.3l0 153 -106.33 -0 0 -332.25 106.34 0 0 54.47c13.56,-21.7 29.19,-37.54 46.87,-47.53 17.8,-9.98 39.06,-14.97 63.8,-14.97 3.47,0 7.27,0.16 11.5,0.43 4.18,0.33 10.2,0.98 18.01,1.95l0.43 96.13z"/>
</symbol>
<symbol id="Symbol13" viewBox="-1497.63 -1978.74 376.96 459.65">
 <path class="fil0" d="M-1120.67 -1552.09c-21,10.85 -42.91,19.04 -65.76,24.52 -22.73,5.64 -46.39,8.46 -70.96,8.46 -73.78,0 -132.32,-20.62 -175.57,-61.85 -43.13,-41.23 -64.67,-97.22 -64.67,-167.97 0,-70.75 21.54,-126.74 64.67,-167.97 43.24,-41.23 101.78,-61.85 175.57,-61.85 24.57,0 48.23,2.77 70.96,8.25 22.84,5.54 44.76,13.78 65.76,24.74l0 91.58c-21.27,-14.43 -42.21,-25.01 -62.72,-31.69 -20.56,-6.78 -42.21,-10.2 -64.89,-10.2 -40.8,0 -72.86,13.13 -96.14,39.28 -23.33,26.04 -34.94,62.01 -34.94,107.85 0,45.74 11.61,81.7 34.94,107.85 23.28,26.04 55.34,39.06 96.14,39.06 22.68,0 44.33,-3.31 64.89,-9.98 20.51,-6.78 41.45,-17.41 62.72,-31.9l0 91.81z"/>
</symbol>
<symbol id="Symbol11" viewBox="-1501.72 -1868.06 336.15 348.96">
 <path class="fil0" d="M-1327.91 -1677.31c-22.14,0 -38.79,3.8 -49.91,11.28 -11.18,7.54 -16.71,18.61 -16.71,33.2 0,13.46 4.45,24.04 13.46,31.69 8.95,7.54 21.48,11.28 37.54,11.28 19.96,0 36.73,-7.16 50.35,-21.48 13.72,-14.32 20.62,-32.23 20.62,-53.82l0 -12.15 -55.34 0zm162.33 -40.15l0 189.67 -106.99 0 0 -49.26c-14.32,20.13 -30.38,34.83 -48.18,44.06 -17.8,9.22 -39.44,13.89 -64.89,13.89 -34.45,0 -62.44,-10.04 -83.98,-30.17 -21.43,-20.07 -32.12,-46.11 -32.12,-78.13 0,-39.06 13.35,-67.6 40.15,-85.72 26.91,-18.23 69.01,-27.34 126.3,-27.34l62.72 -0 0 -8.46c0,-16.76 -6.67,-29.08 -19.96,-36.89 -13.19,-7.81 -33.85,-11.72 -62.07,-11.72 -22.73,0 -43.83,2.33 -63.37,6.94 -19.53,4.5 -37.76,11.28 -54.69,20.4l0 -80.94c22.84,-5.64 45.68,-9.82 68.57,-12.59 23,-2.87 45.9,-4.34 68.79,-4.34 60,0 103.3,11.88 129.78,35.59 26.59,23.6 39.93,61.96 39.93,115.02l0 0z"/>
</symbol>
 <g id="Layer_x0020_1">
  <metadata id="CorelCorpID_0Corel-Layer"/>
  <circle class="fil1" cx="3108.68" cy="3055.43" r="2390.14"/>
  <g id="_2520496341984">
   <path class="fil2" d="M2970.39 2256.65l0 -577.89 278.23 0 0 567.86c26.41,-82.68 55.42,-161.3 113.1,-231.09 50.02,-60.53 115.44,-108.62 197.24,-106.13 206.22,6.29 398.28,329.35 492.08,487.91 106.31,179.72 202.26,367.96 283.69,560.25 86.06,203.24 160.77,421.6 198.42,639.46 38.29,221.59 50.43,507.34 -118.08,681.57 -166.05,171.69 -459.71,172.54 -678.22,130.48 -212.92,-40.98 -399.09,-154.54 -499.35,-351.56 -60.9,-119.67 -66.06,-217.93 -77.06,-348.31 -11.11,-131.62 -21.89,-264.41 -22.19,-396.54 -0.21,-90.74 -0.78,-181.44 0.9,-272.17 1.71,-92.26 5.07,-186.65 16.42,-278.25 8.01,-64.61 -7.16,-63.86 -45.39,-101.56 -28.1,22.52 -50.83,32.31 -50.57,75.44 0.15,23.63 5.98,47.48 7.79,71.12 9.51,124.28 13.84,250.46 13.66,375.11l-0 2.71c-0.07,51.71 -1.63,103.68 -3.33,155.36 -2.43,73.88 -5.69,147.76 -9.92,221.56 -4.17,72.78 -9.17,145.76 -16.54,218.29 -5.04,49.59 -10.85,107.35 -23.84,155.43 -53.72,198.99 -197.92,349.63 -387.44,426.44 -190.16,77.07 -500.76,99.73 -691.41,16.82 -216.91,-94.33 -287.94,-303.91 -288.35,-525.78 -0.8,-441.65 243.59,-991.72 457.16,-1373.03 90.03,-160.73 242.87,-419.35 396.85,-520.33 119.61,-78.44 235.43,-63 330.28,44.02 67.41,76.07 97.29,161.36 125.87,252.8zm-569.78 904.52c24.82,-3.36 47.67,-12.04 73.66,-12.87 14.63,-0.46 28.51,-3.35 43.34,-2.8 3.46,0.13 33.74,2.76 35.62,1.71 2.15,-1.19 7.94,-16.43 8.89,-18.81 9.81,-24.72 20.27,-48.38 32.18,-72.2 15.53,-31.05 34.19,-60.37 52.02,-90.46l102.57 -161.59c-54.39,-19.39 -170.25,-30.04 -221.27,-30.05 -2.14,0 -8.37,-0.34 -10.55,0.06 -1.69,1.22 -5.36,5.49 -6.72,6.93 -16.63,17.47 -34.18,34.15 -48.73,53.47 -11.05,14.67 -24.39,34 -29.37,51.95 -2.89,10.43 -2.17,17.77 -1.49,28.26 0.33,5.07 0.43,9.99 -0.15,15.06l-0.66 5.83 -5.41 2.27c-18.22,7.64 -37.7,14.7 -55.1,23.98l-8.7 4.63 -4.76 -8.63c-32.62,-59.14 1.89,-119.98 34.96,-171.04 -32.04,5.35 -76.68,20.61 -99.54,30.88 -17.44,7.83 -34.02,15.98 -50.72,25.31 -12.31,6.88 -39.45,27.07 -51.52,28.93l-5.11 0.79 -3.59 -3.72c-13.74,-14.2 -26.36,-31.43 -38.34,-47.2l-5.4 -7.11 6.45 -6.17c31.06,-29.69 100.44,-61.6 140.94,-77.9 49.15,-19.78 115,-35.64 169.68,-37.44 -1.81,-66.56 -22.38,-125.22 -71.06,-172.97l-6.23 -6.11 5.22 -7c9.8,-13.14 32.5,-43.79 44.93,-52.24l6.07 -4.12 5.76 4.55c12.01,9.5 31.08,33.62 40.09,46.6 38.91,56.09 57.5,115.81 59.14,183.3 8.91,0.26 17.81,0.85 26.68,1.57 18.81,1.54 39.12,4.47 58.52,5.7 -11.45,-22.08 -20.31,-39.9 -27.09,-67.41 -23.86,-96.92 -5.67,-208.06 21.09,-302.61l2.19 -7.72 8 0.46c15.62,0.89 47.5,13.78 63.39,19.49l6.23 2.24 0.37 6.61c0.78,13.8 -7.47,41.26 -11.1,55.17 -2.64,10.12 -6.11,22.19 -8.2,33.41 34.3,-0.29 66.87,-2.89 95.22,-25.81 7.95,-6.43 12.74,-16.56 20.22,-24.04l5.1 -5.09 74.12 37.09 -6.14 9.39c-22.89,35.01 -40.78,57.52 -80.54,74.15 -41.5,17.35 -74.9,17.73 -117.05,20.65l-0.05 45.28c1.54,15.27 6,32.86 10.73,47.41 18.69,57.49 57.52,97.85 117.54,110.95 1.38,0.3 7.03,1.79 8.28,1.65 1.02,-0.29 3.76,-2.61 4.55,-3.29 15.43,-13.06 27.6,-28.39 38.4,-45.39 17.63,-27.73 92.76,-115 96.69,-137.58 4.76,-27.35 -29.27,-160.68 -38.11,-193.81 -28.2,-105.7 -69.59,-246.57 -159.19,-316.43 -109.08,-85.04 -226.2,20.75 -296.53,102.76 -77.14,89.96 -144.45,194.52 -204.52,296.52 -58,98.47 -111.58,199.83 -162.37,302.2 -101.48,204.53 -193.26,421.79 -258.53,640.59 -70.87,237.59 -154.38,627.51 25.77,836.51 84.15,97.63 211.78,130.63 335.67,138.66 247.79,16.07 536.83,-50.53 683.39,-268.49 86.2,-128.19 88.93,-229.43 100.23,-377.8 11.96,-156.96 18.74,-314.91 19.9,-472.31 1.06,-143.65 -2.24,-289.28 -15.53,-432.51 -9.16,9.24 -18.12,18.72 -27.03,28.19 -25.45,27.06 -50.56,54.47 -75.67,81.85 -21.8,23.76 -43.56,47.55 -65.45,71.22 -14.76,15.96 -29.65,32.33 -45.06,47.65 -23.91,23.77 -28.91,20.23 -27.04,55.63 1.11,20.98 8.63,48.8 20.15,66.49 14.06,21.6 29.19,24.1 52.15,32.04l5.48 1.9 1.07 5.7c2.2,11.66 -4.73,56.84 -7.92,69.61l-2.96 11.88 -11.05 -5.28c-5.63,-2.69 -11.38,-4.26 -17.45,-5.61 -34.58,-7.7 -49.7,-15.24 -74.77,-42.26 -15.04,-16.21 -24.41,-34.31 -31.63,-55.02 -2.05,-5.89 -4.85,-16.23 -8.04,-24.65 -22.98,27.18 -45.39,89.85 -55.7,117.32 -19.85,52.88 -27.5,109.07 -16.22,164.81 17.14,84.71 71.04,147.44 144.69,189.9 10.97,6.32 23.65,9.93 34.05,17.46l6.26 4.53 -28.83 74.16 -7.7 -0.93c-31.94,-3.84 -84.84,-45.1 -110.85,-65.19 -13.59,-10.5 -26.76,-25.53 -37.9,-38.62 -8.54,-10.04 -16.8,-20.32 -24.97,-30.67 2.61,46.83 10.77,93.81 19.99,139.49 10.15,50.3 27.97,98.6 40.13,148.41 20.97,85.95 40.02,258.11 -15.62,332.59l-3.45 4.62 -5.72 -0.67c-15.16,-1.77 -47.59,-23.55 -60.63,-33.03l-5.96 -4.34 2.38 -6.98c5.72,-16.74 13.93,-30.54 17.83,-48.12 20.04,-90.54 -4.58,-197.71 -29.66,-285.54l-23.5 -90.7c-38.07,35.43 -104.6,132.78 -126.02,167.56 -20.48,33.26 -38.01,68.43 -53.69,104.18 -18.96,43.26 -21.24,78.35 -32.09,122.78l-1.64 6.71 -6.86 0.84c-16.63,2.04 -48.37,-2.44 -65.6,-5.05l-8.02 -1.21 -0.46 -8.1c-2.11,-36.8 19.53,-105.97 32.5,-141.76 7.47,-20.63 16.04,-41.22 25.84,-60.86 4.44,-8.9 10.11,-17.81 15.2,-26.39 0.37,-0.63 0.8,-1.34 1.27,-2.12 -29.74,13.31 -59.76,23.1 -93.21,27.72 -46.86,6.46 -100.25,8.02 -145.82,-6.06l-9.22 -2.85 21.63 -79.85 8.17 0.55c11.8,0.79 24.11,4.55 35.93,6.22 34.69,4.93 71.17,-2.07 104.58,-11.4 77.77,-21.72 140.01,-73.99 202.51,-122.44 15.17,-11.76 25.89,-27.91 39.43,-41.37 46,-45.74 37.78,-22.18 32.56,-84.69 -3.52,-42.05 -1.24,-87.75 2.4,-129.76 3.65,-42.2 9.28,-87.28 19.51,-128.41 3.36,-13.51 7.78,-27.01 11.83,-40.33 3.04,-9.98 6.89,-21.81 9.38,-32.92 -58.5,0.25 -95.58,3.16 -151.34,30.86 -29.89,14.85 -48.58,29.84 -66.98,57.47 -9.3,13.96 -17.52,27.89 -28.03,41.11l-5.12 6.44 -71.47 -36.97 2.74 -8.13c13.89,-41.16 55.38,-82.62 89.54,-108.41 7.98,-6.03 16.6,-10.84 25,-15.96 -26.63,-13.09 -64.71,-17.27 -91.28,-13.33 -36.29,5.39 -76.8,5.28 -111.02,19.44l-10.27 4.25 -22.97 -77.72 4.94 -4.22c12.52,-10.67 49.12,-18.18 65.12,-21.01 35.64,-6.31 73.57,-8.77 109.68,-6.39 42.2,2.78 89.18,12.89 122.99,39.74 7.25,5.76 14.22,16.01 20.54,21.8zm1537.97 718.44c0.07,0.11 0.13,0.21 0.19,0.31 5.09,8.58 10.76,17.49 15.2,26.39 25.59,51.28 56.93,142.66 58.92,199.61l0.22 6.15 -5.4 2.96c-17.61,9.66 -51.33,6.33 -71.59,6.33l-9.99 0 -0.01 -9.99c-0.07,-71.09 -49.68,-167.02 -85.59,-227.37 -17.39,-29.22 -90.34,-134.26 -125.1,-165.71 -2.48,8.41 -4.75,18.21 -6.43,24.46 -6.21,23.06 -12.15,46.2 -17.99,69.36 -5.67,22.44 -11.25,44.92 -16.65,67.43 -2.96,12.33 -6.61,25.88 -8.67,38.34 -12.87,78.02 -19.87,152.32 15.58,225.83l4.01 8.31 -71.76 41.96 -5.22 -7.91c-55.63,-84.38 -39.95,-231.58 -18.43,-325.6 11.48,-50.18 28.5,-98.88 39.95,-149.05 5.92,-25.94 10.36,-52.94 14.19,-79.26 2.46,-16.95 5.13,-35.57 6.65,-53.75 -0.04,0.05 -0.08,0.09 -0.12,0.14 -12.75,14.9 -26.18,29.2 -40.44,42.67 -37.18,35.09 -82.28,66.55 -132.36,79.36l-7.52 1.93 -3.73 -6.82c-4.89,-8.94 -18.5,-54.47 -19.33,-64.56l-0.49 -5.89 4.93 -3.27c20.61,-13.67 46.76,-19.56 67.94,-33.76 59.69,-39.99 101.63,-103.09 112.78,-174.32 8.65,-55.28 -1.84,-112.47 -22.3,-164.07 -8.7,-21.93 -34.79,-90.92 -55.44,-116.76 -1.76,5.34 -3.4,11.04 -4.23,13.71 -2.52,8.07 -5.22,17.33 -8.95,24.89 -25.92,52.62 -65.85,79.83 -123.27,89.33l-10.29 1.7 -9.95 -80.99 6.11 -3.22c15.35,-8.07 30.81,-9.78 44.87,-21.64 21.74,-18.32 27.72,-52.7 29.88,-79.37 2.89,-35.65 -4.41,-32.91 -28.22,-56.51 -15.63,-15.49 -29.9,-32.3 -45.38,-47.94 -15.51,-15.68 -33.3,-33.23 -46.97,-50.37 -13.78,-17.27 -31.54,-30.86 -45,-48.48 -4.2,-5.5 -10.26,-11.57 -14.99,-16.7 -9.52,-10.33 -19.13,-20.59 -28.76,-30.81 -9.7,-10.28 -19.43,-20.55 -29.24,-30.72 -0.47,-0.49 -0.96,-1 -1.46,-1.54 -12.67,149.61 -16.6,300.34 -14.79,450.41 1.85,152.76 9.74,305.59 22.55,457.81 12,142.55 16.07,254.86 100.98,376.91 68.02,97.76 157.44,162.76 267.81,205.87 129.7,50.66 282.48,64.24 420.76,57.34 135.92,-6.77 266.19,-48.38 348.3,-163.16 142.5,-199.2 82.33,-537.65 20.69,-759.77 -66.04,-237.96 -162.81,-470.18 -272.98,-690.93 -50.9,-102 -104.62,-202.99 -162.67,-301.11 -60.01,-101.44 -127.2,-205.6 -204.04,-295.14 -70.02,-81.58 -188.59,-188.28 -296.72,-102.96 -90.06,71.06 -130.53,207.33 -158.9,314.1 -9.23,34.74 -43.09,165.33 -39.1,194.67 3.65,26.82 29.83,47.68 45.14,68.63 16.92,23.15 34.62,45.85 50.37,69.82 7.75,11.8 15.54,23.09 25.34,33.33 3.2,3.34 11.94,13.86 15.92,15.58 3.13,1.35 8.72,-0.03 11.79,-0.84 104.33,-27.52 127.39,-107.62 128.81,-203.61 -43.78,-0.09 -77.98,-1.47 -119.55,-22.34 -36.16,-18.15 -57.57,-39.33 -75.84,-75.36l-4.63 -9.14 74.87 -35.67 4.93 6.39c34.85,45.17 62.37,49.22 114.27,49.56 -3.24,-28.44 -16.57,-59.84 -21.15,-87.96l-1.38 -8.46 78.86 -25.64 2.91 9.86c29,98.42 46.6,203.37 21.36,304.64 -4.35,17.43 -9.95,34.29 -18.13,50.31 -2.91,5.71 -6.54,11.5 -9.68,17.3 13.31,-1.34 26.61,-3.82 39.95,-4.46l46.48 -2.2c0.93,-46.32 8.88,-89.18 29.26,-131.5 9.22,-19.15 18.77,-36.33 31.06,-53.74 9.13,-12.93 27.52,-35.91 39.56,-45.47l7.6 -6.04 53.29 63.13 -4.74 6.36c-47.12,63.19 -70.37,92.83 -72.1,172.26 106.6,2.86 225.93,50.35 309.95,113.15l8.61 6.44 -55.24 63.65 -7.28 -4.65c-50.49,-32.27 -133.52,-75.15 -198.44,-82.94 14.08,20.17 26.03,36.7 36.35,63.47 12.2,31.64 20.11,80.11 -1.09,109.48l-4.89 6.78 -71.54 -34.35 1.36 -7.5c6.91,-38.13 -9.59,-62.53 -31.33,-91.86 -9.08,-12.25 -20.02,-25.48 -30.85,-36.2 -16.47,-16.29 -13.22,-22.07 -37.39,-21.79 -42.13,0.48 -84.39,3.97 -125.95,10.96 -18.11,3.04 -36.56,6.97 -54.5,10.88 -8.02,1.74 -29.25,6.04 -42.29,10.12 6.65,11.5 17.31,25.66 23.34,34.09 9.69,13.55 20.02,27.09 29.19,40.96 18.56,28.04 36.79,56.34 54.46,84.94 18.39,29.77 36.91,60.52 52.62,91.79 8.35,16.63 29.89,75.68 41.22,90.28 13.12,0.52 24.17,-2.16 37.37,-2.72 13.44,-0.57 29.77,1.98 43.47,2.97 23.63,1.7 47.25,10.5 70.1,12.61 7.23,-6.41 13.42,-12.96 20.46,-19.66 10.52,-10 22.79,-16.67 35.68,-23.17 34.19,-17.24 87.04,-19.67 124.8,-18.59 37.72,1.07 101.35,7.36 135.24,24.52l4.98 2.53 0.46 5.57c1.08,13.01 -13.78,51.11 -18.21,65.8l-2.57 8.53 -8.77 -1.57c-17.94,-3.21 -35.33,-9.48 -53.31,-12.65 -28.52,-5.04 -117.63,-14.58 -149.59,4.48 5.29,3.54 11.28,7 15.43,9.76 17.01,11.3 32.26,23.98 46.78,38.35 23.86,23.6 36.13,47.69 53.2,75.82l4.58 7.55 -6.93 5.48c-10.81,8.55 -50.4,29.09 -63.54,30.68l-5.74 0.69 -3.46 -4.62c-7.47,-9.98 -11.36,-21.76 -18.74,-31.72 -24.6,-33.22 -40.04,-46.56 -76.28,-66.9 -45.61,-25.6 -98.06,-29.34 -149.28,-29.74 1.17,6.28 2.56,12.51 4.11,18.72 6.57,26.15 15.35,51.63 21.78,77.94 10.02,40.98 15.22,82.25 17.6,124.34 2.53,44.69 0.82,92.33 -2.93,136.95 -0.23,2.77 -2.36,19.68 -1.81,21.75 0.94,1.78 15.01,14.39 17.12,16.5 11.11,11.11 20.73,23.57 31.88,34.57 48.59,47.9 95.12,84.89 154.78,118.36 28.36,15.91 66.33,29.65 98.13,36.44 20.42,4.36 42.42,7.73 63.36,6.43 12.47,-0.77 23.32,-3.6 35.46,-5.57 6.59,-1.07 13.03,-1.59 19.7,-1.31l7.53 0.33 18.54 77.04 -8.07 3.2c-58.26,23.07 -168.32,8.64 -236.24,-20.96zm-884.3 -2116.95l0 738.72 107.78 0 0 -738.72 -107.78 0z"/>
   <path class="fil3" d="M1825.6 3369.32c-70.87,237.59 -154.38,627.51 25.77,836.51 84.15,97.63 211.78,130.63 335.67,138.66 247.79,16.07 536.83,-50.53 683.39,-268.49 86.2,-128.19 88.93,-229.43 100.23,-377.8 21.24,-278.76 30.17,-626.81 4.37,-904.82l-102.7 110.04 -110.51 118.87c-23.91,23.77 -28.91,20.23 -27.04,55.63 1.11,20.98 8.63,48.8 20.15,66.49 14.77,22.7 32.42,25.22 57.63,33.94 4.35,23.09 -3.89,63.48 -9.81,87.2l-28.5 -10.89c-34.58,-7.7 -49.7,-15.24 -74.77,-42.26 -26.46,-28.52 -28.39,-49.83 -39.67,-79.67 -22.98,27.18 -45.39,89.85 -55.7,117.32 -53.61,142.78 -5.18,277.68 128.48,354.71 16.96,9.78 19.17,6.69 40.3,21.98l-28.83 74.16 -7.7 -0.93c-31.94,-3.84 -84.84,-45.1 -110.85,-65.19 -20.35,-15.72 -46.23,-48.23 -62.87,-69.28 2.61,46.83 10.77,93.81 19.99,139.49 10.15,50.3 27.97,98.6 40.13,148.41 20.97,85.95 40.02,258.11 -15.62,332.59l-3.45 4.62 -5.72 -0.67c-16.88,-1.97 -51.59,-26.44 -66.59,-37.37l20.21 -55.1c20.04,-90.54 -4.58,-197.71 -29.66,-285.54l-23.5 -90.7c-38.07,35.43 -104.6,132.78 -126.02,167.56 -20.48,33.26 -38.01,68.43 -53.69,104.18 -18.61,42.44 -22.61,83.91 -33.73,129.49 -27.28,3.33 -53.2,-1.3 -80.48,-5.42l-0.46 -8.1c-2.82,-49.24 34.1,-154.06 58.34,-202.62l16.48 -28.51c-29.74,13.31 -59.76,23.1 -93.21,27.72 -55.72,7.69 -101.51,7.64 -155.05,-8.91l21.63 -79.85 44.11 6.77c34.69,4.93 71.17,-2.07 104.58,-11.4 77.77,-21.72 140.01,-73.99 202.51,-122.44 15.17,-11.76 25.89,-27.91 39.43,-41.37 46,-45.74 37.78,-22.18 32.56,-84.69 -5.93,-70.86 4.73,-189.07 21.91,-258.17l21.21 -73.26c-58.5,0.25 -95.58,3.16 -151.34,30.86 -60.83,30.21 -62.1,57.19 -100.13,105.02l-71.47 -36.97 2.74 -8.13c13.89,-41.16 55.38,-82.62 89.54,-108.41 7.98,-6.03 16.6,-10.84 25,-15.96 -26.63,-13.09 -64.71,-17.27 -91.28,-13.33 -50.94,7.56 -71.08,2.93 -121.28,23.69l-22.97 -77.72 4.94 -4.22c12.52,-10.67 49.12,-18.18 65.12,-21.01 70.83,-12.54 173.99,-13.24 232.67,33.35 7.25,5.76 14.22,16.01 20.54,21.8 24.82,-3.36 47.67,-12.04 73.66,-12.87 14.63,-0.46 28.51,-3.35 43.34,-2.8 3.46,0.13 33.74,2.76 35.62,1.71 2.15,-1.19 7.94,-16.43 8.89,-18.81 25.49,-64.24 47.94,-103.56 84.2,-162.67l102.57 -161.59c-54.39,-19.39 -170.25,-30.04 -221.27,-30.05 -13.25,0 -8.7,-2.01 -17.27,6.98 -26.41,27.72 -67.58,67.49 -78.11,105.43 -4.43,15.95 0.25,26.7 -2.3,49.15l-69.21 30.88 -4.76 -8.63c-32.62,-59.14 1.89,-119.98 34.96,-171.04 -51.56,8.6 -107.84,32.47 -150.27,56.19 -20.13,11.25 -35.61,26.46 -56.63,29.72l-47.33 -58.04 6.45 -6.17c31.06,-29.69 100.44,-61.6 140.94,-77.9 49.15,-19.78 115,-35.64 169.68,-37.44 -1.81,-66.56 -22.38,-125.22 -71.06,-172.97l-6.23 -6.11c16.58,-22.23 34.27,-48.45 56.22,-63.36 17.78,14.05 32.52,31.94 45.85,51.15 38.91,56.09 57.5,115.81 59.14,183.3l85.2 7.27c-11.45,-22.08 -20.31,-39.9 -27.09,-67.41 -24.8,-100.74 -4.43,-212.49 23.27,-310.32 27.8,1.59 50.37,12.4 77.62,22.19 1.78,31.43 -13.14,64.12 -18.93,95.18 34.3,-0.29 66.87,-2.89 95.22,-25.81l25.32 -29.13 74.12 37.09c-25.26,38.64 -41.97,64.85 -86.68,83.54 -41.5,17.35 -74.9,17.73 -117.05,20.65 -0.05,41.05 -2.59,51.87 10.68,92.69 18.69,57.49 57.52,97.85 117.54,110.95 8.94,1.96 7.44,2.93 12.83,-1.64 15.43,-13.06 27.6,-28.39 38.4,-45.39 17.63,-27.73 92.76,-115 96.69,-137.58 4.76,-27.35 -29.27,-160.68 -38.11,-193.81 -28.2,-105.7 -69.59,-246.57 -159.19,-316.43 -109.08,-85.04 -226.2,20.75 -296.53,102.76 -138.18,161.13 -271.85,407.16 -366.89,598.72 -101.48,204.53 -193.26,421.79 -258.53,640.59z"/>
   <path class="fil3" d="M3785.39 3665.65c69.31,68.33 155.17,133.94 252.91,154.8 20.42,4.36 42.42,7.73 63.36,6.43 27.33,-1.69 28.74,-8.03 62.69,-6.56l18.54 77.04 -8.07 3.2c-58.26,23.07 -168.32,8.64 -236.24,-20.96 37.31,59.25 72.13,164.35 74.53,232.46 -25.06,13.76 -47.24,9.29 -76.99,9.29l-9.99 0 -0.01 -9.99c-0.07,-71.09 -49.68,-167.02 -85.59,-227.37 -17.39,-29.22 -90.34,-134.26 -125.1,-165.71l-24.43 93.82 -25.32 105.78c-12.87,78.02 -19.87,152.32 15.58,225.83l4.01 8.31 -71.76 41.96 -5.22 -7.91c-55.63,-84.38 -39.95,-231.58 -18.43,-325.6 11.48,-50.18 28.5,-98.88 39.95,-149.05l20.84 -133.01 -40.56 42.81c-42.22,39.85 -83.58,66.88 -139.88,81.29 -10.07,-18.41 -21.86,-56.94 -23.55,-77.27 28.51,-18.9 50.5,-22.03 72.87,-37.02 59.69,-39.99 101.63,-103.09 112.78,-174.32 8.65,-55.28 -1.84,-112.47 -22.3,-164.07 -8.7,-21.93 -34.79,-90.92 -55.44,-116.76l-13.18 38.61c-25.92,52.62 -65.85,79.83 -123.27,89.33l-10.29 1.7 -9.95 -80.99c19.38,-10.2 38.05,-13.96 50.99,-24.86 21.74,-18.32 27.72,-52.7 29.88,-79.37 2.89,-35.65 -4.41,-32.91 -28.22,-56.51 -15.63,-15.49 -29.9,-32.3 -45.38,-47.94 -15.51,-15.68 -33.3,-33.23 -46.97,-50.37 -13.78,-17.27 -31.54,-30.86 -45,-48.48l-74.46 -79.76c-24.95,294.58 -17.03,613.64 7.76,908.22 12,142.55 16.07,254.86 100.98,376.91 154.67,222.31 433.08,275.94 688.57,263.21 135.92,-6.77 266.19,-48.38 348.3,-163.16 142.5,-199.2 82.33,-537.65 20.69,-759.77 -66.04,-237.96 -162.81,-470.18 -272.98,-690.93 -94.91,-190.19 -229.37,-436.21 -366.71,-596.25 -70.02,-81.58 -188.59,-188.28 -296.72,-102.96 -90.06,71.06 -130.53,207.33 -158.9,314.1 -9.23,34.74 -43.09,165.33 -39.1,194.67 3.65,26.82 29.83,47.68 45.14,68.63 16.92,23.15 34.62,45.85 50.37,69.82 5.58,8.49 31.89,44.86 41.26,48.91 3.13,1.35 8.72,-0.03 11.79,-0.84 104.33,-27.52 127.39,-107.62 128.81,-203.61 -43.78,-0.09 -77.98,-1.47 -119.55,-22.34 -42.93,-21.56 -59.67,-43.47 -80.47,-84.5l74.87 -35.67c38.11,49.41 59.31,55.56 119.2,55.94 -3.08,-27.01 -16.78,-61.13 -22.52,-96.42l78.86 -25.64c30.26,102.71 50.78,208.15 24.27,314.5 -8.3,33.28 -13.24,40.74 -27.81,67.61 13.31,-1.34 26.61,-3.82 39.95,-4.46l46.48 -2.2c1.4,-69.33 20.42,-128.71 60.31,-185.24 14.91,-21.12 27.84,-36.17 47.15,-51.51l53.29 63.13c-49.17,65.94 -75.04,95.92 -76.85,178.62 106.6,2.86 225.93,50.35 309.95,113.15l8.61 6.44 -55.24 63.65c-53.85,-34.44 -136.64,-79.3 -205.72,-87.6 14.08,20.17 26.03,36.7 36.35,63.47 12.2,31.64 20.11,80.11 -1.09,109.48l-4.89 6.78 -71.54 -34.35c8.02,-44.3 -2.92,-62.87 -29.97,-99.36 -9.08,-12.25 -20.02,-25.48 -30.85,-36.2 -16.47,-16.29 -13.22,-22.07 -37.39,-21.79 -67.99,0.78 -115.72,7.75 -180.46,21.84 -8.02,1.74 -29.25,6.04 -42.29,10.12l52.54 75.05c33.58,50.75 80.3,123.42 107.08,176.73 8.35,16.63 29.89,75.68 41.22,90.28 13.12,0.52 24.17,-2.16 37.37,-2.72 13.44,-0.57 29.77,1.98 43.47,2.97 23.63,1.7 47.25,10.5 70.1,12.61 24.68,-21.89 20.93,-25.07 56.14,-42.82 58.99,-29.75 206.22,-21.35 260.04,5.93l4.98 2.53c1.83,22.13 -10.54,47.41 -17.75,71.37l-2.57 8.53 -62.08 -14.22c-28.52,-5.04 -117.63,-14.58 -149.59,4.48 27.24,18.23 35.98,22.16 62.2,48.11 24.8,24.54 39.69,53.54 57.78,83.37l-6.93 5.48c-10.81,8.55 -50.4,29.09 -63.54,30.68l-5.74 0.69 -22.2 -36.35c-24.6,-33.22 -40.04,-46.56 -76.28,-66.9 -45.61,-25.6 -98.06,-29.34 -149.28,-29.74l25.9 96.66c20.78,84.94 21.96,174.42 14.67,261.29 -2.47,29.43 -6.49,16.43 15.31,38.25 11.11,11.11 20.73,23.57 31.88,34.57z"/>
   <polygon class="fil3" points="3054.29,1762.65 3054.29,2501.37 3162.07,2501.37 3162.07,1762.65 "/>
  </g>
 </g>
</svg>
