<?xml version="1.0" encoding="UTF-8"?>
<svg id="Layer_1" data-name="Layer 1" xmlns="http://www.w3.org/2000/svg" xmlns:xlink="http://www.w3.org/1999/xlink" viewBox="0 0 1862.19 1202.43">
  <defs>
    <style>
      .cls-1 {
        fill: #fff;
      }

      .cls-2 {
        fill: #4292f3;
      }

      .cls-3 {
        fill: #2a437d;
      }

      .cls-4 {
        fill: #59445a;
      }

      .cls-5 {
        fill: #324d90;
      }

      .cls-6 {
        clip-path: url(#clippath-1);
      }

      .cls-7 {
        fill: #eda19d;
      }

      .cls-8 {
        fill: #f08f3c;
      }

      .cls-9 {
        fill: #bedbfa;
      }

      .cls-10 {
        clip-path: url(#clippath);
      }

      .cls-11 {
        fill: #152e60;
      }

      .cls-12 {
        fill: #dcecfd;
      }

      .cls-13 {
        fill: #f4d2c6;
      }

      .cls-14 {
        fill: #f9ce68;
      }

      .cls-15 {
        fill: #3c7ed7;
      }
    </style>
    <clipPath id="clippath">
      <path class="cls-2" d="M183.82,457.51l82.43,66.54,15.56-136.39,35.21-3.51,10.31,173.22c.79,13.33-4.16,26.36-13.6,35.8h0c-13.68,13.68-34.38,17.51-52.05,9.63l-109.04-46.35,31.18-98.95Z"/>
    </clipPath>
    <clipPath id="clippath-1">
      <path class="cls-13" d="M142.71,450.92l4.62-43.23h.01c-41.71-48.73,23.48-113.06,63.88-60.6,22.81,32.85,16,87.77-27.73,82.09l6.85,33.4-47.63-11.66Z"/>
    </clipPath>
  </defs>
  <g>
    <path class="cls-5" d="M632.1,1201.5c-78.07-.36-139.59,14.64-179.35-71.76,31.9-.72,59.95,19.61,85.28,39.01-29.65-26.04-37.36-69.37-34.99-108.75,32.91,27.96,64.36,59.62,81.29,99.35-2.54-29.58-4.96-60.18,4.66-88.26,32.83,30.74,50.56,86.07,43.11,130.42Z"/>
    <g>
      <polygon class="cls-2" points="1169.33 412.63 1043.79 584.41 862.04 621.67 862.04 899.39 569.63 1201.49 1183.7 1201.49 1314.17 599.92 1169.33 412.63"/>
      <polygon class="cls-9" points="1406.98 229.65 1169.33 412.63 1219.25 599.92 1022.28 715.96 1001.7 1004.45 737.52 1201.49 1663.4 1201.49 1719.52 715.57 1592.81 595.06 1543 350.88 1406.98 229.65"/>
      <polygon class="cls-2" points="1543 350.88 1353.51 545.31 1393.27 605.24 1393.27 848.69 1528.38 887.1 1534.78 864.66 1438.81 811.36 1465.85 598.28 1393.27 552.46 1559.01 429.37 1543 350.88"/>
      <polygon class="cls-2" points="1048.74 1201.49 1235.19 964.09 1525.19 932.36 1429.58 977.14 1559.01 1072.75 1326.71 1019.5 1193.58 1066.93 1168.17 1201.49 1048.74 1201.49"/>
      <polygon class="cls-12" points="1219.25 599.92 1274.43 573.03 1303.87 647.38 1199.97 851.57 1228.52 851.57 1359.92 640.6 1303.87 510.98 1222.03 510.98 1169.33 412.63 1219.25 599.92"/>
      <polygon class="cls-12" points="1534.78 864.66 1546.83 815.05 1613.72 887.1 1589.56 1034.28 1569.13 1026.85 1583.99 887.1 1534.78 864.66"/>
      <polygon class="cls-12" points="1064.63 691.01 1091.46 887.1 1048.74 1034.28 923.48 1172.67 1001.7 1004.45 1022.28 715.96 1064.63 691.01"/>
      <polygon class="cls-2" points="1719.52 715.57 1791.71 945.88 1784.83 1201.49 1663.4 1201.49 1719.52 715.57"/>
    </g>
    <path class="cls-5" d="M1758.18,1201.49s86.51-19.83,104.01-88.85c0,0-64.09,12.72-83.6,34.02,0,0,51.52-58.33,47.63-132.2,0,0-77.77,42.77-82.63,98.18,0,0-2.35-75.57-62.42-135.96,0,0-16.32,94.16,7.98,155.41,0,0-48.6-43.74-100.12-53.46,0,0-.97,75.82,76.79,88.46,0,0-39.86-17.5-89.43-14.58,49.02,49.43,95.41,52.27,181.78,49Z"/>
    <g>
      <polygon class="cls-3" points="1421.49 224.31 1489.21 372.76 1455.35 372.76 1398.4 249.96 1421.49 224.31"/>
      <polygon class="cls-3" points="1311.19 224.31 1243.47 372.76 1277.33 372.76 1334.28 249.96 1311.19 224.31"/>
      <g>
        <path class="cls-8" d="M1451.69,4.06c-130.4-31.02-274.82,319.33-116.46,355.03,130.39,31.01,274.81-319.33,116.46-355.03Z"/>
        <g>
          <path class="cls-14" d="M1312.82,356.96c-158.36-35.72-13.89-386.09,116.48-355.02,158.35,35.71,13.88,386.08-116.48,355.02Z"/>
          <path class="cls-1" d="M1325.62,317.94c-123.55-27.87-10.83-301.22,90.88-276.98,123.54,27.86,10.83,301.22-90.88,276.98Z"/>
          <path class="cls-14" d="M1338.43,278.92c-88.74-20.02-7.78-216.35,65.27-198.94,88.73,20.01,7.78,216.35-65.27,198.94Z"/>
          <path class="cls-1" d="M1351.23,239.91c-53.93-12.16-4.73-131.49,39.67-120.9,53.93,12.16,4.73,131.48-39.67,120.9Z"/>
          <path class="cls-14" d="M1384.77,181.57c-3.88,11.84-13.17,20.48-20.74,19.31-19.13-4.29-1.68-46.64,14.06-42.87,7.57,1.17,10.56,11.72,6.68,23.55Z"/>
        </g>
      </g>
    </g>
  </g>
  <g>
    <path class="cls-11" d="M214.36,1159.89l3.67,12.84,39.6,16.97c4.72,2.02,7.78,6.66,7.78,11.79h-81.79l3.1-41.61h27.64Z"/>
    <path class="cls-11" d="M30.74,1159.89l3.67,12.84,39.6,16.97c4.72,2.02,7.78,6.66,7.78,11.79H0l3.1-41.61H30.74Z"/>
    <g>
      <g>
        <path class="cls-2" d="M183.82,457.51l82.43,66.54,15.56-136.39,35.21-3.51,10.31,173.22c.79,13.33-4.16,26.36-13.6,35.8h0c-13.68,13.68-34.38,17.51-52.05,9.63l-109.04-46.35,31.18-98.95Z"/>
        <g class="cls-10">
          <path class="cls-15" d="M190.34,462.58s62.62,71.02,71.35,140.23c8.73,69.2,0,0,0,0l-78.96-22.41,7.61-117.81"/>
        </g>
      </g>
      <path class="cls-5" d="M263.8,864.2l-39.84-187.51H53.67L0,1167.28H38.93l102.46-363.05,40.54,87.96,1.11,276.52h40.91l40.68-278.58c1.26-8.63,.98-17.41-.84-25.93Z"/>
      <path class="cls-3" d="M141.4,804.23l15.08-58.66c69.78,169.43,59.45,128.59,26.1,305.89l-.64-159.27-40.54-87.96Z"/>
      <g>
        <g>
          <path class="cls-13" d="M142.71,450.92l4.62-43.23h.01c-41.71-48.73,23.48-113.06,63.88-60.6,22.81,32.85,16,87.77-27.73,82.09l6.85,33.4-47.63-11.66Z"/>
          <g class="cls-6">
            <path class="cls-7" d="M183.49,429.18s-9.58-4.12-11.65-9.67c0,0,27.11,11.4,43.73-1.76,16.62-13.16,0,0,0,0,0,0-10.83,17.29-32.08,11.43"/>
            <path class="cls-7" d="M175.89,368.65s15.33-22.54,45.75-11.71c0,0-13.86-23.28-19.98-25.88-6.12-2.59-21.78,14.29-21.78,14.29l-3.99,23.29Z"/>
          </g>
        </g>
        <path class="cls-4" d="M178.24,367.38s9.92-32.16,24.86-29.6c-23.28-38-100.29,5.83-79.97,47.06,8.22,14.48,23.38,30.5,23.38,30.5,0,0,14.78-2.35,14.98-4.28,.2-1.93,5.46-26.53,5.46-26.53l11.29-17.16Z"/>
        <path class="cls-13" d="M182.27,378.83c-3.71,12.61-23.43,6.48-19.34-6.01,3.71-12.6,23.42-6.48,19.34,6.01Z"/>
      </g>
      <path class="cls-2" d="M232.85,675.09l-41.73-220.28-48.79-27.88c-81.57,14.08-102.24,258.72-105.64,282.73,0,0,98.86,31.91,196.16-34.57Z"/>
      <polygon class="cls-5" points="191.13 454.81 186.39 458.5 203.1 594.23 243.89 627.69 241.14 575.03 191.13 454.81"/>
      <g>
        <rect class="cls-5" x="349.76" y="305.59" width="138.71" height="64.31" transform="translate(-43.02 61.77) rotate(-8.02)"/>
        <rect class="cls-3" x="267.39" y="329.95" width="83.72" height="46.53" transform="translate(-46.25 46.6) rotate(-8.02)"/>
        <rect class="cls-11" x="204.34" y="352.39" width="63.77" height="22.23" transform="translate(-48.4 36.51) rotate(-8.02)"/>
        <rect class="cls-11" x="482.92" y="286.96" width="14.1" height="81.07" transform="translate(-40.9 71.56) rotate(-8.02)"/>
      </g>
      <g>
        <g>
          <path class="cls-8" d="M491.33,648.82l-118.38,19.25c-13,2.11-24.15,10.45-29.84,22.33l-33.08,68.95,15.39,20.58,38.31-73.99c3.73-7.2,10.24-12.56,18.02-14.85l115.32-33.8c2.46-4.12-1.01-9.24-5.75-8.47Z"/>
          <path class="cls-8" d="M92.63,947.03l51.91-108.12c5.7-11.87,16.85-20.21,29.85-22.32l75.48-12.25,15.39,20.58-81.8,15.85c-7.96,1.54-14.95,6.27-19.33,13.09l-65.01,101.07c-4.65,1.2-8.57-3.58-6.5-7.9Z"/>
          <rect class="cls-3" x="274.69" y="754.78" width="26.21" height="75.12" transform="translate(749.92 87.31) rotate(53.21)"/>
        </g>
        <path class="cls-5" d="M497.07,657.29c-126.9,96.11-269.9,203.07-397.95,297.64,126.9-96.12,269.9-203.07,397.95-297.64h0Z"/>
      </g>
      <path class="cls-1" d="M191.13,454.81l-14.93,11.61s-44.86-19.09-33.87-39.49l48.79,27.88Z"/>
      <path class="cls-13" d="M285.27,387.32c.77-.67-22.08-37.36-2.52-23.82,0,0,13.44,15.05,13.44,15.05l22.6-3.18-4.99,9.11-28.52,2.84Z"/>
      <path class="cls-2" d="M152.64,488.71l8.73,138.99,127.29,139.3-30.62,23.42c-16.23-13.59-144.55-97.55-152.7-114.53h0c-24.56-27.13-19.42-117.42-24.72-151.15l72.01-36.02Z"/>
      <path class="cls-15" d="M147.76,711.83c-59.35-43.8-58.41-63.4-62.94-131.15-12.19,72.16-36.58,94.67,47.88,133.9l15.06-2.75Z"/>
      <polygon class="cls-15" points="215.14 686.13 161.38 627.69 157.88 572.12 179.08 627.69 224.74 680.4 215.14 686.13"/>
      <path class="cls-13" d="M282.97,769.73s18.18,2.78,20.74,5.99c1.64,2.05,4.15,14.38,5.75,23.03,.94,5.06-1.63,10.12-6.28,12.34-34.56,18.18-25.53,9.38-42.47-22.72l22.26-18.64Z"/>
    </g>
  </g>
  <g>
    <g>
      <g>
        <polygon class="cls-2" points="389.86 987.8 387.17 997.22 368.77 978.93 371.46 969.51 389.86 987.8"/>
        <polygon class="cls-1" points="392.56 978.32 389.87 987.74 371.47 969.45 374.16 960.03 392.56 978.32"/>
        <polygon class="cls-2" points="395.24 968.93 392.55 978.35 374.15 960.06 376.84 950.64 395.24 968.93"/>
        <polygon class="cls-1" points="397.89 959.63 395.21 969.05 376.8 950.76 379.49 941.34 397.89 959.63"/>
        <polygon class="cls-2" points="400.57 950.24 397.88 959.66 379.48 941.37 382.17 931.95 400.57 950.24"/>
      </g>
      <g>
        <polygon class="cls-2" points="425.27 954.43 427.95 945.01 402.67 950.84 399.99 960.26 425.27 954.43"/>
        <polygon class="cls-1" points="422.56 963.91 425.25 954.48 399.97 960.32 397.28 969.74 422.56 963.91"/>
        <polygon class="cls-2" points="419.88 973.3 422.57 963.88 397.29 969.71 394.6 979.13 419.88 973.3"/>
        <polygon class="cls-1" points="417.23 982.6 419.92 973.17 394.64 979.01 391.95 988.43 417.23 982.6"/>
        <polygon class="cls-2" points="414.55 991.99 417.24 982.57 391.96 988.4 389.27 997.82 414.55 991.99"/>
      </g>
      <polygon class="cls-11" points="404.58 951.26 333.22 1201.49 326.87 1201.54 398.72 949.59 404.58 951.26"/>
    </g>
    <path class="cls-11" d="M358.59,883.2l.67-9.78c-31.98,14.08-17.78,14.99-47.5-3.25l-.67,9.78h0l-.66,9.61h0l-.67,9.75h0l-.67,9.78,19.93,12.85v.06s-19.93-12.85-19.93-12.85l-.67,9.78,19.93,12.85-14.61,269.71h5.95s14.74-269.3,14.74-269.3l21.49-10.02,.67-9.78h0l.67-9.75h0l.66-9.64h0l.67-9.75-21.49,10.02v-.06s21.49-10.02,21.49-10.02Z"/>
    <g>
      <g>
        <polygon class="cls-2" points="291.08 978.88 291.23 988.68 268.33 976.48 268.18 966.68 291.08 978.88"/>
        <polygon class="cls-1" points="290.93 969.02 291.08 978.82 268.18 966.63 268.03 956.83 290.93 969.02"/>
        <polygon class="cls-2" points="290.78 959.26 290.93 969.05 268.03 956.86 267.88 947.06 290.78 959.26"/>
        <polygon class="cls-1" points="290.64 949.59 290.79 959.39 267.89 947.19 267.74 937.4 290.64 949.59"/>
        <polygon class="cls-2" points="290.49 939.82 290.64 949.62 267.74 937.42 267.59 927.63 290.49 939.82"/>
      </g>
      <g>
        <polygon class="cls-2" points="315.34 936.7 315.19 926.9 292.67 939.79 292.82 949.59 315.34 936.7"/>
        <polygon class="cls-1" points="315.49 946.56 315.34 936.76 292.82 949.65 292.97 959.44 315.49 946.56"/>
        <polygon class="cls-2" points="315.64 956.33 315.49 946.53 292.97 959.41 293.12 969.21 315.64 956.33"/>
        <polygon class="cls-1" points="315.79 965.99 315.64 956.19 293.12 969.08 293.27 978.88 315.79 965.99"/>
        <polygon class="cls-2" points="315.93 975.76 315.79 965.96 293.27 978.85 293.42 988.64 315.93 975.76"/>
      </g>
      <rect class="cls-11" x="162.58" y="1067.63" width="261.99" height="6.09" transform="translate(-772.52 1380.48) rotate(-90.87)"/>
    </g>
  </g>
</svg>